# Made in Blockbench 5.2.1
mtllib CPU.mtl

o CPU
v -1.803155 0.31492875 0
v -1.703473125 1 0
v -1.703473125 1 -1.390185
v -1.803155 0.31492875 -1.496356875
v -1.494681875 0.31492875 -1.496356875
v -1.494681875 1 -1.390185
v 1.201421875 1 -1.390185
v 1.201421875 0.31492875 -1.496356875
v -1.49522625 0 -1.596941875
v -1.49522625 0.217 -1.596941875
v 1.10253 0.217 -1.596941875
v 1.10253 0 -1.596941875
v -1.898155 0 0
v -1.898155 0.217 0
v -1.898155 0.217 -1.596941875
v -1.898155 0 -1.596941875
v -1.49522625 0 0
v -1.494681875 1 0
v 1.201421875 1 0
v 1.201421875 0.31492875 0
v 1.10253 0.217 0
v 1.10253 0 0
v -1.803155 0.31492875 1.496356875
v -1.703473125 1 1.390185
v -1.494681875 0.31492875 1.496356875
v 1.201421875 0.31492875 1.496356875
v 1.201421875 1 1.390185
v -1.494681875 1 1.390185
v -1.49522625 0 1.596941875
v 1.10253 0 1.596941875
v 1.10253 0.217 1.596941875
v -1.49522625 0.217 1.596941875
v -1.898155 0 1.596941875
v -1.898155 0.217 1.596941875
vt 0.576171875 0.5540898437499999
vt 0.576171875 0.640625
vt 0.4023984375 0.640625
vt 0.38912734375 0.5540898437499999
vt 0.338680078125 0.45240625
vt 0.338680078125 0.5390625
vt 0.001666796875 0.5390625
vt 0.001666796875 0.45240625
vt 0.3266296875 0.31662500000000005
vt 0.3266296875 0.34375
vt 0.00191015625 0.34375
vt 0.00191015625 0.31662500000000005
vt 0.583984375 0.39475000000000005
vt 0.583984375 0.421875
vt 0.38436640625 0.421875
vt 0.38436640625 0.39475000000000005
vt 0.752732421875 0.28713984375
vt 0.752664453125 0.3046875
vt 0.415651171875 0.3046875
vt 0.428012890625 0.28713984375
vt 0.576171875 0.5370359375
vt 0.576171875 0.5540898437499999
vt 0.38912734375 0.5540898437499999
vt 0.37655390625 0.5370359375
vt 0.803098828125 0.28713984375
vt 0.791223828125 0.3046875
vt 0.752664453125 0.3046875
vt 0.752732421875 0.28713984375
vt 0.37699609375 0.31662500000000005
vt 0.37699609375 0.34375
vt 0.3266296875 0.34375
vt 0.3266296875 0.31662500000000005
vt 0.377239453125 0.45240625
vt 0.364779296875 0.5390625
vt 0.338680078125 0.5390625
vt 0.338680078125 0.45240625
vt 0.00191015625 0.59765625
vt 0.0522765625 0.59765625
vt 0.0522765625 0.79727421875
vt 0.00191015625 0.79727421875
vt 0.757728125 1
vt 0.41346390625 1
vt 0.41346390625 0.8242734375
vt 0.757728125 0.8242734375
vt 0.40078984375 0.28515625
vt 0.38821640625 0.302553125
vt 0.201171875 0.302553125
vt 0.201171875 0.28515625
vt 0.78360234375 0.35568750000000005
vt 0.78360234375 0.3828125
vt 0.583984375 0.3828125
vt 0.583984375 0.35568750000000005
vt 0.41346390625 1
vt 0.386803125 1
vt 0.386803125 0.8242734375
vt 0.41346390625 0.8242734375
vt 0.0522765625 0.59765625
vt 0.37699609375 0.59765625
vt 0.37699609375 0.79727421875
vt 0.0522765625 0.79727421875
vt 0.37454453125 0.35186640625
vt 0.3612734375 0.4375
vt 0.1875 0.4375
vt 0.1875 0.35186640625
vt 0.576171875 0.5540898437499999
vt 0.76321640625 0.5540898437499999
vt 0.7499453125 0.640625
vt 0.576171875 0.640625
vt 0.430851171875 0.43678125
vt 0.767864453125 0.43678125
vt 0.767864453125 0.5234375
vt 0.430851171875 0.5234375
vt 0.4429015625 0.31662500000000005
vt 0.76762109375 0.31662500000000005
vt 0.76762109375 0.34375
vt 0.4429015625 0.34375
vt 0.583984375 0.39475000000000005
vt 0.78360234375 0.39475000000000005
vt 0.78360234375 0.421875
vt 0.583984375 0.421875
vt 0.051955078125 0.25588984375
vt 0.376674609375 0.25588984375
vt 0.389036328125 0.2734375
vt 0.052023046875 0.2734375
vt 0.576171875 0.5370359375
vt 0.77578984375 0.5370359375
vt 0.76321640625 0.5540898437499999
vt 0.576171875 0.5540898437499999
vt 0.001588671875 0.25588984375
vt 0.051955078125 0.25588984375
vt 0.052023046875 0.2734375
vt 0.013463671875 0.2734375
vt 0.39253515625 0.31662500000000005
vt 0.4429015625 0.31662500000000005
vt 0.4429015625 0.34375
vt 0.39253515625 0.34375
vt 0.392291796875 0.43678125
vt 0.430851171875 0.43678125
vt 0.430851171875 0.5234375
vt 0.404751953125 0.5234375
vt 0.00191015625 0.9968921875
vt 0.00191015625 0.79727421875
vt 0.0522765625 0.79727421875
vt 0.0522765625 0.9968921875
vt 0.757728125 0.6485468750000001
vt 0.757728125 0.8242734375
vt 0.41346390625 0.8242734375
vt 0.41346390625 0.6485468750000001
vt 0.00155390625 0.28515625
vt 0.201171875 0.28515625
vt 0.201171875 0.302553125
vt 0.01412734375 0.302553125
vt 0.38436640625 0.35568750000000005
vt 0.583984375 0.35568750000000005
vt 0.583984375 0.3828125
vt 0.38436640625 0.3828125
vt 0.41346390625 0.6485468750000001
vt 0.41346390625 0.8242734375
vt 0.386803125 0.8242734375
vt 0.386803125 0.6485468750000001
vt 0.0522765625 0.9968921875
vt 0.0522765625 0.79727421875
vt 0.37699609375 0.79727421875
vt 0.37699609375 0.9968921875
vt 0.00045546875 0.35186640625
vt 0.1875 0.35186640625
vt 0.1875 0.4375
vt 0.0137265625 0.4375
vn -0.9895792062284052 0.14398956420643727 0
vn 0 0.15315099572490018 -0.9882027992818436
vn 0 0 -1
vn -1 0 0
vn 0 0.7165042148734191 -0.6975827621641932
vn -0.7177582999667145 0.6962923400619111 0
vn 0 0.7165042148734191 -0.6975827621641932
vn 0 0 -1
vn 0 0.15315099572490018 -0.9882027992818437
vn 0 -1 0
vn 0 1 0
vn 0.7036381898147864 -0.7105584408295849 0
vn 1 0 0
vn 0 1 0
vn 0 -1 0
vn 1 0 0
vn -0.9895792062284051 0.14398956420643727 0
vn 0 0.15315099572490018 0.9882027992818436
vn 0 0 1
vn -1 0 0
vn 0 0.716504214873419 0.6975827621641932
vn -0.7177582999667145 0.6962923400619111 0
vn 0 0.7165042148734191 0.6975827621641932
vn 0 0 1
vn 0 0.15315099572490015 0.9882027992818436
vn 0 -1 0
vn 0 1 0
vn 0.7036381898147864 -0.7105584408295849 0
vn 1 0 0
vn 0 1 0
vn 0 -1 0
vn 1 0 0
usemtl m_713f240d-cf5c-9622-f275-a01ff6e9b50c
f 1/1/1 2/2/1 3/3/1 4/4/1
f 5/5/2 6/6/2 7/7/2 8/8/2
f 9/9/3 10/10/3 11/11/3 12/12/3
f 13/13/4 14/14/4 15/15/4 16/16/4
f 10/17/5 5/18/5 8/19/5 11/20/5
f 14/21/6 1/22/6 4/23/6 15/24/6
f 15/25/7 4/26/7 5/27/7 10/28/7
f 16/29/8 15/30/8 10/31/8 9/32/8
f 4/33/9 3/34/9 6/35/9 5/36/9
f 16/37/10 9/38/10 17/39/10 13/40/10
f 7/41/11 6/42/11 18/43/11 19/44/11
f 11/45/12 8/46/12 20/47/12 21/48/12
f 12/49/13 11/50/13 21/51/13 22/52/13
f 6/53/14 3/54/14 2/55/14 18/56/14
f 9/57/15 12/58/15 22/59/15 17/60/15
f 8/61/16 7/62/16 19/63/16 20/64/16
f 1/65/17 23/66/17 24/67/17 2/68/17
f 25/69/18 26/70/18 27/71/18 28/72/18
f 29/73/19 30/74/19 31/75/19 32/76/19
f 13/77/20 33/78/20 34/79/20 14/80/20
f 32/81/21 31/82/21 26/83/21 25/84/21
f 14/85/22 34/86/22 23/87/22 1/88/22
f 34/89/23 32/90/23 25/91/23 23/92/23
f 33/93/24 29/94/24 32/95/24 34/96/24
f 23/97/25 25/98/25 28/99/25 24/100/25
f 33/101/26 13/102/26 17/103/26 29/104/26
f 27/105/27 19/106/27 18/107/27 28/108/27
f 31/109/28 21/110/28 20/111/28 26/112/28
f 30/113/29 22/114/29 21/115/29 31/116/29
f 28/117/30 18/118/30 2/119/30 24/120/30
f 29/121/31 17/122/31 22/123/31 30/124/31
f 26/125/32 20/126/32 19/127/32 27/128/32