# Made in Blockbench 5.2.1
mtllib Keyboard.mtl

o Keyboard
v 2.585373125 0.23118625 -1.10112875
v 1.40082125 0 -1.49665375
v 1.40082125 0.244461875 -1.49665375
v 1.40082125 0.244461875 -1.62276125
v 1.40082125 0 -1.62276125
v 2.49773375 0 -1.62276125
v 2.49773375 0.198495 -1.62276125
v 2.59861 0.168753125 -1.62276125
v 2.59861 0 -1.62276125
v 1.49744125 0.27420375 -1.62276125
v 1.49744125 0 -1.62276125
v 2.64767 0.168753125 -1.49665375
v 2.64767 0 -1.49665375
v 2.546793125 0 -1.49665375
v 1.49745375 0.274221875 -1.49664125
v 2.546783125 0.19851375 -1.496641875
v 1.49744125 0 -1.49665375
v 1.40082125 0 -1.102828125
v 1.40082125 0.244461875 -1.102828125
v 2.60753375 0 -1.102828125
v 1.49744125 0 -1.102828125
v 2.60753375 0.198495 -1.102828125
v 2.70841 0.168753125 -1.102828125
v 1.49744125 0.27420375 -1.102828125
v 2.70841 0 -1.102828125
v 1.40082125 0 0
v 1.40082125 0.244461875 0
v 2.475265 0.23489125 -1.47444
v 1.57213375 0.300125 -1.47444125
v 1.577065 0.37108375 -1.474443125
v 2.480195 0.30585 -1.474441875
v 1.519608125 0.303905 -1.42177875
v 1.519601875 0.30382 -1.102828125
v 1.524531875 0.37478 -1.10283
v 1.524538125 0.374865 -1.42178125
v 1.519601875 0.30382 0
v 1.49744125 0.27420375 0
v 2.53582 0.23110875 -1.42239125
v 2.54075 0.30206875 -1.422391875
v 2.590303125 0.30214625 -1.10113125
v 2.481628125 0.309551875 -1.10130375
v 2.585373125 0.23118625 0
v 2.590303125 0.302145 0
v 2.48161125 0.309553125 0
v 1.577075 0.37119875 -1.10274625
v 1.57709625 0.371198125 0
v 1.524531875 0.37478 0
v 2.60753375 0.198495 0
v 2.60753375 0 0
v 1.49744125 0 0
v 2.70841 0.168753125 0
v 2.70841 0 0
v 1.40082125 0 1.49665375
v 1.40082125 0 1.62276125
v 1.40082125 0.244461875 1.62276125
v 1.40082125 0.244461875 1.49665375
v 2.49773375 0 1.62276125
v 2.59861 0 1.62276125
v 2.59861 0.168753125 1.62276125
v 2.49773375 0.198495 1.62276125
v 1.49744125 0 1.62276125
v 1.49744125 0.27420375 1.62276125
v 2.64767 0 1.49665375
v 2.64767 0.168753125 1.49665375
v 2.546793125 0 1.49665375
v 1.49745375 0.274221875 1.49664125
v 2.546783125 0.19851375 1.496641875
v 1.49744125 0 1.49665375
v 1.40082125 0 1.102828125
v 1.40082125 0.244461875 1.102828125
v 1.49744125 0 1.102828125
v 2.60753375 0 1.102828125
v 2.70841 0.168753125 1.102828125
v 2.60753375 0.198495 1.102828125
v 1.49744125 0.27420375 1.102828125
v 2.70841 0 1.102828125
v 2.475265 0.23489125 1.47444
v 2.480195 0.30585 1.474441875
v 1.577065 0.37108375 1.474443125
v 1.57213375 0.300125 1.47444125
v 1.519608125 0.303905 1.42177875
v 1.524538125 0.374865 1.42178125
v 1.524531875 0.37478 1.10283
v 1.519601875 0.30382 1.102828125
v 2.585373125 0.23118625 1.10112875
v 2.53582 0.23110875 1.42239125
v 2.590303125 0.30214625 1.10113125
v 2.54075 0.30206875 1.422391875
v 2.481628125 0.309551875 1.10130375
v 1.577075 0.37119875 1.10274625
vt 0.18791796875 0.6413171875
vt 0.18791796875 0.671875
vt 0.1721546875 0.671875
vt 0.1721546875 0.6413171875
vt 0.045169921875 0.94228671875
vt 0.045169921875 0.9670984375
vt 0.032559765625 0.96338046875
vt 0.032559765625 0.94228671875
vt 0.182283984375 0.94228671875
vt 0.182283984375 0.97284453125
vt 0.170205859375 0.9765625
vt 0.170205859375 0.94228671875
vt 0.170205859375 0.94228671875
vt 0.170205859375 0.9765625
vt 0.045169921875 0.9670984375
vt 0.045169921875 0.94228671875
vt 0.58153125 0.6107421875
vt 0.58153125 0.6318359375
vt 0.5646171875 0.6318359375
vt 0.5646171875 0.6107421875
vt 0.137420703125 0.4140625
vt 0.150030859375 0.4140625
vt 0.156162890625 0.42982578125000004
vt 0.143553515625 0.42982578125000004
vt 0.409886328125 0.98653875
vt 0.40991203125 0.99917625
vt 0.39414875 0.99920828125
vt 0.3941215625 0.98656921875
vt 0.409637109375 0.861145
vt 0.409886328125 0.98653875
vt 0.394121484375 0.98656921875
vt 0.393860546875 0.85506296875
vt 0.000306640625 0.4140625
vt 0.012384765625 0.4140625
vt 0.012384765625 0.42982578125000004
vt 0.000306640625 0.42982578125000004
vt 0.4098075 0.84995328125
vt 0.409637109375 0.863098125
vt 0.393854453125 0.85701375
vt 0.394025703125 0.84386671875
vt 0.012384765625 0.4140625
vt 0.137420703125 0.4140625
vt 0.143553515625 0.42982578125000004
vt 0.012384765625 0.42982578125000004
vt 0.237146875 0.6413171875
vt 0.237146875 0.671875
vt 0.18791796875 0.671875
vt 0.18791796875 0.6413171875
vt 0.012384765625 0.42982578125000004
vt 0.143553515625 0.42982578125000004
vt 0.151145703125 0.4790546875
vt 0.012384765625 0.4790546875
vt 0.39399 0.84354890625
vt 0.39398796875 0.8566975
vt 0.344715 0.849413046875
vt 0.344715 0.83626734375
vt 0.000306640625 0.42982578125000004
vt 0.012384765625 0.42982578125000004
vt 0.012384765625 0.4790546875
vt 0.000306640625 0.4790546875
vt 0.3941215625 0.98656921875
vt 0.39414875 0.99920828125
vt 0.34492 0.99930828125
vt 0.344894296875 0.986671640625
vt 0.143553515625 0.42982578125000004
vt 0.156162890625 0.42982578125000004
vt 0.163755859375 0.4790546875
vt 0.151145703125 0.4790546875
vt 0.5646171875 0.6107421875
vt 0.5646171875 0.6318359375
vt 0.51480625 0.6318359375
vt 0.51480625 0.6107421875
vt 0.375 0.6413171875
vt 0.375 0.671875
vt 0.237146875 0.671875
vt 0.237146875 0.6413171875
vt 0.18157421875 0.87066703125
vt 0.294465625 0.87882171875
vt 0.29384921875 0.88769125
vt 0.18095859375 0.87953734375
vt 0.4218875 0.834855859375
vt 0.46175625 0.8348492187500001
vt 0.46175546875 0.843740625
vt 0.42188671875 0.843747265625
vt 0.599609375 0.8348492187500001
vt 0.46175625 0.8348492187500001
vt 0.46175625 0.83022578125
vt 0.599609375 0.83022578125
vt 0.5449 0.5912580468749999
vt 0.5355471875 0.5953984375
vt 0.495063046875 0.591924921875
vt 0.495274765625 0.586988203125
vt 0.73725078125 0.98871875
vt 0.77788125 0.98828453125
vt 0.77788046875 0.997175625
vt 0.73725078125 0.997609921875
vt 0.535221796875 0.69295984375
vt 0.5417278125 0.70054375
vt 0.49508375 0.7003959375
vt 0.4950625 0.68677953125
vt 0.599609375 0.98871875
vt 0.73725078125 0.98871875
vt 0.73725078125 0.99761015625
vt 0.599609375 0.99761015625
vt 0.303863984375 0.876653125
vt 0.294465 0.88077484375
vt 0.18157421875 0.87262015625
vt 0.172698515625 0.8671875
vt 0.46175625 0.8348492187500001
vt 0.4218875 0.8348625000000001
vt 0.4125296875 0.83023359375
vt 0.46175625 0.83022578125
vt 0.20703125 0.944881640625
vt 0.202704375 0.953125
vt 0.1965909375 0.944881640625
vt 0.54341546875 0.60155796875
vt 0.535546953125 0.5953985937499999
vt 0.5449 0.5912580468749999
vt 0.20703125 0.96484375
vt 0.20703125 0.97373578125
vt 0.1953125 0.97378828125
vt 0.1953125 0.96489703125
vt 0.2265625 0.944233828125
vt 0.2265625 0.953125
vt 0.21875 0.953108828125
vt 0.21875 0.944217578125
vt 0.35742125 0.7003990625000001
vt 0.49508375 0.7003951562499999
vt 0.49526546875 0.8137271875000001
vt 0.3574225 0.813725625
vt 0.3574225 0.813725625
vt 0.49526546875 0.8137271875000001
vt 0.495275625 0.82031078125
vt 0.3574225 0.8203115625
vt 0.49508375 0.7003951562499999
vt 0.541727734375 0.70054171875
vt 0.541725625 0.81372734375
vt 0.49526546875 0.8137257812500001
vt 0.49526546875 0.8137271875000001
vt 0.54172765625 0.813730390625
vt 0.535143984375 0.8203125
vt 0.495275625 0.820310078125
vt 0.46175625 0.8348492187500001
vt 0.599609375 0.8348492187500001
vt 0.599609375 0.843740625
vt 0.46175546875 0.843740625
vt 0.4950625 0.68677953125
vt 0.49508375 0.7003951562499999
vt 0.35742125 0.7003990625000001
vt 0.35742109375 0.6867803125
vt 0.495063046875 0.591924921875
vt 0.357421640625 0.591924921875
vt 0.357421640625 0.586988203125
vt 0.495274765625 0.586988203125
vt 0.012384765625 0.4790546875
vt 0.151145703125 0.4790546875
vt 0.151145703125 0.6169078125
vt 0.012384765625 0.6169078125
vt 0.344769609375 0.8360394531249999
vt 0.344769609375 0.849185546875
vt 0.206916484375 0.849185546875
vt 0.206916484375 0.8360394531249999
vt 0.000306640625 0.4790546875
vt 0.012384765625 0.4790546875
vt 0.012384765625 0.6169078125
vt 0.000306640625 0.6169078125
vt 0.344894296875 0.986670859375
vt 0.34492 0.99930828125
vt 0.207067109375 0.999588359375
vt 0.207041484375 0.9869509375
vt 0.151145703125 0.4790546875
vt 0.163755859375 0.4790546875
vt 0.163755859375 0.6169078125
vt 0.151145703125 0.6169078125
vt 0.51480625 0.6107421875
vt 0.51480625 0.6318359375
vt 0.376953125 0.6318359375
vt 0.376953125 0.6107421875
vt 0.56208203125 0.6413171875
vt 0.5778453125 0.6413171875
vt 0.5778453125 0.671875
vt 0.56208203125 0.671875
vt 0.169673828125 0.89541171875
vt 0.182283984375 0.89541171875
vt 0.182283984375 0.91650546875
vt 0.169673828125 0.9202234375
vt 0.032559765625 0.89541171875
vt 0.044637890625 0.89541171875
vt 0.044637890625 0.9296875
vt 0.032559765625 0.92596953125
vt 0.044637890625 0.89541171875
vt 0.169673828125 0.89541171875
vt 0.169673828125 0.9202234375
vt 0.044637890625 0.9296875
vt 0.172375 0.6107421875
vt 0.1892890625 0.6107421875
vt 0.1892890625 0.6318359375
vt 0.172375 0.6318359375
vt 0.137420703125 0.819753125
vt 0.143553515625 0.8039898437499999
vt 0.156162890625 0.8039898437499999
vt 0.150030859375 0.819753125
vt 0.00419734375 0.98736328125
vt 0.019962109375 0.987329296875
vt 0.01998625 0.999968359375
vt 0.004222265625 1
vt 0.00396171875 0.861976328125
vt 0.019733671875 0.855861875
vt 0.019724453125 0.987369453125
vt 0.003965859375 0.987369453125
vt 0.000306640625 0.819753125
vt 0.000306640625 0.8039898437499999
vt 0.012384765625 0.8039898437499999
vt 0.012384765625 0.819753125
vt 0.003821015625 0.848736796875
vt 0.01968 0.8428564843749999
vt 0.01968 0.856004765625
vt 0.003819453125 0.861883125
vt 0.012384765625 0.819753125
vt 0.012384765625 0.8039898437499999
vt 0.143553515625 0.8039898437499999
vt 0.137420703125 0.819753125
vt 0.512853125 0.6413171875
vt 0.56208203125 0.6413171875
vt 0.56208203125 0.671875
vt 0.512853125 0.671875
vt 0.012384765625 0.8039898437499999
vt 0.012384765625 0.7547609375
vt 0.151145703125 0.7547609375
vt 0.143553515625 0.8039898437499999
vt 0.0198 0.8429578125
vt 0.069165078125 0.8363080468749999
vt 0.068995859375 0.84945375
vt 0.01963328125 0.856104765625
vt 0.000306640625 0.8039898437499999
vt 0.000306640625 0.7547609375
vt 0.012384765625 0.7547609375
vt 0.012384765625 0.8039898437499999
vt 0.019962109375 0.987329296875
vt 0.06918859375 0.987231015625
vt 0.069214296875 0.999867734375
vt 0.01998625 0.999968359375
vt 0.143553515625 0.8039898437499999
vt 0.151145703125 0.7547609375
vt 0.163755859375 0.7547609375
vt 0.156162890625 0.8039898437499999
vt 0.1892890625 0.6107421875
vt 0.2391 0.6107421875
vt 0.2391 0.6318359375
vt 0.1892890625 0.6318359375
vt 0.375 0.6413171875
vt 0.512853125 0.6413171875
vt 0.512853125 0.671875
vt 0.375 0.671875
vt 0.154363359375 0.864808046875
vt 0.154978984375 0.8736783593749999
vt 0.042088359375 0.881832265625
vt 0.041471953125 0.8729627343749999
vt 0.77733125 0.8348585937499999
vt 0.77733140625 0.84375
vt 0.73746265625 0.843740625
vt 0.7374625 0.8348492187500001
vt 0.599609375 0.8348492187500001
vt 0.599609375 0.83022578125
vt 0.7374625 0.83022578125
vt 0.7374625 0.8348492187500001
vt 0.16994375 0.591262734375
vt 0.219568515625 0.586988203125
vt 0.219780234375 0.591924921875
vt 0.17929734375 0.595402265625
vt 0.46196796875 0.9887190625
vt 0.46196796875 0.99761015625
vt 0.4213375 0.99717234375
vt 0.4213375 0.98828125
vt 0.179622265625 0.69295984375
vt 0.2197828125 0.68678125
vt 0.2197609375 0.7003970312500001
vt 0.1731159375 0.7005440625
vt 0.599609375 0.98871875
vt 0.599609375 0.99761015625
vt 0.46196796875 0.99761015625
vt 0.46196796875 0.98871875
vt 0.03207328125 0.868841484375
vt 0.16323921875 0.859375
vt 0.154363359375 0.864808046875
vt 0.041472109375 0.8729627343749999
vt 0.7374625 0.8348492187500001
vt 0.7374625 0.83022578125
vt 0.7866890625 0.83022890625
vt 0.77733125 0.8348585937499999
vt 0.1953125 0.9296875
vt 0.1953125 0.9192471875
vt 0.203555859375 0.925360625
vt 0.171429375 0.6015625
vt 0.16994375 0.591262734375
vt 0.179297265625 0.595402265625
vt 0.2109375 0.912383671875
vt 0.2109375 0.902391171875
vt 0.21875 0.90234375
vt 0.21875 0.912336171875
vt 0.21875 0.9765478125
vt 0.21875 0.967238125
vt 0.2265625 0.96725359375
vt 0.2265625 0.9765625
vt 0.35742203125 0.7003990625000001
vt 0.3574225 0.813725625
vt 0.21957953125 0.81372875
vt 0.21975953125 0.7003975
vt 0.3574225 0.813725625
vt 0.3574225 0.8203115625
vt 0.21956859375 0.8203115625
vt 0.21957953125 0.81372875
vt 0.2197609375 0.7003970312500001
vt 0.21957953125 0.81372875
vt 0.17311734375 0.81372875
vt 0.173118984375 0.700543984375
vt 0.21957953125 0.81372875
vt 0.21956859375 0.8203115625
vt 0.17969953125 0.820311640625
vt 0.1731175 0.81372875
vt 0.7374625 0.8348492187500001
vt 0.73746328125 0.843740625
vt 0.599609375 0.843740625
vt 0.599609375 0.8348492187500001
vt 0.21978078125 0.6867810937500001
vt 0.35742140625 0.6867810937500001
vt 0.35742203125 0.7003990625000001
vt 0.21975875 0.7003975
vt 0.219780234375 0.591924921875
vt 0.219568515625 0.586988203125
vt 0.357421640625 0.586988203125
vt 0.357421640625 0.591924921875
vt 0.012384765625 0.7547609375
vt 0.012384765625 0.6169078125
vt 0.151145703125 0.6169078125
vt 0.151145703125 0.7547609375
vt 0.069074765625 0.836218125
vt 0.206927890625 0.836218125
vt 0.206927890625 0.84936421875
vt 0.069074765625 0.84936421875
vt 0.000306640625 0.7547609375
vt 0.000306640625 0.6169078125
vt 0.012384765625 0.6169078125
vt 0.012384765625 0.7547609375
vt 0.06918859375 0.987231015625
vt 0.207041484375 0.9869509375
vt 0.207067109375 0.999588359375
vt 0.069214296875 0.999868515625
vt 0.151145703125 0.7547609375
vt 0.151145703125 0.6169078125
vt 0.163755859375 0.6169078125
vt 0.163755859375 0.7547609375
vt 0.2391 0.6107421875
vt 0.376953125 0.6107421875
vt 0.376953125 0.6318359375
vt 0.2391 0.6318359375
vn -1 0 0
vn 0 0 -1
vn 0 0 -1
vn 0 0 -1
vn 0.9319592432412466 0 -0.36256305511897263
vn 0 -1 0
vn -0.29420010348629083 0.9557438459695442 0
vn 0.07547075377921104 0.9971480043547337 -0.00015078252458886719
vn 0 -1 0
vn 0.2811003295205234 0.9534149113260222 -0.10946511592578921
vn 0 -1 0
vn -1 0 0
vn 0 -1 0
vn 0.2826631143522658 0.9582297261465075 -0.04355864683237024
vn 0 -1 0
vn -0.2943290820708384 0.955704133844433 0
vn 0 -1 0
vn 0.9883145108862164 0 -0.15242843426257197
vn -1 0 0
vn -5.219149316837451e-7 -0.000026387532284477362 -0.999999999651713
vn -0.9975952613664606 0.06930868991708103 -0.0000010776957736760622
vn -0.800668613191571 0.5991074793806924 0
vn 0.8172301996047601 0.5623264718926578 -0.1261893016967776
vn 0.9859931750783969 -0.06850396555261158 -0.15206796310330647
vn 0.0710223227230057 0.997422898628982 -0.010168134813655175
vn 0.9975952613650707 -0.06930868994546394 0
vn 0.04175405836776823 0.5780501084311013 -0.8149323105342021
vn -0.801570616260963 0.5979000974382847 0.00014363255105907344
vn -0.23243183875069157 0.9257467135915957 -0.29827581633336075
vn 0.3425764732003337 0.8778214067860838 -0.33476997744379994
vn 0.6495551494150011 -0.04514918823332288 -0.7589727654338643
vn -0.7054030368284433 0.04898350045000643 -0.7071118527622586
vn 0.0679940246926975 0.9976857283764665 -9.053632459494274e-8
vn 0.06800053267984436 0.9976852848241787 -7.449202537805015e-7
vn 0.07203933935050404 0.99734992750646 -0.010171316964983445
vn 0.07149143466024968 0.9974411653552899 -0.0003105235909301018
vn -0.9975952613650708 0.0693086899454608 0
vn 0.06798702480376549 0.9976862054064516 -9.064412356790258e-8
vn 0.8277430058145678 0.5611074017735506 0
vn 0 -1 0
vn 0.28279977575169596 0.9591789649668048 0
vn 0 -1 0
vn -0.2942001034862909 0.9557438459695442 0
vn 0 -1 0
vn 1 0 0
vn -1 0 0
vn 0 0 1
vn 0 0 1
vn 0 0 1
vn 0.9319592432412466 0 0.36256305511897263
vn 0 -1 0
vn -0.29432906756787586 0.9557041321888309 0.00010817494490416694
vn 0.0719335196925257 0.9970128415945082 0.028124054478135988
vn 0 -1 0
vn 0.2812260927944124 0.9533845767698443 0.10940627728322232
vn 0 -1 0
vn -1 0 0
vn 0 -1 0
vn 0.2825311610916939 0.9582678980083148 0.04357497744010309
vn 0 -1 0
vn -0.29420010330968616 0.9557438453958231 -0.00003464931725273921
vn 0 -1 0
vn 0.9883145108862164 0 0.15242843426257197
vn -1 0 0
vn -5.219163107491398e-7 -0.00002638754137951957 0.9999999996517128
vn -0.9975952613671167 0.06930868990763459 0.0000010776936644111807
vn -0.800668613191571 0.5991074793806924 0
vn 0.8180696550774923 0.5611087381081663 0.126170612505664
vn 0.9859927707363181 -0.06850795563273113 0.1520687872995069
vn 0.06800006327222279 0.9976276216617395 0.010729393855892435
vn 0.9975951769465766 -0.06930990501308078 7.868034012015212e-8
vn 0.04177847370744199 0.5790645136897613 0.8142105674332143
vn -0.8006686131897038 0.5991074793792953 -0.00000215956590804507
vn -0.23243183875069157 0.9257467135915957 0.29827581633336075
vn 0.3425764732003337 0.8778214067860838 0.33476997744379994
vn 0.6495465517207775 -0.0451344259175496 0.7589810015703561
vn -0.705414781065746 0.04900383432650076 0.707098727813356
vn 0.06799481864883489 0.997685674266378 7.448099232635043e-7
vn 0.0679849760802253 0.9976863450139886 0
vn 0.06799451414766448 0.9976856467005899 0.00031050515157569084
vn 0.06800010511961126 0.9976852781816434 -0.00026721403130553026
vn -0.9975952613650708 0.06930868994546081 0
vn 0.06799935959289886 0.9976853647787327 -0.000001132568625203931
vn 0.8277430058145677 0.5611074017735506 0
vn 0 -1 0
vn 0.28279977575169596 0.9591789649668048 0
vn 0 -1 0
vn -0.2942001034862909 0.9557438459695442 0
vn 0 -1 0
vn 1 0 0
usemtl m_0f6d6c50-a5e8-c32e-ca35-5d30a9013521
f 2/1/1 3/2/1 4/3/1 5/4/1
f 6/5/2 7/6/2 8/7/2 9/8/2
f 5/9/3 4/10/3 10/11/3 11/12/3
f 11/13/4 10/14/4 7/15/4 6/16/4
f 9/17/5 8/18/5 12/19/5 13/20/5
f 6/21/6 9/22/6 13/23/6 14/24/6
f 10/25/7 4/26/7 3/27/7 15/28/7
f 7/29/8 10/30/8 15/31/8 16/32/8
f 5/33/9 11/34/9 17/35/9 2/36/9
f 8/37/10 7/38/10 16/39/10 12/40/10
f 11/41/11 6/42/11 14/43/11 17/44/11
f 18/45/12 19/46/12 3/47/12 2/48/12
f 17/49/13 14/50/13 20/51/13 21/52/13
f 12/53/14 16/54/14 22/55/14 23/56/14
f 2/57/15 17/58/15 21/59/15 18/60/15
f 15/61/16 3/62/16 19/63/16 24/64/16
f 14/65/17 13/66/17 25/67/17 20/68/17
f 13/69/18 12/70/18 23/71/18 25/72/18
f 26/73/19 27/74/19 19/75/19 18/76/19
f 28/77/20 29/78/20 30/79/20 31/80/20
f 32/81/21 33/82/21 34/83/21 35/84/21
f 36/85/22 33/86/22 24/87/22 37/88/22
f 16/89/23 38/90/23 1/91/23 22/92/23
f 1/93/24 38/94/24 39/95/24 40/96/24
f 39/97/25 31/98/25 41/99/25 40/100/25
f 42/101/26 1/102/26 40/103/26 43/104/26
f 15/105/27 29/106/27 28/107/27 16/108/27
f 33/109/28 32/110/28 15/111/28 24/112/28
f 32/113/29 29/114/29 15/115/29
f 28/116/30 38/117/30 16/118/30
f 28/119/31 31/120/31 39/121/31 38/122/31
f 32/123/32 35/124/32 30/125/32 29/126/32
f 44/127/33 41/128/33 45/129/33 46/130/33
f 46/131/34 45/132/34 34/133/34 47/134/34
f 41/135/35 31/136/35 30/137/35 45/138/35
f 45/139/36 30/140/36 35/141/36 34/142/36
f 33/143/37 36/144/37 47/145/37 34/146/37
f 40/147/38 41/148/38 44/149/38 43/150/38
f 1/151/39 42/152/39 48/153/39 22/154/39
f 21/155/40 20/156/40 49/157/40 50/158/40
f 23/159/41 22/160/41 48/161/41 51/162/41
f 18/163/42 21/164/42 50/165/42 26/166/42
f 24/167/43 19/168/43 27/169/43 37/170/43
f 20/171/44 25/172/44 52/173/44 49/174/44
f 25/175/45 23/176/45 51/177/45 52/178/45
f 53/179/46 54/180/46 55/181/46 56/182/46
f 57/183/47 58/184/47 59/185/47 60/186/47
f 54/187/48 61/188/48 62/189/48 55/190/48
f 61/191/49 57/192/49 60/193/49 62/194/49
f 58/195/50 63/196/50 64/197/50 59/198/50
f 57/199/51 65/200/51 63/201/51 58/202/51
f 62/203/52 66/204/52 56/205/52 55/206/52
f 60/207/53 67/208/53 66/209/53 62/210/53
f 54/211/54 53/212/54 68/213/54 61/214/54
f 59/215/55 64/216/55 67/217/55 60/218/55
f 61/219/56 68/220/56 65/221/56 57/222/56
f 69/223/57 53/224/57 56/225/57 70/226/57
f 68/227/58 71/228/58 72/229/58 65/230/58
f 64/231/59 73/232/59 74/233/59 67/234/59
f 53/235/60 69/236/60 71/237/60 68/238/60
f 66/239/61 75/240/61 70/241/61 56/242/61
f 65/243/62 72/244/62 76/245/62 63/246/62
f 63/247/63 76/248/63 73/249/63 64/250/63
f 26/251/64 69/252/64 70/253/64 27/254/64
f 77/255/65 78/256/65 79/257/65 80/258/65
f 81/259/66 82/260/66 83/261/66 84/262/66
f 36/263/67 37/264/67 75/265/67 84/266/67
f 67/267/68 74/268/68 85/269/68 86/270/68
f 85/271/69 87/272/69 88/273/69 86/274/69
f 88/275/70 87/276/70 89/277/70 78/278/70
f 42/279/71 43/280/71 87/281/71 85/282/71
f 66/283/72 67/284/72 77/285/72 80/286/72
f 84/287/73 75/288/73 66/289/73 81/290/73
f 81/291/74 66/292/74 80/293/74
f 77/294/75 67/295/75 86/296/75
f 77/297/76 86/298/76 88/299/76 78/300/76
f 81/301/77 80/302/77 79/303/77 82/304/77
f 44/305/78 46/306/78 90/307/78 89/308/78
f 46/309/79 47/310/79 83/311/79 90/312/79
f 89/313/80 90/314/80 79/315/80 78/316/80
f 90/317/81 83/318/81 82/319/81 79/320/81
f 84/321/82 83/322/82 47/323/82 36/324/82
f 87/325/83 43/326/83 44/327/83 89/328/83
f 85/329/84 74/330/84 48/331/84 42/332/84
f 71/333/85 50/334/85 49/335/85 72/336/85
f 73/337/86 51/338/86 48/339/86 74/340/86
f 69/341/87 26/342/87 50/343/87 71/344/87
f 75/345/88 37/346/88 27/347/88 70/348/88
f 72/349/89 49/350/89 52/351/89 76/352/89
f 76/353/90 52/354/90 51/355/90 73/356/90