# Made in Blockbench 5.2.1
mtllib Monitor.mtl

o Monitor
v -1.056396875 2.69005 -0.89119125
v -1.53643875 2.55028 -0.89119125
v -1.53643875 2.55028 0.89119125
v -1.056396875 2.69005 0.89119125
v -1.056396875 1.99518 0.89119125
v -1.53643875 1.996776875 0.89119125
v -1.59577375 1.996776875 -0.783883125
v -1.59577375 1.28095125 -0.783883125
v -1.70257625 1.28095125 -0.783883125
v -1.70257625 1.996776875 -0.783883125
v 0.48198 0.99518 -1.280953125
v 1 0.99518 -1.280953125
v 1 0.99518 1.280953125
v 0.48198 0.99518 1.280953125
v 0.93626125 2.06162 -0.951905
v 0.93626125 2.81609875 -0.951905
v 0.76473125 2.81609875 -0.951905
v 0.76473125 2.06162 -0.951905
v 0.48198 2.06162 -1.280953125
v 0.48198 3.12805875 -1.280953125
v 1 3.12805875 -1.280953125
v 1 2.06162 -1.280953125
v 0.38373 1.99518 -1
v 0.38373 2.99518 -1
v 0.38373 0.99518 -1
v 0.38373 0.99518 1
v 1 2.06162 1.280953125
v 1 3.12805875 1.280953125
v 0.48198 3.12805875 1.280953125
v 0.48198 2.06162 1.280953125
v -0.576355 0.99518 -1
v -0.576355 0.99518 1
v -0.576355 1.99518 -1
v -0.576355 2.99518 -1
v 0.38373 2.99518 1
v 0.38373 1.99518 1
v -1.056396875 1.99518 -0.89119125
v -1.056396875 0.99518 -0.89119125
v -1.056396875 0.99518 0.89119125
v -0.576355 2.99518 1
v -0.576355 1.99518 1
v 0.93626125 2.06162 0.951905
v 0.93626125 1.30714 0.951905
v 0.76473125 1.30714 0.951905
v 0.76473125 2.06162 0.951905
v -1.59577375 1.28095125 0.783883125
v -1.59577375 1.996776875 0.783883125
v -1.70257625 1.996776875 0.783883125
v -1.70257625 1.28095125 0.783883125
v -1.53643875 1.16054125 0.89119125
v -1.53643875 1.16054125 -0.89119125
v -1.59577375 2.42987 0.783883125
v -1.53643875 1.996776875 -0.89119125
v -1.59577375 2.42987 -0.783883125
v -1.70257625 2.42987 0.783883125
v -1.70257625 2.42987 -0.783883125
v 1 2.06162 -1.010558125
v 1 1.24848625 -1.010558125
v 1 1.24848625 1.010558125
v 1 2.06162 1.010558125
v 1 2.874753125 1.010558125
v 1 2.874753125 -1.010558125
v 0.93626125 1.30714 -0.951905
v 0.93626125 2.81609875 0.951905
v 0.799266875 2.06162 -0.912011875
v 0.799266875 2.776206875 -0.912011875
v 0.799266875 2.776206875 0.912011875
v 0.799266875 2.06162 0.912011875
v 0.799266875 1.347033125 -0.912011875
v 0.799266875 1.347033125 0.912011875
v 0.76473125 2.81609875 0.951905
v 0.76473125 1.30714 -0.951905
vt 0.3907703125 0.6621804687499999
vt 0.3282734375 0.6621804687499999
vt 0.3282734375 0.43938203124999997
vt 0.3907703125 0.43938203124999997
vt 0.599389453125 0.3359375
vt 0.599389453125 0.42279609375000005
vt 0.539384765625 0.40532500000000005
vt 0.539384765625 0.33613671874999995
vt 0.2902 0.33648828124999997
vt 0.2902 0.24701015625
vt 0.30355 0.24701015625
vt 0.30355 0.33648828124999997
vt 0.25761484375 0.6796875
vt 0.3223671875 0.6796875
vt 0.3223671875 0.999925
vt 0.25761484375 0.999925
vt 0.131814453125 0.29631484374999995
vt 0.131814453125 0.390625
vt 0.110373046875 0.390625
vt 0.110373046875 0.29631484374999995
vt 0.471829296875 0.2885703125
vt 0.471829296875 0.421875
vt 0.407076953125 0.421875
vt 0.407076953125 0.2885703125
vt 0.0390625 0.24901562499999996
vt 0.0390625 0.37401562499999996
vt 0.0018578125 0.390625
vt 0.0018578125 0.2573203125
vt 0.24533359375 0.71480625
vt 0.25761484375 0.6796875
vt 0.25761484375 0.999925
vt 0.24533359375 0.96480625
vt 0.659329296875 0.6791953125
vt 0.659329296875 0.8125
vt 0.594576953125 0.8125
vt 0.594576953125 0.6791953125
vt 0.39453125 0.4296875
vt 0.328125 0.4296875
vt 0.328125 0.109375
vt 0.39453125 0.109375
vt 0.12532265625 0.71480625
vt 0.24533359375 0.71480625
vt 0.24533359375 0.96480625
vt 0.12532265625 0.96480625
vt 0.456270703125 0.875
vt 0.456270703125 1
vt 0.336259765625 1
vt 0.336259765625 0.875
vt 0.5215796875 0.2885703125
vt 0.5215796875 0.421875
vt 0.484375 0.40526562499999996
vt 0.484375 0.28026562499999996
vt 0.5937875 0.53125
vt 0.62890625 0.51171875
vt 0.87890625 0.51171875
vt 0.914025 0.53125
vt 0.517798046875 0.875
vt 0.517798046875 0.96185859375
vt 0.456270703125 1
vt 0.456270703125 0.875
vt 0.0653171875 0.72840703125
vt 0.12532265625 0.71480625
vt 0.12532265625 0.96480625
vt 0.0653171875 0.95120546875
vt 0.780927734375 0.3359375
vt 0.780927734375 0.4609375
vt 0.660916796875 0.4609375
vt 0.660916796875 0.3359375
vt 0.5818828125 0.67578125
vt 0.461871875 0.67578125
vt 0.461871875 0.42578125
vt 0.5818828125 0.42578125
vt 0.780927734375 0.2109375
vt 0.780927734375 0.3359375
vt 0.660916796875 0.3359375
vt 0.660916796875 0.2109375
vt 0.517798046875 0.75
vt 0.517798046875 0.875
vt 0.456270703125 0.875
vt 0.456270703125 0.75
vt 0.5215796875 0.15526562499999996
vt 0.5215796875 0.2885703125
vt 0.484375 0.28026562499999996
vt 0.484375 0.15526562499999996
vt 0.456270703125 0.75
vt 0.456270703125 0.875
vt 0.336259765625 0.875
vt 0.336259765625 0.75
vt 0.659329296875 0.545890625
vt 0.659329296875 0.6791953125
vt 0.594576953125 0.6791953125
vt 0.594576953125 0.545890625
vt 0.0390625 0.12401562499999996
vt 0.0390625 0.24901562499999996
vt 0.0018578125 0.2573203125
vt 0.0018578125 0.12401562499999996
vt 0.471829296875 0.15526562499999996
vt 0.471829296875 0.2885703125
vt 0.407076953125 0.2885703125
vt 0.407076953125 0.15526562499999996
vt 0.141623046875 0.29631484374999995
vt 0.141623046875 0.2020046875
vt 0.163064453125 0.2020046875
vt 0.163064453125 0.29631484374999995
vt 0.6863625 0.64544765625
vt 0.6863625 0.7349257812500001
vt 0.6730125 0.7349257812500001
vt 0.6730125 0.64544765625
vt 0.599389453125 0.2109375
vt 0.599389453125 0.3359375
vt 0.539384765625 0.33613671874999995
vt 0.539384765625 0.23160781249999995
vt 0.21126640625 1
vt 0.01529609375 1
vt 0.00188203125 0.984375
vt 0.22468046875 0.984375
vt 0.171875 0.37557343750000005
vt 0.171875 0.32143671875
vt 0.18720234375 0.32143671875
vt 0.18720234375 0.390625
vt 0.2734375 0.46633359375000005
vt 0.2734375 0.55581171875
vt 0.25811015625 0.55581171875
vt 0.25811015625 0.4512828125
vt 0.01529609375 0.6875
vt 0.21126640625 0.6875
vt 0.22468046875 0.703125
vt 0.00188203125 0.703125
vt 0.171875 0.32143671875
vt 0.171875 0.23195859375000005
vt 0.18720234375 0.21690781250000002
vt 0.18720234375 0.32143671875
vt 0.2734375 0.55581171875
vt 0.2734375 0.6099484374999999
vt 0.25811015625 0.625
vt 0.25811015625 0.55581171875
vt 0.24446953125 0.5708632812500001
vt 0.24446953125 0.625
vt 0.04849921875 0.625
vt 0.04849921875 0.5708632812500001
vt 0.24446953125 0.48138515625
vt 0.24446953125 0.5708632812500001
vt 0.04849921875 0.5708632812500001
vt 0.04849921875 0.48138515625
vt 0.20703125 0.1953125
vt 0.20703125 0.390625
vt 0.1953125 0.390625
vt 0.1953125 0.1953125
vt 0.2902 0.390625
vt 0.2902 0.33648828124999997
vt 0.30355 0.33648828124999997
vt 0.30355 0.390625
vt 0.23046875 0.1953125
vt 0.23046875 0.390625
vt 0.21875 0.390625
vt 0.21875 0.1953125
vt 0.6863625 0.7349257812500001
vt 0.6863625 0.7890625
vt 0.6730125 0.7890625
vt 0.6730125 0.7349257812500001
vt 0.28647578125 0.5385703125
vt 0.28647578125 0.43692890625
vt 0.320275 0.40526562499999996
vt 0.320275 0.5385703125
vt 0.03383671875 0.43692890625
vt 0.03383671875 0.5385703125
vt 0.0000375 0.5385703125
vt 0.0000375 0.40526562499999996
vt 0.03383671875 0.64021171875
vt 0.28647578125 0.64021171875
vt 0.320275 0.671875
vt 0.0000375 0.671875
vt 0.28647578125 0.43692890625
vt 0.03383671875 0.43692890625
vt 0.0000375 0.40526562499999996
vt 0.320275 0.40526562499999996
vt 0.28647578125 0.64021171875
vt 0.28647578125 0.5385703125
vt 0.320275 0.5385703125
vt 0.320275 0.671875
vt 0.03383671875 0.5385703125
vt 0.03383671875 0.64021171875
vt 0.0000375 0.671875
vt 0.0000375 0.5385703125
vt 0.24307890625 0.28898359375000005
vt 0.24307890625 0.1946734375
vt 0.25390625 0.18734218749999998
vt 0.25390625 0.28898359375000005
vt 0.27645234375 0.1946734375
vt 0.27645234375 0.28898359375000005
vt 0.265625 0.28898359375000005
vt 0.265625 0.18734218749999998
vt 0.60171484375 0.48828125
vt 0.83969140625 0.48828125
vt 0.84702265625 0.5
vt 0.59438359375 0.5
vt 0.91781640625 0.8125
vt 0.67983984375 0.8125
vt 0.67250859375 0.80078125
vt 0.92514765625 0.80078125
vt 0.24307890625 0.38329375
vt 0.24307890625 0.28898359375000005
vt 0.25390625 0.28898359375000005
vt 0.25390625 0.390625
vt 0.27645234375 0.28898359375000005
vt 0.27645234375 0.38329375
vt 0.265625 0.390625
vt 0.265625 0.28898359375000005
vt 0.8151734375 0.9106765625
vt 0.8151734375 1
vt 0.5871703125 1
vt 0.5871703125 0.9106765625
vt 0.8151734375 0.821353125
vt 0.8151734375 0.9106765625
vt 0.5871703125 0.9106765625
vt 0.5871703125 0.821353125
vt 0.06640625 0.15234375
vt 0.06640625 0.390625
vt 0.046875 0.390625
vt 0.046875 0.15234375
vt 0.131814453125 0.2020046875
vt 0.131814453125 0.29631484374999995
vt 0.110373046875 0.29631484374999995
vt 0.110373046875 0.2020046875
vt 0.141623046875 0.390625
vt 0.141623046875 0.29631484374999995
vt 0.163064453125 0.29631484374999995
vt 0.163064453125 0.390625
vt 0.09765625 0.15234375
vt 0.09765625 0.390625
vt 0.078125 0.390625
vt 0.078125 0.15234375
vt 0.3125 0.29631484374999995
vt 0.3125 0.20699140625
vt 0.3190953125 0.2020046875
vt 0.3190953125 0.29631484374999995
vt 0.703125 0.60542890625
vt 0.703125 0.6947523437500001
vt 0.6965296875 0.6947523437500001
vt 0.6965296875 0.6004421875
vt 0.3410765625 0.71875
vt 0.5690796875 0.71875
vt 0.57406640625 0.7265625
vt 0.33608984375 0.7265625
vt 0.5690796875 0.7421875
vt 0.3410765625 0.7421875
vt 0.33608984375 0.734375
vt 0.57406640625 0.734375
vt 0.3125 0.38563828125
vt 0.3125 0.29631484374999995
vt 0.3190953125 0.29631484374999995
vt 0.3190953125 0.390625
vt 0.703125 0.6947523437500001
vt 0.703125 0.78407578125
vt 0.6965296875 0.7890625
vt 0.6965296875 0.6947523437500001
vt 0.660916796875 0.2109375
vt 0.660916796875 0.3359375
vt 0.599389453125 0.3359375
vt 0.599389453125 0.2109375
vt 0.577802734375 0.7706703125000001
vt 0.577802734375 0.87519921875
vt 0.517798046875 0.875
vt 0.517798046875 0.75
vt 0.0018515625 0.72840703125
vt 0.0653171875 0.72840703125
vt 0.0653171875 0.95120546875
vt 0.0018515625 0.95120546875
vt 0.577802734375 0.87519921875
vt 0.577802734375 0.9443875
vt 0.517798046875 0.96185859375
vt 0.517798046875 0.875
vt 0.660916796875 0.3359375
vt 0.660916796875 0.4609375
vt 0.599389453125 0.42279609375000005
vt 0.599389453125 0.3359375
vt 0.461871875 0.67578125
vt 0.3907703125 0.6621804687499999
vt 0.3907703125 0.43938203124999997
vt 0.461871875 0.42578125
vn -0.27955350015821817 0.960130116468226 0
vn 0 0 1
vn 0 0 -1
vn 0 -1 0
vn 0 0 1
vn 0 0 -1
vn -0.9439458959018654 0 -0.33010020540742624
vn 0 -1 0
vn 0 0 1
vn 0 1 0
vn 0 -1 0
vn 0 0 -1
vn -0.9439458959018653 0 0.33010020540742624
vn -0.8040741083164418 0.594529081151729 0
vn -0.22105759749277185 0 -0.9752607541528183
vn 0 -1 0
vn 0 0 1
vn 0 1 0
vn 0 0 1
vn -0.22105759749277182 0 -0.9752607541528182
vn -0.9439458959018654 0 0.3301002054074263
vn 0 0 -1
vn 0 0 1
vn -0.9439458959018654 0 -0.33010020540742624
vn 0 0 -1
vn 0 0 -1
vn 0 0 1
vn 0 0 1
vn -0.8970046184831987 -0.442021169651196 0
vn -0.875127091059065 0 0.4838931436737858
vn -0.8751270910590652 0 -0.4838931436737858
vn -0.8970046184831981 0.4420211696511969 0
vn -0.8751270910590652 0 0.4838931436737858
vn -0.875127091059065 0 -0.4838931436737858
vn -1 0 0
vn -1 0 0
vn 0 -1 0
vn 0 0 -1
vn 0 1 0
vn 0 0 1
vn 1 0 0
vn 1 0 0
vn 1 0 0
vn 1 0 0
vn 1 0 0
vn 1 0 0
vn 0.6771407804356954 0 0.7358534932110722
vn 0.6771407804356954 0 -0.7358534932110722
vn 0.6771485944494731 -0.735846302589816 0
vn 0.6771446874712189 0.7358498978932492 0
vn 0.6771407804356954 0 0.7358534932110722
vn 0.6771407804356954 0 -0.7358534932110722
vn 1 0 0
vn 1 0 0
vn 0 -1 0
vn 0 0 1
vn 0 0 -1
vn 0 1 0
vn 0.7560493064670343 0 -0.6545146646108982
vn 0.7560493064670343 0 0.6545146646108982
vn 0.756039157718179 0.654526387548116 0
vn 0.7560493064670353 -0.6545146646108972 0
vn 0.7560493064670343 0 -0.6545146646108982
vn 0.7560493064670343 0 0.6545146646108982
vn -0.22105759749277182 0 0.9752607541528182
vn 0 0 -1
vn -0.3256906632027364 -0.9454763835773805 0
vn 0 0 -1
vn -0.22105759749277182 0 0.9752607541528182
vn -0.5364359632542234 0.8439410271621552 0
usemtl m_0fefccaf-3169-f8b8-7020-55f5b559d52f
f 1/1/1 2/2/1 3/3/1 4/4/1
f 5/5/2 4/6/2 3/7/2 6/8/2
f 7/9/3 8/10/3 9/11/3 10/12/3
f 11/13/4 12/14/4 13/15/4 14/16/4
f 15/17/5 16/18/5 17/19/5 18/20/5
f 19/21/6 20/22/6 21/23/6 22/24/6
f 23/25/7 24/26/7 20/27/7 19/28/7
f 25/29/8 11/30/8 14/31/8 26/32/8
f 27/33/9 28/34/9 29/35/9 30/36/9
f 21/37/10 20/38/10 29/39/10 28/40/10
f 31/41/11 25/42/11 26/43/11 32/44/11
f 33/45/12 34/46/12 24/47/12 23/48/12
f 30/49/13 29/50/13 35/51/13 36/52/13
f 20/53/14 24/54/14 35/55/14 29/56/14
f 37/57/15 1/58/15 34/59/15 33/60/15
f 38/61/16 31/62/16 32/63/16 39/64/16
f 36/65/17 35/66/17 40/67/17 41/68/17
f 24/69/18 34/70/18 40/71/18 35/72/18
f 26/73/19 36/74/19 41/75/19 32/76/19
f 38/77/20 37/78/20 33/79/20 31/80/20
f 14/81/21 30/82/21 36/83/21 26/84/21
f 31/85/22 33/86/22 23/87/22 25/88/22
f 13/89/23 27/90/23 30/91/23 14/92/23
f 25/93/24 23/94/24 19/95/24 11/96/24
f 11/97/25 19/98/25 22/99/25 12/100/25
f 42/101/26 43/102/26 44/103/26 45/104/26
f 46/105/27 47/106/27 48/107/27 49/108/27
f 39/109/28 5/110/28 6/111/28 50/112/28
f 46/113/29 8/114/29 51/115/29 50/116/29
f 52/117/30 47/118/30 6/119/30 3/120/30
f 8/121/31 7/122/31 53/123/31 51/124/31
f 54/125/32 52/126/32 3/127/32 2/128/32
f 47/129/33 46/130/33 50/131/33 6/132/33
f 7/133/34 54/134/34 2/135/34 53/136/34
f 48/137/35 55/138/35 56/139/35 10/140/35
f 49/141/36 48/142/36 10/143/36 9/144/36
f 8/145/37 46/146/37 49/147/37 9/148/37
f 54/149/38 7/150/38 10/151/38 56/152/38
f 52/153/39 54/154/39 56/155/39 55/156/39
f 47/157/40 52/158/40 55/159/40 48/160/40
f 57/161/41 58/162/41 12/163/41 22/164/41
f 59/165/42 60/166/42 27/167/42 13/168/42
f 61/169/43 62/170/43 21/171/43 28/172/43
f 58/173/44 59/174/44 13/175/44 12/176/44
f 62/177/45 57/178/45 22/179/45 21/180/45
f 60/181/46 61/182/46 28/183/46 27/184/46
f 15/185/47 63/186/47 58/187/47 57/188/47
f 43/189/48 42/190/48 60/191/48 59/192/48
f 64/193/49 16/194/49 62/195/49 61/196/49
f 63/197/50 43/198/50 59/199/50 58/200/50
f 16/201/51 15/202/51 57/203/51 62/204/51
f 42/205/52 64/206/52 61/207/52 60/208/52
f 65/209/53 66/210/53 67/211/53 68/212/53
f 69/213/54 65/214/54 68/215/54 70/216/54
f 16/217/55 64/218/55 71/219/55 17/220/55
f 63/221/56 15/222/56 18/223/56 72/224/56
f 64/225/57 42/226/57 45/227/57 71/228/57
f 43/229/58 63/230/58 72/231/58 44/232/58
f 65/233/59 69/234/59 72/235/59 18/236/59
f 70/237/60 68/238/60 45/239/60 44/240/60
f 67/241/61 66/242/61 17/243/61 71/244/61
f 69/245/62 70/246/62 44/247/62 72/248/62
f 66/249/63 65/250/63 18/251/63 17/252/63
f 68/253/64 67/254/64 71/255/64 45/256/64
f 32/257/65 41/258/65 5/259/65 39/260/65
f 51/261/66 53/262/66 37/263/66 38/264/66
f 51/265/67 38/266/67 39/267/67 50/268/67
f 53/269/68 2/270/68 1/271/68 37/272/68
f 41/273/69 40/274/69 4/275/69 5/276/69
f 34/277/70 1/278/70 4/279/70 40/280/70