# Made in Blockbench 5.2.1
mtllib Mouse.mtl

o Mouse
v 1.63877625 0.108856875 -2.55764625
v 1.74413625 0.25265875 -2.48388625
v 1.974783125 0.289998125 -2.49779125
v 1.977508125 0.108856875 -2.585396875
v 1.500998125 0.108856875 -2.26725875
v 1.598338125 0.26887125 -2.26725875
v 1.63318125 0.24859875 -2.404623125
v 1.540603125 0.108856875 -2.476975
v 2.30916375 0.289983125 -2.46674375
v 2.23783125 0.29439875 -2.51365
v 2.268478125 0.32797875 -2.26725875
v 2.354471875 0.314838125 -2.26725875
v 2.187526875 0.108856875 -2.60260375
v 2.13511625 0.312778125 -2.507458125
v 2.345085 0.108856875 -2.615511875
v 2.13511625 0 -2.507458125
v 2.24269 0 -2.513943125
v 2.265008125 0 -2.26725875
v 2.16412625 0 -2.26725875
v 2.30887375 0 -2.46802125
v 2.41388125 0.108856875 -2.572283125
v 2.49944375 0.108856875 -2.26725875
v 2.354471875 0 -2.26725875
v 1.737705 0.288141875 -2.26725875
v 1.976405 0.321146875 -2.26725875
v 1.633671875 0 -2.40656
v 1.737035 0 -2.483458125
v 1.73522875 0 -2.26725875
v 1.598338125 0 -2.26725875
v 2.16412625 0.34392625 -2.26725875
v 1.974783125 0 -2.49779125
v 1.976405 0 -2.26725875
v 1.63877625 0.108856875 -1.976873125
v 1.977508125 0.108856875 -1.94912125
v 1.974783125 0.289998125 -2.036726875
v 1.74413625 0.25265875 -2.050633125
v 1.540603125 0.108856875 -2.05754375
v 1.63318125 0.24859875 -2.12989625
v 2.30916375 0.289983125 -2.067775
v 2.23783125 0.29439875 -2.020868125
v 2.187526875 0.108856875 -1.931915
v 2.345085 0.108856875 -1.919006875
v 2.13511625 0.312778125 -2.02706125
v 2.13511625 0 -2.02706125
v 2.24269 0 -2.020575
v 2.30887375 0 -2.066498125
v 2.41388125 0.108856875 -1.96223625
v 1.633671875 0 -2.127958125
v 1.737035 0 -2.05106125
v 1.974783125 0 -2.036726875
vt 0.3685196875 0.94816671875
vt 0.34225734375 0.98862
vt 0.28410421875 0.9951234375
vt 0.2837984375 0.9451421875
vt 0.0558140625 0.7601646875
vt 0.05672640625 0.80697953125
vt 0.0209490625 0.80787453125
vt 0.00323359375 0.76633609375
vt 0.36985 0.65631796875
vt 0.38168328125 0.6741140624999999
vt 0.31936484375 0.6678075
vt 0.31936390625 0.646061875
vt 0.231213125 0.94288125
vt 0.2437334375 0.99926875
vt 0.218100625 0.9941875
vt 0.1919146875 0.9410921875
vt 0.262334375 0.735996875
vt 0.2892265625 0.734375
vt 0.29480625 0.796046875
vt 0.2695859375 0.796046875
vt 0.38676390625 0.6294206250000001
vt 0.36005203125 0.5920624999999999
vt 0.43737859375 0.5749453125
vt 0.43737859375 0.62023765625
vt 0.00795328125 0.93472546875
vt 0.01075875 0.8762775
vt 0.0656540625 0.8755221875
vt 0.06606875 0.93573171875
vt 0.1369734375 0.7612203125
vt 0.1628140625 0.741996875
vt 0.1623625 0.796046875
vt 0.1281390625 0.796046875
vt 0.2269103125 0.8851218750000001
vt 0.2269103125 0.9216303125
vt 0.17396375 0.91503078125
vt 0.19150734375 0.87923359375
vt 0.00599796875 0.9754525000000001
vt 0.007915625 0.9349412500000001
vt 0.06606890625 0.9357506250000001
vt 0.0665003125 0.98300453125
vt 0.48180078125 0.86209046875
vt 0.45508703125 0.91422734375
vt 0.40358921875 0.9127890625
vt 0.40358921875 0.84986625
vt 0.11388015625 0.6049743750000001
vt 0.11141515625 0.63982609375
vt 0.05873390625 0.63982953125
vt 0.07373328125 0.6044364062500001
vt 0.22225 0.7384125
vt 0.262334375 0.735996875
vt 0.2695859375 0.796046875
vt 0.22265625 0.796046875
vt 0.2837984375 0.9451421875
vt 0.28410625 0.9954503125
vt 0.24372453125 0.9992284375
vt 0.231213125 0.94288125
vt 0.1963821875 0.63980484375
vt 0.1734115625 0.60574078125
vt 0.2033040625 0.59375
vt 0.22541203125 0.6269479687499999
vt 0.34225734375 0.98862015625
vt 0.3685196875 0.94816671875
vt 0.39783265625 0.9604103125
vt 0.374515625 0.9996334375
vt 0.1734115625 0.60574078125
vt 0.196381875 0.639804375
vt 0.11141625 0.6398121875
vt 0.11388015625 0.6049743750000001
vt 0.00115046875 0.6305515625
vt 0.0292325 0.59421203125
vt 0.0467959375 0.60406625
vt 0.01920984375 0.63983484375
vt 0.19756015625 1
vt 0.17247984375 0.94705796875
vt 0.191865625 0.9409928125
vt 0.218100625 0.9941875
vt 0.07373328125 0.6044364062500001
vt 0.05873171875 0.63983484375
vt 0.01920984375 0.63983484375
vt 0.04679734375 0.6040645312499999
vt 0.06565390625 0.87548984375
vt 0.0107559375 0.8762428125
vt 0.03057234375 0.8484864062499999
vt 0.06541234375 0.84032390625
vt 0.29480625 0.796046875
vt 0.2892265625 0.734375
vt 0.3057734375 0.74585625
vt 0.3171734375 0.796046875
vt 0.31936484375 0.6678075
vt 0.38168453125 0.6741140624999999
vt 0.38005375 0.7001959375
vt 0.3193646875 0.694195625
vt 0.1623625 0.796046875
vt 0.1628140625 0.741996875
vt 0.22225 0.7384125
vt 0.22265625 0.796046875
vt 0.03003765625 0.66009328125
vt 0.11500484375 0.6600951562499999
vt 0.11253640625 0.71034203125
vt 0.0547834375 0.7013892187499999
vt 0.0558140625 0.7601646875
vt 0.1090096875 0.76430171875
vt 0.092189375 0.806733125
vt 0.05672171875 0.806733125
vt 0.26888046875 0.65631796875
vt 0.31936484375 0.64605984375
vt 0.31936484375 0.6678075
vt 0.25704609375 0.6741125
vt 0.16768453125 0.6600951562499999
vt 0.2072046875 0.66008390625
vt 0.1784165625 0.711953125
vt 0.15269890625 0.71582140625
vt 0.262334375 0.8560953125
vt 0.2695859375 0.796046875
vt 0.29480625 0.796046875
vt 0.2892265625 0.8577171875
vt 0.48803390625 0.62935265625
vt 0.43737859375 0.62023765625
vt 0.43737859375 0.5749150000000001
vt 0.51467125 0.5920190625
vt 0.12419609375 0.93386171875
vt 0.06606875 0.93573171875
vt 0.06565390625 0.87548984375
vt 0.12052546875 0.87548984375
vt 0.1369734375 0.830871875
vt 0.1281390625 0.796046875
vt 0.1623625 0.796046875
vt 0.1628140625 0.8500953125
vt 0.2269103125 0.8851218750000001
vt 0.262350625 0.87922203125
vt 0.27982046875 0.91509328125
vt 0.2269103125 0.92155546875
vt 0.1268628125 0.97431625
vt 0.0665003125 0.98300453125
vt 0.06606875 0.93573171875
vt 0.1241871875 0.93386203125
vt 0.32535203125 0.8621782812500001
vt 0.40358921875 0.84986625
vt 0.40358921875 0.9128365625
vt 0.352110625 0.9142753125
vt 0.45655546875 0.7859809375
vt 0.496708125 0.7854409375
vt 0.5116965625 0.820845625
vt 0.45902265625 0.8208228125
vt 0.22225 0.8536796875
vt 0.22265625 0.796046875
vt 0.2695859375 0.796046875
vt 0.262334375 0.8560953125
vt 0.11500484375 0.6600951562499999
vt 0.16768453125 0.6600951562499999
vt 0.15268453125 0.71587484375
vt 0.11253765625 0.7103185937500001
vt 0.3740625 0.82084140625
vt 0.3450134375 0.807984375
vt 0.367144375 0.774786875
vt 0.397015625 0.78678265625
vt 0.05482265625 0.701454375
vt 0.022171875 0.71130671875
vt 0.000309375 0.67124015625
vt 0.03003765625 0.66009328125
vt 0.397015625 0.78678265625
vt 0.45655546875 0.7859809375
vt 0.4590234375 0.82083203125
vt 0.37406875 0.82083203125
vt 0.5692784375 0.8115915625
vt 0.5512096875 0.8208715625
vt 0.52364796875 0.7850803125
vt 0.541213125 0.7752439062500001
vt 0.19867796875 0.71875
vt 0.17841671875 0.71195265625
vt 0.2072046875 0.66008390625
vt 0.226253125 0.6670709375
vt 0.496708125 0.7854409375
vt 0.52364796875 0.7850803125
vt 0.55120921875 0.82087078125
vt 0.51169421875 0.8208403125
vt 0.06565390625 0.87548984375
vt 0.06541234375 0.840316875
vt 0.10036484375 0.8480121875
vt 0.1205515625 0.87548984375
vt 0.29480625 0.796046875
vt 0.3171734375 0.796046875
vt 0.3057734375 0.8462359375
vt 0.2892265625 0.8577171875
vt 0.31936484375 0.6678075
vt 0.3193646875 0.6941985937499999
vt 0.2586740625 0.70019125
vt 0.257045625 0.6741126562499999
vt 0.1623625 0.796046875
vt 0.22265625 0.796046875
vt 0.22225 0.8536796875
vt 0.1628140625 0.8500953125
vn -0.1361762545640908 0.5293126577534811 -0.8374270941609437
vn -0.8197825514190162 0.4986904055034245 -0.2815394250327269
vn 0.1609012523971016 0.9750549093528097 -0.1529009833978468
vn 0.02198481060400441 0.42735364709325885 -0.9038171985632916
vn 0 -1 0
vn 0.6202053653421159 -0.7649041375409666 -0.17397403591789934
vn -0.1672786862644009 0.9721399040285246 -0.16420063372918978
vn 0 -1 0
vn -0.7381609535593445 -0.6600647613618027 -0.13940199944314244
vn -0.14720910203688553 0.9803352781533742 -0.1314238284537487
vn 0.7690079706116578 0.5891433993290663 -0.2480661124836116
vn -0.06376163311186735 -0.6247171532062559 -0.778243491866639
vn 0 -1 0
vn -0.11520519829171073 0.43108225811547624 -0.8949278457085966
vn -0.4044088848445705 -0.7355029413399162 -0.5435888861438418
vn -0.4810078340576898 0.6526718164044851 -0.5853639582741665
vn -0.06522883240036986 -0.6015053048741111 -0.7962013361154244
vn 0.3414683864642238 -0.8007525860008564 -0.4921327433309643
vn 0.41525949884046803 0.6251553316706807 -0.6608633443507701
vn -0.06277416856063947 -0.6394939043680145 -0.7662290454150594
vn -0.15293149681820903 0.9745063831005613 -0.164162317774831
vn 0 -1 0
vn 0.16509261976261294 0.9742884887246633 -0.15331786470770156
vn 0 -1 0
vn -0.0735913566222246 0.433308291608785 0.8982361808865065
vn -0.7872111820216446 0.5984955831467867 0.14866604136073866
vn 0.1492167739255814 0.9764916016371379 0.1555586908899001
vn -0.0730334208883705 0.447185213807602 0.8914547122457716
vn 0 -1 0
vn 0.5949444231130266 -0.7923266999855432 0.13512784278869805
vn -0.1357732586759422 0.9819444582926037 0.13172206746388848
vn 0 -1 0
vn -0.6896092732896351 -0.7027389293108182 0.1749201172650719
vn -0.1196854400520865 0.986308905023853 0.11344663639873465
vn 0.7970627847584089 0.5609815767170455 0.22358575030003147
vn -0.04599737079791453 -0.6447561197075689 0.763003137594675
vn 0 -1 0
vn -0.07462725581449926 0.4058291165242013 0.9108970857735706
vn -0.43947289953276614 -0.7216848068862793 0.5348220359014549
vn -0.46641083622522467 0.630320361346743 0.620610323732532
vn -0.04695346837725987 -0.6255570198492256 0.7787642690344115
vn 0.32589191344099094 -0.790452531979227 0.5186321002805352
vn 0.45888358506913324 0.6165070800362215 0.6398006530313265
vn -0.04530087578329877 -0.6583927215843983 0.7513100923173833
vn -0.13478099036651417 0.9747481172399034 0.17804547894592918
vn 0 -1 0
vn 0.1494762047419858 0.9780920039322873 0.14488925446579742
vn 0 -1 0
usemtl m_3eb2311d-11b9-2b92-96ad-ac7c8815622d
f 1/1/1 2/2/1 3/3/1 4/4/1
f 5/5/2 6/6/2 7/7/2 8/8/2
f 9/9/3 10/10/3 11/11/3 12/12/3
f 13/13/4 14/14/4 10/15/4 15/16/4
f 16/17/5 17/18/5 18/19/5 19/20/5
f 20/21/6 21/22/6 22/23/6 23/24/6
f 3/25/7 2/26/7 24/27/7 25/28/7
f 26/29/8 27/30/8 28/31/8 29/32/8
f 29/33/9 5/34/9 8/35/9 26/36/9
f 14/37/10 3/38/10 25/39/10 30/40/10
f 21/41/11 9/42/11 12/43/11 22/44/11
f 31/45/12 4/46/12 13/47/12 16/48/12
f 31/49/13 16/50/13 19/51/13 32/52/13
f 4/53/14 3/54/14 14/55/14 13/56/14
f 1/57/15 27/58/15 26/59/15 8/60/15
f 2/61/16 1/62/16 8/63/16 7/64/16
f 27/65/17 1/66/17 4/67/17 31/68/17
f 21/69/18 20/70/18 17/71/18 15/72/18
f 9/73/19 21/74/19 15/75/19 10/76/19
f 16/77/20 13/78/20 15/79/20 17/80/20
f 24/81/21 2/82/21 7/83/21 6/84/21
f 18/85/22 17/86/22 20/87/22 23/88/22
f 11/89/23 10/90/23 14/91/23 30/92/23
f 28/93/24 27/94/24 31/95/24 32/96/24
f 33/97/25 34/98/25 35/99/25 36/100/25
f 5/101/26 37/102/26 38/103/26 6/104/26
f 39/105/27 12/106/27 11/107/27 40/108/27
f 41/109/28 42/110/28 40/111/28 43/112/28
f 44/113/29 19/114/29 18/115/29 45/116/29
f 46/117/30 23/118/30 22/119/30 47/120/30
f 35/121/31 25/122/31 24/123/31 36/124/31
f 48/125/32 29/126/32 28/127/32 49/128/32
f 29/129/33 48/130/33 37/131/33 5/132/33
f 43/133/34 30/134/34 25/135/34 35/136/34
f 47/137/35 22/138/35 12/139/35 39/140/35
f 50/141/36 44/142/36 41/143/36 34/144/36
f 50/145/37 32/146/37 19/147/37 44/148/37
f 34/149/38 41/150/38 43/151/38 35/152/38
f 33/153/39 37/154/39 48/155/39 49/156/39
f 36/157/40 38/158/40 37/159/40 33/160/40
f 49/161/41 50/162/41 34/163/41 33/164/41
f 47/165/42 42/166/42 45/167/42 46/168/42
f 39/169/43 40/170/43 42/171/43 47/172/43
f 44/173/44 45/174/44 42/175/44 41/176/44
f 24/177/45 6/178/45 38/179/45 36/180/45
f 18/181/46 23/182/46 46/183/46 45/184/46
f 11/185/47 30/186/47 43/187/47 40/188/47
f 28/189/48 32/190/48 50/191/48 49/192/48