# Made in Blockbench 5.2.1
mtllib PC.mtl

o Monitor
v -1.056396875 2.69005 -0.89119125
v -1.53643875 2.55028 -0.89119125
v -1.53643875 2.55028 0.89119125
v -1.056396875 2.69005 0.89119125
v -1.056396875 1.99518 0.89119125
v -1.53643875 1.996776875 0.89119125
v -1.59577375 1.996776875 -0.783883125
v -1.59577375 1.28095125 -0.783883125
v -1.70257625 1.28095125 -0.783883125
v -1.70257625 1.996776875 -0.783883125
v 0.48198 0.99518 -1.280953125
v 1 0.99518 -1.280953125
v 1 0.99518 1.280953125
v 0.48198 0.99518 1.280953125
v 0.93626125 2.06162 -0.951905
v 0.93626125 2.81609875 -0.951905
v 0.76473125 2.81609875 -0.951905
v 0.76473125 2.06162 -0.951905
v 0.48198 2.06162 -1.280953125
v 0.48198 3.12805875 -1.280953125
v 1 3.12805875 -1.280953125
v 1 2.06162 -1.280953125
v 0.38373 1.99518 -1
v 0.38373 2.99518 -1
v 0.38373 0.99518 -1
v 0.38373 0.99518 1
v 1 2.06162 1.280953125
v 1 3.12805875 1.280953125
v 0.48198 3.12805875 1.280953125
v 0.48198 2.06162 1.280953125
v -0.576355 0.99518 -1
v -0.576355 0.99518 1
v -0.576355 1.99518 -1
v -0.576355 2.99518 -1
v 0.38373 2.99518 1
v 0.38373 1.99518 1
v -1.056396875 1.99518 -0.89119125
v -1.056396875 0.99518 -0.89119125
v -1.056396875 0.99518 0.89119125
v -0.576355 2.99518 1
v -0.576355 1.99518 1
v 0.93626125 2.06162 0.951905
v 0.93626125 1.30714 0.951905
v 0.76473125 1.30714 0.951905
v 0.76473125 2.06162 0.951905
v -1.59577375 1.28095125 0.783883125
v -1.59577375 1.996776875 0.783883125
v -1.70257625 1.996776875 0.783883125
v -1.70257625 1.28095125 0.783883125
v -1.53643875 1.16054125 0.89119125
v -1.53643875 1.16054125 -0.89119125
v -1.59577375 2.42987 0.783883125
v -1.53643875 1.996776875 -0.89119125
v -1.59577375 2.42987 -0.783883125
v -1.70257625 2.42987 0.783883125
v -1.70257625 2.42987 -0.783883125
v 1 2.06162 -1.010558125
v 1 1.24848625 -1.010558125
v 1 1.24848625 1.010558125
v 1 2.06162 1.010558125
v 1 2.874753125 1.010558125
v 1 2.874753125 -1.010558125
v 0.93626125 1.30714 -0.951905
v 0.93626125 2.81609875 0.951905
v 0.799266875 2.06162 -0.912011875
v 0.799266875 2.776206875 -0.912011875
v 0.799266875 2.776206875 0.912011875
v 0.799266875 2.06162 0.912011875
v 0.799266875 1.347033125 -0.912011875
v 0.799266875 1.347033125 0.912011875
v 0.76473125 2.81609875 0.951905
v 0.76473125 1.30714 -0.951905
vt 0.3907703125 0.6621804687499999
vt 0.3282734375 0.6621804687499999
vt 0.3282734375 0.43938203124999997
vt 0.3907703125 0.43938203124999997
vt 0.599389453125 0.3359375
vt 0.599389453125 0.42279609375000005
vt 0.539384765625 0.40532500000000005
vt 0.539384765625 0.33613671874999995
vt 0.2902 0.33648828124999997
vt 0.2902 0.24701015625
vt 0.30355 0.24701015625
vt 0.30355 0.33648828124999997
vt 0.25761484375 0.6796875
vt 0.3223671875 0.6796875
vt 0.3223671875 0.999925
vt 0.25761484375 0.999925
vt 0.131814453125 0.29631484374999995
vt 0.131814453125 0.390625
vt 0.110373046875 0.390625
vt 0.110373046875 0.29631484374999995
vt 0.471829296875 0.2885703125
vt 0.471829296875 0.421875
vt 0.407076953125 0.421875
vt 0.407076953125 0.2885703125
vt 0.0390625 0.24901562499999996
vt 0.0390625 0.37401562499999996
vt 0.0018578125 0.390625
vt 0.0018578125 0.2573203125
vt 0.24533359375 0.71480625
vt 0.25761484375 0.6796875
vt 0.25761484375 0.999925
vt 0.24533359375 0.96480625
vt 0.659329296875 0.6791953125
vt 0.659329296875 0.8125
vt 0.594576953125 0.8125
vt 0.594576953125 0.6791953125
vt 0.39453125 0.4296875
vt 0.328125 0.4296875
vt 0.328125 0.109375
vt 0.39453125 0.109375
vt 0.12532265625 0.71480625
vt 0.24533359375 0.71480625
vt 0.24533359375 0.96480625
vt 0.12532265625 0.96480625
vt 0.456270703125 0.875
vt 0.456270703125 1
vt 0.336259765625 1
vt 0.336259765625 0.875
vt 0.5215796875 0.2885703125
vt 0.5215796875 0.421875
vt 0.484375 0.40526562499999996
vt 0.484375 0.28026562499999996
vt 0.5937875 0.53125
vt 0.62890625 0.51171875
vt 0.87890625 0.51171875
vt 0.914025 0.53125
vt 0.517798046875 0.875
vt 0.517798046875 0.96185859375
vt 0.456270703125 1
vt 0.456270703125 0.875
vt 0.0653171875 0.72840703125
vt 0.12532265625 0.71480625
vt 0.12532265625 0.96480625
vt 0.0653171875 0.95120546875
vt 0.780927734375 0.3359375
vt 0.780927734375 0.4609375
vt 0.660916796875 0.4609375
vt 0.660916796875 0.3359375
vt 0.5818828125 0.67578125
vt 0.461871875 0.67578125
vt 0.461871875 0.42578125
vt 0.5818828125 0.42578125
vt 0.780927734375 0.2109375
vt 0.780927734375 0.3359375
vt 0.660916796875 0.3359375
vt 0.660916796875 0.2109375
vt 0.517798046875 0.75
vt 0.517798046875 0.875
vt 0.456270703125 0.875
vt 0.456270703125 0.75
vt 0.5215796875 0.15526562499999996
vt 0.5215796875 0.2885703125
vt 0.484375 0.28026562499999996
vt 0.484375 0.15526562499999996
vt 0.456270703125 0.75
vt 0.456270703125 0.875
vt 0.336259765625 0.875
vt 0.336259765625 0.75
vt 0.659329296875 0.545890625
vt 0.659329296875 0.6791953125
vt 0.594576953125 0.6791953125
vt 0.594576953125 0.545890625
vt 0.0390625 0.12401562499999996
vt 0.0390625 0.24901562499999996
vt 0.0018578125 0.2573203125
vt 0.0018578125 0.12401562499999996
vt 0.471829296875 0.15526562499999996
vt 0.471829296875 0.2885703125
vt 0.407076953125 0.2885703125
vt 0.407076953125 0.15526562499999996
vt 0.141623046875 0.29631484374999995
vt 0.141623046875 0.2020046875
vt 0.163064453125 0.2020046875
vt 0.163064453125 0.29631484374999995
vt 0.6863625 0.64544765625
vt 0.6863625 0.7349257812500001
vt 0.6730125 0.7349257812500001
vt 0.6730125 0.64544765625
vt 0.599389453125 0.2109375
vt 0.599389453125 0.3359375
vt 0.539384765625 0.33613671874999995
vt 0.539384765625 0.23160781249999995
vt 0.21126640625 1
vt 0.01529609375 1
vt 0.00188203125 0.984375
vt 0.22468046875 0.984375
vt 0.171875 0.37557343750000005
vt 0.171875 0.32143671875
vt 0.18720234375 0.32143671875
vt 0.18720234375 0.390625
vt 0.2734375 0.46633359375000005
vt 0.2734375 0.55581171875
vt 0.25811015625 0.55581171875
vt 0.25811015625 0.4512828125
vt 0.01529609375 0.6875
vt 0.21126640625 0.6875
vt 0.22468046875 0.703125
vt 0.00188203125 0.703125
vt 0.171875 0.32143671875
vt 0.171875 0.23195859375000005
vt 0.18720234375 0.21690781250000002
vt 0.18720234375 0.32143671875
vt 0.2734375 0.55581171875
vt 0.2734375 0.6099484374999999
vt 0.25811015625 0.625
vt 0.25811015625 0.55581171875
vt 0.24446953125 0.5708632812500001
vt 0.24446953125 0.625
vt 0.04849921875 0.625
vt 0.04849921875 0.5708632812500001
vt 0.24446953125 0.48138515625
vt 0.24446953125 0.5708632812500001
vt 0.04849921875 0.5708632812500001
vt 0.04849921875 0.48138515625
vt 0.20703125 0.1953125
vt 0.20703125 0.390625
vt 0.1953125 0.390625
vt 0.1953125 0.1953125
vt 0.2902 0.390625
vt 0.2902 0.33648828124999997
vt 0.30355 0.33648828124999997
vt 0.30355 0.390625
vt 0.23046875 0.1953125
vt 0.23046875 0.390625
vt 0.21875 0.390625
vt 0.21875 0.1953125
vt 0.6863625 0.7349257812500001
vt 0.6863625 0.7890625
vt 0.6730125 0.7890625
vt 0.6730125 0.7349257812500001
vt 0.28647578125 0.5385703125
vt 0.28647578125 0.43692890625
vt 0.320275 0.40526562499999996
vt 0.320275 0.5385703125
vt 0.03383671875 0.43692890625
vt 0.03383671875 0.5385703125
vt 0.0000375 0.5385703125
vt 0.0000375 0.40526562499999996
vt 0.03383671875 0.64021171875
vt 0.28647578125 0.64021171875
vt 0.320275 0.671875
vt 0.0000375 0.671875
vt 0.28647578125 0.43692890625
vt 0.03383671875 0.43692890625
vt 0.0000375 0.40526562499999996
vt 0.320275 0.40526562499999996
vt 0.28647578125 0.64021171875
vt 0.28647578125 0.5385703125
vt 0.320275 0.5385703125
vt 0.320275 0.671875
vt 0.03383671875 0.5385703125
vt 0.03383671875 0.64021171875
vt 0.0000375 0.671875
vt 0.0000375 0.5385703125
vt 0.24307890625 0.28898359375000005
vt 0.24307890625 0.1946734375
vt 0.25390625 0.18734218749999998
vt 0.25390625 0.28898359375000005
vt 0.27645234375 0.1946734375
vt 0.27645234375 0.28898359375000005
vt 0.265625 0.28898359375000005
vt 0.265625 0.18734218749999998
vt 0.60171484375 0.48828125
vt 0.83969140625 0.48828125
vt 0.84702265625 0.5
vt 0.59438359375 0.5
vt 0.91781640625 0.8125
vt 0.67983984375 0.8125
vt 0.67250859375 0.80078125
vt 0.92514765625 0.80078125
vt 0.24307890625 0.38329375
vt 0.24307890625 0.28898359375000005
vt 0.25390625 0.28898359375000005
vt 0.25390625 0.390625
vt 0.27645234375 0.28898359375000005
vt 0.27645234375 0.38329375
vt 0.265625 0.390625
vt 0.265625 0.28898359375000005
vt 0.8151734375 0.9106765625
vt 0.8151734375 1
vt 0.5871703125 1
vt 0.5871703125 0.9106765625
vt 0.8151734375 0.821353125
vt 0.8151734375 0.9106765625
vt 0.5871703125 0.9106765625
vt 0.5871703125 0.821353125
vt 0.06640625 0.15234375
vt 0.06640625 0.390625
vt 0.046875 0.390625
vt 0.046875 0.15234375
vt 0.131814453125 0.2020046875
vt 0.131814453125 0.29631484374999995
vt 0.110373046875 0.29631484374999995
vt 0.110373046875 0.2020046875
vt 0.141623046875 0.390625
vt 0.141623046875 0.29631484374999995
vt 0.163064453125 0.29631484374999995
vt 0.163064453125 0.390625
vt 0.09765625 0.15234375
vt 0.09765625 0.390625
vt 0.078125 0.390625
vt 0.078125 0.15234375
vt 0.3125 0.29631484374999995
vt 0.3125 0.20699140625
vt 0.3190953125 0.2020046875
vt 0.3190953125 0.29631484374999995
vt 0.703125 0.60542890625
vt 0.703125 0.6947523437500001
vt 0.6965296875 0.6947523437500001
vt 0.6965296875 0.6004421875
vt 0.3410765625 0.71875
vt 0.5690796875 0.71875
vt 0.57406640625 0.7265625
vt 0.33608984375 0.7265625
vt 0.5690796875 0.7421875
vt 0.3410765625 0.7421875
vt 0.33608984375 0.734375
vt 0.57406640625 0.734375
vt 0.3125 0.38563828125
vt 0.3125 0.29631484374999995
vt 0.3190953125 0.29631484374999995
vt 0.3190953125 0.390625
vt 0.703125 0.6947523437500001
vt 0.703125 0.78407578125
vt 0.6965296875 0.7890625
vt 0.6965296875 0.6947523437500001
vt 0.660916796875 0.2109375
vt 0.660916796875 0.3359375
vt 0.599389453125 0.3359375
vt 0.599389453125 0.2109375
vt 0.577802734375 0.7706703125000001
vt 0.577802734375 0.87519921875
vt 0.517798046875 0.875
vt 0.517798046875 0.75
vt 0.0018515625 0.72840703125
vt 0.0653171875 0.72840703125
vt 0.0653171875 0.95120546875
vt 0.0018515625 0.95120546875
vt 0.577802734375 0.87519921875
vt 0.577802734375 0.9443875
vt 0.517798046875 0.96185859375
vt 0.517798046875 0.875
vt 0.660916796875 0.3359375
vt 0.660916796875 0.4609375
vt 0.599389453125 0.42279609375000005
vt 0.599389453125 0.3359375
vt 0.461871875 0.67578125
vt 0.3907703125 0.6621804687499999
vt 0.3907703125 0.43938203124999997
vt 0.461871875 0.42578125
vn -0.27955350015821817 0.960130116468226 0
vn 0 0 1
vn 0 0 -1
vn 0 -1 0
vn 0 0 1
vn 0 0 -1
vn -0.9439458959018654 0 -0.33010020540742624
vn 0 -1 0
vn 0 0 1
vn 0 1 0
vn 0 -1 0
vn 0 0 -1
vn -0.9439458959018653 0 0.33010020540742624
vn -0.8040741083164418 0.594529081151729 0
vn -0.22105759749277185 0 -0.9752607541528183
vn 0 -1 0
vn 0 0 1
vn 0 1 0
vn 0 0 1
vn -0.22105759749277182 0 -0.9752607541528182
vn -0.9439458959018654 0 0.3301002054074263
vn 0 0 -1
vn 0 0 1
vn -0.9439458959018654 0 -0.33010020540742624
vn 0 0 -1
vn 0 0 -1
vn 0 0 1
vn 0 0 1
vn -0.8970046184831987 -0.442021169651196 0
vn -0.875127091059065 0 0.4838931436737858
vn -0.8751270910590652 0 -0.4838931436737858
vn -0.8970046184831981 0.4420211696511969 0
vn -0.8751270910590652 0 0.4838931436737858
vn -0.875127091059065 0 -0.4838931436737858
vn -1 0 0
vn -1 0 0
vn 0 -1 0
vn 0 0 -1
vn 0 1 0
vn 0 0 1
vn 1 0 0
vn 1 0 0
vn 1 0 0
vn 1 0 0
vn 1 0 0
vn 1 0 0
vn 0.6771407804356954 0 0.7358534932110722
vn 0.6771407804356954 0 -0.7358534932110722
vn 0.6771485944494731 -0.735846302589816 0
vn 0.6771446874712189 0.7358498978932492 0
vn 0.6771407804356954 0 0.7358534932110722
vn 0.6771407804356954 0 -0.7358534932110722
vn 1 0 0
vn 1 0 0
vn 0 -1 0
vn 0 0 1
vn 0 0 -1
vn 0 1 0
vn 0.7560493064670343 0 -0.6545146646108982
vn 0.7560493064670343 0 0.6545146646108982
vn 0.756039157718179 0.654526387548116 0
vn 0.7560493064670353 -0.6545146646108972 0
vn 0.7560493064670343 0 -0.6545146646108982
vn 0.7560493064670343 0 0.6545146646108982
vn -0.22105759749277182 0 0.9752607541528182
vn 0 0 -1
vn -0.3256906632027364 -0.9454763835773805 0
vn 0 0 -1
vn -0.22105759749277182 0 0.9752607541528182
vn -0.5364359632542234 0.8439410271621552 0
usemtl m_0fefccaf-3169-f8b8-7020-55f5b559d52f
f 1/1/1 2/2/1 3/3/1 4/4/1
f 5/5/2 4/6/2 3/7/2 6/8/2
f 7/9/3 8/10/3 9/11/3 10/12/3
f 11/13/4 12/14/4 13/15/4 14/16/4
f 15/17/5 16/18/5 17/19/5 18/20/5
f 19/21/6 20/22/6 21/23/6 22/24/6
f 23/25/7 24/26/7 20/27/7 19/28/7
f 25/29/8 11/30/8 14/31/8 26/32/8
f 27/33/9 28/34/9 29/35/9 30/36/9
f 21/37/10 20/38/10 29/39/10 28/40/10
f 31/41/11 25/42/11 26/43/11 32/44/11
f 33/45/12 34/46/12 24/47/12 23/48/12
f 30/49/13 29/50/13 35/51/13 36/52/13
f 20/53/14 24/54/14 35/55/14 29/56/14
f 37/57/15 1/58/15 34/59/15 33/60/15
f 38/61/16 31/62/16 32/63/16 39/64/16
f 36/65/17 35/66/17 40/67/17 41/68/17
f 24/69/18 34/70/18 40/71/18 35/72/18
f 26/73/19 36/74/19 41/75/19 32/76/19
f 38/77/20 37/78/20 33/79/20 31/80/20
f 14/81/21 30/82/21 36/83/21 26/84/21
f 31/85/22 33/86/22 23/87/22 25/88/22
f 13/89/23 27/90/23 30/91/23 14/92/23
f 25/93/24 23/94/24 19/95/24 11/96/24
f 11/97/25 19/98/25 22/99/25 12/100/25
f 42/101/26 43/102/26 44/103/26 45/104/26
f 46/105/27 47/106/27 48/107/27 49/108/27
f 39/109/28 5/110/28 6/111/28 50/112/28
f 46/113/29 8/114/29 51/115/29 50/116/29
f 52/117/30 47/118/30 6/119/30 3/120/30
f 8/121/31 7/122/31 53/123/31 51/124/31
f 54/125/32 52/126/32 3/127/32 2/128/32
f 47/129/33 46/130/33 50/131/33 6/132/33
f 7/133/34 54/134/34 2/135/34 53/136/34
f 48/137/35 55/138/35 56/139/35 10/140/35
f 49/141/36 48/142/36 10/143/36 9/144/36
f 8/145/37 46/146/37 49/147/37 9/148/37
f 54/149/38 7/150/38 10/151/38 56/152/38
f 52/153/39 54/154/39 56/155/39 55/156/39
f 47/157/40 52/158/40 55/159/40 48/160/40
f 57/161/41 58/162/41 12/163/41 22/164/41
f 59/165/42 60/166/42 27/167/42 13/168/42
f 61/169/43 62/170/43 21/171/43 28/172/43
f 58/173/44 59/174/44 13/175/44 12/176/44
f 62/177/45 57/178/45 22/179/45 21/180/45
f 60/181/46 61/182/46 28/183/46 27/184/46
f 15/185/47 63/186/47 58/187/47 57/188/47
f 43/189/48 42/190/48 60/191/48 59/192/48
f 64/193/49 16/194/49 62/195/49 61/196/49
f 63/197/50 43/198/50 59/199/50 58/200/50
f 16/201/51 15/202/51 57/203/51 62/204/51
f 42/205/52 64/206/52 61/207/52 60/208/52
f 65/209/53 66/210/53 67/211/53 68/212/53
f 69/213/54 65/214/54 68/215/54 70/216/54
f 16/217/55 64/218/55 71/219/55 17/220/55
f 63/221/56 15/222/56 18/223/56 72/224/56
f 64/225/57 42/226/57 45/227/57 71/228/57
f 43/229/58 63/230/58 72/231/58 44/232/58
f 65/233/59 69/234/59 72/235/59 18/236/59
f 70/237/60 68/238/60 45/239/60 44/240/60
f 67/241/61 66/242/61 17/243/61 71/244/61
f 69/245/62 70/246/62 44/247/62 72/248/62
f 66/249/63 65/250/63 18/251/63 17/252/63
f 68/253/64 67/254/64 71/255/64 45/256/64
f 32/257/65 41/258/65 5/259/65 39/260/65
f 51/261/66 53/262/66 37/263/66 38/264/66
f 51/265/67 38/266/67 39/267/67 50/268/67
f 53/269/68 2/270/68 1/271/68 37/272/68
f 41/273/69 40/274/69 4/275/69 5/276/69
f 34/277/70 1/278/70 4/279/70 40/280/70
o CPU
v -1.803155 0.31492875 0
v -1.703473125 1 0
v -1.703473125 1 -1.390185
v -1.803155 0.31492875 -1.496356875
v -1.494681875 0.31492875 -1.496356875
v -1.494681875 1 -1.390185
v 1.201421875 1 -1.390185
v 1.201421875 0.31492875 -1.496356875
v -1.49522625 0 -1.596941875
v -1.49522625 0.217 -1.596941875
v 1.10253 0.217 -1.596941875
v 1.10253 0 -1.596941875
v -1.898155 0 0
v -1.898155 0.217 0
v -1.898155 0.217 -1.596941875
v -1.898155 0 -1.596941875
v -1.49522625 0 0
v -1.494681875 1 0
v 1.201421875 1 0
v 1.201421875 0.31492875 0
v 1.10253 0.217 0
v 1.10253 0 0
v -1.803155 0.31492875 1.496356875
v -1.703473125 1 1.390185
v -1.494681875 0.31492875 1.496356875
v 1.201421875 0.31492875 1.496356875
v 1.201421875 1 1.390185
v -1.494681875 1 1.390185
v -1.49522625 0 1.596941875
v 1.10253 0 1.596941875
v 1.10253 0.217 1.596941875
v -1.49522625 0.217 1.596941875
v -1.898155 0 1.596941875
v -1.898155 0.217 1.596941875
vt 0.576171875 0.5540898437499999
vt 0.576171875 0.640625
vt 0.4023984375 0.640625
vt 0.38912734375 0.5540898437499999
vt 0.338680078125 0.45240625
vt 0.338680078125 0.5390625
vt 0.001666796875 0.5390625
vt 0.001666796875 0.45240625
vt 0.3266296875 0.31662500000000005
vt 0.3266296875 0.34375
vt 0.00191015625 0.34375
vt 0.00191015625 0.31662500000000005
vt 0.583984375 0.39475000000000005
vt 0.583984375 0.421875
vt 0.38436640625 0.421875
vt 0.38436640625 0.39475000000000005
vt 0.752732421875 0.28713984375
vt 0.752664453125 0.3046875
vt 0.415651171875 0.3046875
vt 0.428012890625 0.28713984375
vt 0.576171875 0.5370359375
vt 0.576171875 0.5540898437499999
vt 0.38912734375 0.5540898437499999
vt 0.37655390625 0.5370359375
vt 0.803098828125 0.28713984375
vt 0.791223828125 0.3046875
vt 0.752664453125 0.3046875
vt 0.752732421875 0.28713984375
vt 0.37699609375 0.31662500000000005
vt 0.37699609375 0.34375
vt 0.3266296875 0.34375
vt 0.3266296875 0.31662500000000005
vt 0.377239453125 0.45240625
vt 0.364779296875 0.5390625
vt 0.338680078125 0.5390625
vt 0.338680078125 0.45240625
vt 0.00191015625 0.59765625
vt 0.0522765625 0.59765625
vt 0.0522765625 0.79727421875
vt 0.00191015625 0.79727421875
vt 0.757728125 1
vt 0.41346390625 1
vt 0.41346390625 0.8242734375
vt 0.757728125 0.8242734375
vt 0.40078984375 0.28515625
vt 0.38821640625 0.302553125
vt 0.201171875 0.302553125
vt 0.201171875 0.28515625
vt 0.78360234375 0.35568750000000005
vt 0.78360234375 0.3828125
vt 0.583984375 0.3828125
vt 0.583984375 0.35568750000000005
vt 0.41346390625 1
vt 0.386803125 1
vt 0.386803125 0.8242734375
vt 0.41346390625 0.8242734375
vt 0.0522765625 0.59765625
vt 0.37699609375 0.59765625
vt 0.37699609375 0.79727421875
vt 0.0522765625 0.79727421875
vt 0.37454453125 0.35186640625
vt 0.3612734375 0.4375
vt 0.1875 0.4375
vt 0.1875 0.35186640625
vt 0.576171875 0.5540898437499999
vt 0.76321640625 0.5540898437499999
vt 0.7499453125 0.640625
vt 0.576171875 0.640625
vt 0.430851171875 0.43678125
vt 0.767864453125 0.43678125
vt 0.767864453125 0.5234375
vt 0.430851171875 0.5234375
vt 0.4429015625 0.31662500000000005
vt 0.76762109375 0.31662500000000005
vt 0.76762109375 0.34375
vt 0.4429015625 0.34375
vt 0.583984375 0.39475000000000005
vt 0.78360234375 0.39475000000000005
vt 0.78360234375 0.421875
vt 0.583984375 0.421875
vt 0.051955078125 0.25588984375
vt 0.376674609375 0.25588984375
vt 0.389036328125 0.2734375
vt 0.052023046875 0.2734375
vt 0.576171875 0.5370359375
vt 0.77578984375 0.5370359375
vt 0.76321640625 0.5540898437499999
vt 0.576171875 0.5540898437499999
vt 0.001588671875 0.25588984375
vt 0.051955078125 0.25588984375
vt 0.052023046875 0.2734375
vt 0.013463671875 0.2734375
vt 0.39253515625 0.31662500000000005
vt 0.4429015625 0.31662500000000005
vt 0.4429015625 0.34375
vt 0.39253515625 0.34375
vt 0.392291796875 0.43678125
vt 0.430851171875 0.43678125
vt 0.430851171875 0.5234375
vt 0.404751953125 0.5234375
vt 0.00191015625 0.9968921875
vt 0.00191015625 0.79727421875
vt 0.0522765625 0.79727421875
vt 0.0522765625 0.9968921875
vt 0.757728125 0.6485468750000001
vt 0.757728125 0.8242734375
vt 0.41346390625 0.8242734375
vt 0.41346390625 0.6485468750000001
vt 0.00155390625 0.28515625
vt 0.201171875 0.28515625
vt 0.201171875 0.302553125
vt 0.01412734375 0.302553125
vt 0.38436640625 0.35568750000000005
vt 0.583984375 0.35568750000000005
vt 0.583984375 0.3828125
vt 0.38436640625 0.3828125
vt 0.41346390625 0.6485468750000001
vt 0.41346390625 0.8242734375
vt 0.386803125 0.8242734375
vt 0.386803125 0.6485468750000001
vt 0.0522765625 0.9968921875
vt 0.0522765625 0.79727421875
vt 0.37699609375 0.79727421875
vt 0.37699609375 0.9968921875
vt 0.00045546875 0.35186640625
vt 0.1875 0.35186640625
vt 0.1875 0.4375
vt 0.0137265625 0.4375
vn -0.9895792062284052 0.14398956420643727 0
vn 0 0.15315099572490018 -0.9882027992818436
vn 0 0 -1
vn -1 0 0
vn 0 0.7165042148734191 -0.6975827621641932
vn -0.7177582999667145 0.6962923400619111 0
vn 0 0.7165042148734191 -0.6975827621641932
vn 0 0 -1
vn 0 0.15315099572490018 -0.9882027992818437
vn 0 -1 0
vn 0 1 0
vn 0.7036381898147864 -0.7105584408295849 0
vn 1 0 0
vn 0 1 0
vn 0 -1 0
vn 1 0 0
vn -0.9895792062284051 0.14398956420643727 0
vn 0 0.15315099572490018 0.9882027992818436
vn 0 0 1
vn -1 0 0
vn 0 0.716504214873419 0.6975827621641932
vn -0.7177582999667145 0.6962923400619111 0
vn 0 0.7165042148734191 0.6975827621641932
vn 0 0 1
vn 0 0.15315099572490015 0.9882027992818436
vn 0 -1 0
vn 0 1 0
vn 0.7036381898147864 -0.7105584408295849 0
vn 1 0 0
vn 0 1 0
vn 0 -1 0
vn 1 0 0
usemtl m_713f240d-cf5c-9622-f275-a01ff6e9b50c
f 73/281/71 74/282/71 75/283/71 76/284/71
f 77/285/72 78/286/72 79/287/72 80/288/72
f 81/289/73 82/290/73 83/291/73 84/292/73
f 85/293/74 86/294/74 87/295/74 88/296/74
f 82/297/75 77/298/75 80/299/75 83/300/75
f 86/301/76 73/302/76 76/303/76 87/304/76
f 87/305/77 76/306/77 77/307/77 82/308/77
f 88/309/78 87/310/78 82/311/78 81/312/78
f 76/313/79 75/314/79 78/315/79 77/316/79
f 88/317/80 81/318/80 89/319/80 85/320/80
f 79/321/81 78/322/81 90/323/81 91/324/81
f 83/325/82 80/326/82 92/327/82 93/328/82
f 84/329/83 83/330/83 93/331/83 94/332/83
f 78/333/84 75/334/84 74/335/84 90/336/84
f 81/337/85 84/338/85 94/339/85 89/340/85
f 80/341/86 79/342/86 91/343/86 92/344/86
f 73/345/87 95/346/87 96/347/87 74/348/87
f 97/349/88 98/350/88 99/351/88 100/352/88
f 101/353/89 102/354/89 103/355/89 104/356/89
f 85/357/90 105/358/90 106/359/90 86/360/90
f 104/361/91 103/362/91 98/363/91 97/364/91
f 86/365/92 106/366/92 95/367/92 73/368/92
f 106/369/93 104/370/93 97/371/93 95/372/93
f 105/373/94 101/374/94 104/375/94 106/376/94
f 95/377/95 97/378/95 100/379/95 96/380/95
f 105/381/96 85/382/96 89/383/96 101/384/96
f 99/385/97 91/386/97 90/387/97 100/388/97
f 103/389/98 93/390/98 92/391/98 98/392/98
f 102/393/99 94/394/99 93/395/99 103/396/99
f 100/397/100 90/398/100 74/399/100 96/400/100
f 101/401/101 89/402/101 94/403/101 102/404/101
f 98/405/102 92/406/102 91/407/102 99/408/102
o Mouse
v 1.63877625 0.108856875 -2.55764625
v 1.74413625 0.25265875 -2.48388625
v 1.974783125 0.289998125 -2.49779125
v 1.977508125 0.108856875 -2.585396875
v 1.500998125 0.108856875 -2.26725875
v 1.598338125 0.26887125 -2.26725875
v 1.63318125 0.24859875 -2.404623125
v 1.540603125 0.108856875 -2.476975
v 2.30916375 0.289983125 -2.46674375
v 2.23783125 0.29439875 -2.51365
v 2.268478125 0.32797875 -2.26725875
v 2.354471875 0.314838125 -2.26725875
v 2.187526875 0.108856875 -2.60260375
v 2.13511625 0.312778125 -2.507458125
v 2.345085 0.108856875 -2.615511875
v 2.13511625 0 -2.507458125
v 2.24269 0 -2.513943125
v 2.265008125 0 -2.26725875
v 2.16412625 0 -2.26725875
v 2.30887375 0 -2.46802125
v 2.41388125 0.108856875 -2.572283125
v 2.49944375 0.108856875 -2.26725875
v 2.354471875 0 -2.26725875
v 1.737705 0.288141875 -2.26725875
v 1.976405 0.321146875 -2.26725875
v 1.633671875 0 -2.40656
v 1.737035 0 -2.483458125
v 1.73522875 0 -2.26725875
v 1.598338125 0 -2.26725875
v 2.16412625 0.34392625 -2.26725875
v 1.974783125 0 -2.49779125
v 1.976405 0 -2.26725875
v 1.63877625 0.108856875 -1.976873125
v 1.977508125 0.108856875 -1.94912125
v 1.974783125 0.289998125 -2.036726875
v 1.74413625 0.25265875 -2.050633125
v 1.540603125 0.108856875 -2.05754375
v 1.63318125 0.24859875 -2.12989625
v 2.30916375 0.289983125 -2.067775
v 2.23783125 0.29439875 -2.020868125
v 2.187526875 0.108856875 -1.931915
v 2.345085 0.108856875 -1.919006875
v 2.13511625 0.312778125 -2.02706125
v 2.13511625 0 -2.02706125
v 2.24269 0 -2.020575
v 2.30887375 0 -2.066498125
v 2.41388125 0.108856875 -1.96223625
v 1.633671875 0 -2.127958125
v 1.737035 0 -2.05106125
v 1.974783125 0 -2.036726875
vt 0.3685196875 0.94816671875
vt 0.34225734375 0.98862
vt 0.28410421875 0.9951234375
vt 0.2837984375 0.9451421875
vt 0.0558140625 0.7601646875
vt 0.05672640625 0.80697953125
vt 0.0209490625 0.80787453125
vt 0.00323359375 0.76633609375
vt 0.36985 0.65631796875
vt 0.38168328125 0.6741140624999999
vt 0.31936484375 0.6678075
vt 0.31936390625 0.646061875
vt 0.231213125 0.94288125
vt 0.2437334375 0.99926875
vt 0.218100625 0.9941875
vt 0.1919146875 0.9410921875
vt 0.262334375 0.735996875
vt 0.2892265625 0.734375
vt 0.29480625 0.796046875
vt 0.2695859375 0.796046875
vt 0.38676390625 0.6294206250000001
vt 0.36005203125 0.5920624999999999
vt 0.43737859375 0.5749453125
vt 0.43737859375 0.62023765625
vt 0.00795328125 0.93472546875
vt 0.01075875 0.8762775
vt 0.0656540625 0.8755221875
vt 0.06606875 0.93573171875
vt 0.1369734375 0.7612203125
vt 0.1628140625 0.741996875
vt 0.1623625 0.796046875
vt 0.1281390625 0.796046875
vt 0.2269103125 0.8851218750000001
vt 0.2269103125 0.9216303125
vt 0.17396375 0.91503078125
vt 0.19150734375 0.87923359375
vt 0.00599796875 0.9754525000000001
vt 0.007915625 0.9349412500000001
vt 0.06606890625 0.9357506250000001
vt 0.0665003125 0.98300453125
vt 0.48180078125 0.86209046875
vt 0.45508703125 0.91422734375
vt 0.40358921875 0.9127890625
vt 0.40358921875 0.84986625
vt 0.11388015625 0.6049743750000001
vt 0.11141515625 0.63982609375
vt 0.05873390625 0.63982953125
vt 0.07373328125 0.6044364062500001
vt 0.22225 0.7384125
vt 0.262334375 0.735996875
vt 0.2695859375 0.796046875
vt 0.22265625 0.796046875
vt 0.2837984375 0.9451421875
vt 0.28410625 0.9954503125
vt 0.24372453125 0.9992284375
vt 0.231213125 0.94288125
vt 0.1963821875 0.63980484375
vt 0.1734115625 0.60574078125
vt 0.2033040625 0.59375
vt 0.22541203125 0.6269479687499999
vt 0.34225734375 0.98862015625
vt 0.3685196875 0.94816671875
vt 0.39783265625 0.9604103125
vt 0.374515625 0.9996334375
vt 0.1734115625 0.60574078125
vt 0.196381875 0.639804375
vt 0.11141625 0.6398121875
vt 0.11388015625 0.6049743750000001
vt 0.00115046875 0.6305515625
vt 0.0292325 0.59421203125
vt 0.0467959375 0.60406625
vt 0.01920984375 0.63983484375
vt 0.19756015625 1
vt 0.17247984375 0.94705796875
vt 0.191865625 0.9409928125
vt 0.218100625 0.9941875
vt 0.07373328125 0.6044364062500001
vt 0.05873171875 0.63983484375
vt 0.01920984375 0.63983484375
vt 0.04679734375 0.6040645312499999
vt 0.06565390625 0.87548984375
vt 0.0107559375 0.8762428125
vt 0.03057234375 0.8484864062499999
vt 0.06541234375 0.84032390625
vt 0.29480625 0.796046875
vt 0.2892265625 0.734375
vt 0.3057734375 0.74585625
vt 0.3171734375 0.796046875
vt 0.31936484375 0.6678075
vt 0.38168453125 0.6741140624999999
vt 0.38005375 0.7001959375
vt 0.3193646875 0.694195625
vt 0.1623625 0.796046875
vt 0.1628140625 0.741996875
vt 0.22225 0.7384125
vt 0.22265625 0.796046875
vt 0.03003765625 0.66009328125
vt 0.11500484375 0.6600951562499999
vt 0.11253640625 0.71034203125
vt 0.0547834375 0.7013892187499999
vt 0.0558140625 0.7601646875
vt 0.1090096875 0.76430171875
vt 0.092189375 0.806733125
vt 0.05672171875 0.806733125
vt 0.26888046875 0.65631796875
vt 0.31936484375 0.64605984375
vt 0.31936484375 0.6678075
vt 0.25704609375 0.6741125
vt 0.16768453125 0.6600951562499999
vt 0.2072046875 0.66008390625
vt 0.1784165625 0.711953125
vt 0.15269890625 0.71582140625
vt 0.262334375 0.8560953125
vt 0.2695859375 0.796046875
vt 0.29480625 0.796046875
vt 0.2892265625 0.8577171875
vt 0.48803390625 0.62935265625
vt 0.43737859375 0.62023765625
vt 0.43737859375 0.5749150000000001
vt 0.51467125 0.5920190625
vt 0.12419609375 0.93386171875
vt 0.06606875 0.93573171875
vt 0.06565390625 0.87548984375
vt 0.12052546875 0.87548984375
vt 0.1369734375 0.830871875
vt 0.1281390625 0.796046875
vt 0.1623625 0.796046875
vt 0.1628140625 0.8500953125
vt 0.2269103125 0.8851218750000001
vt 0.262350625 0.87922203125
vt 0.27982046875 0.91509328125
vt 0.2269103125 0.92155546875
vt 0.1268628125 0.97431625
vt 0.0665003125 0.98300453125
vt 0.06606875 0.93573171875
vt 0.1241871875 0.93386203125
vt 0.32535203125 0.8621782812500001
vt 0.40358921875 0.84986625
vt 0.40358921875 0.9128365625
vt 0.352110625 0.9142753125
vt 0.45655546875 0.7859809375
vt 0.496708125 0.7854409375
vt 0.5116965625 0.820845625
vt 0.45902265625 0.8208228125
vt 0.22225 0.8536796875
vt 0.22265625 0.796046875
vt 0.2695859375 0.796046875
vt 0.262334375 0.8560953125
vt 0.11500484375 0.6600951562499999
vt 0.16768453125 0.6600951562499999
vt 0.15268453125 0.71587484375
vt 0.11253765625 0.7103185937500001
vt 0.3740625 0.82084140625
vt 0.3450134375 0.807984375
vt 0.367144375 0.774786875
vt 0.397015625 0.78678265625
vt 0.05482265625 0.701454375
vt 0.022171875 0.71130671875
vt 0.000309375 0.67124015625
vt 0.03003765625 0.66009328125
vt 0.397015625 0.78678265625
vt 0.45655546875 0.7859809375
vt 0.4590234375 0.82083203125
vt 0.37406875 0.82083203125
vt 0.5692784375 0.8115915625
vt 0.5512096875 0.8208715625
vt 0.52364796875 0.7850803125
vt 0.541213125 0.7752439062500001
vt 0.19867796875 0.71875
vt 0.17841671875 0.71195265625
vt 0.2072046875 0.66008390625
vt 0.226253125 0.6670709375
vt 0.496708125 0.7854409375
vt 0.52364796875 0.7850803125
vt 0.55120921875 0.82087078125
vt 0.51169421875 0.8208403125
vt 0.06565390625 0.87548984375
vt 0.06541234375 0.840316875
vt 0.10036484375 0.8480121875
vt 0.1205515625 0.87548984375
vt 0.29480625 0.796046875
vt 0.3171734375 0.796046875
vt 0.3057734375 0.8462359375
vt 0.2892265625 0.8577171875
vt 0.31936484375 0.6678075
vt 0.3193646875 0.6941985937499999
vt 0.2586740625 0.70019125
vt 0.257045625 0.6741126562499999
vt 0.1623625 0.796046875
vt 0.22265625 0.796046875
vt 0.22225 0.8536796875
vt 0.1628140625 0.8500953125
vn -0.1361762545640908 0.5293126577534811 -0.8374270941609437
vn -0.8197825514190162 0.4986904055034245 -0.2815394250327269
vn 0.1609012523971016 0.9750549093528097 -0.1529009833978468
vn 0.02198481060400441 0.42735364709325885 -0.9038171985632916
vn 0 -1 0
vn 0.6202053653421159 -0.7649041375409666 -0.17397403591789934
vn -0.1672786862644009 0.9721399040285246 -0.16420063372918978
vn 0 -1 0
vn -0.7381609535593445 -0.6600647613618027 -0.13940199944314244
vn -0.14720910203688553 0.9803352781533742 -0.1314238284537487
vn 0.7690079706116578 0.5891433993290663 -0.2480661124836116
vn -0.06376163311186735 -0.6247171532062559 -0.778243491866639
vn 0 -1 0
vn -0.11520519829171073 0.43108225811547624 -0.8949278457085966
vn -0.4044088848445705 -0.7355029413399162 -0.5435888861438418
vn -0.4810078340576898 0.6526718164044851 -0.5853639582741665
vn -0.06522883240036986 -0.6015053048741111 -0.7962013361154244
vn 0.3414683864642238 -0.8007525860008564 -0.4921327433309643
vn 0.41525949884046803 0.6251553316706807 -0.6608633443507701
vn -0.06277416856063947 -0.6394939043680145 -0.7662290454150594
vn -0.15293149681820903 0.9745063831005613 -0.164162317774831
vn 0 -1 0
vn 0.16509261976261294 0.9742884887246633 -0.15331786470770156
vn 0 -1 0
vn -0.0735913566222246 0.433308291608785 0.8982361808865065
vn -0.7872111820216446 0.5984955831467867 0.14866604136073866
vn 0.1492167739255814 0.9764916016371379 0.1555586908899001
vn -0.0730334208883705 0.447185213807602 0.8914547122457716
vn 0 -1 0
vn 0.5949444231130266 -0.7923266999855432 0.13512784278869805
vn -0.1357732586759422 0.9819444582926037 0.13172206746388848
vn 0 -1 0
vn -0.6896092732896351 -0.7027389293108182 0.1749201172650719
vn -0.1196854400520865 0.986308905023853 0.11344663639873465
vn 0.7970627847584089 0.5609815767170455 0.22358575030003147
vn -0.04599737079791453 -0.6447561197075689 0.763003137594675
vn 0 -1 0
vn -0.07462725581449926 0.4058291165242013 0.9108970857735706
vn -0.43947289953276614 -0.7216848068862793 0.5348220359014549
vn -0.46641083622522467 0.630320361346743 0.620610323732532
vn -0.04695346837725987 -0.6255570198492256 0.7787642690344115
vn 0.32589191344099094 -0.790452531979227 0.5186321002805352
vn 0.45888358506913324 0.6165070800362215 0.6398006530313265
vn -0.04530087578329877 -0.6583927215843983 0.7513100923173833
vn -0.13478099036651417 0.9747481172399034 0.17804547894592918
vn 0 -1 0
vn 0.1494762047419858 0.9780920039322873 0.14488925446579742
vn 0 -1 0
usemtl m_3eb2311d-11b9-2b92-96ad-ac7c8815622d
f 107/409/103 108/410/103 109/411/103 110/412/103
f 111/413/104 112/414/104 113/415/104 114/416/104
f 115/417/105 116/418/105 117/419/105 118/420/105
f 119/421/106 120/422/106 116/423/106 121/424/106
f 122/425/107 123/426/107 124/427/107 125/428/107
f 126/429/108 127/430/108 128/431/108 129/432/108
f 109/433/109 108/434/109 130/435/109 131/436/109
f 132/437/110 133/438/110 134/439/110 135/440/110
f 135/441/111 111/442/111 114/443/111 132/444/111
f 120/445/112 109/446/112 131/447/112 136/448/112
f 127/449/113 115/450/113 118/451/113 128/452/113
f 137/453/114 110/454/114 119/455/114 122/456/114
f 137/457/115 122/458/115 125/459/115 138/460/115
f 110/461/116 109/462/116 120/463/116 119/464/116
f 107/465/117 133/466/117 132/467/117 114/468/117
f 108/469/118 107/470/118 114/471/118 113/472/118
f 133/473/119 107/474/119 110/475/119 137/476/119
f 127/477/120 126/478/120 123/479/120 121/480/120
f 115/481/121 127/482/121 121/483/121 116/484/121
f 122/485/122 119/486/122 121/487/122 123/488/122
f 130/489/123 108/490/123 113/491/123 112/492/123
f 124/493/124 123/494/124 126/495/124 129/496/124
f 117/497/125 116/498/125 120/499/125 136/500/125
f 134/501/126 133/502/126 137/503/126 138/504/126
f 139/505/127 140/506/127 141/507/127 142/508/127
f 111/509/128 143/510/128 144/511/128 112/512/128
f 145/513/129 118/514/129 117/515/129 146/516/129
f 147/517/130 148/518/130 146/519/130 149/520/130
f 150/521/131 125/522/131 124/523/131 151/524/131
f 152/525/132 129/526/132 128/527/132 153/528/132
f 141/529/133 131/530/133 130/531/133 142/532/133
f 154/533/134 135/534/134 134/535/134 155/536/134
f 135/537/135 154/538/135 143/539/135 111/540/135
f 149/541/136 136/542/136 131/543/136 141/544/136
f 153/545/137 128/546/137 118/547/137 145/548/137
f 156/549/138 150/550/138 147/551/138 140/552/138
f 156/553/139 138/554/139 125/555/139 150/556/139
f 140/557/140 147/558/140 149/559/140 141/560/140
f 139/561/141 143/562/141 154/563/141 155/564/141
f 142/565/142 144/566/142 143/567/142 139/568/142
f 155/569/143 156/570/143 140/571/143 139/572/143
f 153/573/144 148/574/144 151/575/144 152/576/144
f 145/577/145 146/578/145 148/579/145 153/580/145
f 150/581/146 151/582/146 148/583/146 147/584/146
f 130/585/147 112/586/147 144/587/147 142/588/147
f 124/589/148 129/590/148 152/591/148 151/592/148
f 117/593/149 136/594/149 149/595/149 146/596/149
f 134/597/150 138/598/150 156/599/150 155/600/150
o Keyboard
v 2.585373125 0.23118625 -1.10112875
v 1.40082125 0 -1.49665375
v 1.40082125 0.244461875 -1.49665375
v 1.40082125 0.244461875 -1.62276125
v 1.40082125 0 -1.62276125
v 2.49773375 0 -1.62276125
v 2.49773375 0.198495 -1.62276125
v 2.59861 0.168753125 -1.62276125
v 2.59861 0 -1.62276125
v 1.49744125 0.27420375 -1.62276125
v 1.49744125 0 -1.62276125
v 2.64767 0.168753125 -1.49665375
v 2.64767 0 -1.49665375
v 2.546793125 0 -1.49665375
v 1.49745375 0.274221875 -1.49664125
v 2.546783125 0.19851375 -1.496641875
v 1.49744125 0 -1.49665375
v 1.40082125 0 -1.102828125
v 1.40082125 0.244461875 -1.102828125
v 2.60753375 0 -1.102828125
v 1.49744125 0 -1.102828125
v 2.60753375 0.198495 -1.102828125
v 2.70841 0.168753125 -1.102828125
v 1.49744125 0.27420375 -1.102828125
v 2.70841 0 -1.102828125
v 1.40082125 0 0
v 1.40082125 0.244461875 0
v 2.475265 0.23489125 -1.47444
v 1.57213375 0.300125 -1.47444125
v 1.577065 0.37108375 -1.474443125
v 2.480195 0.30585 -1.474441875
v 1.519608125 0.303905 -1.42177875
v 1.519601875 0.30382 -1.102828125
v 1.524531875 0.37478 -1.10283
v 1.524538125 0.374865 -1.42178125
v 1.519601875 0.30382 0
v 1.49744125 0.27420375 0
v 2.53582 0.23110875 -1.42239125
v 2.54075 0.30206875 -1.422391875
v 2.590303125 0.30214625 -1.10113125
v 2.481628125 0.309551875 -1.10130375
v 2.585373125 0.23118625 0
v 2.590303125 0.302145 0
v 2.48161125 0.309553125 0
v 1.577075 0.37119875 -1.10274625
v 1.57709625 0.371198125 0
v 1.524531875 0.37478 0
v 2.60753375 0.198495 0
v 2.60753375 0 0
v 1.49744125 0 0
v 2.70841 0.168753125 0
v 2.70841 0 0
v 1.40082125 0 1.49665375
v 1.40082125 0 1.62276125
v 1.40082125 0.244461875 1.62276125
v 1.40082125 0.244461875 1.49665375
v 2.49773375 0 1.62276125
v 2.59861 0 1.62276125
v 2.59861 0.168753125 1.62276125
v 2.49773375 0.198495 1.62276125
v 1.49744125 0 1.62276125
v 1.49744125 0.27420375 1.62276125
v 2.64767 0 1.49665375
v 2.64767 0.168753125 1.49665375
v 2.546793125 0 1.49665375
v 1.49745375 0.274221875 1.49664125
v 2.546783125 0.19851375 1.496641875
v 1.49744125 0 1.49665375
v 1.40082125 0 1.102828125
v 1.40082125 0.244461875 1.102828125
v 1.49744125 0 1.102828125
v 2.60753375 0 1.102828125
v 2.70841 0.168753125 1.102828125
v 2.60753375 0.198495 1.102828125
v 1.49744125 0.27420375 1.102828125
v 2.70841 0 1.102828125
v 2.475265 0.23489125 1.47444
v 2.480195 0.30585 1.474441875
v 1.577065 0.37108375 1.474443125
v 1.57213375 0.300125 1.47444125
v 1.519608125 0.303905 1.42177875
v 1.524538125 0.374865 1.42178125
v 1.524531875 0.37478 1.10283
v 1.519601875 0.30382 1.102828125
v 2.585373125 0.23118625 1.10112875
v 2.53582 0.23110875 1.42239125
v 2.590303125 0.30214625 1.10113125
v 2.54075 0.30206875 1.422391875
v 2.481628125 0.309551875 1.10130375
v 1.577075 0.37119875 1.10274625
vt 0.18791796875 0.6413171875
vt 0.18791796875 0.671875
vt 0.1721546875 0.671875
vt 0.1721546875 0.6413171875
vt 0.045169921875 0.94228671875
vt 0.045169921875 0.9670984375
vt 0.032559765625 0.96338046875
vt 0.032559765625 0.94228671875
vt 0.182283984375 0.94228671875
vt 0.182283984375 0.97284453125
vt 0.170205859375 0.9765625
vt 0.170205859375 0.94228671875
vt 0.170205859375 0.94228671875
vt 0.170205859375 0.9765625
vt 0.045169921875 0.9670984375
vt 0.045169921875 0.94228671875
vt 0.58153125 0.6107421875
vt 0.58153125 0.6318359375
vt 0.5646171875 0.6318359375
vt 0.5646171875 0.6107421875
vt 0.137420703125 0.4140625
vt 0.150030859375 0.4140625
vt 0.156162890625 0.42982578125000004
vt 0.143553515625 0.42982578125000004
vt 0.409886328125 0.98653875
vt 0.40991203125 0.99917625
vt 0.39414875 0.99920828125
vt 0.3941215625 0.98656921875
vt 0.409637109375 0.861145
vt 0.409886328125 0.98653875
vt 0.394121484375 0.98656921875
vt 0.393860546875 0.85506296875
vt 0.000306640625 0.4140625
vt 0.012384765625 0.4140625
vt 0.012384765625 0.42982578125000004
vt 0.000306640625 0.42982578125000004
vt 0.4098075 0.84995328125
vt 0.409637109375 0.863098125
vt 0.393854453125 0.85701375
vt 0.394025703125 0.84386671875
vt 0.012384765625 0.4140625
vt 0.137420703125 0.4140625
vt 0.143553515625 0.42982578125000004
vt 0.012384765625 0.42982578125000004
vt 0.237146875 0.6413171875
vt 0.237146875 0.671875
vt 0.18791796875 0.671875
vt 0.18791796875 0.6413171875
vt 0.012384765625 0.42982578125000004
vt 0.143553515625 0.42982578125000004
vt 0.151145703125 0.4790546875
vt 0.012384765625 0.4790546875
vt 0.39399 0.84354890625
vt 0.39398796875 0.8566975
vt 0.344715 0.849413046875
vt 0.344715 0.83626734375
vt 0.000306640625 0.42982578125000004
vt 0.012384765625 0.42982578125000004
vt 0.012384765625 0.4790546875
vt 0.000306640625 0.4790546875
vt 0.3941215625 0.98656921875
vt 0.39414875 0.99920828125
vt 0.34492 0.99930828125
vt 0.344894296875 0.986671640625
vt 0.143553515625 0.42982578125000004
vt 0.156162890625 0.42982578125000004
vt 0.163755859375 0.4790546875
vt 0.151145703125 0.4790546875
vt 0.5646171875 0.6107421875
vt 0.5646171875 0.6318359375
vt 0.51480625 0.6318359375
vt 0.51480625 0.6107421875
vt 0.375 0.6413171875
vt 0.375 0.671875
vt 0.237146875 0.671875
vt 0.237146875 0.6413171875
vt 0.18157421875 0.87066703125
vt 0.294465625 0.87882171875
vt 0.29384921875 0.88769125
vt 0.18095859375 0.87953734375
vt 0.4218875 0.834855859375
vt 0.46175625 0.8348492187500001
vt 0.46175546875 0.843740625
vt 0.42188671875 0.843747265625
vt 0.599609375 0.8348492187500001
vt 0.46175625 0.8348492187500001
vt 0.46175625 0.83022578125
vt 0.599609375 0.83022578125
vt 0.5449 0.5912580468749999
vt 0.5355471875 0.5953984375
vt 0.495063046875 0.591924921875
vt 0.495274765625 0.586988203125
vt 0.73725078125 0.98871875
vt 0.77788125 0.98828453125
vt 0.77788046875 0.997175625
vt 0.73725078125 0.997609921875
vt 0.535221796875 0.69295984375
vt 0.5417278125 0.70054375
vt 0.49508375 0.7003959375
vt 0.4950625 0.68677953125
vt 0.599609375 0.98871875
vt 0.73725078125 0.98871875
vt 0.73725078125 0.99761015625
vt 0.599609375 0.99761015625
vt 0.303863984375 0.876653125
vt 0.294465 0.88077484375
vt 0.18157421875 0.87262015625
vt 0.172698515625 0.8671875
vt 0.46175625 0.8348492187500001
vt 0.4218875 0.8348625000000001
vt 0.4125296875 0.83023359375
vt 0.46175625 0.83022578125
vt 0.20703125 0.944881640625
vt 0.202704375 0.953125
vt 0.1965909375 0.944881640625
vt 0.54341546875 0.60155796875
vt 0.535546953125 0.5953985937499999
vt 0.5449 0.5912580468749999
vt 0.20703125 0.96484375
vt 0.20703125 0.97373578125
vt 0.1953125 0.97378828125
vt 0.1953125 0.96489703125
vt 0.2265625 0.944233828125
vt 0.2265625 0.953125
vt 0.21875 0.953108828125
vt 0.21875 0.944217578125
vt 0.35742125 0.7003990625000001
vt 0.49508375 0.7003951562499999
vt 0.49526546875 0.8137271875000001
vt 0.3574225 0.813725625
vt 0.3574225 0.813725625
vt 0.49526546875 0.8137271875000001
vt 0.495275625 0.82031078125
vt 0.3574225 0.8203115625
vt 0.49508375 0.7003951562499999
vt 0.541727734375 0.70054171875
vt 0.541725625 0.81372734375
vt 0.49526546875 0.8137257812500001
vt 0.49526546875 0.8137271875000001
vt 0.54172765625 0.813730390625
vt 0.535143984375 0.8203125
vt 0.495275625 0.820310078125
vt 0.46175625 0.8348492187500001
vt 0.599609375 0.8348492187500001
vt 0.599609375 0.843740625
vt 0.46175546875 0.843740625
vt 0.4950625 0.68677953125
vt 0.49508375 0.7003951562499999
vt 0.35742125 0.7003990625000001
vt 0.35742109375 0.6867803125
vt 0.495063046875 0.591924921875
vt 0.357421640625 0.591924921875
vt 0.357421640625 0.586988203125
vt 0.495274765625 0.586988203125
vt 0.012384765625 0.4790546875
vt 0.151145703125 0.4790546875
vt 0.151145703125 0.6169078125
vt 0.012384765625 0.6169078125
vt 0.344769609375 0.8360394531249999
vt 0.344769609375 0.849185546875
vt 0.206916484375 0.849185546875
vt 0.206916484375 0.8360394531249999
vt 0.000306640625 0.4790546875
vt 0.012384765625 0.4790546875
vt 0.012384765625 0.6169078125
vt 0.000306640625 0.6169078125
vt 0.344894296875 0.986670859375
vt 0.34492 0.99930828125
vt 0.207067109375 0.999588359375
vt 0.207041484375 0.9869509375
vt 0.151145703125 0.4790546875
vt 0.163755859375 0.4790546875
vt 0.163755859375 0.6169078125
vt 0.151145703125 0.6169078125
vt 0.51480625 0.6107421875
vt 0.51480625 0.6318359375
vt 0.376953125 0.6318359375
vt 0.376953125 0.6107421875
vt 0.56208203125 0.6413171875
vt 0.5778453125 0.6413171875
vt 0.5778453125 0.671875
vt 0.56208203125 0.671875
vt 0.169673828125 0.89541171875
vt 0.182283984375 0.89541171875
vt 0.182283984375 0.91650546875
vt 0.169673828125 0.9202234375
vt 0.032559765625 0.89541171875
vt 0.044637890625 0.89541171875
vt 0.044637890625 0.9296875
vt 0.032559765625 0.92596953125
vt 0.044637890625 0.89541171875
vt 0.169673828125 0.89541171875
vt 0.169673828125 0.9202234375
vt 0.044637890625 0.9296875
vt 0.172375 0.6107421875
vt 0.1892890625 0.6107421875
vt 0.1892890625 0.6318359375
vt 0.172375 0.6318359375
vt 0.137420703125 0.819753125
vt 0.143553515625 0.8039898437499999
vt 0.156162890625 0.8039898437499999
vt 0.150030859375 0.819753125
vt 0.00419734375 0.98736328125
vt 0.019962109375 0.987329296875
vt 0.01998625 0.999968359375
vt 0.004222265625 1
vt 0.00396171875 0.861976328125
vt 0.019733671875 0.855861875
vt 0.019724453125 0.987369453125
vt 0.003965859375 0.987369453125
vt 0.000306640625 0.819753125
vt 0.000306640625 0.8039898437499999
vt 0.012384765625 0.8039898437499999
vt 0.012384765625 0.819753125
vt 0.003821015625 0.848736796875
vt 0.01968 0.8428564843749999
vt 0.01968 0.856004765625
vt 0.003819453125 0.861883125
vt 0.012384765625 0.819753125
vt 0.012384765625 0.8039898437499999
vt 0.143553515625 0.8039898437499999
vt 0.137420703125 0.819753125
vt 0.512853125 0.6413171875
vt 0.56208203125 0.6413171875
vt 0.56208203125 0.671875
vt 0.512853125 0.671875
vt 0.012384765625 0.8039898437499999
vt 0.012384765625 0.7547609375
vt 0.151145703125 0.7547609375
vt 0.143553515625 0.8039898437499999
vt 0.0198 0.8429578125
vt 0.069165078125 0.8363080468749999
vt 0.068995859375 0.84945375
vt 0.01963328125 0.856104765625
vt 0.000306640625 0.8039898437499999
vt 0.000306640625 0.7547609375
vt 0.012384765625 0.7547609375
vt 0.012384765625 0.8039898437499999
vt 0.019962109375 0.987329296875
vt 0.06918859375 0.987231015625
vt 0.069214296875 0.999867734375
vt 0.01998625 0.999968359375
vt 0.143553515625 0.8039898437499999
vt 0.151145703125 0.7547609375
vt 0.163755859375 0.7547609375
vt 0.156162890625 0.8039898437499999
vt 0.1892890625 0.6107421875
vt 0.2391 0.6107421875
vt 0.2391 0.6318359375
vt 0.1892890625 0.6318359375
vt 0.375 0.6413171875
vt 0.512853125 0.6413171875
vt 0.512853125 0.671875
vt 0.375 0.671875
vt 0.154363359375 0.864808046875
vt 0.154978984375 0.8736783593749999
vt 0.042088359375 0.881832265625
vt 0.041471953125 0.8729627343749999
vt 0.77733125 0.8348585937499999
vt 0.77733140625 0.84375
vt 0.73746265625 0.843740625
vt 0.7374625 0.8348492187500001
vt 0.599609375 0.8348492187500001
vt 0.599609375 0.83022578125
vt 0.7374625 0.83022578125
vt 0.7374625 0.8348492187500001
vt 0.16994375 0.591262734375
vt 0.219568515625 0.586988203125
vt 0.219780234375 0.591924921875
vt 0.17929734375 0.595402265625
vt 0.46196796875 0.9887190625
vt 0.46196796875 0.99761015625
vt 0.4213375 0.99717234375
vt 0.4213375 0.98828125
vt 0.179622265625 0.69295984375
vt 0.2197828125 0.68678125
vt 0.2197609375 0.7003970312500001
vt 0.1731159375 0.7005440625
vt 0.599609375 0.98871875
vt 0.599609375 0.99761015625
vt 0.46196796875 0.99761015625
vt 0.46196796875 0.98871875
vt 0.03207328125 0.868841484375
vt 0.16323921875 0.859375
vt 0.154363359375 0.864808046875
vt 0.041472109375 0.8729627343749999
vt 0.7374625 0.8348492187500001
vt 0.7374625 0.83022578125
vt 0.7866890625 0.83022890625
vt 0.77733125 0.8348585937499999
vt 0.1953125 0.9296875
vt 0.1953125 0.9192471875
vt 0.203555859375 0.925360625
vt 0.171429375 0.6015625
vt 0.16994375 0.591262734375
vt 0.179297265625 0.595402265625
vt 0.2109375 0.912383671875
vt 0.2109375 0.902391171875
vt 0.21875 0.90234375
vt 0.21875 0.912336171875
vt 0.21875 0.9765478125
vt 0.21875 0.967238125
vt 0.2265625 0.96725359375
vt 0.2265625 0.9765625
vt 0.35742203125 0.7003990625000001
vt 0.3574225 0.813725625
vt 0.21957953125 0.81372875
vt 0.21975953125 0.7003975
vt 0.3574225 0.813725625
vt 0.3574225 0.8203115625
vt 0.21956859375 0.8203115625
vt 0.21957953125 0.81372875
vt 0.2197609375 0.7003970312500001
vt 0.21957953125 0.81372875
vt 0.17311734375 0.81372875
vt 0.173118984375 0.700543984375
vt 0.21957953125 0.81372875
vt 0.21956859375 0.8203115625
vt 0.17969953125 0.820311640625
vt 0.1731175 0.81372875
vt 0.7374625 0.8348492187500001
vt 0.73746328125 0.843740625
vt 0.599609375 0.843740625
vt 0.599609375 0.8348492187500001
vt 0.21978078125 0.6867810937500001
vt 0.35742140625 0.6867810937500001
vt 0.35742203125 0.7003990625000001
vt 0.21975875 0.7003975
vt 0.219780234375 0.591924921875
vt 0.219568515625 0.586988203125
vt 0.357421640625 0.586988203125
vt 0.357421640625 0.591924921875
vt 0.012384765625 0.7547609375
vt 0.012384765625 0.6169078125
vt 0.151145703125 0.6169078125
vt 0.151145703125 0.7547609375
vt 0.069074765625 0.836218125
vt 0.206927890625 0.836218125
vt 0.206927890625 0.84936421875
vt 0.069074765625 0.84936421875
vt 0.000306640625 0.7547609375
vt 0.000306640625 0.6169078125
vt 0.012384765625 0.6169078125
vt 0.012384765625 0.7547609375
vt 0.06918859375 0.987231015625
vt 0.207041484375 0.9869509375
vt 0.207067109375 0.999588359375
vt 0.069214296875 0.999868515625
vt 0.151145703125 0.7547609375
vt 0.151145703125 0.6169078125
vt 0.163755859375 0.6169078125
vt 0.163755859375 0.7547609375
vt 0.2391 0.6107421875
vt 0.376953125 0.6107421875
vt 0.376953125 0.6318359375
vt 0.2391 0.6318359375
vn -1 0 0
vn 0 0 -1
vn 0 0 -1
vn 0 0 -1
vn 0.9319592432412466 0 -0.36256305511897263
vn 0 -1 0
vn -0.29420010348629083 0.9557438459695442 0
vn 0.07547075377921104 0.9971480043547337 -0.00015078252458886719
vn 0 -1 0
vn 0.2811003295205234 0.9534149113260222 -0.10946511592578921
vn 0 -1 0
vn -1 0 0
vn 0 -1 0
vn 0.2826631143522658 0.9582297261465075 -0.04355864683237024
vn 0 -1 0
vn -0.2943290820708384 0.955704133844433 0
vn 0 -1 0
vn 0.9883145108862164 0 -0.15242843426257197
vn -1 0 0
vn -5.219149316837451e-7 -0.000026387532284477362 -0.999999999651713
vn -0.9975952613664606 0.06930868991708103 -0.0000010776957736760622
vn -0.800668613191571 0.5991074793806924 0
vn 0.8172301996047601 0.5623264718926578 -0.1261893016967776
vn 0.9859931750783969 -0.06850396555261158 -0.15206796310330647
vn 0.0710223227230057 0.997422898628982 -0.010168134813655175
vn 0.9975952613650707 -0.06930868994546394 0
vn 0.04175405836776823 0.5780501084311013 -0.8149323105342021
vn -0.801570616260963 0.5979000974382847 0.00014363255105907344
vn -0.23243183875069157 0.9257467135915957 -0.29827581633336075
vn 0.3425764732003337 0.8778214067860838 -0.33476997744379994
vn 0.6495551494150011 -0.04514918823332288 -0.7589727654338643
vn -0.7054030368284433 0.04898350045000643 -0.7071118527622586
vn 0.0679940246926975 0.9976857283764665 -9.053632459494274e-8
vn 0.06800053267984436 0.9976852848241787 -7.449202537805015e-7
vn 0.07203933935050404 0.99734992750646 -0.010171316964983445
vn 0.07149143466024968 0.9974411653552899 -0.0003105235909301018
vn -0.9975952613650708 0.0693086899454608 0
vn 0.06798702480376549 0.9976862054064516 -9.064412356790258e-8
vn 0.8277430058145678 0.5611074017735506 0
vn 0 -1 0
vn 0.28279977575169596 0.9591789649668048 0
vn 0 -1 0
vn -0.2942001034862909 0.9557438459695442 0
vn 0 -1 0
vn 1 0 0
vn -1 0 0
vn 0 0 1
vn 0 0 1
vn 0 0 1
vn 0.9319592432412466 0 0.36256305511897263
vn 0 -1 0
vn -0.29432906756787586 0.9557041321888309 0.00010817494490416694
vn 0.0719335196925257 0.9970128415945082 0.028124054478135988
vn 0 -1 0
vn 0.2812260927944124 0.9533845767698443 0.10940627728322232
vn 0 -1 0
vn -1 0 0
vn 0 -1 0
vn 0.2825311610916939 0.9582678980083148 0.04357497744010309
vn 0 -1 0
vn -0.29420010330968616 0.9557438453958231 -0.00003464931725273921
vn 0 -1 0
vn 0.9883145108862164 0 0.15242843426257197
vn -1 0 0
vn -5.219163107491398e-7 -0.00002638754137951957 0.9999999996517128
vn -0.9975952613671167 0.06930868990763459 0.0000010776936644111807
vn -0.800668613191571 0.5991074793806924 0
vn 0.8180696550774923 0.5611087381081663 0.126170612505664
vn 0.9859927707363181 -0.06850795563273113 0.1520687872995069
vn 0.06800006327222279 0.9976276216617395 0.010729393855892435
vn 0.9975951769465766 -0.06930990501308078 7.868034012015212e-8
vn 0.04177847370744199 0.5790645136897613 0.8142105674332143
vn -0.8006686131897038 0.5991074793792953 -0.00000215956590804507
vn -0.23243183875069157 0.9257467135915957 0.29827581633336075
vn 0.3425764732003337 0.8778214067860838 0.33476997744379994
vn 0.6495465517207775 -0.0451344259175496 0.7589810015703561
vn -0.705414781065746 0.04900383432650076 0.707098727813356
vn 0.06799481864883489 0.997685674266378 7.448099232635043e-7
vn 0.0679849760802253 0.9976863450139886 0
vn 0.06799451414766448 0.9976856467005899 0.00031050515157569084
vn 0.06800010511961126 0.9976852781816434 -0.00026721403130553026
vn -0.9975952613650708 0.06930868994546081 0
vn 0.06799935959289886 0.9976853647787327 -0.000001132568625203931
vn 0.8277430058145677 0.5611074017735506 0
vn 0 -1 0
vn 0.28279977575169596 0.9591789649668048 0
vn 0 -1 0
vn -0.2942001034862909 0.9557438459695442 0
vn 0 -1 0
vn 1 0 0
usemtl m_0f6d6c50-a5e8-c32e-ca35-5d30a9013521
f 158/601/151 159/602/151 160/603/151 161/604/151
f 162/605/152 163/606/152 164/607/152 165/608/152
f 161/609/153 160/610/153 166/611/153 167/612/153
f 167/613/154 166/614/154 163/615/154 162/616/154
f 165/617/155 164/618/155 168/619/155 169/620/155
f 162/621/156 165/622/156 169/623/156 170/624/156
f 166/625/157 160/626/157 159/627/157 171/628/157
f 163/629/158 166/630/158 171/631/158 172/632/158
f 161/633/159 167/634/159 173/635/159 158/636/159
f 164/637/160 163/638/160 172/639/160 168/640/160
f 167/641/161 162/642/161 170/643/161 173/644/161
f 174/645/162 175/646/162 159/647/162 158/648/162
f 173/649/163 170/650/163 176/651/163 177/652/163
f 168/653/164 172/654/164 178/655/164 179/656/164
f 158/657/165 173/658/165 177/659/165 174/660/165
f 171/661/166 159/662/166 175/663/166 180/664/166
f 170/665/167 169/666/167 181/667/167 176/668/167
f 169/669/168 168/670/168 179/671/168 181/672/168
f 182/673/169 183/674/169 175/675/169 174/676/169
f 184/677/170 185/678/170 186/679/170 187/680/170
f 188/681/171 189/682/171 190/683/171 191/684/171
f 192/685/172 189/686/172 180/687/172 193/688/172
f 172/689/173 194/690/173 157/691/173 178/692/173
f 157/693/174 194/694/174 195/695/174 196/696/174
f 195/697/175 187/698/175 197/699/175 196/700/175
f 198/701/176 157/702/176 196/703/176 199/704/176
f 171/705/177 185/706/177 184/707/177 172/708/177
f 189/709/178 188/710/178 171/711/178 180/712/178
f 188/713/179 185/714/179 171/715/179
f 184/716/180 194/717/180 172/718/180
f 184/719/181 187/720/181 195/721/181 194/722/181
f 188/723/182 191/724/182 186/725/182 185/726/182
f 200/727/183 197/728/183 201/729/183 202/730/183
f 202/731/184 201/732/184 190/733/184 203/734/184
f 197/735/185 187/736/185 186/737/185 201/738/185
f 201/739/186 186/740/186 191/741/186 190/742/186
f 189/743/187 192/744/187 203/745/187 190/746/187
f 196/747/188 197/748/188 200/749/188 199/750/188
f 157/751/189 198/752/189 204/753/189 178/754/189
f 177/755/190 176/756/190 205/757/190 206/758/190
f 179/759/191 178/760/191 204/761/191 207/762/191
f 174/763/192 177/764/192 206/765/192 182/766/192
f 180/767/193 175/768/193 183/769/193 193/770/193
f 176/771/194 181/772/194 208/773/194 205/774/194
f 181/775/195 179/776/195 207/777/195 208/778/195
f 209/779/196 210/780/196 211/781/196 212/782/196
f 213/783/197 214/784/197 215/785/197 216/786/197
f 210/787/198 217/788/198 218/789/198 211/790/198
f 217/791/199 213/792/199 216/793/199 218/794/199
f 214/795/200 219/796/200 220/797/200 215/798/200
f 213/799/201 221/800/201 219/801/201 214/802/201
f 218/803/202 222/804/202 212/805/202 211/806/202
f 216/807/203 223/808/203 222/809/203 218/810/203
f 210/811/204 209/812/204 224/813/204 217/814/204
f 215/815/205 220/816/205 223/817/205 216/818/205
f 217/819/206 224/820/206 221/821/206 213/822/206
f 225/823/207 209/824/207 212/825/207 226/826/207
f 224/827/208 227/828/208 228/829/208 221/830/208
f 220/831/209 229/832/209 230/833/209 223/834/209
f 209/835/210 225/836/210 227/837/210 224/838/210
f 222/839/211 231/840/211 226/841/211 212/842/211
f 221/843/212 228/844/212 232/845/212 219/846/212
f 219/847/213 232/848/213 229/849/213 220/850/213
f 182/851/214 225/852/214 226/853/214 183/854/214
f 233/855/215 234/856/215 235/857/215 236/858/215
f 237/859/216 238/860/216 239/861/216 240/862/216
f 192/863/217 193/864/217 231/865/217 240/866/217
f 223/867/218 230/868/218 241/869/218 242/870/218
f 241/871/219 243/872/219 244/873/219 242/874/219
f 244/875/220 243/876/220 245/877/220 234/878/220
f 198/879/221 199/880/221 243/881/221 241/882/221
f 222/883/222 223/884/222 233/885/222 236/886/222
f 240/887/223 231/888/223 222/889/223 237/890/223
f 237/891/224 222/892/224 236/893/224
f 233/894/225 223/895/225 242/896/225
f 233/897/226 242/898/226 244/899/226 234/900/226
f 237/901/227 236/902/227 235/903/227 238/904/227
f 200/905/228 202/906/228 246/907/228 245/908/228
f 202/909/229 203/910/229 239/911/229 246/912/229
f 245/913/230 246/914/230 235/915/230 234/916/230
f 246/917/231 239/918/231 238/919/231 235/920/231
f 240/921/232 239/922/232 203/923/232 192/924/232
f 243/925/233 199/926/233 200/927/233 245/928/233
f 241/929/234 230/930/234 204/931/234 198/932/234
f 227/933/235 206/934/235 205/935/235 228/936/235
f 229/937/236 207/938/236 204/939/236 230/940/236
f 225/941/237 182/942/237 206/943/237 227/944/237
f 231/945/238 193/946/238 183/947/238 226/948/238
f 228/949/239 205/950/239 208/951/239 232/952/239
f 232/953/240 208/954/240 207/955/240 229/956/240