# Made in Blockbench 5.2.1
mtllib CoffeeMachine.mtl

o CoffeeMachine
v 0.25730375 0.099381875 -0.7130425
v 0 0.099381875 -0.7130425
v 0 0.140413125 -0.617553125
v 0.25730375 0.140413125 -0.617553125
v 0.278200625 0.119355 0.235360625
v 0.278200625 0.11907375 -0.00426125
v 0.28703875 0.62550375 -0.00426125
v 0.28703875 0.626039375 0.235360625
v 0.278200625 0.020896875 -0.005531875
v 0.278200625 0.020896875 0.235360625
v 0 0.140765625 -0.0251575
v 0.25730375 0.140765625 -0.0251575
v 0 0 -0.617553125
v 0.25730375 0 -0.617553125
v 0.25730375 0 -0.005531875
v 0 0 -0.005531875
v 0 0.6037375 -0.0251575
v 0.266141875 0.6037375 -0.0251575
v 0.25730375 0 0.256256875
v 0 0 0.256256875
v 0 0.626039375 0.256256875
v 0.266141875 0.626039375 0.256256875
v 0.27744625 0.89919625 0.256256875
v 0 0.89919625 0.256256875
v 0 0.89919625 -0.005829375
v 0.27744625 0.89919625 -0.005829375
v 0.27744625 0.89919625 -0.616953125
v 0 0.89919625 -0.616953125
v 0.266141875 0.6037375 -0.616953125
v 0 0.6037375 -0.616953125
v 0 0.64827 -0.71663875
v 0.266141875 0.64827 -0.71663875
v 0.298343125 0.8783 -0.005829375
v 0.298343125 0.8783 0.235360625
v 0 0.119355 0.256256875
v 0.25730375 0.119355 0.256256875
v 0.278200625 0.020896875 -0.692145625
v 0.278200625 0.08658 -0.692145625
v 0.278200625 0.118670625 -0.617553125
v 0.278200625 0.020896875 -0.617553125
v 0.298343125 0.8783 -0.616953125
v 0.28703875 0.62553875 -0.616953125
v 0.28703875 0.660778125 -0.695741875
v 0.298343125 0.8783 -0.695741875
v 0 0.89919625 -0.71663875
v 0.27744625 0.89919625 -0.71663875
v 0 0 -0.7130425
v 0.25730375 0 -0.7130425
v -0.25730375 0.099381875 -0.7130425
v -0.25730375 0.140413125 -0.617553125
v -0.278200625 0.119355 0.235360625
v -0.28703875 0.626039375 0.235360625
v -0.28703875 0.62550375 -0.00426125
v -0.278200625 0.11907375 -0.00426125
v -0.278200625 0.020896875 -0.005531875
v -0.278200625 0.020896875 0.235360625
v -0.25730375 0.140765625 -0.0251575
v -0.25730375 0 -0.005531875
v -0.25730375 0 -0.617553125
v -0.266141875 0.6037375 -0.0251575
v -0.25730375 0 0.256256875
v -0.27744625 0.89919625 0.256256875
v -0.266141875 0.626039375 0.256256875
v -0.27744625 0.89919625 -0.616953125
v -0.27744625 0.89919625 -0.005829375
v -0.266141875 0.6037375 -0.616953125
v -0.266141875 0.64827 -0.71663875
v -0.298343125 0.8783 0.235360625
v -0.298343125 0.8783 -0.005829375
v -0.25730375 0.119355 0.256256875
v -0.278200625 0.020896875 -0.692145625
v -0.278200625 0.020896875 -0.617553125
v -0.278200625 0.118670625 -0.617553125
v -0.278200625 0.08658 -0.692145625
v -0.298343125 0.8783 -0.616953125
v -0.298343125 0.8783 -0.695741875
v -0.28703875 0.660778125 -0.695741875
v -0.28703875 0.62553875 -0.616953125
v -0.27744625 0.89919625 -0.71663875
v -0.25730375 0 -0.7130425
vt 0.3126265625 0.37279375000000003
vt 0.376953125 0.37279375000000003
vt 0.376953125 0.39877656250000004
vt 0.3126265625 0.39877656250000004
vt 1.5625e-7 0.8092004687500001
vt 0.05990640625 0.80913015625
vt 0.05990640625 0.93575671875
vt 1.5625e-7 0.93588953125
vt 0.06022359375 0.78458484375
vt 0.05990640625 0.80913015625
vt 1.5625e-7 0.8092004687500001
vt 1.5625e-7 0.78458484375
vt 0.3126265625 0.39877656250000004
vt 0.376953125 0.39877656250000004
vt 0.376953125 0.546875
vt 0.3126265625 0.546875
vt 0.220703125 0.44965468750000004
vt 0.2850296875 0.44965468750000004
vt 0.2850296875 0.602659375
vt 0.220703125 0.602659375
vt 0.4727828125 0.43113124999999997
vt 0.537109375 0.43113124999999997
vt 0.537109375 0.546875
vt 0.4705734375 0.546875
vt 0.220703125 0.602659375
vt 0.2850296875 0.602659375
vt 0.2850296875 0.66810625
vt 0.220703125 0.66810625
vt 0.3984375 0.9317109375
vt 0.4649734375 0.9317109375
vt 0.4677984375 1
vt 0.3984375 1
vt 0.0703125 0.4941734375
vt 0.1396734375 0.4941734375
vt 0.1396734375 0.6469546875000001
vt 0.0703125 0.6469546875000001
vt 0.1396734375 0.4941734375
vt 0.0703125 0.4941734375
vt 0.0703125 0.4286515625
vt 0.1396734375 0.4286515625
vt 0.4630203125 0.6015140625
vt 0.396484375 0.6015140625
vt 0.396484375 0.57421875
vt 0.4630203125 0.57421875
vt 0.00000171875 0.93588953125
vt 0.05990640625 0.93575671875
vt 0.060296875 0.99901921875
vt 0 0.99901765625
vt 0.3984375 0.805040625
vt 0.4627640625 0.805040625
vt 0.4649734375 0.9317109375
vt 0.3984375 0.9317109375
vt 0.23187671875 0.78458484375
vt 0.23187671875 0.8010067187500001
vt 0.21322828125 0.80902859375
vt 0.21322828125 0.78458484375
vt 0.2130765625 0.99902328125
vt 0.21307828125 0.93577015625
vt 0.23277953125 0.944571875
vt 0.2327703125 0.9990234375
vt 0.4881515625 0.93726875
vt 0.5546875 0.93726875
vt 0.5546875 1
vt 0.4853265625 1
vt 0.21322828125 0.78458484375
vt 0.21322828125 0.80902859375
vt 0.05990640625 0.80913015625
vt 0.06022359375 0.78458484375
vt 0.220703125 0.42578125
vt 0.2850296875 0.42578125
vt 0.2850296875 0.44965468750000004
vt 0.220703125 0.44965468750000004
vt 0.064453125 0.7407796875
vt 0.064453125 0.765625
vt 0.0001265625 0.765625
vt 0.0001265625 0.7407796875
vt 0.0703125 0.6469546875000001
vt 0.1396734375 0.6469546875000001
vt 0.1396734375 0.671875
vt 0.0703125 0.671875
vt 0.060296875 0.99901921875
vt 0.05990640625 0.93575671875
vt 0.21307828125 0.93577015625
vt 0.2130765625 0.99902328125
vt 0.4630203125 0.7494640625
vt 0.396484375 0.7494640625
vt 0.396484375 0.6015140625
vt 0.4630203125 0.6015140625
vt 0.28125 0.9968
vt 0.28125 0.980378125
vt 0.2890625 0.9751546875
vt 0.2890625 1
vt 0.7672109375 0.7109375
vt 0.791084375 0.7109375
vt 0.785859375 0.718325
vt 0.7672109375 0.718325
vt 0.516405 0.6487514062499999
vt 0.516405 0.6189123437499999
vt 0.5237925 0.62413578125
vt 0.5237925 0.6487514062499999
vt 0.548759375 0.7109375
vt 0.61420625 0.7109375
vt 0.61420625 0.718325
vt 0.5539828125 0.718325
vt 0.70092921875 0.843628125
vt 0.55283078125 0.84375
vt 0.54760265625 0.836221875
vt 0.70092609375 0.8360890625
vt 0.61383203125 0.8125
vt 0.54831015625 0.8125
vt 0.55353359375 0.8051125
vt 0.61383203125 0.8051125
vt 0.525355 0.77543265625
vt 0.52734375 0.8385296875
vt 0.5199534375 0.84375
vt 0.5179690625 0.77543265625
vt 0.5237925 0.6487514062499999
vt 0.525355 0.77543265625
vt 0.5179659375 0.77543265625
vt 0.516405 0.6487514062499999
vt 0.0078125 0.28266640624999995
vt 0.0078125 0.39842984375
vt 0.00014515625 0.40397031250000004
vt 0 0.27734375
vt 0.2578125 0.93359375
vt 0.2578125 0.99638796875
vt 0.25 0.991404375
vt 0.25026984375 0.93695265625
vt 0.63776328125 0.859375
vt 0.66384765625 0.8674128125
vt 0.65838203125 0.873284375
vt 0.63776328125 0.86692515625
vt 0.76661328125 0.8125
vt 0.61383203125 0.8125
vt 0.61383203125 0.8051125
vt 0.76661328125 0.8051125
vt 0.61420625 0.7109375
vt 0.7672109375 0.7109375
vt 0.7672109375 0.718325
vt 0.61420625 0.718325
vt 0.72583484375 0.8362217187500001
vt 0.70092921875 0.843628125
vt 0.70092609375 0.836089375
vt 0.7203825 0.8302965625000001
vt 0.48981328125 0.859375
vt 0.63776328125 0.859375
vt 0.63776328125 0.866925
vt 0.48458984375 0.86691875
vt 0.79153359375 0.8125
vt 0.76661328125 0.8125
vt 0.76661328125 0.8051125
vt 0.78631015625 0.8051125
vt 0.4627640625 0.7752015624999999
vt 0.4627640625 0.805040625
vt 0.3984375 0.805040625
vt 0.3984375 0.7752015624999999
vt 0.4412796875 0.37279375000000003
vt 0.4412796875 0.39877656250000004
vt 0.376953125 0.39877656250000004
vt 0.376953125 0.37279375000000003
vt 0.31267734375 0.7154546875000001
vt 0.31267734375 0.8421453125
vt 0.25277109375 0.8420109375
vt 0.25277109375 0.715384375
vt 0.25245390625 0.6908390625
vt 0.31267734375 0.6908390625
vt 0.31267734375 0.7154546875000001
vt 0.25277109375 0.715384375
vt 0.4412796875 0.39877656250000004
vt 0.4412796875 0.546875
vt 0.376953125 0.546875
vt 0.376953125 0.39877656250000004
vt 0.220703125 0.44965468750000004
vt 0.220703125 0.602659375
vt 0.1563765625 0.602659375
vt 0.1563765625 0.44965468750000004
vt 0.6014359375 0.43113124999999997
vt 0.6036453125 0.546875
vt 0.537109375 0.546875
vt 0.537109375 0.43113124999999997
vt 0.220703125 0.602659375
vt 0.220703125 0.66810625
vt 0.1563765625 0.66810625
vt 0.1563765625 0.602659375
vt 0.3984375 0.9317109375
vt 0.3984375 1
vt 0.3290765625 1
vt 0.3319015625 0.9317109375
vt 0.0703125 0.4941734375
vt 0.0703125 0.6469546875000001
vt 0.0009515625 0.6469546875000001
vt 0.0009515625 0.4941734375
vt 0.0009515625 0.4941734375
vt 0.0009515625 0.4286515625
vt 0.0703125 0.4286515625
vt 0.0703125 0.4941734375
vt 0.3299484375 0.6015140625
vt 0.3299484375 0.57421875
vt 0.396484375 0.57421875
vt 0.396484375 0.6015140625
vt 0.31267734375 0.8421453125
vt 0.31267734375 0.9052734375
vt 0.25237890625 0.9052734375
vt 0.25277109375 0.8420109375
vt 0.3984375 0.805040625
vt 0.3984375 0.9317109375
vt 0.3319015625 0.9317109375
vt 0.3341109375 0.805040625
vt 0.08080078125 0.6908390625
vt 0.09944921875 0.6908390625
vt 0.09944921875 0.7152828124999999
vt 0.08080078125 0.7072609375000001
vt 0.09959765625 0.9052734375
vt 0.07990078125 0.9052734375
vt 0.07990078125 0.8508203125
vt 0.09959765625 0.842021875
vt 0.6212234375 0.93726875
vt 0.6240484375 1
vt 0.5546875 1
vt 0.5546875 0.93726875
vt 0.09944921875 0.6908390625
vt 0.25245390625 0.6908390625
vt 0.25277109375 0.715384375
vt 0.09944921875 0.7152828124999999
vt 0.220703125 0.42578125
vt 0.220703125 0.44965468750000004
vt 0.1563765625 0.44965468750000004
vt 0.1563765625 0.42578125
vt 0.064453125 0.7407796875
vt 0.1287796875 0.7407796875
vt 0.1287796875 0.765625
vt 0.064453125 0.765625
vt 0.0703125 0.6469546875000001
vt 0.0703125 0.671875
vt 0.0009515625 0.671875
vt 0.0009515625 0.6469546875000001
vt 0.25237890625 0.9052734375
vt 0.09959765625 0.9052734375
vt 0.09959765625 0.8420203125
vt 0.25277109375 0.8420125
vt 0.3299484375 0.7494640625
vt 0.3299484375 0.6015140625
vt 0.396484375 0.6015140625
vt 0.396484375 0.7494640625
vt 0.0078125 0.71555
vt 0 0.71875
vt 0 0.6939046875
vt 0.0078125 0.699128125
vt 0.5726328125 0.7421875
vt 0.5726328125 0.749575
vt 0.553984375 0.749575
vt 0.548759375 0.7421875
vt 0.4953234375 0.6487499999999999
vt 0.4879359375 0.6487499999999999
vt 0.4879359375 0.624134375
vt 0.4953234375 0.6189109374999999
vt 0.791084375 0.7421875
vt 0.7858609375 0.749575
vt 0.7256375 0.749575
vt 0.7256375 0.7421875
vt 0.5100084375 0.593621875
vt 0.5100115625 0.5860828124999999
vt 0.6633334375 0.586221875
vt 0.658106875 0.59375
vt 0.72601171875 0.78125
vt 0.72601171875 0.7738625
vt 0.78631015625 0.7738625
vt 0.79153359375 0.78125
vt 0.4863734375 0.77543125
vt 0.4937625 0.77543125
vt 0.4917640625 0.84375
vt 0.484375 0.8385281250000001
vt 0.4879359375 0.6487499999999999
vt 0.4953234375 0.6487499999999999
vt 0.4937625 0.77543125
vt 0.4863734375 0.77543125
vt 0.5544853125 0.6875
vt 0.54915421875 0.6796875
vt 0.67578125 0.6796875
vt 0.6702490625 0.6873646875
vt 0.15986359375 0.7653253125
vt 0.16325640625 0.7578125
vt 0.217710625 0.7578125
vt 0.22265625 0.765625
vt 0.5106746875 0.89062984375
vt 0.5106746875 0.8981796875
vt 0.490056875 0.9045415625
vt 0.484589375 0.8986696875
vt 0.57323046875 0.78125
vt 0.57323046875 0.7738625
vt 0.72601171875 0.7738625
vt 0.72601171875 0.78125
vt 0.7256375 0.7421875
vt 0.7256375 0.749575
vt 0.5726328125 0.749575
vt 0.5726328125 0.7421875
vt 0.4851040625 0.5862153125
vt 0.49055578125 0.5802903125000001
vt 0.5100115625 0.58608359375
vt 0.5100084375 0.593621875
vt 0.658623125 0.890625
vt 0.663848125 0.89816875
vt 0.5106746875 0.8981796875
vt 0.5106746875 0.89063125
vt 0.54831015625 0.78125
vt 0.55353359375 0.7738625
vt 0.57323046875 0.7738625
vt 0.57323046875 0.78125
vt 0.3341109375 0.7752015624999999
vt 0.3984375 0.7752015624999999
vt 0.3984375 0.805040625
vt 0.3341109375 0.805040625
vn 0 0.9187710496792898 -0.39479077784469074
vn 0.9998477515629755 -0.01744916258768744 0.00002048050486954514
vn 1 0 0
vn 0 0.999999822962835 -0.0005950414262333637
vn 0 -1 0
vn 0 0 -1
vn 0 -1 0
vn 0 0 1
vn 0 1 0
vn 0 1 0
vn 0 -0.9130356093140196 -0.4078798550119594
vn 0.9990016995326853 -0.04467207583887145 0.00009985515980622526
vn 0 0 1
vn 1 0 0
vn 0.998801994731176 -0.04466994960338746 -0.019979262335103307
vn 0 0 -1
vn 1 0 0
vn 0 -1 0
vn 0 0 -1
vn 0 1 0
vn 0.9990016761604753 -0.04467271003698377 -0.0000025519268576799303
vn 0 -1 0
vn 0.7071067811865485 0 -0.7071067811865466
vn 0.7071067811865479 -0.7071067811865472 0
vn 0.7070962065993945 0 0.7071173556155629
vn 0.7071067811865479 -0.7071067811865472 0
vn 0.7203793664524678 0.6935801309588072 -0.00041270898339768036
vn 0.7070962065993954 0.7071173556155619 0
vn 0.6911024391882188 -0.030969879409433416 0.7220929892454708
vn 0.7070424290218762 -0.012332982180472787 0.7070635764295748
vn 0.7140946643505297 -0.013632054658532003 -0.6999164074601275
vn 0.6910275024597956 -0.031131195014945368 -0.7221577663787316
vn 0.6904170709920944 -0.6605005037041529 -0.29506499739762054
vn 0.7070962065993955 0.707117355615562 0
vn 0.7071067811865478 -0.7071067811865472 0
vn 0.6910070102696102 0.6641318669760953 -0.2853737462085485
vn 0.7219218618536969 -0.6919745843437402 0
vn 0.7070962065993954 0.7071173556155619 0
vn 0 0 1
vn 0 0.9187710496792898 -0.39479077784469074
vn -0.9998479038085593 -0.017440405094094433 0.00003898440815774291
vn -1 0 0
vn 0 0.999999822962835 -0.0005950414262333637
vn 0 -1 0
vn 0 0 -1
vn 0 -1 0
vn 0 0 1
vn 0 1 0
vn 0 1 0
vn 0 -0.9130356093140196 -0.4078798550119594
vn -0.9989974392703656 -0.04476735787660843 0
vn 0 0 1
vn -1 0 0
vn -0.9986523452989587 -0.05189887502527686 0
vn 0 0 -1
vn -1 0 0
vn 0 -1 0
vn 0 0 -1
vn 0 1 0
vn -0.9990014007882799 -0.04467886774589061 0
vn 0 -1 0
vn -0.7071067811865485 0 -0.7071067811865466
vn -0.7071067811865478 -0.7071067811865472 0
vn -0.7070962065993945 0 0.7071173556155629
vn -0.7071067811865479 -0.7071067811865472 0
vn -0.7209882915597511 0.6929470946389634 -0.0004554834474634685
vn -0.7070962065993954 0.707117355615562 0
vn -0.7067936577108999 -0.0292500803956907 0.70681479767793
vn -0.7070424290218762 -0.012332982180472789 0.7070635764295748
vn -0.700668100659198 -0.012227933292140265 -0.7133825694296398
vn -0.7176890906495111 -0.03729752060159951 -0.695364123405609
vn -0.6896473122048326 -0.661038870579914 -0.2956589189439107
vn -0.7070962065993955 0.707117355615562 0
vn -0.7071067811865478 -0.7071067811865472 0
vn -0.6917593874420785 0.663345645208071 -0.2853795803298625
vn -0.7213851838422837 -0.6925340532910735 -0.00003956098139083717
vn -0.7070962065993954 0.707117355615562 0
vn 0 0 1
usemtl m_f908ffe3-d0ef-553a-2a9a-dcf99ff7282f
f 1/1/1 2/2/1 3/3/1 4/4/1
f 5/5/2 6/6/2 7/7/2 8/8/2
f 9/9/3 6/10/3 5/11/3 10/12/3
f 4/13/4 3/14/4 11/15/4 12/16/4
f 13/17/5 14/18/5 15/19/5 16/20/5
f 12/21/6 11/22/6 17/23/6 18/24/6
f 16/25/7 15/26/7 19/27/7 20/28/7
f 21/29/8 22/30/8 23/31/8 24/32/8
f 25/33/9 26/34/9 27/35/9 28/36/9
f 26/37/10 25/38/10 24/39/10 23/40/10
f 29/41/11 30/42/11 31/43/11 32/44/11
f 8/45/12 7/46/12 33/47/12 34/48/12
f 35/49/13 36/50/13 22/51/13 21/52/13
f 37/53/14 38/54/14 39/55/14 40/56/14
f 41/57/15 42/58/15 43/59/15 44/60/15
f 32/61/16 31/62/16 45/63/16 46/64/16
f 40/65/17 39/66/17 6/67/17 9/68/17
f 47/69/18 48/70/18 14/71/18 13/72/18
f 47/73/19 2/74/19 1/75/19 48/76/19
f 28/77/20 27/78/20 46/79/20 45/80/20
f 33/81/21 7/82/21 42/83/21 41/84/21
f 18/85/22 17/86/22 30/87/22 29/88/22
f 38/89/23 37/90/23 48/91/23 1/92/23
f 14/93/24 48/94/24 37/95/24 40/96/24
f 36/97/25 19/98/25 10/99/25 5/100/25
f 19/101/26 15/102/26 9/103/26 10/104/26
f 4/105/27 12/106/27 6/107/27 39/108/27
f 26/109/28 23/110/28 34/111/28 33/112/28
f 8/113/29 34/114/29 23/115/29 22/116/29
f 5/117/30 8/118/30 22/119/30 36/120/30
f 12/121/31 18/122/31 7/123/31 6/124/31
f 32/125/32 46/126/32 44/127/32 43/128/32
f 29/129/33 32/130/33 43/131/33 42/132/33
f 27/133/34 26/134/34 33/135/34 41/136/34
f 15/137/35 14/138/35 40/139/35 9/140/35
f 1/141/36 4/142/36 39/143/36 38/144/36
f 18/145/37 29/146/37 42/147/37 7/148/37
f 46/149/38 27/150/38 41/151/38 44/152/38
f 19/153/39 36/154/39 35/155/39 20/156/39
f 49/157/40 50/158/40 3/159/40 2/160/40
f 51/161/41 52/162/41 53/163/41 54/164/41
f 55/165/42 56/166/42 51/167/42 54/168/42
f 50/169/43 57/170/43 11/171/43 3/172/43
f 13/173/44 16/174/44 58/175/44 59/176/44
f 57/177/45 60/178/45 17/179/45 11/180/45
f 16/181/46 20/182/46 61/183/46 58/184/46
f 21/185/47 24/186/47 62/187/47 63/188/47
f 25/189/48 28/190/48 64/191/48 65/192/48
f 65/193/49 62/194/49 24/195/49 25/196/49
f 66/197/50 67/198/50 31/199/50 30/200/50
f 52/201/51 68/202/51 69/203/51 53/204/51
f 35/205/52 21/206/52 63/207/52 70/208/52
f 71/209/53 72/210/53 73/211/53 74/212/53
f 75/213/54 76/214/54 77/215/54 78/216/54
f 67/217/55 79/218/55 45/219/55 31/220/55
f 72/221/56 55/222/56 54/223/56 73/224/56
f 47/225/57 13/226/57 59/227/57 80/228/57
f 47/229/58 80/230/58 49/231/58 2/232/58
f 28/233/59 45/234/59 79/235/59 64/236/59
f 69/237/60 75/238/60 78/239/60 53/240/60
f 60/241/61 66/242/61 30/243/61 17/244/61
f 74/245/62 49/246/62 80/247/62 71/248/62
f 59/249/63 72/250/63 71/251/63 80/252/63
f 70/253/64 51/254/64 56/255/64 61/256/64
f 61/257/65 56/258/65 55/259/65 58/260/65
f 50/261/66 73/262/66 54/263/66 57/264/66
f 65/265/67 69/266/67 68/267/67 62/268/67
f 52/269/68 63/270/68 62/271/68 68/272/68
f 51/273/69 70/274/69 63/275/69 52/276/69
f 57/277/70 54/278/70 53/279/70 60/280/70
f 67/281/71 77/282/71 76/283/71 79/284/71
f 66/285/72 78/286/72 77/287/72 67/288/72
f 64/289/73 75/290/73 69/291/73 65/292/73
f 58/293/74 55/294/74 72/295/74 59/296/74
f 49/297/75 74/298/75 73/299/75 50/300/75
f 60/301/76 53/302/76 78/303/76 66/304/76
f 79/305/77 76/306/77 75/307/77 64/308/77
f 61/309/78 20/310/78 35/311/78 70/312/78