# Made in Blockbench 5.2.1
mtllib CoffeeMachineMug.mtl

o CoffeeMachineCup
v 0.21361625 0.140841875 -0.446475
v 0.236543125 0.1672775 -0.458409375
v 0.236543125 0.1672775 -0.212141875
v 0.21361625 0.140841875 -0.22407625
v 0.049156875 0.140841875 -0.548891875
v 0.049176875 0.1672775 -0.57181875
v 0.12313375 0.1672775 -0.57181875
v 0.111199375 0.140841875 -0.548891875
v 0.12313375 0.1672775 -0.0987325
v 0.111199375 0.140841875 -0.12165875
v 0.096108125 0.500454375 -0.51990125
v 0.184625625 0.500454375 -0.43138375
v 0.049176875 0.1672775 -0.0987325
v 0.096108125 0.500454375 -0.15065
v 0.04805375 0.500454375 -0.15065
v 0.049156875 0.140841875 -0.12165875
v 0.116318125 0.500454375 -0.101858125
v 0.0487425 0.500454375 -0.101858125
v 0.184625625 0.500454375 -0.2391675
v 0.184625625 0.602798125 -0.43138375
v 0.096108125 0.602798125 -0.51990125
v 0.096108125 0.602798125 -0.15065
v 0.184625625 0.602798125 -0.2391675
v 0.2334175 0.500454375 -0.45159375
v 0.2334175 0.500454375 -0.2189575
v 0.116318125 0.602798125 -0.101858125
v 0.2334175 0.602798125 -0.2189575
v 0.2334175 0.602798125 -0.45159375
v 0.0487425 0.602798125 -0.101858125
v 0.116318125 0.500454375 -0.568693125
v 0.116318125 0.602798125 -0.568693125
v 0.04805375 0.602798125 -0.51990125
v 0.0487425 0.602798125 -0.568693125
v 0 0.500454375 -0.643770625
v 0 0.602798125 -0.643770625
v 0 0.602798125 -0.68836125
v 0 0.500454375 -0.72691375
v 0.04805375 0.602798125 -0.15065
v 0 0.602798125 -0.51990125
v 0 0.602798125 -0.15065
v 0 0.1672775 -0.57181875
v 0 0.500454375 -0.51990125
v 0.04805375 0.500454375 -0.51990125
v 0 0.602798125 -0.101858125
v 0 0.500454375 -0.568693125
v 0.0487425 0.500454375 -0.568693125
v 0 0.1672775 -0.0987325
v 0 0.140841875 -0.12165875
v 0 0.602798125 -0.568693125
v 0 0.500454375 -0.101858125
v 0 0.500454375 -0.15065
v 0 0.140841875 -0.548891875
v 0.0487425 0.500454375 -0.72691375
v 0.0487425 0.602798125 -0.68836125
v 0.0487425 0.602798125 -0.643770625
v 0.0487425 0.2628975 -0.79261375
v 0 0.2628975 -0.79261375
v 0.0487425 0.500454375 -0.643770625
v 0.0487425 0.235064375 -0.7155375
v 0 0.235064375 -0.7155375
v -0.21361625 0.140841875 -0.446475
v -0.21361625 0.140841875 -0.22407625
v -0.236543125 0.1672775 -0.212141875
v -0.236543125 0.1672775 -0.458409375
v -0.049156875 0.140841875 -0.548891875
v -0.111199375 0.140841875 -0.548891875
v -0.12313375 0.1672775 -0.57181875
v -0.049176875 0.1672775 -0.57181875
v -0.12313375 0.1672775 -0.0987325
v -0.111199375 0.140841875 -0.12165875
v -0.184625625 0.500454375 -0.43138375
v -0.096108125 0.500454375 -0.51990125
v -0.049176875 0.1672775 -0.0987325
v -0.04805375 0.500454375 -0.15065
v -0.096108125 0.500454375 -0.15065
v -0.049156875 0.140841875 -0.12165875
v -0.0487425 0.500454375 -0.101858125
v -0.116318125 0.500454375 -0.101858125
v -0.184625625 0.500454375 -0.2391675
v -0.184625625 0.602798125 -0.43138375
v -0.184625625 0.602798125 -0.2391675
v -0.096108125 0.602798125 -0.15065
v -0.096108125 0.602798125 -0.51990125
v -0.2334175 0.500454375 -0.2189575
v -0.2334175 0.500454375 -0.45159375
v -0.2334175 0.602798125 -0.2189575
v -0.116318125 0.602798125 -0.101858125
v -0.2334175 0.602798125 -0.45159375
v -0.0487425 0.602798125 -0.101858125
v -0.116318125 0.602798125 -0.568693125
v -0.116318125 0.500454375 -0.568693125
v -0.04805375 0.602798125 -0.51990125
v -0.0487425 0.602798125 -0.568693125
v -0.04805375 0.602798125 -0.15065
v -0.04805375 0.500454375 -0.51990125
v -0.0487425 0.500454375 -0.568693125
v -0.0487425 0.500454375 -0.72691375
v -0.0487425 0.602798125 -0.68836125
v -0.0487425 0.602798125 -0.643770625
v -0.0487425 0.2628975 -0.79261375
v -0.0487425 0.500454375 -0.643770625
v -0.0487425 0.235064375 -0.7155375
vt 0.9618484375 0.890625
vt 0.9678171875 0.90625
vt 0.8446828125 0.90625
vt 0.8506484375 0.890625
vt 0.7332340625 0.7872628125
vt 0.7332246875 0.8047596875
vt 0.6962465625 0.8047596875
vt 0.7022121875 0.7872628125
vt 0.627481875 0.76349875
vt 0.6401153125 0.75
vt 0.7022128125 0.787260625
vt 0.6962465625 0.8047596875
vt 0.81937875 0.7110121875
vt 0.8134125 0.6935162500000001
vt 0.875506875 0.65625
vt 0.8881396875 0.669745
vt 0.75 0.45677718749999996
vt 0.828125 0.45260500000000004
vt 0.828125 0.6217434374999999
vt 0.76757625 0.625
vt 0.5558375 0.331403125
vt 0.592815625 0.331403125
vt 0.579303125 0.5
vt 0.555278125 0.5
vt 0.352703125 0.68236875
vt 0.352703125 0.46875
vt 0.383725 0.46875
vt 0.383725 0.68236875
vt 0.383725 0.68236875
vt 0.383725 0.46875
vt 0.434934375 0.519959375
vt 0.434934375 0.631159375
vt 0.422465625 0.973121875
vt 0.446490625 0.973121875
vt 0.456596875 0.99751875
vt 0.422809375 0.99751875
vt 0.0009328125 0.484375
vt 0.1240671875 0.484375
vt 0.1105515625 0.65625
vt 0.0144453125 0.65625
vt 0.625 0.23802406249999997
vt 0.703125 0.23385187500000004
vt 0.703125 0.40299343750000005
vt 0.64257625 0.40625
vt 0.2095 0.871509375
vt 0.165240625 0.91576875
vt 0.165240625 0.73114375
vt 0.2095 0.775403125
vt 0.49075 0.9288625
vt 0.49075 0.83275625
vt 0.515146875 0.82265
vt 0.515146875 0.93896875
vt 0.2095 0.775403125
vt 0.165240625 0.73114375
vt 0.175346875 0.706746875
vt 0.233896875 0.765296875
vt 0.6875 0.8515625
vt 0.8046875 0.8515625
vt 0.8046875 0.90625
vt 0.6875 0.90625
vt 0.832965625 0.355078125
vt 0.866753125 0.355078125
vt 0.866753125 0.40625
vt 0.832965625 0.40625
vt 0.125 0.1640625
vt 0.2109375 0.1640625
vt 0.2109375 0.21875
vt 0.125 0.21875
vt 0.75 0.2578125
vt 0.8359375 0.2578125
vt 0.8359375 0.3125
vt 0.75 0.3125
vt 0.2095 0.871509375
vt 0.2095 0.775403125
vt 0.233896875 0.765296875
vt 0.233896875 0.881615625
vt 0.141215625 0.91576875
vt 0.165240625 0.91576875
vt 0.175346875 0.940165625
vt 0.141559375 0.940165625
vt 0.165240625 0.91576875
vt 0.2095 0.871509375
vt 0.233896875 0.881615625
vt 0.175346875 0.940165625
vt 0.49075 0.83275625
vt 0.446490625 0.788496875
vt 0.456596875 0.7641
vt 0.515146875 0.82265
vt 0.446490625 0.973121875
vt 0.49075 0.9288625
vt 0.515146875 0.93896875
vt 0.456596875 0.99751875
vt 0.6395359375 0.948828125
vt 0.6395359375 1
vt 0.6172390625 1
vt 0.5979640625 0.948828125
vt 0.141215625 0.73114375
vt 0.141215625 0.91576875
vt 0.1171875 0.91576875
vt 0.1171875 0.73114375
vt 0.0379125 0.268903125
vt 0.0625 0.268903125
vt 0.0625 0.4375
vt 0.038471875 0.4375
vt 0.141215625 0.73114375
vt 0.1171875 0.73114375
vt 0.1171875 0.706746875
vt 0.141559375 0.706746875
vt 0.422465625 0.788496875
vt 0.3984375 0.788496875
vt 0.3984375 0.7641
vt 0.422809375 0.7641
vt 0.782390625 0.6935162500000001
vt 0.7824 0.7110099999999999
vt 0.7578125 0.7110099999999999
vt 0.7578125 0.6935162500000001
vt 0.8134125 0.6935162500000001
vt 0.819378125 0.7110099999999999
vt 0.7824 0.7110099999999999
vt 0.782390625 0.6935162500000001
vt 0.446490625 0.788496875
vt 0.422465625 0.788496875
vt 0.422809375 0.7641
vt 0.456596875 0.7641
vt 0.165240625 0.73114375
vt 0.141215625 0.73114375
vt 0.141559375 0.706746875
vt 0.175346875 0.706746875
vt 0.000934375 0.268903125
vt 0.0379125 0.268903125
vt 0.038471875 0.4375
vt 0.014446875 0.4375
vt 0.165240625 0.73114375
vt 0.165240625 0.91576875
vt 0.141215625 0.91576875
vt 0.141215625 0.73114375
vt 0.375 0.8515625
vt 0.40625 0.8515625
vt 0.40625 0.90625
vt 0.375 0.90625
vt 0.1171875 0.91576875
vt 0.141215625 0.91576875
vt 0.141559375 0.940165625
vt 0.1171875 0.940165625
vt 0.80859375 0.355078125
vt 0.832965625 0.355078125
vt 0.832965625 0.40625
vt 0.80859375 0.40625
vt 0.3984375 0.973121875
vt 0.422465625 0.973121875
vt 0.422809375 0.99751875
vt 0.3984375 0.99751875
vt 0.328125 0.68236875
vt 0.328125 0.46875
vt 0.352703125 0.46875
vt 0.352703125 0.68236875
vt 0.53125 0.331403125
vt 0.5558375 0.331403125
vt 0.555278125 0.5
vt 0.53125 0.5
vt 0.7578121875 0.7872628125
vt 0.7578121875 0.8047596875
vt 0.7332246875 0.8047596875
vt 0.7332340625 0.7872628125
vt 0.1596890625 0.60156875
vt 0.1840609375 0.60156875
vt 0.1840609375 0.65625
vt 0.1596890625 0.65625
vt 0.1171875 0.977703125
vt 0.141559375 0.977703125
vt 0.141559375 1
vt 0.1171875 1
vt 0.1840609375 0.60156875
vt 0.1596890625 0.60156875
vt 0.1596890625 0.47833125
vt 0.1840609375 0.47833125
vt 0.1964015625 0.4375
vt 0.1964015625 0.386328125
vt 0.2379734375 0.386328125
vt 0.2186984375 0.4375
vt 0.1588640625 0.4375
vt 0.1588640625 0.386328125
vt 0.1964015625 0.386328125
vt 0.1964015625 0.4375
vt 0.422809375 0.7641
vt 0.3984375 0.7641
vt 0.3984375 0.7265625
vt 0.422809375 0.7265625
vt 0.1171875 0.940165625
vt 0.141559375 0.940165625
vt 0.141559375 0.977703125
vt 0.1171875 0.977703125
vt 0.6770734375 0.948828125
vt 0.6770734375 1
vt 0.6395359375 1
vt 0.6395359375 0.948828125
vt 0.8125 0.1171875
vt 0.8359375 0.1171875
vt 0.8359375 0.15625
vt 0.8125 0.15625
vt 0.2379734375 0.386328125
vt 0.1964015625 0.386328125
vt 0.2322859375 0.25363125
vt 0.2708234375 0.26754999999999995
vt 0.6395359375 0.948828125
vt 0.5979640625 0.948828125
vt 0.5651140625 0.83005
vt 0.6036515625 0.81613125
vt 0.7734375 0.21875
vt 0.75 0.21875
vt 0.75 0.078125
vt 0.7734375 0.078125
vt 0.8194015625 0.203125
vt 0.9306015625 0.203125
vt 0.9365671875 0.21875
vt 0.8134328125 0.21875
vt 0.7823903125 0.7872628125
vt 0.8134121875 0.7872628125
vt 0.8193778125 0.8047596875
vt 0.7823996875 0.8047596875
vt 0.888143125 0.7635009375
vt 0.8193784375 0.804761875
vt 0.8134121875 0.7872628125
vt 0.8755096875 0.7500021875
vt 0.69624625 0.7110121875
vt 0.6274853125 0.669745
vt 0.640118125 0.65625
vt 0.7022125 0.6935162500000001
vt 0.484375 0.10885500000000004
vt 0.484375 0.27799343750000005
vt 0.42382625 0.28125
vt 0.40625 0.11302718749999996
vt 0.5066625 0.331403125
vt 0.507221875 0.5
vt 0.483196875 0.5
vt 0.469684375 0.331403125
vt 0.303546875 0.68236875
vt 0.272525 0.68236875
vt 0.272525 0.46875
vt 0.303546875 0.46875
vt 0.272525 0.68236875
vt 0.221315625 0.631159375
vt 0.221315625 0.519959375
vt 0.272525 0.46875
vt 0.374409375 0.973121875
vt 0.374065625 0.99751875
vt 0.340278125 0.99751875
vt 0.350384375 0.973121875
vt 0.5928171875 0.546875
vt 0.5793046875 0.71875
vt 0.4831984375 0.71875
vt 0.4696828125 0.546875
vt 0.703125 0.45260187500000004
vt 0.703125 0.6217434374999999
vt 0.64257625 0.625
vt 0.625 0.45677406249999997
vt 0.024875 0.871509375
vt 0.024875 0.775403125
vt 0.069134375 0.73114375
vt 0.069134375 0.91576875
vt 0.306125 0.9288625
vt 0.281728125 0.93896875
vt 0.281728125 0.82265
vt 0.306125 0.83275625
vt 0.024875 0.775403125
vt 0.000478125 0.765296875
vt 0.059028125 0.706746875
vt 0.069134375 0.73114375
vt 0.8359375 0.9453125
vt 0.8359375 1
vt 0.71875 1
vt 0.71875 0.9453125
vt 0.784221875 0.355078125
vt 0.784221875 0.40625
vt 0.750434375 0.40625
vt 0.750434375 0.355078125
vt 0.3359375 0.1640625
vt 0.3359375 0.21875
vt 0.25 0.21875
vt 0.25 0.1640625
vt 0.0859375 0.1640625
vt 0.0859375 0.21875
vt 0 0.21875
vt 0 0.1640625
vt 0.024875 0.871509375
vt 0.000478125 0.881615625
vt 0.000478125 0.765296875
vt 0.024875 0.775403125
vt 0.093159375 0.91576875
vt 0.092815625 0.940165625
vt 0.059028125 0.940165625
vt 0.069134375 0.91576875
vt 0.069134375 0.91576875
vt 0.059028125 0.940165625
vt 0.000478125 0.881615625
vt 0.024875 0.871509375
vt 0.306125 0.83275625
vt 0.281728125 0.82265
vt 0.340278125 0.7641
vt 0.350384375 0.788496875
vt 0.350384375 0.973121875
vt 0.340278125 0.99751875
vt 0.281728125 0.93896875
vt 0.306125 0.9288625
vt 0.093159375 0.73114375
vt 0.1171875 0.73114375
vt 0.1171875 0.91576875
vt 0.093159375 0.91576875
vt 0.0870875 0.268903125
vt 0.086528125 0.4375
vt 0.0625 0.4375
vt 0.0625 0.268903125
vt 0.093159375 0.73114375
vt 0.092815625 0.706746875
vt 0.1171875 0.706746875
vt 0.1171875 0.73114375
vt 0.374409375 0.788496875
vt 0.374065625 0.7641
vt 0.3984375 0.7641
vt 0.3984375 0.788496875
vt 0.733234375 0.6935162500000001
vt 0.7578125 0.6935162500000001
vt 0.7578125 0.7110099999999999
vt 0.733225 0.7110099999999999
vt 0.7022125 0.6935162500000001
vt 0.733234375 0.6935162500000001
vt 0.733225 0.7110099999999999
vt 0.696246875 0.7110099999999999
vt 0.350384375 0.788496875
vt 0.340278125 0.7641
vt 0.374065625 0.7641
vt 0.374409375 0.788496875
vt 0.069134375 0.73114375
vt 0.059028125 0.706746875
vt 0.092815625 0.706746875
vt 0.093159375 0.73114375
vt 0.124065625 0.268903125
vt 0.110553125 0.4375
vt 0.086528125 0.4375
vt 0.0870875 0.268903125
vt 0.069134375 0.73114375
vt 0.093159375 0.73114375
vt 0.093159375 0.91576875
vt 0.069134375 0.91576875
vt 0.6875 0.1328125
vt 0.6875 0.1875
vt 0.65625 0.1875
vt 0.65625 0.1328125
vt 0.1171875 0.91576875
vt 0.1171875 0.940165625
vt 0.092815625 0.940165625
vt 0.093159375 0.91576875
vt 0.80859375 0.355078125
vt 0.80859375 0.40625
vt 0.784221875 0.40625
vt 0.784221875 0.355078125
vt 0.3984375 0.973121875
vt 0.3984375 0.99751875
vt 0.374065625 0.99751875
vt 0.374409375 0.973121875
vt 0.328125 0.68236875
vt 0.303546875 0.68236875
vt 0.303546875 0.46875
vt 0.328125 0.46875
vt 0.53125 0.331403125
vt 0.53125 0.5
vt 0.507221875 0.5
vt 0.5066625 0.331403125
vt 0.7578121875 0.7872628125
vt 0.7823903125 0.7872628125
vt 0.7823996875 0.8047596875
vt 0.7578121875 0.8047596875
vt 0.5590609375 0.22656874999999999
vt 0.5590609375 0.28125
vt 0.5346890625 0.28125
vt 0.5346890625 0.22656874999999999
vt 0.1171875 0.977703125
vt 0.1171875 1
vt 0.092815625 1
vt 0.092815625 0.977703125
vt 0.5346890625 0.22656874999999999
vt 0.5346890625 0.10333124999999999
vt 0.5590609375 0.10333124999999999
vt 0.5590609375 0.22656874999999999
vt 0.3895359375 0.4375
vt 0.3672390625 0.4375
vt 0.3479640625 0.386328125
vt 0.3895359375 0.386328125
vt 0.4270734375 0.4375
vt 0.3895359375 0.4375
vt 0.3895359375 0.386328125
vt 0.4270734375 0.386328125
vt 0.374065625 0.7641
vt 0.374065625 0.7265625
vt 0.3984375 0.7265625
vt 0.3984375 0.7641
vt 0.1171875 0.940165625
vt 0.1171875 0.977703125
vt 0.092815625 0.977703125
vt 0.092815625 0.940165625
vt 0.0234375 0.0859375
vt 0.0234375 0.125
vt 0 0.125
vt 0 0.0859375
vt 0.3479640625 0.386328125
vt 0.3151140625 0.26754999999999995
vt 0.3536515625 0.25363125
vt 0.3895359375 0.386328125
vt 0.59375 0.1875
vt 0.59375 0.046875
vt 0.6171875 0.046875
vt 0.6171875 0.1875
vn 0.7554627390933427 -0.6551916130732932 0
vn 0 -0.6551916130732937 -0.7554627390933424
vn 0.5171548495466788 -0.6819836678254872 -0.5171548495466786
vn 0.5171609712153757 -0.6819767767106153 0.517157815254656
vn 0.6973865545960821 0.16523918099897497 -0.6973865545960819
vn 0 0.1539675606205357 0.9880759030947782
vn 0 -1 0
vn 0 -1 0
vn 0 -1 0
vn 0.9880759030947784 0.1539675606205357 0
vn 0.697386554596082 0.16523918099897486 0.6973865545960819
vn 0 1 0
vn 0 -1 0
vn 0 1 0
vn 1 0 0
vn 0 0 1
vn 0.7071067811865476 0 0.7071067811865476
vn 0.7071067811865476 0 -0.7071067811865476
vn 0 1 0
vn 0 1 0
vn 0 1 0
vn 0 -1 0
vn 0 -1 0
vn -1 0 0
vn 0 1 0
vn 0 0.15396756062053588 -0.9880759030947782
vn 0 1 0
vn 0 -1 0
vn 0 -0.6551814192475587 0.7554715797915597
vn 0 -0.6551814192475587 0.7554715797915595
vn 0 -1 0
vn 0 1 0
vn 0 0.15396756062053588 -0.9880759030947782
vn 0 1 0
vn 0 0 -1
vn 0 1 0
vn 0 0 1
vn 0 -1 0
vn 0 -1 0
vn 0 0.1539675606205357 0.9880759030947782
vn 0 -0.6551916130732937 -0.7554627390933423
vn 0 0.35251465832052825 -0.9358062917448041
vn 0 1 0
vn 0 0.26655884035724686 -0.9638186471672977
vn 1 0 0
vn 1 0 0
vn 0 -1 0
vn 0 1 0
vn -1 0 0
vn 0 -0.9405537643352225 -0.33964483861063316
vn 1 0 0
vn -1 0 0
vn 0 -0.2610440984452023 0.9653268765899621
vn -0.7554627390933428 -0.6551916130732933 0
vn 0 -0.6551916130732937 -0.7554627390933424
vn -0.5171548495466786 -0.6819836678254876 -0.5171548495466783
vn -0.5171548495466787 -0.6819836678254872 0.5171548495466786
vn -0.697386554596082 0.16523918099897486 -0.697386554596082
vn 0 0.15396756062053574 0.9880759030947782
vn 0 -1 0
vn 0 -1 0
vn 0 -1 0
vn -0.9880759030947783 0.1539675606205357 0
vn -0.6973865545960821 0.16523918099897486 0.697386554596082
vn 0 1 0
vn 0 -1 0
vn 0 1 0
vn -1 0 0
vn 0 0 1
vn -0.7071067811865476 0 0.7071067811865476
vn -0.7071067811865476 0 -0.7071067811865476
vn 0 1 0
vn 0 1 0
vn 0 1 0
vn 0 -1 0
vn 0 -1 0
vn 0 1 0
vn 0 0.15396756062053588 -0.9880759030947782
vn 0 1 0
vn 0 -1 0
vn 0 -0.6551814192475587 0.7554715797915595
vn 0 -0.6551814192475588 0.7554715797915597
vn 0 -1 0
vn 0 1 0
vn 0 0.15396756062053588 -0.9880759030947782
vn 0 1 0
vn 0 0 -1
vn 0 1 0
vn 0 0 1
vn 0 -1 0
vn 0 -1 0
vn 0 0.1539675606205357 0.9880759030947782
vn 0 -0.6551916130732937 -0.7554627390933424
vn 0 0.35251465832052825 -0.9358062917448041
vn 0 1 0
vn 0 0.26655884035724686 -0.9638186471672977
vn -1 0 0
vn -1 0 0
vn 0 -1 0
vn 0 1 0
vn 0 -0.9405537643352225 -0.33964483861063316
vn -1 0 0
vn 0 -0.2610440984452023 0.9653268765899621
usemtl m_d1aa6238-ec82-71fe-3f9f-70844bbff432
f 1/1/1 2/2/1 3/3/1 4/4/1
f 5/5/2 6/6/2 7/7/2 8/8/2
f 2/9/3 1/10/3 8/11/3 7/12/3
f 9/13/4 10/14/4 4/15/4 3/16/4
f 2/17/5 7/18/5 11/19/5 12/20/5
f 13/21/6 9/22/6 14/23/6 15/24/6
f 16/25/7 5/26/7 8/27/7 10/28/7
f 10/29/8 8/30/8 1/31/8 4/32/8
f 15/33/9 14/34/9 17/35/9 18/36/9
f 3/37/10 2/38/10 12/39/10 19/40/10
f 9/41/11 3/42/11 19/43/11 14/44/11
f 20/45/12 21/46/12 22/47/12 23/48/12
f 19/49/13 12/50/13 24/51/13 25/52/13
f 23/53/14 22/54/14 26/55/14 27/56/14
f 25/57/15 24/58/15 28/59/15 27/60/15
f 18/61/16 17/62/16 26/63/16 29/64/16
f 17/65/17 25/66/17 27/67/17 26/68/17
f 24/69/18 30/70/18 31/71/18 28/72/18
f 20/73/19 23/74/19 27/75/19 28/76/19
f 32/77/20 21/78/20 31/79/20 33/80/20
f 21/81/21 20/82/21 28/83/21 31/84/21
f 12/85/22 11/86/22 30/87/22 24/88/22
f 14/89/23 19/90/23 25/91/23 17/92/23
f 34/93/24 35/94/24 36/95/24 37/96/24
f 38/97/25 32/98/25 39/99/25 40/100/25
f 6/101/26 41/102/26 42/103/26 43/104/26
f 38/105/27 40/106/27 44/107/27 29/108/27
f 43/109/28 42/110/28 45/111/28 46/112/28
f 16/113/29 13/114/29 47/115/29 48/116/29
f 10/117/30 9/118/30 13/119/30 16/120/30
f 11/121/31 43/122/31 46/123/31 30/124/31
f 22/125/32 38/126/32 29/127/32 26/128/32
f 7/129/33 6/130/33 43/131/33 11/132/33
f 22/133/34 21/134/34 32/135/34 38/136/34
f 30/137/35 46/138/35 33/139/35 31/140/35
f 39/141/36 32/142/36 33/143/36 49/144/36
f 50/145/37 18/146/37 29/147/37 44/148/37
f 51/149/38 15/150/38 18/151/38 50/152/38
f 48/153/39 52/154/39 5/155/39 16/156/39
f 47/157/40 13/158/40 15/159/40 51/160/40
f 52/161/41 41/162/41 6/163/41 5/164/41
f 53/165/42 37/166/42 36/167/42 54/168/42
f 35/169/43 55/170/43 54/171/43 36/172/43
f 37/173/44 53/174/44 56/175/44 57/176/44
f 55/177/45 58/178/45 53/179/45 54/180/45
f 33/181/46 46/182/46 58/183/46 55/184/46
f 46/185/47 45/186/47 34/187/47 58/188/47
f 49/189/48 33/190/48 55/191/48 35/192/48
f 45/193/49 49/194/49 35/195/49 34/196/49
f 59/197/50 60/198/50 57/199/50 56/200/50
f 53/201/51 58/202/51 59/203/51 56/204/51
f 34/205/52 37/206/52 57/207/52 60/208/52
f 58/209/53 34/210/53 60/211/53 59/212/53
f 61/213/54 62/214/54 63/215/54 64/216/54
f 65/217/55 66/218/55 67/219/55 68/220/55
f 64/221/56 67/222/56 66/223/56 61/224/56
f 69/225/57 63/226/57 62/227/57 70/228/57
f 64/229/58 71/230/58 72/231/58 67/232/58
f 73/233/59 74/234/59 75/235/59 69/236/59
f 76/237/60 70/238/60 66/239/60 65/240/60
f 70/241/61 62/242/61 61/243/61 66/244/61
f 74/245/62 77/246/62 78/247/62 75/248/62
f 63/249/63 79/250/63 71/251/63 64/252/63
f 69/253/64 75/254/64 79/255/64 63/256/64
f 80/257/65 81/258/65 82/259/65 83/260/65
f 79/261/66 84/262/66 85/263/66 71/264/66
f 81/265/67 86/266/67 87/267/67 82/268/67
f 84/269/68 86/270/68 88/271/68 85/272/68
f 77/273/69 89/274/69 87/275/69 78/276/69
f 78/277/70 87/278/70 86/279/70 84/280/70
f 85/281/71 88/282/71 90/283/71 91/284/71
f 80/285/72 88/286/72 86/287/72 81/288/72
f 92/289/73 93/290/73 90/291/73 83/292/73
f 83/293/74 90/294/74 88/295/74 80/296/74
f 71/297/75 85/298/75 91/299/75 72/300/75
f 75/301/76 78/302/76 84/303/76 79/304/76
f 94/305/77 40/306/77 39/307/77 92/308/77
f 68/309/78 95/310/78 42/311/78 41/312/78
f 94/313/79 89/314/79 44/315/79 40/316/79
f 95/317/80 96/318/80 45/319/80 42/320/80
f 76/321/81 48/322/81 47/323/81 73/324/81
f 70/325/82 76/326/82 73/327/82 69/328/82
f 72/329/83 91/330/83 96/331/83 95/332/83
f 82/333/84 87/334/84 89/335/84 94/336/84
f 67/337/85 72/338/85 95/339/85 68/340/85
f 82/341/86 94/342/86 92/343/86 83/344/86
f 91/345/87 90/346/87 93/347/87 96/348/87
f 39/349/88 49/350/88 93/351/88 92/352/88
f 50/353/89 44/354/89 89/355/89 77/356/89
f 51/357/90 50/358/90 77/359/90 74/360/90
f 48/361/91 76/362/91 65/363/91 52/364/91
f 47/365/92 51/366/92 74/367/92 73/368/92
f 52/369/93 65/370/93 68/371/93 41/372/93
f 97/373/94 98/374/94 36/375/94 37/376/94
f 35/377/95 36/378/95 98/379/95 99/380/95
f 37/381/96 57/382/96 100/383/96 97/384/96
f 99/385/97 98/386/97 97/387/97 101/388/97
f 93/389/98 99/390/98 101/391/98 96/392/98
f 96/393/99 101/394/99 34/395/99 45/396/99
f 49/397/100 35/398/100 99/399/100 93/400/100
f 102/401/101 100/402/101 57/403/101 60/404/101
f 97/405/102 100/406/102 102/407/102 101/408/102
f 101/409/103 102/410/103 60/411/103 34/412/103