# Made in Blockbench 5.2.1
mtllib CoffeeMug.mtl

o Mug
v 0.021388125 0.259915 -1.377691875
v 0.064164375 0.259915 -1.377691875
v 0.063104375 0.0993475 -1.3754675
v 0.021035 0.0993475 -1.3754675
v 0.131670625 0.04601875 -1.305810625
v 0.131033125 0 -1.3055075
v 0.06244875 0 -1.374091875
v 0.0627525 0.04601875 -1.374729375
v -0.021606875 0.3592625 -1.356186875
v -0.0553425 0.3592625 -1.356186875
v -0.0553425 0.332478125 -1.356186875
v -0.021606875 0.332478125 -1.356186875
v 0.134633125 0.259915 -1.3072225
v 0.134633125 0.259915 -1.17889375
v 0.132409375 0.0993475 -1.179954375
v 0.132409375 0.0993475 -1.306163125
v -0.0627525 0.04601875 -1.374729375
v -0.06244875 0 -1.374091875
v -0.131033125 0 -1.3055075
v -0.131670625 0.04601875 -1.305810625
v -0.064164375 0.259915 -1.108425
v -0.134633125 0.259915 -1.17889375
v -0.132409375 0.0993475 -1.179954375
v -0.063104375 0.0993475 -1.110649375
v -0.063104375 0.0993475 -1.3754675
v -0.132409375 0.0993475 -1.306163125
v -0.134633125 0.259915 -1.3072225
v -0.064164375 0.259915 -1.377691875
v 0.0627525 0.04601875 -1.1113875
v 0.06244875 0 -1.112025
v 0.131033125 0 -1.18061
v 0.131670625 0.04601875 -1.18030625
v -0.06244875 0 -1.112025
v -0.131033125 0 -1.18061
v 0.063104375 0.0993475 -1.110649375
v 0.064164375 0.259915 -1.108425
v 0.02081625 0 -1.374091875
v 0.0209175 0.04601875 -1.374729375
v -0.131670625 0.04601875 -1.18030625
v -0.06451625 0.313243125 -1.10768625
v -0.06482 0.3592625 -1.107049375
v -0.136009375 0.3592625 -1.178238125
v -0.135371875 0.313243125 -1.178541875
v 0.06482 0.3592625 -1.107049375
v 0.06451625 0.313243125 -1.10768625
v 0.135371875 0.313243125 -1.178541875
v 0.136009375 0.3592625 -1.178238125
v 0.136009375 0.3592625 -1.30787875
v 0.135371875 0.313243125 -1.307575
v 0.06451625 0.313243125 -1.378430625
v 0.06482 0.3592625 -1.3790675
v -0.06482 0.3592625 -1.3790675
v -0.06451625 0.313243125 -1.378430625
v -0.135371875 0.313243125 -1.307575
v -0.136009375 0.3592625 -1.30787875
v -0.0627525 0.04601875 -1.1113875
v 0.021505625 0.313243125 -1.378430625
v 0.021606875 0.3592625 -1.3790675
v -0.02081625 0 -1.112025
v -0.0209175 0.04601875 -1.1113875
v -0.021505625 0.313243125 -1.10768625
v -0.021606875 0.3592625 -1.107049375
v -0.0209175 0.04601875 -1.374729375
v -0.021035 0.0993475 -1.3754675
v -0.021388125 0.259915 -1.108425
v 0.0209175 0.04601875 -1.1113875
v 0.021035 0.0993475 -1.110649375
v -0.021035 0.0993475 -1.110649375
v -0.113128125 0.3592625 -1.187715625
v -0.0553425 0.3592625 -1.12993
v -0.0553425 0.332478125 -1.12993
v -0.113128125 0.332478125 -1.187715625
v 0.0553425 0.3592625 -1.356186875
v 0.021606875 0.3592625 -1.356186875
v 0.021606875 0.332478125 -1.356186875
v 0.0553425 0.332478125 -1.356186875
v 0.02081625 0 -1.112025
v -0.02081625 0 -1.374091875
v 0.0553425 0.3592625 -1.12993
v 0.113128125 0.3592625 -1.187715625
v 0.113128125 0.332478125 -1.187715625
v 0.0553425 0.332478125 -1.12993
v 0.113128125 0.3592625 -1.29840125
v 0.113128125 0.332478125 -1.29840125
v 0.021388125 0.259915 -1.108425
v 0.021505625 0.313243125 -1.10768625
v 0.021035 0.098873125 -1.40967
v -0.021035 0.098873125 -1.40967
v -0.021505625 0.313243125 -1.378430625
v -0.021388125 0.259915 -1.377691875
v 0.021388125 0.25944125 -1.41189375
v 0.021505625 0.31277 -1.4126325
v 0.021606875 0.3592625 -1.107049375
v -0.021606875 0.3592625 -1.3790675
v 0.02109 0.13882875 -1.460953125
v -0.02109 0.13882875 -1.460953125
v -0.0209175 0.045545 -1.40893125
v -0.021009375 0.101611875 -1.50044125
v 0.0209175 0.045545 -1.40893125
v -0.021388125 0.25944125 -1.41189375
v -0.021505625 0.31277 -1.4126325
v 0.021009375 0.101611875 -1.50044125
v 0.02121125 0.1930075 -1.52726625
v 0.02121125 0.19374625 -1.473938125
v 0.02141375 0.291751875 -1.50298625
v 0.021333125 0.2556425 -1.462481875
v -0.02121125 0.19374625 -1.473938125
v -0.021333125 0.2556425 -1.462481875
v -0.02121125 0.1930075 -1.52726625
v -0.02141375 0.291751875 -1.50298625
v -0.113128125 0.3592625 -1.29840125
v -0.021606875 0.3592625 -1.12993
v 0.021606875 0.3592625 -1.12993
v -0.021606875 0.332478125 -1.12993
v -0.113128125 0.332478125 -1.29840125
v 0.021606875 0.332478125 -1.12993
vt 0.3682125 0.950284375
vt 0.346825 0.950284375
vt 0.347353125 0.86999375
vt 0.3683875 0.86999375
vt 0.25080312500000007 0.312075
vt 0.25092187500000007 0.2890625
vt 0.2994156250000001 0.2890625
vt 0.2995343750000001 0.312075
vt 0.582946875 0.78125
vt 0.566078125 0.78125
vt 0.566078125 0.767859375
vt 0.582946875 0.767859375
vt 0.3797390625 0.6377875
vt 0.3155734375 0.6377875
vt 0.3161046875 0.55749375
vt 0.3792078124999999 0.55749375
vt 0.3489031249999999 0.312075
vt 0.3490218749999999 0.2890625
vt 0.39751562499999993 0.2890625
vt 0.39763437499999993 0.312075
vt 0.5188375000000001 0.95028125
vt 0.46900624999999996 0.95028125
vt 0.46941875 0.869990625
vt 0.5184249999999999 0.869990625
vt 0.34876562499999997 0.33874375
vt 0.39777187499999994 0.33874375
vt 0.39818125 0.41903437500000007
vt 0.348353125 0.41903437500000007
vt 0.25066562500000006 0.33874375
vt 0.29967187500000003 0.33874375
vt 0.300084375 0.41903437500000007
vt 0.25025625 0.41903437500000007
vt 0.005149999999999988 0.280825
vt 0.005268749999999989 0.2578125
vt 0.05376562500000004 0.2578125
vt 0.05388437500000004 0.280825
vt 0.157140625 0.7452312499999999
vt 0.19143125 0.7109375
vt 0.19143125 0.8419718749999999
vt 0.157140625 0.8076781249999999
vt 0.0050156250000000235 0.307490625
vt 0.054021875 0.307490625
vt 0.054434375000000035 0.38778124999999997
vt 0.004603124999999986 0.38778124999999997
vt 0.0672390625 0.6065375
vt 0.003073437499999998 0.6065375
vt 0.003604687500000092 0.52624375
vt 0.06670781250000002 0.52624375
vt 0.368496875 0.8203125
vt 0.368446875 0.843325
vt 0.34753125 0.843325
vt 0.34768125 0.8203125
vt 0.0663796875 0.4765625
vt 0.0665328125000001 0.499575
vt 0.0037796875000000174 0.499575
vt 0.003932812499999994 0.4765625
vt 0.3788796875 0.5078125
vt 0.3790328125 0.530825
vt 0.3162796874999999 0.530825
vt 0.3164328125 0.5078125
vt 0.518971875 0.976946875
vt 0.519090625 0.999959375
vt 0.46875 0.999959375
vt 0.46886875 0.976946875
vt 0.0043500000000000205 0.437459375
vt 0.004468750000000021 0.414446875
vt 0.05456875 0.414446875
vt 0.0546875 0.437459375
vt 0.25 0.46871562499999997
vt 0.25011875 0.4457031250000001
vt 0.30021875 0.4457031250000001
vt 0.3003375 0.46871562499999997
vt 0.3481 0.4687125
vt 0.34821875 0.4457
vt 0.39831875 0.4457
vt 0.3984375 0.4687125
vt 0.518171875 0.8203125
vt 0.518290625 0.843325
vt 0.46955624999999995 0.843325
vt 0.46967499999999995 0.8203125
vt 0.36815312499999997 0.97695
vt 0.368103125 0.9999625
vt 0.346496875 0.9999625
vt 0.346646875 0.97695
vt 0.06741406250000004 0.633203125
vt 0.06756718750000001 0.656215625
vt 0.0027453124999999856 0.656215625
vt 0.002898437500000073 0.633203125
vt 0.3799140624999999 0.664453125
vt 0.3800671875 0.687465625
vt 0.3152453125 0.687465625
vt 0.31539843749999996 0.664453125
vt 0.149746875 0.4765625
vt 0.149696875 0.499575
vt 0.12878125 0.499575
vt 0.12893125 0.4765625
vt 0.149403125 0.6332
vt 0.149353125 0.656209375
vt 0.127746875 0.656209375
vt 0.127896875 0.6332
vt 0.005149999999999988 0.280825
vt 0.05388437500000004 0.280825
vt 0.054021875 0.307490625
vt 0.0050156250000000235 0.307490625
vt 0.05456875 0.414446875
vt 0.004468750000000021 0.414446875
vt 0.004603124999999986 0.38778124999999997
vt 0.054434375000000035 0.38778124999999997
vt 0.25080312500000007 0.312075
vt 0.2995343750000001 0.312075
vt 0.29967187500000003 0.33874375
vt 0.25066562500000006 0.33874375
vt 0.30021875 0.4457031250000001
vt 0.25011875 0.4457031250000001
vt 0.25025312499999997 0.41903437500000007
vt 0.300084375 0.41903437500000007
vt 0.3489031249999999 0.312075
vt 0.39763437499999993 0.312075
vt 0.39777187499999994 0.33874375
vt 0.34876562499999997 0.33874375
vt 0.39831875 0.4457
vt 0.34821875 0.4457
vt 0.348353125 0.41903437500000007
vt 0.39818437500000003 0.41903437500000007
vt 0.518971875 0.976946875
vt 0.468871875 0.976946875
vt 0.46900624999999996 0.95028125
vt 0.5188375000000001 0.95028125
vt 0.46955624999999995 0.843325
vt 0.518290625 0.843325
vt 0.5184249999999999 0.869990625
vt 0.46941875 0.869990625
vt 0.36815312499999997 0.97695
vt 0.346646875 0.97695
vt 0.346825 0.950284375
vt 0.3682125 0.950284375
vt 0.389365625 0.843325
vt 0.41028125000000004 0.843325
vt 0.410459375 0.86999375
vt 0.389425 0.86999375
vt 0.06741406250000004 0.633203125
vt 0.002898437500000073 0.633203125
vt 0.003073437499999998 0.6065375
vt 0.0672390625 0.6065375
vt 0.0037796875000000174 0.499575
vt 0.0665328125000001 0.499575
vt 0.06670781250000002 0.52624375
vt 0.003604687500000092 0.52624375
vt 0.3799140624999999 0.664453125
vt 0.31539843749999996 0.664453125
vt 0.3155734375 0.6377875
vt 0.3797390625 0.6377875
vt 0.3162796874999999 0.530825
vt 0.3790328125 0.530825
vt 0.3792078124999999 0.55749375
vt 0.3161046875 0.55749375
vt 0.149403125 0.6332
vt 0.127896875 0.6332
vt 0.128075 0.6065343750000001
vt 0.1494625 0.6065343750000001
vt 0.170615625 0.499575
vt 0.19153125000000001 0.499575
vt 0.19170937500000002 0.52624375
vt 0.170675 0.52624375
vt 0.1494625 0.6065343750000001
vt 0.128075 0.6065343750000001
vt 0.12860312499999998 0.52624375
vt 0.1496375 0.52624375
vt 0.6015625 0.71875
vt 0.5625 0.71875
vt 0.5625 0.703125
vt 0.6015625 0.703125
vt 0.621421875 0.78125
vt 0.604553125 0.78125
vt 0.604553125 0.767859375
vt 0.621421875 0.767859375
vt 0.233065625 0.8419718749999999
vt 0.233065625 0.7109375
vt 0.25388125 0.7109375
vt 0.25388125 0.8419718749999999
vt 0.25388125 0.8419718749999999
vt 0.25388125 0.7109375
vt 0.28817187499999997 0.7452312499999999
vt 0.28817187499999997 0.8076781249999999
vt 0.19143125 0.8419718749999999
vt 0.19143125 0.7109375
vt 0.212246875 0.7109375
vt 0.212246875 0.8419718749999999
vt 0.212246875 0.8419718749999999
vt 0.212246875 0.7109375
vt 0.233065625 0.7109375
vt 0.233065625 0.8419718749999999
vt 0.6015625 0.65625
vt 0.5625 0.65625
vt 0.5625 0.640625
vt 0.6015625 0.640625
vt 0.1484375 0.4375
vt 0.09375 0.4375
vt 0.09375 0.421875
vt 0.1484375 0.421875
vt 0.1922375 0.6065343750000001
vt 0.17085 0.6065343750000001
vt 0.170675 0.52624375
vt 0.19170937500000002 0.52624375
vt 0.17085 0.6065343750000001
vt 0.1494625 0.6065343750000001
vt 0.1496375 0.52624375
vt 0.170675 0.52624375
vt 0.12878125 0.499575
vt 0.149696875 0.499575
vt 0.1496375 0.52624375
vt 0.12860312499999998 0.52624375
vt 0.149696875 0.499575
vt 0.170615625 0.499575
vt 0.170675 0.52624375
vt 0.1496375 0.52624375
vt 0.192415625 0.6332
vt 0.170909375 0.6332
vt 0.17085 0.6065343750000001
vt 0.1922375 0.6065343750000001
vt 0.170909375 0.6332
vt 0.149403125 0.6332
vt 0.1494625 0.6065343750000001
vt 0.17085 0.6065343750000001
vt 0.34753125 0.843325
vt 0.368446875 0.843325
vt 0.3683875 0.86999375
vt 0.347353125 0.86999375
vt 0.2109375 0.4375
vt 0.1875 0.4375
vt 0.1875 0.421875
vt 0.2109375 0.421875
vt 0.411165625 0.97695
vt 0.38965937500000003 0.97695
vt 0.3896 0.950284375
vt 0.4109875 0.950284375
vt 0.44028143538984776 0.7744789049699934
vt 0.43990830622948796 0.7478164658947289
vt 0.4570082669908051 0.7475761573193218
vt 0.45738139666442856 0.7742417213945442
vt 0.192415625 0.6332
vt 0.192565625 0.656209375
vt 0.170959375 0.656209375
vt 0.170909375 0.6332
vt 0.170909375 0.6332
vt 0.170959375 0.656209375
vt 0.149353125 0.656209375
vt 0.149403125 0.6332
vt 0.19138125 0.4765625
vt 0.19153125000000001 0.499575
vt 0.170615625 0.499575
vt 0.170565625 0.4765625
vt 0.170565625 0.4765625
vt 0.170615625 0.499575
vt 0.149696875 0.499575
vt 0.149746875 0.4765625
vt 0.411165625 0.97695
vt 0.41131562499999996 0.9999625
vt 0.389709375 0.9999625
vt 0.38965937500000003 0.97695
vt 0.38965937500000003 0.97695
vt 0.389709375 0.9999625
vt 0.368103125 0.9999625
vt 0.368153125 0.97695
vt 0.41013125 0.8203125
vt 0.41028125000000004 0.843325
vt 0.389365625 0.843325
vt 0.389315625 0.8203125
vt 0.389315625 0.8203125
vt 0.389365625 0.843325
vt 0.368446875 0.843325
vt 0.368496875 0.8203125
vt 0.4109875 0.950284375
vt 0.3896 0.950284375
vt 0.389425 0.86999375
vt 0.410459375 0.86999375
vt 0.3896 0.950284375
vt 0.3682125 0.950284375
vt 0.3683875 0.86999375
vt 0.389425 0.86999375
vt 0.25 0.5
vt 0.2734375 0.5
vt 0.2734375 0.53125
vt 0.25 0.53125
vt 0.4975964972340224 0.453125
vt 0.49722551230714956 0.47978746899663516
vt 0.47158321277278187 0.4997634446548107
vt 0.45184102247204533 0.4811555397417233
vt 0.5146964775279546 0.4533608083708288
vt 0.5143254923391352 0.4800264023674531
vt 0.49722551230714956 0.47978746899663527
vt 0.4975964972340224 0.453125
vt 0.2721765625 0.9926343750000001
vt 0.2512578125 0.9926343750000001
vt 0.2512578125 0.9755343750000001
vt 0.2721765625 0.9755343750000001
vt 0.5849125 0.995590625
vt 0.563525 0.995590625
vt 0.563525 0.978490625
vt 0.5849125 0.978490625
vt 0.27247187500000003 0.65625
vt 0.250965625 0.65625
vt 0.250965625 0.63915
vt 0.27247187500000003 0.63915
vt 0.5132160224720455 0.5603086647417233
vt 0.5128472724720454 0.5869711647417233
vt 0.49574727247204536 0.5867367897417233
vt 0.4961160224720454 0.5600711647417232
vt 0.4387984375 0.6675249999999999
vt 0.4384296875 0.640859375
vt 0.4555296875 0.640625
vt 0.45589843750000003 0.6672875
vt 0.45589843750000003 0.6672875
vt 0.4555296875 0.640625
vt 0.5012828125000001 0.66865625
vt 0.4815390625 0.687265625
vt 0.2721765625 0.9755343750000001
vt 0.2512578125 0.9755343750000001
vt 0.2512140625 0.921875
vt 0.2722234375 0.921875
vt 0.4815390625 0.687265625
vt 0.5012828125000001 0.66865625
vt 0.5146953125 0.71435625
vt 0.4880296875 0.7147249999999999
vt 0.4880296875 0.7147249999999999
vt 0.5146953125 0.71435625
vt 0.5025546875 0.763728125
vt 0.4823015625 0.745675
vt 0.48230175139046094 0.7456751683721945
vt 0.5025546875 0.763728125
vt 0.45738139666442856 0.7742417213945442
vt 0.4570083107102858 0.7475792817146626
vt 0.344925 0.71875
vt 0.3660125 0.71875
vt 0.366075 0.746965625
vt 0.3448625 0.746965625
vt 0.3448625 0.746965625
vt 0.366075 0.746965625
vt 0.366134375 0.778440625
vt 0.344803125 0.778440625
vt 0.563553125 0.953125
vt 0.584884375 0.953125
vt 0.5849125 0.978490625
vt 0.563525 0.978490625
vt 0.45184102247204533 0.4811555397417233
vt 0.4715847724720454 0.49976491474172324
vt 0.4650941474720454 0.5272242897417233
vt 0.4384285224720454 0.5268555397417233
vt 0.4384285224720454 0.5268555397417233
vt 0.4650941474720454 0.5272242897417233
vt 0.4708222724720454 0.5581711647417233
vt 0.4505691474720454 0.5762274147417232
vt 0.4505691474720454 0.5762274147417232
vt 0.4708222724720454 0.5581711647417233
vt 0.4961160224720454 0.5600711647417232
vt 0.49574727247204536 0.5867367897417233
vt 0.18871250000000003 0.90153125
vt 0.20972187500000003 0.90153125
vt 0.20982499999999998 0.94915625
vt 0.1886125 0.94915625
vt 0.1886125 0.94915625
vt 0.20982499999999998 0.94915625
vt 0.209925 1
vt 0.1885125 1
vt 0.25101249999999997 0.5927656250000001
vt 0.27242500000000003 0.5927656250000001
vt 0.27247187500000003 0.63915
vt 0.250965625 0.63915
vt 0.042639062500000005 0.87543125
vt 0.013748437500000002 0.9043218749999999
vt 0.002307812500000006 0.899584375
vt 0.037901562500000006 0.863990625
vt 0.013748437500000002 0.959665625
vt 0.042639062500000005 0.988559375
vt 0.037901562500000006 1
vt 0.002307812500000006 0.96440625
vt 0.0979828125 0.988559375
vt 0.1268765625 0.959665625
vt 0.1383171875 0.96440625
vt 0.1027203125 1
vt 0.1268765625 0.9043218749999999
vt 0.0979828125 0.87543125
vt 0.1027203125 0.863990625
vt 0.1383171875 0.899584375
vt 0.013748437500000002 0.9043218749999999
vt 0.013748437500000002 0.959665625
vt 0.002307812500000006 0.96440625
vt 0.002307812500000006 0.899584375
vt 0.05950781250000001 0.87543125
vt 0.042639062500000005 0.87543125
vt 0.037901562500000006 0.863990625
vt 0.05950781250000001 0.863990625
vt 0.1268765625 0.959665625
vt 0.1268765625 0.9043218749999999
vt 0.1383171875 0.899584375
vt 0.1383171875 0.96440625
vt 0.042639062500000005 0.988559375
vt 0.05950781250000001 0.988559375
vt 0.05950781250000001 1
vt 0.037901562500000006 1
vt 0.0979828125 0.87543125
vt 0.0811140625 0.87543125
vt 0.0811140625 0.863990625
vt 0.1027203125 0.863990625
vt 0.0811140625 0.87543125
vt 0.05950781250000001 0.87543125
vt 0.05950781250000001 0.863990625
vt 0.0811140625 0.863990625
vt 0.0811140625 0.988559375
vt 0.0979828125 0.988559375
vt 0.1027203125 1
vt 0.0811140625 1
vt 0.05950781250000001 0.988559375
vt 0.0811140625 0.988559375
vt 0.0811140625 1
vt 0.05950781250000001 1
vt 0.1151578125 0.78360625
vt 0.0862640625 0.8125
vt 0.0862640625 0.699371875
vt 0.1151578125 0.7282624999999999
vt 0.04778906250000001 0.699371875
vt 0.04778906250000001 0.8125
vt 0.030920312500000005 0.8125
vt 0.030920312500000005 0.699371875
vt 0.030920312500000005 0.699371875
vt 0.030920312500000005 0.8125
vt 0.002029687500000002 0.78360625
vt 0.002029687500000002 0.7282624999999999
vt 0.0862640625 0.699371875
vt 0.0862640625 0.8125
vt 0.0693953125 0.8125
vt 0.0693953125 0.699371875
vt 0.0693953125 0.699371875
vt 0.0693953125 0.8125
vt 0.04778906250000001 0.8125
vt 0.04778906250000001 0.699371875
vt 0.6171875 0.90625
vt 0.5625 0.90625
vt 0.5625 0.890625
vt 0.6171875 0.890625
vt 0.604553125 0.78125
vt 0.582946875 0.78125
vt 0.582946875 0.767859375
vt 0.604553125 0.767859375
vt 0.6015625 0.59375
vt 0.5625 0.59375
vt 0.5625 0.578125
vt 0.6015625 0.578125
vt 0.582946875 0.84375
vt 0.566078125 0.84375
vt 0.566078125 0.83035625
vt 0.582946875 0.83035625
vt 0.621421875 0.84375
vt 0.604553125 0.84375
vt 0.604553125 0.83035625
vt 0.621421875 0.83035625
vt 0.6015625 0.53125
vt 0.5625 0.53125
vt 0.5625 0.515625
vt 0.6015625 0.515625
vt 0.604553125 0.84375
vt 0.582946875 0.84375
vt 0.582946875 0.83035625
vt 0.604553125 0.83035625
vn 0 -0.013851879049513714 -0.9999040581209768
vn 0.7070329363091191 -0.014451780105189032 -0.7070329363091201
vn 0 0 1
vn 0.9999041120207256 -0.013847987725449328 0
vn -0.7070328381591869 -0.014461380609368735 -0.7070328381591877
vn -0.7070328296740079 -0.01446221028514861 0.707032829674007
vn -0.7070296981100247 -0.01445668415039096 -0.707036074237958
vn 0.7070296413667164 -0.0144622333988024 -0.7070360174941379
vn 0.707036059922688 -0.014461357250013268 0.707029616858791
vn 0 -1 0
vn 0.7070328296740084 -0.014462210285148554 0.7070328296740066
vn -0.9999041120207256 -0.013847987725449328 0
vn 0 -0.013851719971904158 -0.9999040603246994
vn -0.9999040603246994 -0.01385171997190295 0
vn 0.9999040603246994 -0.013851719971902949 0
vn -0.7070298344021121 -0.014451606335201435 0.7070360417543468
vn 0.7070329383146017 -0.01445158387314563 0.7070329383146008
vn 0.7070328401673345 -0.014461184247016102 -0.7070328401673337
vn -0.7070329383146017 -0.014451583873142217 -0.7070329383146008
vn -0.7070360443207508 -0.014461357363135894 0.7070296324585561
vn 0 -0.013837954552977429 -0.999904250922952
vn -0.9999040629302655 -0.013851531884516684 0
vn 0.9999040629302655 -0.013851531884516684 0
vn 0 -0.013851719971904158 0.9999040603246994
vn 0 -0.013837954552982253 0.999904250922952
vn 0.7070360629522102 -0.014459535428507411 0.7070296510898465
vn 0.7070328555335661 -0.014459681604524823 0.7070328555335652
vn 0.7070361481166295 -0.014451204438331505 -0.7070297362534912
vn 0.7070327707940521 -0.014467966220995035 -0.7070327707940512
vn -0.707035978214547 -0.014467819910377447 -0.7070295663529494
vn -0.7070328555335661 -0.014459681604524823 -0.7070328555335652
vn -0.7070328555335661 -0.014459681604524823 0.7070328555335652
vn -0.7070361481166284 -0.014451204438331696 0.7070297362534923
vn 0 -0.013851586305215345 -0.9999040621763816
vn 0 -0.013839707611817265 -0.9999042266603435
vn -0.9999040621763816 -0.013851586305215345 0
vn -0.999904064424781 -0.013851423999133475 0
vn 0.9999040621763816 -0.013851586305215345 0
vn 0.999904064424781 -0.013851423999133475 0
vn 0 -0.013851586305215345 0.9999040621763816
vn 0 -0.013839707611817265 0.9999042266603435
vn 0 -0.013851879049513714 0.9999040581209768
vn 0.7071067811865474 0 -0.7071067811865478
vn 0 0 1
vn 0 -1 0
vn 0 -1 0
vn 0 -1 0
vn 0 -1 0
vn -0.7071067811865474 0 -0.7071067811865478
vn -1 0 0
vn 0 -0.013851879049513714 0.9999040581209768
vn 0 -0.013851879049513714 0.9999040581209768
vn 0 -0.013839707611817265 0.9999042266603435
vn 0 -0.013839707611817265 0.9999042266603435
vn 0 -0.013851586305215345 0.9999040621763816
vn 0 -0.013851586305215345 0.9999040621763816
vn 0 -0.013839707611817265 -0.9999042266603435
vn 0 0.9999038309699895 -0.013868266349430277
vn 0 -0.013851586305215345 -0.9999040621763816
vn 0.9999975731206102 -0.0022029121174308793 0.000030513812930807876
vn 0 -0.013837954552982253 0.999904250922952
vn 0 -0.013837954552982252 0.999904250922952
vn 0 -0.013851719971904158 0.9999040603246994
vn 0 -0.013851719971904158 0.9999040603246994
vn 0 -0.013837954552977427 -0.999904250922952
vn 0 -0.013837954552977427 -0.999904250922952
vn 0 -0.013851719971904158 -0.9999040603246994
vn 0 -0.013851719971904158 -0.9999040603246994
vn 0 -0.013851879049513714 -0.9999040581209768
vn 0 -0.013851879049513714 -0.9999040581209768
vn 0 0.7888394539588803 0.6145993132747999
vn -0.9999973406994248 -0.0022123554970363626 -0.0006512121261683176
vn -0.9999975731766941 -0.002202886113113483 0.000030553149620881945
vn 0 -0.999904080671417 0.013850251140268761
vn 0 -0.9999040806714171 0.013850251140268765
vn 0 0.9999043335534813 -0.01383198253933477
vn -0.9999975731206093 -0.0022029126749826956 0.00003047356495371152
vn 0.9999975731766959 -0.0022028866624541534 0.000030513460339166662
vn 0.9999975011181158 -0.0022081683228330597 -0.0003489271874113457
vn 0 -0.8526838529318375 -0.5224272647453582
vn 0.9999975803843915 -0.0021996007188114187 0.000031337524468996954
vn 0.9999978824144142 -0.0020577546260766083 0.000028505900592119386
vn 0.9999963435382806 -0.002675309083674216 -0.00039450142720452735
vn 0 0.23010097628069748 0.9731667589445655
vn 0 -0.1819968178537865 0.9832991194398049
vn 0 -0.9971924834195178 0.07488091219806846
vn -0.9999975788498606 -0.002200288913663014 0.00003198613934977499
vn -0.9999980511313051 -0.00197407845533531 0.000027346741684223514
vn -0.9999945710400484 -0.003184118190512267 -0.0008481048157249087
vn 0 -0.28162452780465097 -0.9595246871961176
vn 0 0.23877510414982137 -0.971074893938795
vn 0 0.9739946473916106 -0.22657101944532232
vn 0 1 0
vn 0 1 0
vn 0 1 0
vn 0 1 0
vn 0 1 0
vn 0 1 0
vn 0 1 0
vn 0 1 0
vn 0 1 0
vn 0 1 0
vn 0 1 0
vn 0 1 0
vn 0 1 0
vn 0 1 0
vn 0 1 0
vn 0 1 0
vn 0 1 0
vn 1 0 0
vn 0 0 1
vn 0.7071067811865474 0 0.7071067811865478
vn 0 0 -1
vn 0 0 -1
vn -0.7071067811865474 0 0.7071067811865478
vn 0 0 -1
usemtl m_f62b9efb-579c-c3d7-fffa-8259f07e7680
f 1/1/1 2/2/1 3/3/1 4/4/1
f 5/5/2 6/6/2 7/7/2 8/8/2
f 9/9/3 10/10/3 11/11/3 12/12/3
f 13/13/4 14/14/4 15/15/4 16/16/4
f 17/17/5 18/18/5 19/19/5 20/20/5
f 21/21/6 22/22/6 23/23/6 24/24/6
f 25/25/7 26/26/7 27/27/7 28/28/7
f 16/29/8 3/30/8 2/31/8 13/32/8
f 29/33/9 30/34/9 31/35/9 32/36/9
f 19/37/10 18/38/10 33/39/10 34/40/10
f 35/41/11 15/42/11 14/43/11 36/44/11
f 22/45/12 27/46/12 26/47/12 23/48/12
f 37/49/13 38/50/13 8/51/13 7/52/13
f 34/53/14 39/54/14 20/55/14 19/56/14
f 6/57/15 5/58/15 32/59/15 31/60/15
f 40/61/16 41/62/16 42/63/16 43/64/16
f 44/65/17 45/66/17 46/67/17 47/68/17
f 48/69/18 49/70/18 50/71/18 51/72/18
f 52/73/19 53/74/19 54/75/19 55/76/19
f 33/77/20 56/78/20 39/79/20 34/80/20
f 57/81/21 58/82/21 51/83/21 50/84/21
f 43/85/22 42/86/22 55/87/22 54/88/22
f 49/89/23 48/90/23 47/91/23 46/92/23
f 59/93/24 60/94/24 56/95/24 33/96/24
f 61/97/25 62/98/25 41/99/25 40/100/25
f 29/101/26 32/102/26 15/103/26 35/104/26
f 46/105/27 45/106/27 36/107/27 14/108/27
f 5/109/28 8/110/28 3/111/28 16/112/28
f 50/113/29 49/114/29 13/115/29 2/116/29
f 17/117/30 20/118/30 26/119/30 25/120/30
f 54/121/31 53/122/31 28/123/31 27/124/31
f 40/125/32 43/126/32 22/127/32 21/128/32
f 39/129/33 56/130/33 24/131/33 23/132/33
f 57/133/34 50/134/34 2/135/34 1/136/34
f 63/137/35 17/138/35 25/139/35 64/140/35
f 43/141/36 54/142/36 27/143/36 22/144/36
f 20/145/37 39/146/37 23/147/37 26/148/37
f 49/149/38 46/150/38 14/151/38 13/152/38
f 32/153/39 5/154/39 16/155/39 15/156/39
f 61/157/40 40/158/40 21/159/40 65/160/40
f 66/161/41 29/162/41 35/163/41 67/164/41
f 65/165/42 21/166/42 24/167/42 68/168/42
f 69/169/43 70/170/43 71/171/43 72/172/43
f 73/173/44 74/174/44 75/175/44 76/176/44
f 77/177/45 37/178/45 7/179/45 30/180/45
f 30/181/46 7/182/46 6/183/46 31/184/46
f 33/185/47 18/186/47 78/187/47 59/188/47
f 59/189/48 78/190/48 37/191/48 77/192/48
f 79/193/49 80/194/49 81/195/49 82/196/49
f 80/197/50 83/198/50 84/199/50 81/200/50
f 36/201/51 85/202/51 67/203/51 35/204/51
f 85/205/52 65/206/52 68/207/52 67/208/52
f 56/209/53 60/210/53 68/211/53 24/212/53
f 60/213/54 66/214/54 67/215/54 68/216/54
f 45/217/55 86/218/55 85/219/55 36/220/55
f 86/221/56 61/222/56 65/223/56 85/224/56
f 8/225/57 38/226/57 4/227/57 3/228/57
f 64/229/58 4/230/58 87/231/58 88/232/58
f 53/233/59 89/234/59 90/235/59 28/236/59
f 57/237/60 1/238/60 91/239/60 92/240/60
f 45/241/61 44/242/61 93/243/61 86/244/61
f 86/245/62 93/246/62 62/247/62 61/248/62
f 30/249/63 29/250/63 66/251/63 77/252/63
f 77/253/64 66/254/64 60/255/64 59/256/64
f 53/257/65 52/258/65 94/259/65 89/260/65
f 89/261/66 94/262/66 58/263/66 57/264/66
f 18/265/67 17/266/67 63/267/67 78/268/67
f 78/269/68 63/270/68 38/271/68 37/272/68
f 28/273/69 90/274/69 64/275/69 25/276/69
f 90/277/70 1/278/70 4/279/70 64/280/70
f 88/281/71 87/282/71 95/283/71 96/284/71
f 97/285/72 88/286/72 96/287/72 98/288/72
f 63/289/73 64/290/73 88/291/73 97/292/73
f 38/293/74 63/294/74 97/295/74 99/296/74
f 1/297/75 90/298/75 100/299/75 91/300/75
f 89/301/76 57/302/76 92/303/76 101/304/76
f 90/305/77 89/306/77 101/307/77 100/308/77
f 4/309/78 38/310/78 99/311/78 87/312/78
f 87/313/79 99/314/79 102/315/79 95/316/79
f 99/317/80 97/318/80 98/319/80 102/320/80
f 95/321/81 102/322/81 103/323/81 104/324/81
f 104/325/82 103/326/82 105/327/82 106/328/82
f 106/329/83 105/330/83 92/331/83 91/332/83
f 96/333/84 95/334/84 104/335/84 107/336/84
f 107/337/85 104/338/85 106/339/85 108/340/85
f 108/341/86 106/342/86 91/343/86 100/344/86
f 98/345/87 96/346/87 107/347/87 109/348/87
f 109/349/88 107/350/88 108/351/88 110/352/88
f 110/353/89 108/354/89 100/355/89 101/356/89
f 102/357/90 98/358/90 109/359/90 103/360/90
f 103/361/91 109/362/91 110/363/91 105/364/91
f 105/365/92 110/366/92 101/367/92 92/368/92
f 70/369/93 69/370/93 42/371/93 41/372/93
f 111/373/94 10/374/94 52/375/94 55/376/94
f 73/377/95 83/378/95 48/379/95 51/380/95
f 80/381/96 79/382/96 44/383/96 47/384/96
f 69/385/97 111/386/97 55/387/97 42/388/97
f 112/389/98 70/390/98 41/391/98 62/392/98
f 83/393/99 80/394/99 47/395/99 48/396/99
f 10/397/100 9/398/100 94/399/100 52/400/100
f 79/401/101 113/402/101 93/403/101 44/404/101
f 113/405/102 112/406/102 62/407/102 93/408/102
f 74/409/103 73/410/103 51/411/103 58/412/103
f 9/413/104 74/414/104 58/415/104 94/416/104
f 84/417/105 76/418/105 82/419/105 81/420/105
f 114/421/106 12/422/106 11/423/106 71/424/106
f 71/425/107 11/426/107 115/427/107 72/428/107
f 82/429/108 76/430/108 75/431/108 116/432/108
f 116/433/109 75/434/109 12/435/109 114/436/109
f 111/437/110 69/438/110 72/439/110 115/440/110
f 74/441/111 9/442/111 12/443/111 75/444/111
f 10/445/112 111/446/112 115/447/112 11/448/112
f 113/449/113 79/450/113 82/451/113 116/452/113
f 70/453/114 112/454/114 114/455/114 71/456/114
f 83/457/115 73/458/115 76/459/115 84/460/115
f 112/461/116 113/462/116 116/463/116 114/464/116