# Made in Blockbench 5.2.1
mtllib CoffeeCup.mtl

o Cup
v 0.1255675 0.251496875 -2.024885
v -0.1 0 -2.1396325
v 0.1 0 -2.1396325
v 0.1 0 -2.0369975
v -0.1 0 -2.0369975
v -0.115215625 0.252254375 -2.029189375
v -0.120890625 0.346341875 -2.026276875
v -0.120890625 0.346341875 -2.150353125
v -0.115215625 0.252255 -2.147440625
v 0.05912625 0.252254375 -1.973099375
v 0.062038125 0.346341875 -1.967424375
v -0.062038125 0.346341875 -1.967424375
v -0.05912625 0.252255 -1.973099375
v 0.120890625 0.346341875 -2.150353125
v 0.120890625 0.346341875 -2.026276875
v 0.115215625 0.252254375 -2.147440625
v 0.115215625 0.252255 -2.029189375
v 0.105463125 0.090575 -2.14243625
v 0.0513175 0 -2.188315
v 0.05412125 0.090575 -2.193778125
v 0.05412125 0.090575 -1.982851875
v 0.0513175 0 -1.988315
v 0.105463125 0.090575 -2.03419375
v -0.05412125 0.090575 -2.193778125
v -0.0513175 0 -2.188315
v -0.105463125 0.090575 -2.14243625
v -0.05912625 0.252254375 -2.203530625
v -0.062038125 0.346341875 -2.209205625
v 0.062038125 0.346341875 -2.209205625
v 0.05912625 0.252255 -2.203530625
v -0.0513175 0 -1.988315
v -0.06343 0.251496875 -1.9627475
v 0.06343 0.251496875 -1.9627475
v -0.105463125 0.090575 -2.03419375
v -0.115826875 0.0898175 -2.0299175
v -0.115826875 0.0898175 -2.1467125
v -0.05412125 0.090575 -1.982851875
v 0.1255675 0.251496875 -2.151745
v 0.0583975 0.0898175 -1.972488125
v -0.0583975 0.0898175 -1.972488125
v -0.1255675 0.251496875 -2.024885
v 0.115826875 0.0898175 -2.1467125
v 0.115826875 0.0898175 -2.0299175
v 0.06343 0.251496875 -2.2138825
v -0.06343 0.251496875 -2.2138825
v 0.0583975 0.0898175 -2.204141875
v -0.0583975 0.0898175 -2.204141875
v -0.1255675 0.251496875 -2.151745
v 0.14598875 0.309513125 -2.013396875
v 0.14598875 0.309513125 -2.163233125
v -0.14598875 0.309513125 -2.163233125
v -0.14598875 0.309513125 -2.013396875
v 0.074918125 0.309513125 -2.23430375
v -0.074918125 0.309513125 -2.23430375
v -0.074918125 0.309513125 -1.94232625
v 0.074918125 0.309513125 -1.94232625
v -0.11574 0.359343125 -2.027560625
v -0.11574 0.359343125 -2.14906875
v -0.11574 0.38472 -2.14906875
v -0.11574 0.38472 -2.027560625
v -0.060754375 0.359343125 -2.204055
v -0.060754375 0.38472 -2.204055
v -0.060754375 0.359343125 -1.972575
v -0.060754375 0.38472 -1.972575
v -0.14598875 0.359343125 -2.163233125
v -0.14598875 0.359343125 -2.013396875
v -0.074918125 0.359343125 -1.94232625
v 0.074918125 0.359343125 -1.94232625
v 0.14598875 0.359343125 -2.163233125
v 0.074918125 0.359343125 -2.23430375
v 0.14598875 0.359343125 -2.013396875
v -0.074918125 0.359343125 -2.23430375
v 0.060754375 0.359343125 -1.972575
v 0.11574 0.359343125 -2.027560625
v 0.11574 0.359343125 -2.14906875
v 0.060754375 0.359343125 -2.204055
v 0.09336 0.38472 -2.038573125
v 0.049741875 0.38472 -1.994955
v 0.049741875 0.35929375 -1.994955
v 0.09336 0.35929375 -2.038573125
v 0.049741875 0.38472 -2.181675
v 0.09336 0.38472 -2.138056875
v 0.09336 0.35929375 -2.138056875
v 0.049741875 0.35929375 -2.181675
v -0.049741875 0.38472 -1.994955
v -0.049741875 0.35929375 -1.994955
v 0.060754375 0.38472 -1.972575
v 0.11574 0.38472 -2.14906875
v 0.060754375 0.38472 -2.204055
v 0.11574 0.38472 -2.027560625
v -0.049741875 0.38472 -2.181675
v -0.09336 0.38472 -2.138056875
v -0.09336 0.38472 -2.038573125
v 0.087053125 0.35929375 -2.04157875
v -0.087053125 0.35929375 -2.04157875
v -0.087053125 0.35929375 -2.13505125
v 0.087053125 0.35929375 -2.13505125
v -0.04673625 0.35929375 -2.175368125
v 0.04673625 0.35929375 -2.175368125
v 0.04673625 0.35929375 -2.001261875
v -0.04673625 0.35929375 -2.001261875
v -0.049741875 0.35929375 -2.181675
v -0.09336 0.35929375 -2.038573125
v -0.09336 0.35929375 -2.138056875
vt 0.34453125 0.610278125
vt 0.44453125 0.610278125
vt 0.44453125 0.66159375
vt 0.34453125 0.66159375
vt 0.5608140625000001 0.703125
vt 0.5622703125 0.75
vt 0.5002296875 0.75
vt 0.5016859375000001 0.703125
vt 0.5295625 0.390625
vt 0.53101875 0.4375
vt 0.46898125 0.4375
vt 0.4704375 0.390625
vt 0.3104453125 0.7830718750000001
vt 0.1895546875 0.7830718750000001
vt 0.1895546875 0.7210343750000001
vt 0.3104453125 0.7210343750000001
vt 0.5608140624999999 0.609375
vt 0.5622703125 0.65625
vt 0.5002296875 0.65625
vt 0.5016859374999999 0.609375
vt 0.09375 0.31172937689405167
vt 0.09375 0.26633837969247964
vt 0.1281676076218896 0.265625
vt 0.13004845364479978 0.3109770125814856
vt 0.04063749999999999 0.328125
vt 0.041615625000000045 0.375
vt 0 0.375
vt 0.0009750000000000592 0.328125
vt 0.6902640463552002 0.9992293768940517
vt 0.6902640463552002 0.9538383796924796
vt 0.72468165397709 0.953125
vt 0.7265625 0.9984770125814856
vt 0.6590140463552001 0.37422937689405167
vt 0.6590140463552001 0.32883837969247964
vt 0.6934316539770897 0.328125
vt 0.6953125 0.3734770125814856
vt 0.6233125 0.390625
vt 0.62476875 0.4375
vt 0.56273125 0.4375
vt 0.5641875 0.390625
vt 0.34453125 0.66159375
vt 0.44453125 0.66159375
vt 0.420190625 0.6859375
vt 0.368871875 0.6859375
vt 0.44453125 0.610278125
vt 0.34453125 0.610278125
vt 0.368871875 0.5859375
vt 0.420190625 0.5859375
vt 0.3104453125 0.7210343750000001
vt 0.1895546875 0.7210343750000001
vt 0.21897968750000002 0.6916093750000001
vt 0.2810171875 0.6916093750000001
vt 0.18955468749999999 0.7830718750000001
vt 0.3104453125 0.7830718750000001
vt 0.2810171875 0.8125
vt 0.21897968750000002 0.8125
vt 0.646753125 0.671875
vt 0.648153125 0.71875
vt 0.594034375 0.71875
vt 0.595434375 0.671875
vt 0.28341379216307605 0.8789809125438819
vt 0.22428879216307604 0.8789840375438819
vt 0.22213566716307603 0.8737965375438819
vt 0.28556379216307604 0.8737902875438819
vt 0.4553154299629582 0.8115157122501032
vt 0.45511302054699165 0.7573942157450734
vt 0.4602987402277374 0.7552373066822652
vt 0.4605171376384521 0.8136337732905851
vt 0.25411562499999996 0.328125
vt 0.25505625 0.375
vt 0.21875 0.375
vt 0.21969062500000003 0.328125
vt 0.3117689939436653 0.9660833414077199
vt 0.311526950515142 0.9069588367607944
vt 0.31670570759026107 0.9047847671500118
vt 0.31696827713648734 0.9682154740107931
vt 0.6467515624999999 0.953125
vt 0.6481546875 1
vt 0.5940328125 1
vt 0.5954359374999999 0.953125
vt 0.646753125 0.765625
vt 0.648153125 0.8125
vt 0.594034375 0.8125
vt 0.595434375 0.765625
vt 0.6467515625000001 0.859375
vt 0.6481546875 0.90625
vt 0.5940328125 0.90625
vt 0.5954359375000001 0.859375
vt 0.59375 0.5245333628371363
vt 0.59375 0.4773826560514409
vt 0.6334040193461051 0.4765625
vt 0.6353567267280241 0.5236728193343756
vt 0.5990182732719759 0.6182833628371364
vt 0.5990182732719759 0.5711326560514409
vt 0.638672292618081 0.5703125
vt 0.640625 0.6174228193343757
vt 0.3177683303851512 0.39953599030948717
vt 0.3177683303851512 0.35238521880035645
vt 0.3574191709710224 0.3515625
vt 0.359375 0.3986726898395204
vt 0.429403125 0.731759375
vt 0.375284375 0.731759375
vt 0.37314375 0.7265625
vt 0.43154375 0.7265625
vt 0.22428879216307604 0.8789840375438819
vt 0.19621411337721129 0.9069961500352091
vt 0.1910301726284185 0.9048274697156065
vt 0.2221352846054399 0.8737956158520445
vt 0.34957447945300835 0.7573942157450734
vt 0.3493720700370418 0.8115157122501032
vt 0.3441703623615479 0.8136337732905851
vt 0.3443887597722626 0.7552373066822652
vt 0.22476436374632597 0.9947917195037175
vt 0.2838904026936327 0.9942950068305414
vt 0.2860833845297506 0.9994676191837997
vt 0.2226574935171312 1
vt 0.34937207003704174 0.8115157122501034
vt 0.3749027707008993 0.8373290249525639
vt 0.37272418657780987 0.8425077177518373
vt 0.34416751114943767 0.8136349342634167
vt 0.50390625 0.9921875
vt 0.5029467843514766 0.914897288533472
vt 0.5435475782599091 0.9140625
vt 0.54296875 0.9921875
vt 0.505859375 0.8672087306105681
vt 0.509765625 0.7890625
vt 0.5435475756243431 0.7890625
vt 0.546875 0.8680675209246415
vt 0.1269531250000011 0.49218750000000133
vt 0.130859375 0.4159679878048781
vt 0.169921875 0.4140625
vt 0.17089062500000107 0.49218750000000133
vt 0.40810625 0.453125
vt 0.410621875 0.53125
vt 0.347190625 0.53125
vt 0.34970625 0.453125
vt 0.26102499999999995 0.421875
vt 0.26268749999999996 0.5
vt 0.21875 0.5
vt 0.220415625 0.421875
vt 0.5331046875 0.484375
vt 0.5356203125 0.5625
vt 0.4721921875 0.5625
vt 0.47470781250000005 0.484375
vt 0.43935625 0.921875
vt 0.441871875 1
vt 0.378440625 1
vt 0.38095625 0.921875
vt 0.06435468749999995 0.421875
vt 0.06687031249999997 0.5
vt 0.003442187500000027 0.5
vt 0.005957812500000048 0.421875
vt 0.37566749318627063 0.8377338175793484
vt 0.4297847292991007 0.8373290249525639
vt 0.4319641655432185 0.842509743321099
vt 0.3735657991916439 0.842946558461955
vt 0.19621411337721126 0.9069961500352091
vt 0.19604223671511298 0.9661209005418754
vt 0.19084514852449497 0.9682583779090512
vt 0.19102999868031872 0.9048273969451335
vt 0.4297847292991007 0.8373290249525639
vt 0.45531542996295826 0.8115157122501034
vt 0.46051998885056233 0.8136349342634167
vt 0.43196331342219013 0.8425077177518373
vt 0.2838904026936327 0.9942950068305414
vt 0.3117689939436653 0.9660833414077199
vt 0.3169681026794231 0.9682154024690861
vt 0.28608264996730415 0.999465886562616
vt 0.375284375 0.731759375
vt 0.3495744794530084 0.7573942157450734
vt 0.34438702217861544 0.7552365839606922
vt 0.3731441312019547 0.7265634254581762
vt 0.311526950515142 0.9069588367607944
vt 0.28341379216307605 0.8789809125438819
vt 0.2855641779260437 0.8737893562178799
vt 0.31670553043683125 0.9047848415199586
vt 0.4551130205469916 0.7573942157450734
vt 0.429403125 0.731759375
vt 0.4315433687980453 0.7265634254581762
vt 0.46030047782138456 0.7552365839606922
vt 0.19604223671511298 0.9661209005418752
vt 0.22395545006211373 0.9942939121859637
vt 0.22177338077988148 0.9994703866716212
vt 0.19084422286351263 0.9682587586182727
vt 0.1472125 0.702046875
vt 0.1472125 0.7769625
vt 0.0012250000000000039 0.7769625
vt 0.0012250000000000039 0.702046875
vt 0.1472125 0.7769625
vt 0.111678125 0.8125
vt 0.036759375 0.8125
vt 0.0012250000000000039 0.7769625
vt 0.0012250000000000039 0.702046875
vt 0.036759375 0.6665093750000001
vt 0.111678125 0.6665093750000001
vt 0.1472125 0.702046875
vt 0.3125 0.296875
vt 0.375 0.296875
vt 0.375 0.3125
vt 0.3125 0.3125
vt 0.59375 0.265625
vt 0.6328125 0.265625
vt 0.6328125 0.28125
vt 0.59375 0.28125
vt 0.28125 0.234375
vt 0.3203125 0.234375
vt 0.3203125 0.25
vt 0.28125 0.25
vt 0.09375 0.3515625
vt 0.171875 0.3515625
vt 0.171875 0.375
vt 0.09375 0.375
vt 0.40625 0.3203125
vt 0.484375 0.3203125
vt 0.484375 0.34375
vt 0.40625 0.34375
vt 0.6875 0.7578125
vt 0.734375 0.7578125
vt 0.734375 0.78125
vt 0.6875 0.78125
vt 0.6875 0.8828125
vt 0.734375 0.8828125
vt 0.734375 0.90625
vt 0.6875 0.90625
vt 0.53125 0.3203125
vt 0.609375 0.3203125
vt 0.609375 0.34375
vt 0.53125 0.34375
vt 0.65625 0.4140625
vt 0.734375 0.4140625
vt 0.734375 0.4375
vt 0.65625 0.4375
vt 0.6875 0.8203125
vt 0.734375 0.8203125
vt 0.734375 0.84375
vt 0.6875 0.84375
vt 0.6875 0.6953125
vt 0.734375 0.6953125
vt 0.734375 0.71875
vt 0.6875 0.71875
vt 0.104596875 0.982428125
vt 0.13208750000000002 0.9549343749999999
vt 0.14721250000000002 0.962015625
vt 0.11167812500000002 0.9975531249999999
vt 0.04384062499999997 0.8666875
vt 0.016349999999999976 0.8941812499999999
vt 0.001224999999999976 0.8871
vt 0.03675937499999997 0.8515625
vt 0.13208750000000002 0.8941812499999999
vt 0.104596875 0.8666875
vt 0.11167812500000002 0.8515625
vt 0.14721250000000002 0.8871
vt 0.016350000000000003 0.9549343749999999
vt 0.043840625000000015 0.982428125
vt 0.03675937500000002 0.9975531249999999
vt 0.0012250000000000177 0.962015625
vt 0.043840625000000015 0.982428125
vt 0.104596875 0.982428125
vt 0.11167812500000002 0.9975531249999999
vt 0.03675937500000002 0.9975531249999999
vt 0.13208750000000002 0.9549343749999999
vt 0.13208750000000002 0.8941812499999999
vt 0.14721250000000002 0.8871
vt 0.14721250000000002 0.962015625
vt 0.016349999999999976 0.8941812499999999
vt 0.016350000000000003 0.9549343749999999
vt 0.0012250000000000039 0.962015625
vt 0.001224999999999976 0.8871
vt 0.104596875 0.8666875
vt 0.043840625000000015 0.8666875
vt 0.03675937500000002 0.8515625
vt 0.11167812500000002 0.8515625
vt 0.15625 0.625
vt 0.125 0.625
vt 0.125 0.609375
vt 0.15625 0.609375
vt 0.4375 0.40625
vt 0.40625 0.40625
vt 0.40625 0.390625
vt 0.4375 0.390625
vt 0.046875 0.28125
vt 0 0.28125
vt 0 0.265625
vt 0.046875 0.265625
vt 0.6875 0.640625
vt 0.75 0.640625
vt 0.75 0.65625
vt 0.6875 0.65625
vt 0.6875 0.265625
vt 0.7265625 0.265625
vt 0.7265625 0.28125
vt 0.6875 0.28125
vt 0.75 0.359375
vt 0.7890625 0.359375
vt 0.7890625 0.375
vt 0.75 0.375
vt 0.6875 0.578125
vt 0.75 0.578125
vt 0.75 0.59375
vt 0.6875 0.59375
vt 0.6875 0.515625
vt 0.75 0.515625
vt 0.75 0.53125
vt 0.6875 0.53125
vt 0.270965625 0.6436124999999999
vt 0.292775 0.621803125
vt 0.3039625 0.6273093749999998
vt 0.27647187500000003 0.6548031249999999
vt 0.221221875 0.550253125
vt 0.1994125 0.5720624999999999
vt 0.188225 0.5665562499999999
vt 0.215715625 0.5390625
vt 0.292775 0.5720624999999999
vt 0.270965625 0.550253125
vt 0.27647187500000003 0.5390625
vt 0.3039625 0.5665562499999999
vt 0.1994125 0.621803125
vt 0.221221875 0.6436124999999999
vt 0.215715625 0.6548031249999999
vt 0.188225 0.6273093749999998
vt 0.221221875 0.6436124999999999
vt 0.270965625 0.6436124999999999
vt 0.27647187500000003 0.6548031249999999
vt 0.215715625 0.6548031249999999
vt 0.292775 0.621803125
vt 0.292775 0.5720624999999999
vt 0.3039625 0.5665562499999999
vt 0.3039625 0.6273093749999998
vt 0.1994125 0.5720624999999999
vt 0.1994125 0.621803125
vt 0.188225 0.6273093749999998
vt 0.188225 0.5665562499999999
vt 0.270965625 0.550253125
vt 0.221221875 0.550253125
vt 0.215715625 0.5390625
vt 0.27647187500000003 0.5390625
vt 0.090403125 0.6012968749999998
vt 0.003349999999999999 0.6012968749999998
vt 0.003349999999999999 0.5545624999999998
vt 0.090403125 0.5545624999999998
vt 0.090403125 0.5545624999999998
vt 0.003349999999999999 0.5545624999999998
vt 0.02350625 0.5344031249999999
vt 0.07024375 0.5344031249999999
vt 0.003349999999999992 0.6012968749999998
vt 0.090403125 0.6012968749999998
vt 0.07024375 0.6214562499999998
vt 0.023506250000000006 0.6214562499999998
vt 0.234375 0.28125
vt 0.1875 0.28125
vt 0.1875 0.265625
vt 0.234375 0.265625
vt 0.453125 0.28125
vt 0.40625 0.28125
vt 0.40625 0.265625
vt 0.453125 0.265625
vt 0.15625 0.5625
vt 0.125 0.5625
vt 0.125 0.546875
vt 0.15625 0.546875
vt 0.03125 0.21875
vt 0 0.21875
vt 0 0.203125
vt 0.03125 0.203125
vt 0.546875 0.28125
vt 0.5 0.28125
vt 0.5 0.265625
vt 0.546875 0.265625
vt 0.07024375 0.6214562499999998
vt 0.090403125 0.6012968749999998
vt 0.09355625000000001 0.6028
vt 0.071746875 0.6246093749999999
vt 0.02350625 0.5344031249999999
vt 0.003349999999999999 0.5545624999999998
vt 0.00019374999999999948 0.5530593749999999
vt 0.022003125 0.53125
vt 0.090403125 0.5545624999999998
vt 0.07024375000000001 0.5344031249999999
vt 0.07174687500000002 0.53125
vt 0.09355625000000001 0.5530593749999999
vt 0.003349999999999992 0.6012968749999998
vt 0.02350625 0.6214562499999998
vt 0.022003125 0.6246093749999999
vt 0.00019374999999999254 0.6028
vt 0.02350625 0.6214562499999998
vt 0.07024375 0.6214562499999998
vt 0.071746875 0.6246093749999999
vt 0.022003125 0.6246093749999999
vt 0.090403125 0.6012968749999998
vt 0.090403125 0.5545624999999998
vt 0.09355625000000001 0.5530593749999999
vt 0.09355625000000001 0.6028
vt 0.003349999999999992 0.5545624999999998
vt 0.003349999999999992 0.6012968749999998
vt 0.00019374999999999254 0.6028
vt 0.00019374999999999254 0.5530593749999999
vt 0.07024375 0.5344031249999999
vt 0.02350625 0.5344031249999999
vt 0.022003125 0.53125
vt 0.071746875 0.53125
vn 0 -1 0
vn -0.9981859265689633 -0.06020677702435354 0
vn 0 -0.060206777024354556 0.9981859265689632
vn 0 1 0
vn 0.9981859265689633 -0.06020677702435354 0
vn 0.7056387443364873 -0.06440438636032786 -0.7056387443364879
vn -0.7056389258302219 -0.06440040920945075 0.7056389258302195
vn 0.7056387443364872 -0.06440438636032889 0.7056387443364879
vn -0.705638744336487 -0.0644043863603306 -0.7056387443364878
vn 0 -0.060206777024354556 -0.9981859265689632
vn 0 -1 0
vn 0 -1 0
vn 0 1 0
vn 0 1 0
vn 0 -0.060206619288585506 -0.9981859360829721
vn 0.000005271182738159603 0.9973288587399255 0.0730420940056669
vn 0.0728968433822982 -0.9973394859449297 0
vn -0.7056387443364882 -0.06440438636032887 0.7056387443364869
vn 0.07304209434526472 0.9973288587150538 -0.0000052712384581868936
vn 0.9981859360829725 -0.0602066192885817 0
vn 0 -0.060206619288583084 0.9981859360829725
vn -0.9981859360829725 -0.0602066192885817 0
vn 0.7056423000702847 -0.06440475558921396 -0.7056351548845989
vn 0.7056432412037338 -0.06439985771551578 0.7056346607627141
vn -0.7056432412037323 -0.06439985771551582 -0.7056346607627154
vn 0 -0.9973394859449297 -0.07289684338229811
vn -0.05155036740835988 0.9973396232484681 0.051538679830463806
vn -0.0728968433822982 -0.9973394859449297 0
vn -0.000005271182738159603 0.9973288587399255 -0.0730420940056669
vn -0.05160383320448038 -0.9973334892588378 0.05160383320448006
vn -0.7056354739118613 -0.06447601037877726 -0.7056354739118625
vn 0.7056354739118613 -0.06447601037877629 0.7056354739118625
vn 0.7056354739118612 -0.06447601037877694 -0.7056354739118625
vn 0 -0.060137512663643464 -0.9981901019197849
vn -0.7056354739118604 -0.06447601037877632 0.7056354739118635
vn 0.9981901019197849 -0.06013751266364313 0
vn 0 -0.0601375126636421 0.9981901019197849
vn -0.9981901019197849 -0.06013751266364313 0
vn 0 -0.9973394859449297 0.07289684338229967
vn -0.07304209434526472 0.9973288587150538 0.0000052712384581868936
vn 0.05160383320447878 -0.9973334892588381 0.05160383320447847
vn 0.05155036740836137 0.9973396232484678 -0.051538679830465506
vn -0.05160383320447871 -0.9973334892588381 -0.051603833204478616
vn 0.05154167619695049 0.997339372901495 0.05155221503739395
vn 0.051603833204479435 -0.9973334892588379 -0.051603833204479345
vn -0.05154167619695037 0.997339372901495 -0.05155221503739403
vn 0 1 0
vn 0 1 0
vn 0 1 0
vn 1 0 0
vn 0.7071107998547957 0 0.7071027624954602
vn 0.7071067811865478 0 -0.7071067811865472
vn 1 0 0
vn 0 0 -1
vn -0.7071067811865472 0 0.7071067811865478
vn -0.7071067811865483 0 -0.7071067811865467
vn 0 0 1
vn -1 0 0
vn 0.7071067811865483 0 -0.7071067811865467
vn 0.7071067811865472 0 0.7071067811865478
vn 0 -1 0
vn 0 -1 0
vn 0 -1 0
vn 0 -1 0
vn 0 -1 0
vn 0 -1 0
vn 0 -1 0
vn 0 -1 0
vn 0.7071067811865481 0 0.707106781186547
vn 0.7071067811865445 0 -0.7071067811865506
vn 0 0 1
vn 0 0 -1
vn -0.7071107998547957 0 0.7071027624954602
vn -0.7071067811865478 0 -0.7071067811865472
vn 0 0 1
vn -1 0 0
vn 0 -1 0
vn 0 -1 0
vn 0 -1 0
vn 0 -1 0
vn 0 -1 0
vn 0 -1 0
vn 0 -1 0
vn 0 -1 0
vn 0 -1 0
vn 0 -1 0
vn 0 -1 0
vn 0 0 -1
vn 1 0 0
vn -0.7071067811865481 0 0.707106781186547
vn -0.7071067811865445 0 -0.7071067811865506
vn -1 0 0
vn 0 -1 0
vn 0 -1 0
vn 0 -1 0
vn 0 -1 0
vn 0 -1 0
vn 0 -1 0
vn 0 -1 0
vn 0 -1 0
usemtl m_52f0c0f8-4986-d78b-55e7-9df43744c50e
f 2/1/1 3/2/1 4/3/1 5/4/1
f 6/5/2 7/6/2 8/7/2 9/8/2
f 10/9/3 11/10/3 12/11/3 13/12/3
f 14/13/4 8/14/4 7/15/4 15/16/4
f 16/17/5 14/18/5 15/19/5 17/20/5
f 18/21/6 3/22/6 19/23/6 20/24/6
f 13/25/7 12/26/7 7/27/7 6/28/7
f 21/29/8 22/30/8 4/31/8 23/32/8
f 24/33/9 25/34/9 2/35/9 26/36/9
f 27/37/10 28/38/10 29/39/10 30/40/10
f 5/41/11 4/42/11 22/43/11 31/44/11
f 3/45/12 2/46/12 25/47/12 19/48/12
f 15/49/13 7/50/13 12/51/13 11/52/13
f 8/53/14 14/54/14 29/55/14 28/56/14
f 25/57/15 24/58/15 20/59/15 19/60/15
f 10/61/16 13/62/16 32/63/16 33/64/16
f 26/65/17 34/66/17 35/67/17 36/68/17
f 31/69/18 37/70/18 34/71/18 5/72/18
f 16/73/19 17/74/19 1/75/19 38/76/19
f 3/77/20 18/78/20 23/79/20 4/80/20
f 22/81/21 21/82/21 37/83/21 31/84/21
f 5/85/22 34/86/22 26/87/22 2/88/22
f 14/89/23 16/90/23 30/91/23 29/92/23
f 11/93/24 10/94/24 17/95/24 15/96/24
f 28/97/25 27/98/25 9/99/25 8/100/25
f 37/101/26 21/102/26 39/103/26 40/104/26
f 13/105/27 6/106/27 41/107/27 32/108/27
f 23/109/28 18/110/28 42/111/28 43/112/28
f 27/113/29 30/114/29 44/115/29 45/116/29
f 18/117/30 20/118/30 46/119/30 42/120/30
f 45/121/31 47/122/31 36/123/31 48/124/31
f 33/125/32 39/126/32 43/127/32 1/128/32
f 38/129/33 42/130/33 46/131/33 44/132/33
f 47/133/34 45/134/34 44/135/34 46/136/34
f 40/137/35 32/138/35 41/139/35 35/140/35
f 42/141/36 38/142/36 1/143/36 43/144/36
f 39/145/37 33/146/37 32/147/37 40/148/37
f 35/149/38 41/150/38 48/151/38 36/152/38
f 20/153/39 24/154/39 47/155/39 46/156/39
f 6/157/40 9/158/40 48/159/40 41/160/40
f 24/161/41 26/162/41 36/163/41 47/164/41
f 30/165/42 16/166/42 38/167/42 44/168/42
f 21/169/43 23/170/43 43/171/43 39/172/43
f 17/173/44 10/174/44 33/175/44 1/176/44
f 34/177/45 37/178/45 40/179/45 35/180/45
f 9/181/46 27/182/46 45/183/46 48/184/46
f 49/185/47 50/186/47 51/187/47 52/188/47
f 50/189/48 53/190/48 54/191/48 51/192/48
f 52/193/49 55/194/49 56/195/49 49/196/49
f 57/197/50 58/198/50 59/199/50 60/200/50
f 58/201/51 61/202/51 62/203/51 59/204/51
f 63/205/52 57/206/52 60/207/52 64/208/52
f 52/209/53 51/210/53 65/211/53 66/212/53
f 56/213/54 55/214/54 67/215/54 68/216/54
f 53/217/55 50/218/55 69/219/55 70/220/55
f 49/221/56 56/222/56 68/223/56 71/224/56
f 54/225/57 53/226/57 70/227/57 72/228/57
f 50/229/58 49/230/58 71/231/58 69/232/58
f 55/233/59 52/234/59 66/235/59 67/236/59
f 51/237/60 54/238/60 72/239/60 65/240/60
f 73/241/61 74/242/61 71/243/61 68/244/61
f 61/245/62 58/246/62 65/247/62 72/248/62
f 75/249/63 76/250/63 70/251/63 69/252/63
f 57/253/64 63/254/64 67/255/64 66/256/64
f 63/257/65 73/258/65 68/259/65 67/260/65
f 74/261/66 75/262/66 69/263/66 71/264/66
f 58/265/67 57/266/67 66/267/67 65/268/67
f 76/269/68 61/270/68 72/271/68 70/272/68
f 77/273/69 78/274/69 79/275/69 80/276/69
f 81/277/70 82/278/70 83/279/70 84/280/70
f 78/281/71 85/282/71 86/283/71 79/284/71
f 73/285/72 63/286/72 64/287/72 87/288/72
f 76/289/73 75/290/73 88/291/73 89/292/73
f 74/293/74 73/294/74 87/295/74 90/296/74
f 61/297/75 76/298/75 89/299/75 62/300/75
f 75/301/76 74/302/76 90/303/76 88/304/76
f 78/305/77 77/306/77 90/307/77 87/308/77
f 91/309/78 92/310/78 59/311/78 62/312/78
f 82/313/79 81/314/79 89/315/79 88/316/79
f 93/317/80 85/318/80 64/319/80 60/320/80
f 85/321/81 78/322/81 87/323/81 64/324/81
f 77/325/82 82/326/82 88/327/82 90/328/82
f 92/329/83 93/330/83 60/331/83 59/332/83
f 81/333/84 91/334/84 62/335/84 89/336/84
f 94/337/85 95/338/85 96/339/85 97/340/85
f 97/341/86 96/342/86 98/343/86 99/344/86
f 95/345/87 94/346/87 100/347/87 101/348/87
f 91/349/88 81/350/88 84/351/88 102/352/88
f 82/353/89 77/354/89 80/355/89 83/356/89
f 85/357/90 93/358/90 103/359/90 86/360/90
f 92/361/91 91/362/91 102/363/91 104/364/91
f 93/365/92 92/366/92 104/367/92 103/368/92
f 100/369/93 94/370/93 80/371/93 79/372/93
f 98/373/94 96/374/94 104/375/94 102/376/94
f 97/377/95 99/378/95 84/379/95 83/380/95
f 95/381/96 101/382/96 86/383/96 103/384/96
f 101/385/97 100/386/97 79/387/97 86/388/97
f 94/389/98 97/390/98 83/391/98 80/392/98
f 96/393/99 95/394/99 103/395/99 104/396/99
f 99/397/100 98/398/100 102/399/100 84/400/100