# Made in Blockbench 5.2.1
mtllib printer.mtl

o Printer
v -3.702875 2.10117875 -1.718596875
v -3.64538875 2.10117875 -2.14736
v -3.89601625 2 -2.14736
v -4.010988125 2 -1.718596875
v -0.85966375 2.202358125 -2.14736
v 0.82851 2 -2.14736
v 0.738175 1.890436875 -3.24721
v -0.85966375 2.09279625 -3.24721
v 1.201555 1.401401875 -1.718596875
v 1.030065 2 -1.718596875
v 1.030065 2 0
v 1.201555 1.401401875 0
v -0.85966375 0 -1.718596875
v 1.201555 0 -1.718596875
v 1.201555 0 0
v -0.85966375 0 0
v -0.85966375 2.202358125 -1.718596875
v -2.719328125 2.202358125 -1.718596875
v -2.719328125 2.202358125 0
v -0.85966375 2.202358125 0
v -0.85966375 1.401401875 -3.24721
v 0.90966375 1.401401875 -3.24721
v -3.598168125 0 -3.24721
v -3.64538875 0 -2.14736
v -3.99497125 0 -2.14736
v -3.90052875 0 -3.24721
v -0.85966375 0 -2.14736
v -2.719328125 0 -2.14736
v -2.719328125 0 -3.24721
v -0.85966375 0 -3.24721
v 1 1.401401875 -2.14736
v 1 0 -2.14736
v 0.90966375 0 -3.24721
v -4.109943125 1.401401875 -1.718596875
v -3.99497125 1.40140125 -2.14736
v -3.702875 0 -1.718596875
v -3.702875 0 0
v -4.109943125 0 0
v -4.109943125 0 -1.718596875
v -3.64538875 1.4014 -2.14736
v -3.598168125 1.4014 -3.24721
v -3.90052875 1.4014 -3.24721
v -2.719328125 2.202358125 -2.14736
v -2.719328125 2.09279625 -3.24721
v -2.719328125 1.40140125 -3.24721
v -2.719328125 1.4014 -2.14736
v 1.201555 0.202253125 -1.521411875
v 1.201555 0.59994125 -1.521411875
v 0.001363125 0.59994125 -1.521411875
v 0.001363125 0.202253125 -1.521411875
v -4.109943125 1.401401875 0
v -3.702875 1.401401875 0
v 1.201555 0.202261875 0
v 1.201555 0.599935 0
v -2.719328125 0 -1.718596875
v -2.719328125 0 0
v 0.001363125 0.599935 0
v 0.001363125 0.202261875 0
v -3.70287375 2.09954625 0
v -4.010986875 1.999546875 0
v -2.719328125 1.40140125 -1.718596875
v -2.719328125 1.401401875 0
v -3.702875 1.401401875 -1.718596875
v -3.702875 2.10117875 1.718596875
v -4.010988125 2 1.718596875
v -3.89601625 2 2.14736
v -3.64538875 2.10117875 2.14736
v -0.85966375 2.202358125 2.14736
v -0.85966375 2.09279625 3.24721
v 0.738175 1.890436875 3.24721
v 0.82851 2 2.14736
v 1.201555 1.401401875 1.718596875
v 1.030065 2 1.718596875
v -0.85966375 0 1.718596875
v 1.201555 0 1.718596875
v -0.85966375 2.202358125 1.718596875
v -2.719328125 2.202358125 1.718596875
v -0.85966375 1.401401875 3.24721
v 0.90966375 1.401401875 3.24721
v -3.598168125 0 3.24721
v -3.90052875 0 3.24721
v -3.99497125 0 2.14736
v -3.64538875 0 2.14736
v -0.85966375 0 2.14736
v -0.85966375 0 3.24721
v -2.719328125 0 3.24721
v -2.719328125 0 2.14736
v 1 1.401401875 2.14736
v 0.90966375 0 3.24721
v 1 0 2.14736
v -4.109943125 1.401401875 1.718596875
v -3.99497125 1.40140125 2.14736
v -3.702875 0 1.718596875
v -4.109943125 0 1.718596875
v -3.64538875 1.4014 2.14736
v -3.90052875 1.4014 3.24721
v -3.598168125 1.4014 3.24721
v -2.719328125 2.202358125 2.14736
v -2.719328125 1.4014 2.14736
v -2.719328125 1.40140125 3.24721
v -2.719328125 2.09279625 3.24721
v 1.201555 0.202253125 1.521411875
v 0.001363125 0.202253125 1.521411875
v 0.001363125 0.59994125 1.521411875
v 1.201555 0.59994125 1.521411875
v -2.719328125 0 1.718596875
v -2.719328125 1.40140125 1.718596875
v -3.702875 1.401401875 1.718596875
v -3.315345 1.55636125 -1.471096875
v -4.453846875 3.65833625 -1.471096875
v -4.453846875 3.65833625 -1.63143625
v -3.315345 1.55636125 -1.63143625
v -3.13896125 1.651896875 -1.63143625
v -4.277463125 3.75387125 -1.63143625
v -4.10107875 3.849406875 -1.63143625
v -2.962576875 1.747431875 -1.63143625
v -4.277463125 3.75387125 -1.471096875
v -4.453846875 3.65833625 0
v -4.277463125 3.75387125 0
v -4.10107875 3.849406875 -1.471096875
v -2.962576875 1.747431875 -1.471096875
v -3.13896125 1.651896875 -1.471096875
v -3.315345 1.55636125 0
v -3.13896125 1.651896875 0
v -3.315345 1.55636125 1.471096875
v -3.315345 1.55636125 1.63143625
v -4.453846875 3.65833625 1.63143625
v -4.453846875 3.65833625 1.471096875
v -3.13896125 1.651896875 1.63143625
v -2.962576875 1.747431875 1.63143625
v -4.10107875 3.849406875 1.63143625
v -4.277463125 3.75387125 1.63143625
v -4.277463125 3.75387125 1.471096875
v -2.962576875 1.747431875 1.471096875
v -4.10107875 3.849406875 1.471096875
v -3.13896125 1.651896875 1.471096875
v 2.597511875 0.02850875 -1.54533875
v 1.15878125 0.026453125 -1.54533875
v 1.15878125 0.026453125 -1.69709125
v 2.597511875 0.02850875 -1.69709125
v 2.59733875 0.18347375 -1.69709125
v 1.158608125 0.181418125 -1.69709125
v 1.15843625 0.40262 -1.69709125
v 2.504435 0.296026875 -1.69709125
v 1.15843625 0.40262 -1.54533875
v 2.504435 0.296026875 -1.54533875
v 2.59733875 0.18347375 -1.54533875
v 2.597511875 0.02850875 0
v 1.15878125 0.026453125 0
v 2.59733875 0.18347375 0
v 1.158608125 0.181418125 -1.54533875
v 1.158608125 0.181418125 0
v 2.597511875 0.02850875 1.54533875
v 2.597511875 0.02850875 1.69709125
v 1.15878125 0.026453125 1.69709125
v 1.15878125 0.026453125 1.54533875
v 2.59733875 0.18347375 1.69709125
v 2.504435 0.296026875 1.69709125
v 1.15843625 0.40262 1.69709125
v 1.158608125 0.181418125 1.69709125
v 2.504435 0.296026875 1.54533875
v 1.15843625 0.40262 1.54533875
v 2.59733875 0.18347375 1.54533875
v 1.158608125 0.181418125 1.54533875
vt 0.170087578125 0.80328626953125
vt 0.17187349609375 0.81668654296875
vt 0.16342763671875 0.8167621484375001
vt 0.1599755859375 0.80334314453125
vt 0.25909947265625 0.81668654296875
vt 0.31222884765625 0.8173135351562499
vt 0.30942564453125 0.85185546875
vt 0.25909947265625 0.85122541015625
vt 0.32470234375 0.9805412109375
vt 0.32470234375 1
vt 0.27099609375 1
vt 0.27099609375 0.9805412109375
vt 0.1015712890625 0.844818359375
vt 0.165984375 0.844818359375
vt 0.165984375 0.898524609375
vt 0.1015712890625 0.898524609375
vt 0.25909947265625 0.8032877148437501
vt 0.20098501953125 0.8032877148437501
vt 0.20098501953125 0.74958146484375
vt 0.25909947265625 0.74958146484375
vt 0.22329619140625 0.9119876953125
vt 0.22329619140625 0.93359375
vt 0.17336376953125 0.9272701171875
vt 0.16800478515625 0.9119876953125
vt 0.01599296875 0.79704921875
vt 0.0145173828125 0.83141953125
vt 0.00359296875 0.83141953125
vt 0.006544140625 0.79704921875
vt 0.1015712890625 0.83141953125
vt 0.0434568359375 0.83141953125
vt 0.0434568359375 0.79704921875
vt 0.1015712890625 0.79704921875
vt 0.3395078125 0.9805412109375
vt 0.3395078125 0.9367474609374999
vt 0.3739939453125 0.9367474609374999
vt 0.3739939453125 0.9805412109375
vt 0.37086640625 0.8482275390625
vt 0.370065625 0.867170703125
vt 0.356193359375 0.867170703125
vt 0.3569943359375 0.8482275390625
vt 0.0127208984375 0.844818359375
vt 0.0127208984375 0.898524609375
vt 0 0.898524609375
vt 0 0.844818359375
vt 0.27859013671875 0.61016080078125
vt 0.28006572265625 0.64453111328125
vt 0.27061689453125 0.64453111328125
vt 0.26766572265625 0.61016080078125
vt 0.0634765625 0.60546875
vt 0.029296875 0.602044921875
vt 0.029296875 0.580078125
vt 0.0634765625 0.580078125
vt 0.39621455078125 0.6062132812500001
vt 0.36727509765625 0.609375
vt 0.36727509765625 0.5843451171875
vt 0.39621455078125 0.5843451171875
vt 0.0145173828125 0.83141953125
vt 0.0127208984375 0.844818359375
vt 0 0.844818359375
vt 0.00359296875 0.83141953125
vt 0.25909947265625 0.81668654296875
vt 0.20098501953125 0.81668654296875
vt 0.20098501953125 0.8032877148437501
vt 0.25909947265625 0.8032877148437501
vt 0.1015712890625 0.83141953125
vt 0.1596857421875 0.83141953125
vt 0.165984375 0.844818359375
vt 0.1015712890625 0.844818359375
vt 0.3395078125 0.9805412109375
vt 0.3417876953125 0.999866015625
vt 0.3269822265625 0.999866015625
vt 0.32470234375 0.9805412109375
vt 0.3395078125 0.9367474609374999
vt 0.3395078125 0.9805412109375
vt 0.32470234375 0.9805412109375
vt 0.32470234375 0.9367474609374999
vt 0.19328677734375 0.80078125
vt 0.173828125 0.80078125
vt 0.17460556640625 0.7663038867187499
vt 0.19077287109375 0.76622966796875
vt 0.22329619140625 0.8681939453125
vt 0.22329619140625 0.9119876953125
vt 0.16800478515625 0.9119876953125
vt 0.16800478515625 0.8681939453125
vt 0.197265625 0.9873046875
vt 0.197265625 1
vt 0.16015625 1
vt 0.16015625 0.9873046875
vt 0.42457265625 0.8044337890625
vt 0.42457265625 0.8482275390625
vt 0.37086640625 0.8482275390625
vt 0.37086640625 0.8044337890625
vt 0.23366826171875 0.5789205078124999
vt 0.23366826171875 0.6227142578125
vt 0.22094736328125 0.6227142578125
vt 0.22094736328125 0.5789205078124999
vt 0.37086640625 0.8044337890625
vt 0.37086640625 0.8482275390625
vt 0.3569943359375 0.8482275390625
vt 0.3569943359375 0.8044337890625
vt 0.3569943359375 0.8482275390625
vt 0.32249765625 0.8482275390625
vt 0.32249765625 0.8044337890625
vt 0.3569943359375 0.8044337890625
vt 0.318540234375 0.9430677734375
vt 0.27099609375 0.9430681640625
vt 0.27099609375 0.9367474609374999
vt 0.32470234375 0.9367474609374999
vt 0.318540234375 0.955495703125
vt 0.318540234375 0.9430677734375
vt 0.32470234375 0.9367474609374999
vt 0.32470234375 0.9805412109375
vt 0.27099609375 0.9554955078125
vt 0.318540234375 0.955495703125
vt 0.32470234375 0.9805412109375
vt 0.27099609375 0.9805412109375
vt 0.30887451171875 0.9119876953125
vt 0.28141064453125 0.9119876953125
vt 0.28141064453125 0.8681939453125
vt 0.30887451171875 0.8681939453125
vt 0.28141064453125 0.8681939453125
vt 0.28141064453125 0.9119876953125
vt 0.22329619140625 0.9119876953125
vt 0.22329619140625 0.8681939453125
vt 0.0434568359375 0.83141953125
vt 0.1015712890625 0.83141953125
vt 0.1015712890625 0.844818359375
vt 0.0434568359375 0.844818359375
vt 0.31223248046875 0.81668654296875
vt 0.25909947265625 0.81668654296875
vt 0.25909947265625 0.8032877148437501
vt 0.31848638671875 0.8032877148437501
vt 0.1596857421875 0.83141953125
vt 0.1015712890625 0.83141953125
vt 0.1015712890625 0.79704921875
vt 0.1568626953125 0.79704921875
vt 0.28141064453125 0.9119876953125
vt 0.28141064453125 0.93359375
vt 0.22329619140625 0.93359375
vt 0.22329619140625 0.9119876953125
vt 0.31849107421875 0.8032877148437501
vt 0.25909947265625 0.8032877148437501
vt 0.25909947265625 0.74958146484375
vt 0.31849107421875 0.74958146484375
vt 0.0434568359375 0.844818359375
vt 0.1015712890625 0.844818359375
vt 0.1015712890625 0.898524609375
vt 0.0434568359375 0.898524609375
vt 0.20098501953125 0.81668654296875
vt 0.25909947265625 0.81668654296875
vt 0.25909947265625 0.85122697265625
vt 0.20098501953125 0.85122697265625
vt 0.472348828125 0.9446033203125
vt 0.472348828125 0.95703125
vt 0.4248046875 0.9570310546875
vt 0.4248046875 0.9446037109375
vt 0.14677431640625 0.67907265625
vt 0.14677431640625 0.631528515625
vt 0.18428037109375 0.631528515625
vt 0.18428037109375 0.67907265625
vt 0.10575869140625 0.679018359375
vt 0.10575869140625 0.63147421875
vt 0.14326474609375 0.63147421875
vt 0.14326474609375 0.679018359375
vt 0.22094736328125 0.6227142578125
vt 0.23366826171875 0.6227142578125
vt 0.23366826171875 0.64453125
vt 0.22403974609375 0.6414064453125
vt 0.4306640625 1
vt 0.3769578125 1
vt 0.3769578125 0.9749701171875
vt 0.4306640625 0.9749701171875
vt 0.1982421875 0.865234375
vt 0.16796875 0.8620726562500001
vt 0.16796875 0.83984375
vt 0.1982421875 0.83984375
vt 0.21849302734375 0.5908249999999999
vt 0.21849275390625 0.64453125
vt 0.18775697265625 0.64453107421875
vt 0.1877571484375 0.5908249999999999
vt 0.31832333984375 0.9119876953125
vt 0.30887451171875 0.9119876953125
vt 0.30887451171875 0.8681939453125
vt 0.31832333984375 0.8681939453125
vt 0.26440419921875 0.5789205078124999
vt 0.26440419921875 0.6227142578125
vt 0.23366826171875 0.6227142578125
vt 0.23366826171875 0.5789205078124999
vt 0.0434568359375 0.83141953125
vt 0.0434568359375 0.844818359375
vt 0.0127208984375 0.844818359375
vt 0.0145173828125 0.83141953125
vt 0.40404677734375 0.6030513671875
vt 0.39621455078125 0.6062132812500001
vt 0.39621455078125 0.5843451171875
vt 0.40713896484375 0.5843451171875
vt 0.30752958984375 0.61016103515625
vt 0.3075294921875 0.64453125
vt 0.28006572265625 0.64453115234375
vt 0.27859013671875 0.61016080078125
vt 0.0434568359375 0.844818359375
vt 0.0434568359375 0.898524609375
vt 0.0127208984375 0.898524609375
vt 0.0127208984375 0.844818359375
vt 0.0434568359375 0.79704921875
vt 0.0434568359375 0.83141953125
vt 0.0145173828125 0.83141953125
vt 0.01599296875 0.79704921875
vt 0.20098501953125 0.8032877148437501
vt 0.20098501953125 0.81668654296875
vt 0.17187349609375 0.81668654296875
vt 0.17008775390625 0.8032877148437501
vt 0.16976982421875 0.74958109375
vt 0.170087578125 0.80328626953125
vt 0.1599533203125 0.80334328125
vt 0.15964708984375 0.74963787109375
vt 0.37086640625 0.8482275390625
vt 0.42457265625 0.8482275390625
vt 0.42457265625 0.8671736328125
vt 0.37086640625 0.8671875
vt 0.390625 0.919921875
vt 0.4443359375 0.919921875
vt 0.4443359375 0.94140625
vt 0.390625 0.941355078125
vt 0.17003810546875 0.6958265820312499
vt 0.15990376953125 0.6957672460937501
vt 0.16339619140625 0.6823417968750001
vt 0.17182349609375 0.68243798828125
vt 0.2600729296875 0.68176083984375
vt 0.26045857421875 0.6472225390624999
vt 0.3107898828125 0.64715771484375
vt 0.31320482421875 0.68172716796875
vt 0.21728984375 0.9805412109375
vt 0.27099609375 0.9805412109375
vt 0.27099609375 1
vt 0.21728984375 1
vt 0.1015712890625 0.952230859375
vt 0.1015712890625 0.898524609375
vt 0.165984375 0.898524609375
vt 0.165984375 0.952230859375
vt 0.25909947265625 0.6958752148437499
vt 0.25909947265625 0.74958146484375
vt 0.20098501953125 0.74958146484375
vt 0.20098501953125 0.6958752148437499
vt 0.09506318359375 0.7733158203125
vt 0.15035458984375 0.7733158203125
vt 0.14499560546875 0.7885982421875
vt 0.09506318359375 0.794921875
vt 0.01599296875 1
vt 0.006544140625 1
vt 0.00359296875 0.9656296875
vt 0.0145173828125 0.9656296875
vt 0.1015712890625 0.9656296875
vt 0.1015712890625 1
vt 0.0434568359375 1
vt 0.0434568359375 0.9656296875
vt 0.202484375 0.9805412109375
vt 0.1679982421875 0.9805412109375
vt 0.1679982421875 0.9367474609374999
vt 0.202484375 0.9367474609374999
vt 0.37449494140625 0.913559453125
vt 0.388427734375 0.9140625
vt 0.388671875 0.9326171875
vt 0.37449490234375 0.93251953125
vt 0.0127208984375 0.952230859375
vt 0 0.952230859375
vt 0 0.898524609375
vt 0.0127208984375 0.898524609375
vt 0.1028088671875 0.62890615234375
vt 0.0918844921875 0.62890625
vt 0.09483568359375 0.5945358203125
vt 0.10428443359375 0.5945359765625
vt 0.09765625 0.591796875
vt 0.09765625 0.56640625
vt 0.1318359375 0.56640625
vt 0.1318359375 0.588373046875
vt 0.27859013671875 0.6042601562500001
vt 0.27859013671875 0.5823919921875
vt 0.30752958984375 0.5823919921875
vt 0.30752958984375 0.607421875
vt 0.0145173828125 0.9656296875
vt 0.00359296875 0.9656296875
vt 0 0.952230859375
vt 0.0127208984375 0.952230859375
vt 0.25909947265625 0.68247638671875
vt 0.25909947265625 0.6958752148437499
vt 0.20098501953125 0.6958752148437499
vt 0.20098501953125 0.68247638671875
vt 0.1015712890625 0.9656296875
vt 0.1015712890625 0.952230859375
vt 0.165984375 0.952230859375
vt 0.1596857421875 0.9656296875
vt 0.202484375 0.9805412109375
vt 0.21728984375 0.9805412109375
vt 0.2150099609375 0.999866015625
vt 0.2002044921875 0.999866015625
vt 0.202484375 0.9367474609374999
vt 0.21728984375 0.9367474609374999
vt 0.21728984375 0.9805412109375
vt 0.202484375 0.9805412109375
vt 0.345703125 0.5859375
vt 0.31112373046875 0.583640546875
vt 0.31112373046875 0.5674457421875
vt 0.34557873046875 0.56651169921875
vt 0.09506318359375 0.7295220703125
vt 0.15035458984375 0.7295220703125
vt 0.15035458984375 0.7733158203125
vt 0.09506318359375 0.7733158203125
vt 0.4140625 0.6513671875
vt 0.451171875 0.6513671875
vt 0.451171875 0.6640625
vt 0.4140625 0.6640625
vt 0.32078869140625 0.869765703125
vt 0.37449494140625 0.869765703125
vt 0.37449494140625 0.913559453125
vt 0.32078869140625 0.913559453125
vt 0.37449494140625 0.869765703125
vt 0.38836701171875 0.869765703125
vt 0.38836701171875 0.913559453125
vt 0.37449494140625 0.913559453125
vt 0.38836701171875 0.913559453125
vt 0.38836701171875 0.869765703125
vt 0.42286369140625 0.869765703125
vt 0.42286369140625 0.913559453125
vt 0.223451953125 0.9430677734375
vt 0.21728984375 0.9367474609374999
vt 0.27099609375 0.9367474609374999
vt 0.27099609375 0.9430681640625
vt 0.223451953125 0.955495703125
vt 0.21728984375 0.9805412109375
vt 0.21728984375 0.9367474609374999
vt 0.223451953125 0.9430677734375
vt 0.27099609375 0.9554955078125
vt 0.27099609375 0.9805412109375
vt 0.21728984375 0.9805412109375
vt 0.223451953125 0.955495703125
vt 0.00948486328125 0.7733158203125
vt 0.00948486328125 0.7295220703125
vt 0.03694873046875 0.7295220703125
vt 0.03694873046875 0.7733158203125
vt 0.03694873046875 0.7295220703125
vt 0.09506318359375 0.7295220703125
vt 0.09506318359375 0.7733158203125
vt 0.03694873046875 0.7733158203125
vt 0.0434568359375 0.9656296875
vt 0.0434568359375 0.952230859375
vt 0.1015712890625 0.952230859375
vt 0.1015712890625 0.9656296875
vt 0.31222826171875 0.68245958984375
vt 0.31849107421875 0.6958752148437499
vt 0.2590995703125 0.6958752148437499
vt 0.25909943359375 0.68249326171875
vt 0.1596857421875 0.9656296875
vt 0.1568626953125 1
vt 0.1015712890625 1
vt 0.1015712890625 0.9656296875
vt 0.03694873046875 0.7733158203125
vt 0.09506318359375 0.7733158203125
vt 0.09506318359375 0.794921875
vt 0.03694873046875 0.794921875
vt 0.31849107421875 0.6958752148437499
vt 0.31849107421875 0.74958146484375
vt 0.25909947265625 0.74958146484375
vt 0.25909947265625 0.6958752148437499
vt 0.0434568359375 0.952230859375
vt 0.0434568359375 0.898524609375
vt 0.1015712890625 0.898524609375
vt 0.1015712890625 0.952230859375
vt 0.20196158203125 0.68174396484375
vt 0.20196158203125 0.64720353515625
vt 0.26007603515625 0.64720353515625
vt 0.26007603515625 0.68174396484375
vt 0.377260546875 0.9446033203125
vt 0.4248046875 0.9446037109375
vt 0.4248046875 0.9570310546875
vt 0.377260546875 0.95703125
vt 0.14677431640625 0.583984375
vt 0.18428037109375 0.583984375
vt 0.18428037109375 0.631528515625
vt 0.14677431640625 0.631528515625
vt 0.10575869140625 0.679018359375
vt 0.14326474609375 0.679018359375
vt 0.14326474609375 0.7265625
vt 0.10575869140625 0.7265625
vt 0.4306640625 1
vt 0.4306640625 0.9749701171875
vt 0.4843703125 0.9749701171875
vt 0.4843703125 1
vt 0.41015625 0.609375
vt 0.41015625 0.583984375
vt 0.4404296875 0.583984375
vt 0.4404296875 0.6062132812500001
vt 0.21849302734375 0.5908249999999999
vt 0.18775708984375 0.5908249999999999
vt 0.18775708984375 0.53711875
vt 0.21849302734375 0.53711875
vt 0.00003603515625 0.7733158203125
vt 0.00003603515625 0.7295220703125
vt 0.00948486328125 0.7295220703125
vt 0.00948486328125 0.7733158203125
vt 0.0434568359375 0.9656296875
vt 0.0145173828125 0.9656296875
vt 0.0127208984375 0.952230859375
vt 0.0434568359375 0.952230859375
vt 0.27075791015625 0.6010982421875
vt 0.26766572265625 0.5823919921875
vt 0.27859013671875 0.5823919921875
vt 0.27859013671875 0.6042601562500001
vt 0.1317483203125 0.62890615234375
vt 0.1028088671875 0.62890615234375
vt 0.104284453125 0.59453583984375
vt 0.1317483203125 0.59453583984375
vt 0.0434568359375 0.952230859375
vt 0.0127208984375 0.952230859375
vt 0.0127208984375 0.898524609375
vt 0.0434568359375 0.898524609375
vt 0.0434568359375 1
vt 0.01599296875 1
vt 0.0145173828125 0.9656296875
vt 0.0434568359375 0.9656296875
vt 0.20093619140625 0.69582638671875
vt 0.17003810546875 0.6958265820312499
vt 0.1718250390625 0.68242646484375
vt 0.20093619140625 0.6824289453125
vt 0.1697566015625 0.74958048828125
vt 0.15963392578125 0.7495211914062501
vt 0.159952734375 0.69581607421875
vt 0.17008693359375 0.69587541015625
vt 0.37449494140625 0.913559453125
vt 0.37449490234375 0.932519609375
vt 0.32078865234375 0.932505546875
vt 0.32078869140625 0.913559453125
vt 0.3642578125 0.587890625
vt 0.3642578125 0.6093240234374999
vt 0.310546875 0.609375
vt 0.310546875 0.587890625
vt 0.00529765625 0.6513671875
vt 0.00529765625 0.7260701171874999
vt 0.000287109375 0.7260701171874999
vt 0.000287109375 0.6513671875
vt 0.0234375390625 0.57525724609375
vt 0.0234374609375 0.64996013671875
vt 0.01716890625 0.64996021484375
vt 0.01716890625 0.5752570703125
vt 0.38225078125 0.9663876953125
vt 0.38225078125 0.960119140625
vt 0.42822265625 0.960119140625
vt 0.42822265625 0.9663876953125
vt 0.1396484375 0.5546875
vt 0.1396484375 0.62890625
vt 0.134765625 0.62890625
vt 0.134765625 0.5546875
vt 0.424517578125 0.6966982421875
vt 0.424517578125 0.702966796875
vt 0.41950703125 0.702966796875
vt 0.41950703125 0.6966982421875
vt 0.377240234375 0.9663876953125
vt 0.377240234375 0.960119140625
vt 0.38225078125 0.960119140625
vt 0.38225078125 0.9663876953125
vt 0.05126953125 0.6513671875
vt 0.05126953125 0.7260701171874999
vt 0.00529765625 0.7260701171874999
vt 0.00529765625 0.6513671875
vt 0.377240234375 0.97265625
vt 0.377240234375 0.9663876953125
vt 0.38225078125 0.9663876953125
vt 0.38225078125 0.97265625
vt 0.424517578125 0.6904296875
vt 0.424517578125 0.6966982421875
vt 0.41950703125 0.6966982421875
vt 0.41950703125 0.6904296875
vt 0.41950703125 0.6904296875
vt 0.41950703125 0.6966982421875
vt 0.37353515625 0.6966982421875
vt 0.37353515625 0.6904296875
vt 0.02970609375 0.5752571679687499
vt 0.02970609375 0.6499603125
vt 0.0234374609375 0.64996013671875
vt 0.0234375390625 0.57525724609375
vt 0.41071796875 0.6127970703125001
vt 0.41071796875 0.6875
vt 0.36474609375 0.6875
vt 0.36474609375 0.6127970703125001
vt 0.158203125 0.720703125
vt 0.158203125 0.794921875
vt 0.15234375 0.794921875
vt 0.15234375 0.720703125
vt 0.09724140625 0.6513671875
vt 0.102251953125 0.6513671875
vt 0.102251953125 0.7260701171874999
vt 0.09724140625 0.7260701171874999
vt 0.0107432421875 0.57525724609375
vt 0.01701185546875 0.57525724609375
vt 0.0170096875 0.64996041015625
vt 0.0107411328125 0.64996013671875
vt 0.47419453125 0.9663876953125
vt 0.42822265625 0.9663876953125
vt 0.42822265625 0.960119140625
vt 0.47419453125 0.960119140625
vt 0.06640625 0.51953125
vt 0.0712890625 0.51953125
vt 0.0712890625 0.59375
vt 0.06640625 0.59375
vt 0.322552734375 0.6966982421875
vt 0.32756328125 0.6966982421875
vt 0.32756328125 0.702966796875
vt 0.322552734375 0.702966796875
vt 0.479205078125 0.9663876953125
vt 0.47419453125 0.9663876953125
vt 0.47419453125 0.960119140625
vt 0.479205078125 0.960119140625
vt 0.05126953125 0.6513671875
vt 0.09724140625 0.6513671875
vt 0.09724140625 0.7260701171874999
vt 0.05126953125 0.7260701171874999
vt 0.479205078125 0.97265625
vt 0.47419453125 0.97265625
vt 0.47419453125 0.9663876953125
vt 0.479205078125 0.9663876953125
vt 0.322552734375 0.6904296875
vt 0.32756328125 0.6904296875
vt 0.32756328125 0.6966982421875
vt 0.322552734375 0.6966982421875
vt 0.32756328125 0.6904296875
vt 0.37353515625 0.6904296875
vt 0.37353515625 0.6966982421875
vt 0.32756328125 0.6966982421875
vt 0.0044746875 0.57525697265625
vt 0.0107432421875 0.57525724609375
vt 0.0107411328125 0.64996013671875
vt 0.00447251953125 0.64996013671875
vt 0.31877421875 0.6127970703125001
vt 0.36474609375 0.6127970703125001
vt 0.36474609375 0.6875
vt 0.31877421875 0.6875
vt 0.201171875 0.865234375
vt 0.201171875 0.8589657421875
vt 0.275390625 0.85896365234375
vt 0.275390625 0.86523220703125
vt 0.423780078125 0.7998431640625
vt 0.423780078125 0.7548828125
vt 0.4285224609375 0.7548828125
vt 0.4285224609375 0.7998431640625
vt 0.293437890625 0.8583861328125
vt 0.3383982421875 0.858321875
vt 0.338403515625 0.865234375
vt 0.296341015625 0.8619033203124999
vt 0.1982421875 0.7294921875
vt 0.1982421875 0.771484375
vt 0.193359375 0.771484375
vt 0.193359375 0.7294921875
vt 0.1708984375 0.8330078125
vt 0.1708984375 0.837890625
vt 0.166015625 0.837890625
vt 0.166015625 0.8330078125
vt 0.37548828125 0.7998431640625
vt 0.37548828125 0.7548828125
vt 0.423780078125 0.7548828125
vt 0.423780078125 0.7998431640625
vt 0.5203193359375 0.6670322265624999
vt 0.5203193359375 0.671875
vt 0.515576953125 0.671875
vt 0.515576953125 0.6670322265624999
vt 0.515576953125 0.6670322265624999
vt 0.515576953125 0.671875
vt 0.46728515625 0.671875
vt 0.46728515625 0.6670322265624999
vt 0.293432421875 0.853543359375
vt 0.3383927734375 0.8534791015625001
vt 0.3383982421875 0.858321875
vt 0.293437890625 0.8583861328125
vt 0.322313671875 0.751953125
vt 0.322313671875 0.7069927734375
vt 0.37060546875 0.7069927734375
vt 0.37060546875 0.751953125
vt 0.26909146484375 0.94976185546875
vt 0.2270315234375 0.953125
vt 0.2270315234375 0.9462125
vt 0.2719919140625 0.9462424609375
vt 0.327196484375 0.7998431640625
vt 0.3224541015625 0.7998431640625
vt 0.3224541015625 0.7548828125
vt 0.327196484375 0.7548828125
vt 0.459491796875 0.6806517578125
vt 0.456588671875 0.6841689453124999
vt 0.414526171875 0.6875
vt 0.4145314453125 0.6805875
vt 0.18359375 0.7216796875
vt 0.1884765625 0.7216796875
vt 0.1884765625 0.763671875
vt 0.18359375 0.763671875
vt 0.162109375 0.8251953125
vt 0.1669921875 0.8251953125
vt 0.1669921875 0.830078125
vt 0.162109375 0.830078125
vt 0.37548828125 0.7998431640625
vt 0.327196484375 0.7998431640625
vt 0.327196484375 0.7548828125
vt 0.37548828125 0.7548828125
vt 0.4142509765625 0.6670322265624999
vt 0.418993359375 0.6670322265624999
vt 0.418993359375 0.671875
vt 0.4142509765625 0.671875
vt 0.418993359375 0.6670322265624999
vt 0.46728515625 0.6670322265624999
vt 0.46728515625 0.671875
vt 0.418993359375 0.671875
vt 0.459497265625 0.6758089843749999
vt 0.459491796875 0.6806517578125
vt 0.4145314453125 0.6805875
vt 0.4145369140625 0.6757447265625001
vt 0.418897265625 0.751953125
vt 0.37060546875 0.751953125
vt 0.37060546875 0.7069927734375
vt 0.418897265625 0.7069927734375
vt 0.177799453125 0.7607737890625
vt 0.174278125 0.763671875
vt 0.174278125 0.718711484375
vt 0.181190625 0.71871607421875
vn -0.373877266905894 0.9261225772354093 -0.05012744982365036
vn 0.11831933394788006 0.987079682065126 -0.1080473806639481
vn 0.961327729793504 0.27540696420037714 0
vn 0 -1 0
vn 0 1 0
vn 0 0 -1
vn 0 -1 0
vn 0 -1 0
vn 0.9966438868065751 0 -0.08185940930084146
vn -0.9537960284934669 0.15767320687743738 -0.2557582762357352
vn 0 -1 0
vn 0 1 0
vn -1 0 0
vn 0 0 -1
vn 0 -1 0
vn 0 1 0
vn 0 -1 0
vn 0.8760296576340448 0.2509702581972878 -0.4118081694745321
vn 0.9049941788831058 0 -0.4254239487707446
vn 0.9583449809066116 0.2745524483152613 -0.07871372621850699
vn 0 0 -1
vn 0 0 1
vn -1 0 0
vn 0 0 1
vn -0.9658778597588132 0 -0.25899799232375215
vn -0.996333561178644 0 -0.0855536958236251
vn 1 0 0
vn 1 0 0
vn 1 0 0
vn 0 0 -1
vn 0 0 -1
vn 0 -1 0
vn 0.11901608438132061 0.9928923263166749 0
vn 0 -1 0
vn 0 0 -1
vn 0.1064744387591188 0.994315439833321 0
vn 0 -1 0
vn 0 0.9950750206800743 -0.09912468521286769
vn 1 0 0
vn 0 -0.9999999999915621 -0.000004108026302826575
vn 0 0.9999999999834617 -0.000005751236823925212
vn 0 0 1
vn -1 0 0
vn 0 0 1
vn 6.35455224212035e-7 0.9999999999997321 -3.636687632032215e-7
vn 0 0 -1
vn 0 0 1
vn 0 -1 0
vn 0 0 -1
vn -0.0000014223294341980411 0.9999999999983428 0.0000011365186161300234
vn 0 -1 0
vn 0 -1 0
vn -0.10861149133467102 0.9940842740683804 0
vn -0.3119905696606741 0.9500847696643866 0.0009027151144383998
vn -0.9865897004225234 0.16321998351977518 0
vn 1 0 0
vn -0.3109045940830866 0.9467777182441607 0.08336837298647429
vn 0.1250330057855142 0.9872662518011271 0.09834681244856427
vn 0.961327729793504 0.27540696420037714 0
vn 0 -1 0
vn 0 1 0
vn 0 0 1
vn 0 -1 0
vn 0 -1 0
vn 0.9966438868065751 0 0.08185940930084146
vn -0.9537959971846961 0.15767303707435287 0.2557584976774007
vn 0 -1 0
vn 0.0000035756938632347368 0.9999999999932633 8.294790492028097e-7
vn -1 0 0
vn 0 0 1
vn 0 -1 0
vn 0 1 0
vn 0 -1 0
vn 0.876029657634045 0.2509702581972877 0.4118081694745319
vn 0.9049941788831058 0 0.4254239487707446
vn 0.9379557806674007 0.3289107413210233 0.10980290413400692
vn 0 0 1
vn 0 0 -1
vn -1 0 0
vn -0.9658778597588134 0 0.2589979923237522
vn -0.9963335611786439 0 0.08555369582362508
vn 1 0 0
vn 1 0 0
vn 1 0 0
vn 0 0 1
vn 0 0 1
vn 0 -1 0
vn 0.1063413187561584 0.9930722938178381 0.04998943064867698
vn 0 -1 0
vn 0 0 1
vn 0.1064744387591188 0.994315439833321 0
vn 0 -1 0
vn 0 0.9950750206800743 0.09912468521286769
vn 1 0 0
vn 0 -0.9999999999915621 0.000004108026302826575
vn 0 0.9999999999834617 0.000005751236823925212
vn -1 0 0
vn 0 0 -1
vn 0 1 0
vn 0 0 1
vn 0 -1 0
vn 0 0 1
vn 0 1 0
vn 0 -1 0
vn 0 -1 0
vn -0.10232226411742076 0.9946566987156599 0.013718817950167956
vn -0.30870242561430183 0.951158635252498 -0.00025100687712504096
vn -0.986609920081636 0.16309771207799623 -0.00004371991726387206
vn 0.9999999999981314 -0.000001790460604871796 7.290382899641867e-7
vn -0.8793038645954007 -0.47626118223889885 0
vn 0 0 -1
vn -0.4762592596456471 0.8793049059352394 0
vn 0.8793038645954006 0.4762611822388989 0
vn 0.4762579548489304 -0.8793056126530265 0
vn -0.47625925964564714 0.8793049059352396 0
vn -0.8793038645954006 -0.4762611822388988 0
vn -0.47626036385822884 0.8793043078579951 0
vn 0.47626166865767205 -0.8793036011341077 0
vn 0.47626166865767217 -0.8793036011341078 0
vn 0 0 -1
vn 0.8793038052916754 0.47626129172921394 0
vn 0 0 1
vn -0.8793038645954007 -0.47626118223889885 0
vn 0 0 1
vn -0.4762592596456471 0.8793049059352394 0
vn 0.8793038645954006 0.4762611822388989 0
vn 0.4762579548489304 -0.8793056126530265 0
vn -0.47625925964564714 0.8793049059352396 0
vn -0.8793038645954006 -0.4762611822388988 0
vn -0.47626036385822884 0.8793043078579951 0
vn 0.47626166865767205 -0.8793036011341077 0
vn 0.47626166865767217 -0.8793036011341078 0
vn 0 0 1
vn 0.8793038052916754 0.47626129172921394 0
vn 0 0 -1
vn 0.0014287753844284897 -0.9999989792999295 0
vn 0 0 -1
vn 0.07894542354693396 0.9968789395413044 0
vn 0.7712137475638935 0.6365762763160872 0
vn 0.0014287753844284899 -0.9999989792999295 0
vn 0.9999993759463475 0.0011171870548872106 0
vn 0.9999993759463475 0.0011171870548872104 0
vn 0 0 -1
vn -0.001428775384428475 0.9999989792999295 0
vn 0 0 1
vn 0.0014287753844284897 -0.9999989792999295 0
vn 0 0 1
vn 0.07894542354693396 0.9968789395413044 0
vn 0.7712137475638935 0.6365762763160872 0
vn 0.0014287753844284899 -0.9999989792999295 0
vn 0.9999993759463475 0.0011171870548872106 0
vn 0.9999993759463475 0.0011171870548872104 0
vn 0 0 1
vn -0.001428775384428475 0.9999989792999295 0
vn 0 0 -1
usemtl m_26a93052-cda0-8777-e0e9-f03c1215ddb2
f 1/1/1 2/2/1 3/3/1 4/4/1
f 5/5/2 6/6/2 7/7/2 8/8/2
f 9/9/3 10/10/3 11/11/3 12/12/3
f 13/13/4 14/14/4 15/15/4 16/16/4
f 17/17/5 18/18/5 19/19/5 20/20/5
f 21/21/6 8/22/6 7/23/6 22/24/6
f 23/25/7 24/26/7 25/27/7 26/28/7
f 27/29/8 28/30/8 29/31/8 30/32/8
f 31/33/9 32/34/9 33/35/9 22/36/9
f 34/37/10 4/38/10 3/39/10 35/40/10
f 36/41/11 37/42/11 38/43/11 39/44/11
f 40/45/12 41/46/12 42/47/12 35/48/12
f 43/49/13 44/50/13 45/51/13 46/52/13
f 2/53/14 43/54/14 46/55/14 40/56/14
f 24/57/15 36/58/15 39/59/15 25/60/15
f 5/61/16 43/62/16 18/63/16 17/64/16
f 27/65/17 32/66/17 14/67/17 13/68/17
f 31/69/18 6/70/18 10/71/18 9/72/18
f 32/73/19 31/74/19 9/75/19 14/76/19
f 6/77/20 31/78/20 22/79/20 7/80/20
f 30/81/21 21/82/21 22/83/21 33/84/21
f 47/85/22 48/86/22 49/87/22 50/88/22
f 38/89/23 51/90/23 34/91/23 39/92/23
f 37/93/24 52/94/24 51/95/24 38/96/24
f 39/97/25 34/98/25 35/99/25 25/100/25
f 35/101/26 42/102/26 26/103/26 25/104/26
f 47/105/27 53/106/27 15/107/27 14/108/27
f 48/109/28 47/110/28 14/111/28 9/112/28
f 54/113/29 48/114/29 9/115/29 12/116/29
f 41/117/30 45/118/30 29/119/30 23/120/30
f 29/121/31 45/122/31 21/123/31 30/124/31
f 28/125/32 27/126/32 13/127/32 55/128/32
f 6/129/33 5/130/33 17/131/33 10/132/33
f 32/133/34 27/134/34 30/135/34 33/136/34
f 45/137/35 44/138/35 8/139/35 21/140/35
f 10/141/36 17/142/36 20/143/36 11/144/36
f 55/145/37 13/146/37 16/147/37 56/148/37
f 43/149/38 5/150/38 8/151/38 44/152/38
f 50/153/39 49/154/39 57/155/39 58/156/39
f 48/157/40 54/158/40 57/159/40 49/160/40
f 53/161/41 47/162/41 50/163/41 58/164/41
f 51/165/42 52/166/42 59/167/42 60/168/42
f 19/169/43 18/170/43 61/171/43 62/172/43
f 18/173/44 1/174/44 63/175/44 61/176/44
f 62/177/45 61/178/45 63/179/45 52/180/45
f 42/181/46 41/182/46 23/183/46 26/184/46
f 56/185/47 62/186/47 52/187/47 37/188/47
f 28/189/48 55/190/48 36/191/48 24/192/48
f 3/193/49 2/194/49 40/195/49 35/196/49
f 46/197/50 45/198/50 41/199/50 40/200/50
f 55/201/51 56/202/51 37/203/51 36/204/51
f 29/205/52 28/206/52 24/207/52 23/208/52
f 18/209/53 43/210/53 2/211/53 1/212/53
f 59/213/54 1/214/54 4/215/54 60/216/54
f 34/217/55 51/218/55 60/219/55 4/220/55
f 52/221/56 63/222/56 1/223/56 59/224/56
f 64/225/57 65/226/57 66/227/57 67/228/57
f 68/229/58 69/230/58 70/231/58 71/232/58
f 72/233/59 12/234/59 11/235/59 73/236/59
f 74/237/60 16/238/60 15/239/60 75/240/60
f 76/241/61 20/242/61 19/243/61 77/244/61
f 78/245/62 79/246/62 70/247/62 69/248/62
f 80/249/63 81/250/63 82/251/63 83/252/63
f 84/253/64 85/254/64 86/255/64 87/256/64
f 88/257/65 79/258/65 89/259/65 90/260/65
f 91/261/66 92/262/66 66/263/66 65/264/66
f 93/265/67 94/266/67 38/267/67 37/268/67
f 95/269/68 92/270/68 96/271/68 97/272/68
f 98/273/69 99/274/69 100/275/69 101/276/69
f 67/277/70 95/278/70 99/279/70 98/280/70
f 83/281/71 82/282/71 94/283/71 93/284/71
f 68/285/72 76/286/72 77/287/72 98/288/72
f 84/289/73 74/290/73 75/291/73 90/292/73
f 88/293/74 72/294/74 73/295/74 71/296/74
f 90/297/75 75/298/75 72/299/75 88/300/75
f 71/301/76 70/302/76 79/303/76 88/304/76
f 85/305/77 89/306/77 79/307/77 78/308/77
f 102/309/78 103/310/78 104/311/78 105/312/78
f 38/313/79 94/314/79 91/315/79 51/316/79
f 94/317/80 82/318/80 92/319/80 91/320/80
f 92/321/81 82/322/81 81/323/81 96/324/81
f 102/325/82 75/326/82 15/327/82 53/328/82
f 105/329/83 72/330/83 75/331/83 102/332/83
f 54/333/84 12/334/84 72/335/84 105/336/84
f 97/337/85 80/338/85 86/339/85 100/340/85
f 86/341/86 85/342/86 78/343/86 100/344/86
f 87/345/87 106/346/87 74/347/87 84/348/87
f 71/349/88 73/350/88 76/351/88 68/352/88
f 90/353/89 89/354/89 85/355/89 84/356/89
f 100/357/90 78/358/90 69/359/90 101/360/90
f 73/361/91 11/362/91 20/363/91 76/364/91
f 106/365/92 56/366/92 16/367/92 74/368/92
f 98/369/93 101/370/93 69/371/93 68/372/93
f 103/373/94 58/374/94 57/375/94 104/376/94
f 105/377/95 104/378/95 57/379/95 54/380/95
f 53/381/96 58/382/96 103/383/96 102/384/96
f 19/385/97 62/386/97 107/387/97 77/388/97
f 77/389/98 107/390/98 108/391/98 64/392/98
f 62/393/99 52/394/99 108/395/99 107/396/99
f 96/397/100 81/398/100 80/399/100 97/400/100
f 87/401/101 83/402/101 93/403/101 106/404/101
f 66/405/102 92/406/102 95/407/102 67/408/102
f 99/409/103 95/410/103 97/411/103 100/412/103
f 106/413/104 93/414/104 37/415/104 56/416/104
f 86/417/105 80/418/105 83/419/105 87/420/105
f 77/421/106 64/422/106 67/423/106 98/424/106
f 59/425/107 60/426/107 65/427/107 64/428/107
f 91/429/108 65/430/108 60/431/108 51/432/108
f 52/433/109 59/434/109 64/435/109 108/436/109
f 109/437/110 110/438/110 111/439/110 112/440/110
f 113/441/111 114/442/111 115/443/111 116/444/111
f 117/445/112 110/446/112 118/447/112 119/448/112
f 116/449/113 115/450/113 120/451/113 121/452/113
f 113/453/114 116/454/114 121/455/114 122/456/114
f 114/457/115 111/458/115 110/459/115 117/460/115
f 123/461/116 118/462/116 110/463/116 109/464/116
f 115/465/117 114/466/117 117/467/117 120/468/117
f 112/469/118 113/470/118 122/471/118 109/472/118
f 109/473/119 122/474/119 124/475/119 123/476/119
f 112/477/120 111/478/120 114/479/120 113/480/120
f 122/481/121 117/482/121 119/483/121 124/484/121
f 121/485/122 120/486/122 117/487/122 122/488/122
f 125/489/123 126/490/123 127/491/123 128/492/123
f 129/493/124 130/494/124 131/495/124 132/496/124
f 133/497/125 119/498/125 118/499/125 128/500/125
f 130/501/126 134/502/126 135/503/126 131/504/126
f 129/505/127 136/506/127 134/507/127 130/508/127
f 132/509/128 133/510/128 128/511/128 127/512/128
f 123/513/129 125/514/129 128/515/129 118/516/129
f 131/517/130 135/518/130 133/519/130 132/520/130
f 126/521/131 125/522/131 136/523/131 129/524/131
f 125/525/132 123/526/132 124/527/132 136/528/132
f 126/529/133 129/530/133 132/531/133 127/532/133
f 136/533/134 124/534/134 119/535/134 133/536/134
f 134/537/135 136/538/135 133/539/135 135/540/135
f 137/541/136 138/542/136 139/543/136 140/544/136
f 141/545/137 142/546/137 143/547/137 144/548/137
f 144/549/138 143/550/138 145/551/138 146/552/138
f 141/553/139 144/554/139 146/555/139 147/556/139
f 148/557/140 149/558/140 138/559/140 137/560/140
f 140/561/141 141/562/141 147/563/141 137/564/141
f 137/565/142 147/566/142 150/567/142 148/568/142
f 140/569/143 139/570/143 142/571/143 141/572/143
f 147/573/144 151/574/144 152/575/144 150/576/144
f 146/577/145 145/578/145 151/579/145 147/580/145
f 153/581/146 154/582/146 155/583/146 156/584/146
f 157/585/147 158/586/147 159/587/147 160/588/147
f 158/589/148 161/590/148 162/591/148 159/592/148
f 157/593/149 163/594/149 161/595/149 158/596/149
f 148/597/150 153/598/150 156/599/150 149/600/150
f 154/601/151 153/602/151 163/603/151 157/604/151
f 153/605/152 148/606/152 150/607/152 163/608/152
f 154/609/153 157/610/153 160/611/153 155/612/153
f 163/613/154 150/614/154 152/615/154 164/616/154
f 161/617/155 163/618/155 164/619/155 162/620/155