# Made in Blockbench 5.2.1
mtllib RoundTable.mtl

o Cylinder.001
v 5.24999875 0.632666875 0
v 5.24999875 1.00895875 0
v 4.546633125 1.00895875 2.625
v 4.546633125 0.632666875 2.625
v 2.625 1.00895875 4.546633125
v 2.625 0.632666875 4.546633125
v 0 1.00895875 5.24999875
v 0 0.632666875 5.24999875
v -2.625 1.00895875 4.546633125
v -2.625 0.632666875 4.546633125
v -4.58713625 1.00895875 2.38081375
v -4.58713625 0.632666875 2.38081375
v 1.076495 1 1.864545
v 1.86454375 1 1.076495
v 1.86454375 0.75 1.076495
v 1.076495 0.75 1.864545
v -1.905048125 1 0.83231
v -1.076495 1 1.86454375
v -1.076495 0.75 1.86454375
v -1.905048125 0.75 0.83231
v 2.15299125 1 0
v 2.15299125 0.75 0
v 0 1 2.15299125
v 0 0.75 2.15299125
v 4.80376 1.004518125 0
v 4.160178125 1.004518125 2.40188
v 2.40188 1.004518125 4.160178125
v 0 1.004518125 4.80376
v -2.40188 1.004518125 4.160178125
v -3.986921875 1.004518125 2.39565875
v 1.86454375 -1 1.076495
v 2.15299125 -1 0
v 5 -1 0
v 4.330126875 -1 2.5
v 0 -1 2.15299125
v 1.076495 -1 1.864545
v 2.5 -1 4.330126875
v 0 -1 5
v -1.864545 -1 1.076495
v -1.076495 -1 1.86454375
v -2.5 -1 4.330126875
v -4.330126875 -1 2.5
v -2.5 0.505206875 4.330126875
v -4.330126875 0.505206875 2.5
v 0 0.505206875 5
v 2.5 0.505206875 4.330126875
v 4.330126875 0.505206875 2.5
v 5 0.505206875 0
v 2.088688125 1 1.205905
v 2.41180875 1 0
v 1.205905 1 2.088688125
v 0 1 2.41180875
v -1.205905 1 2.088688125
v -1.990906875 1 1.13051125
v 1.157231875 0.65 2.00438125
v 0 0.65 2.31446125
v -2.004385 0.65 1.157228125
v 2.004385 0.65 1.157228125
v -1.157231875 0.65 2.00438125
v 2.314465 0.65 0
v 4.546633125 0.632666875 -2.625
v 4.546633125 1.00895875 -2.625
v 2.625 0.632666875 -4.546633125
v 2.625 1.00895875 -4.546633125
v 0 0.632666875 -5.24999875
v 0 1.00895875 -5.24999875
v -2.625 0.632666875 -4.546633125
v -2.625 1.00895875 -4.546633125
v -4.58713625 0.632666875 -2.38081375
v -4.58713625 1.00895875 -2.38081375
v 1.076495 1 -1.864545
v 1.076495 0.75 -1.864545
v 1.86454375 0.75 -1.076495
v 1.86454375 1 -1.076495
v -1.905048125 1 -0.83231
v -1.905048125 0.75 -0.83231
v -1.076495 0.75 -1.86454375
v -1.076495 1 -1.86454375
v 0 0.75 -2.15299125
v 0 1 -2.15299125
v 4.160178125 1.004518125 -2.40188
v 2.40188 1.004518125 -4.160178125
v 0 1.004518125 -4.80376
v -2.40188 1.004518125 -4.160178125
v -3.986921875 1.004518125 -2.39565875
v 1.86454375 -1 -1.076495
v 4.330126875 -1 -2.5
v 0 -1 -2.15299125
v 0 -1 -5
v 2.5 -1 -4.330126875
v 1.076495 -1 -1.864545
v -1.864545 -1 -1.076495
v -4.330126875 -1 -2.5
v -2.5 -1 -4.330126875
v -1.076495 -1 -1.86454375
v -4.330126875 0.505206875 -2.5
v -2.5 0.505206875 -4.330126875
v 0 0.505206875 -5
v 2.5 0.505206875 -4.330126875
v 4.330126875 0.505206875 -2.5
v 2.088688125 1 -1.205905
v 1.205905 1 -2.088688125
v 0 1 -2.41180875
v -1.205905 1 -2.088688125
v -1.990906875 1 -1.13051125
v 0 0.65 -2.31446125
v 1.157231875 0.65 -2.00438125
v -2.004385 0.65 -1.157228125
v 2.004385 0.65 -1.157228125
v -1.157231875 0.65 -2.00438125
vt 0.6426140625 0.726522265625
vt 0.6426140625 0.73828125
vt 0.5576890625 0.73828125
vt 0.5576890625 0.726522265625
vt 0.5576890625 0.726522265625
vt 0.5576890625 0.73828125
vt 0.4727640625 0.73828125
vt 0.4727640625 0.726522265625
vt 0.3916015625 0.810546875
vt 0.3916015625 0.822265625
vt 0.306640625 0.822265625
vt 0.306640625 0.810546875
vt 0.6606267578125 0.501912890625
vt 0.6606267578125 0.513671875
vt 0.5757017578125 0.513671875
vt 0.5757017578125 0.501912890625
vt 0.5757017578125 0.501912890625
vt 0.5757017578125 0.513671875
vt 0.484375 0.513671875
vt 0.484375 0.501912890625
vt 0.4228515625 0.60546875
vt 0.3880244140625 0.60546875
vt 0.3880244140625 0.59765625
vt 0.4228515625 0.59765625
vt 0.041015625 1
vt 0 1
vt 0 0.9921875
vt 0.041015625 0.9921875
vt 0.3880244140625 0.60546875
vt 0.353197265625 0.60546875
vt 0.353197265625 0.59765625
vt 0.3880244140625 0.59765625
vt 0.07421875 0.86328125
vt 0.0390625 0.86328125
vt 0.0390625 0.85546875
vt 0.07421875 0.85546875
vt 0.03515625 0.966796875
vt 0 0.966796875
vt 0 0.958984375
vt 0.03515625 0.958984375
vt 0.29357185546875 0.8359255859375
vt 0.27346005859375 0.7608666796875
vt 0.2855374609375 0.75389408203125
vt 0.30751748046875 0.8359253906249999
vt 0.27346005859375 0.7608666796875
vt 0.21851505859375 0.70591791015625
vt 0.2254884765625 0.6938409765625
vt 0.2855374609375 0.75389408203125
vt 0.21851505859375 0.70591791015625
vt 0.1434575390625 0.68580095703125
vt 0.14345869140625 0.6718553125
vt 0.2254884765625 0.6938409765625
vt 0.1434575390625 0.68580095703125
vt 0.06839669921875 0.7059055078125
vt 0.0614252734375 0.69382744140625
vt 0.14345869140625 0.6718553125
vt 0.06839669921875 0.7059055078125
vt 0.01885701171875 0.7610402734375
vt 0.00009970703125 0.7615012890625
vt 0.06142521484375 0.69382734375
vt 0.4242650390625 0.6469216796874999
vt 0.4332791015625 0.61328125
vt 0.522248046875 0.61328125
vt 0.501314453125 0.69140625
vt 0.365998046875 0.6805623046875
vt 0.3996384765625 0.6715482421875
vt 0.444123046875 0.7485976562500001
vt 0.365998046875 0.76953125
vt 0.3077310546875 0.6469216796874999
vt 0.3323576171875 0.6715482421875
vt 0.287873046875 0.7485976562500001
vt 0.230681640625 0.69140625
vt 0.080880859375 0.5701498046875
vt 0.080880859375 0.6171875
vt 0 0.6171875
vt 0 0.5701498046875
vt 0.16176171875 0.5701498046875
vt 0.16176171875 0.6171875
vt 0.080880859375 0.6171875
vt 0.080880859375 0.5701498046875
vt 0.5439453125 0.953125
vt 0.5439453125 1
vt 0.462890625 1
vt 0.462890625 0.953125
vt 0.08140234375 0.6209310546875
vt 0.08140234375 0.66796875
vt 0.000521484375 0.66796875
vt 0.000521484375 0.6209310546875
vt 0.162283203125 0.6209310546875
vt 0.162283203125 0.66796875
vt 0.08140234375 0.66796875
vt 0.08140234375 0.6209310546875
vt 0.37279251953125 0.79800732421875
vt 0.37077046875 0.80654029296875
vt 0.291015625 0.76204599609375
vt 0.300533828125 0.76171875
vt 0.4536733984375 0.79800728515625
vt 0.45569546875 0.80654029296875
vt 0.37077046875 0.80654029296875
vt 0.3727925390625 0.79800728515625
vt 0.2706609765625 0.99089255859375
vt 0.272683046875 0.99942556640625
vt 0.187758046875 0.99942556640625
vt 0.1897801171875 0.99089255859375
vt 0.34294109375 0.95459794921875
vt 0.348577265625 0.961316171875
vt 0.272683046875 0.99942556640625
vt 0.2706609765625 0.99089255859375
vt 0.39124814453125 0.889727734375
vt 0.39929970703125 0.8932023828125
vt 0.348577265625 0.961316171875
vt 0.34294109375 0.95459794921875
vt 0.21073537109375 0.83592533203125
vt 0.20172130859375 0.8022849023437499
vt 0.20872580078125 0.79824076171875
vt 0.21882326171875 0.83592533203125
vt 0.20172130859375 0.8022849023437499
vt 0.17709474609375 0.77765833984375
vt 0.18113888671875 0.77065384765625
vt 0.20872580078125 0.79824076171875
vt 0.17709474609375 0.77765833984375
vt 0.14345431640625 0.76864427734375
vt 0.14345431640625 0.76055638671875
vt 0.18113888671875 0.77065384765625
vt 0.14345431640625 0.76864427734375
vt 0.10981388671875 0.77765833984375
vt 0.10576974609375 0.77065384765625
vt 0.14345431640625 0.76055638671875
vt 0.10981388671875 0.77765833984375
vt 0.08392150390625 0.8099155664062501
vt 0.08123849609375 0.80059681640625
vt 0.10576974609375 0.77065384765625
vt 0.3996384765625 0.6715482421875
vt 0.4242650390625 0.6469216796874999
vt 0.501314453125 0.69140625
vt 0.444123046875 0.7485976562500001
vt 0.3323576171875 0.6715482421875
vt 0.365998046875 0.6805623046875
vt 0.365998046875 0.76953125
vt 0.287873046875 0.7485976562500001
vt 0.443359375 0.78125
vt 0.34657751953125 0.78125
vt 0.34655494140625 0.7734375390625
vt 0.44332537109375 0.76949107421875
vt 0.359045703125 0.91203984375
vt 0.324218359375 0.91203984375
vt 0.3229123046875 0.90625
vt 0.3603515625 0.90625
vt 0.1183271484375 0.56640625
vt 0.11328125 0.5146484375
vt 0.2021484375 0.5146484375
vt 0.2021484375 0.5618814453125001
vt 0.324218359375 0.91203984375
vt 0.29276345703125 0.9269904296875
vt 0.2890982421875 0.92232193359375
vt 0.3229123046875 0.9062500390625
vt 0.1009353515625 0.87670748046875
vt 0.08877283203125 0.83717234375
vt 0.09363224609375 0.83376431640625
vt 0.10781845703125 0.86833841796875
vt 0.29276345703125 0.9269904296875
vt 0.2707729296875 0.9539968359375
vt 0.2654584375 0.951353671875
vt 0.2890981640625 0.92232185546875
vt 0.08877283203125 0.83717234375
vt 0.06299119140625 0.813757890625
vt 0.06591689453125 0.80859375
vt 0.09363220703125 0.8337643359375
vt 0.5513932421875 0.8477224999999999
vt 0.5140015625 0.849609375
vt 0.5126955078125 0.7978169921875
vt 0.54747859375 0.7960617578125
vt 0.5140015625 0.849609375
vt 0.4765625 0.849609375
vt 0.477868359375 0.7978169921875
vt 0.5126955078125 0.7978169921875
vt 0.5283203125 0.794921875
vt 0.49088125 0.794921875
vt 0.4921873046875 0.7431294921875
vt 0.527014453125 0.7431294921875
vt 0.49088125 0.794921875
vt 0.4534895703125 0.7930349999999999
vt 0.45740421875 0.7413742578125
vt 0.4921873046875 0.7431294921875
vt 0.11222220703125 0.5645192382812501
vt 0.0748307421875 0.56640625
vt 0.0735246875 0.5146138671875
vt 0.10830755859375 0.51285849609375
vt 0.1057700390625 0.7706540039062499
vt 0.08123873046875 0.80059703125
vt 0.0188631640625 0.76106111328125
vt 0.06839564453125 0.70592
vt 0.14345451171875 0.76055634765625
vt 0.1057700390625 0.7706540039062499
vt 0.068395625 0.70591994140625
vt 0.1434544140625 0.6858077539062499
vt 0.18113900390625 0.77065388671875
vt 0.14345451171875 0.76055634765625
vt 0.1434544140625 0.6858077539062499
vt 0.2185132421875 0.7059197460937501
vt 0.20872580078125 0.79824076171875
vt 0.18113900390625 0.77065388671875
vt 0.21851328125 0.7059196875
vt 0.27346009765625 0.76086666015625
vt 0.21882326171875 0.83592529296875
vt 0.20872580078125 0.79824076171875
vt 0.27346005859375 0.7608666796875
vt 0.29357185546875 0.8359255859375
vt 0.197265625 0.86667759765625
vt 0.1009353515625 0.87670748046875
vt 0.1079658203125 0.86815923828125
vt 0.1914974609375 0.85897017578125
vt 0.01886326171875 0.76106041015625
vt 0.081238515625 0.80059685546875
vt 0.08392150390625 0.8099155664062501
vt 0.0001062890625 0.761524375
vt 0.6426140625 0.726522265625
vt 0.7275390625 0.726522265625
vt 0.7275390625 0.73828125
vt 0.6426140625 0.73828125
vt 0 0.498006640625
vt 0.084925 0.498006640625
vt 0.084925 0.509765625
vt 0 0.509765625
vt 0.084925 0.498006640625
vt 0.16985 0.498006640625
vt 0.16985 0.509765625
vt 0.084925 0.509765625
vt 0.4887873046875 0.710897265625
vt 0.5737123046875 0.710897265625
vt 0.5737123046875 0.72265625
vt 0.4887873046875 0.72265625
vt 0.5737123046875 0.710897265625
vt 0.6650390625 0.710897265625
vt 0.6650390625 0.72265625
vt 0.5737123046875 0.72265625
vt 0.14224921875 0.88671875
vt 0.14224921875 0.87890625
vt 0.1770763671875 0.87890625
vt 0.1770763671875 0.88671875
vt 0 0.9765625
vt 0 0.96875
vt 0.041015625 0.96875
vt 0.041015625 0.9765625
vt 0.3183701171875 0.60546875
vt 0.3183701171875 0.59765625
vt 0.353197265625 0.59765625
vt 0.353197265625 0.60546875
vt 0.0390625 0.853515625
vt 0.0390625 0.845703125
vt 0.07421875 0.845703125
vt 0.07421875 0.853515625
vt 0.107421875 0.88671875
vt 0.107421875 0.87890625
vt 0.14224921875 0.87890625
vt 0.14224921875 0.88671875
vt 0.29357185546875 0.8359255859375
vt 0.30751748046875 0.8359253906249999
vt 0.2855397265625 0.91795728515625
vt 0.27346212890625 0.9109850390625001
vt 0.27346212890625 0.9109850390625001
vt 0.2855397265625 0.91795728515625
vt 0.225492421875 0.9780120703125
vt 0.21851865234375 0.96593533203125
vt 0.21851865234375 0.96593533203125
vt 0.225492421875 0.9780120703125
vt 0.1434632421875 1
vt 0.14346169921875 0.98605435546875
vt 0.14346169921875 0.98605435546875
vt 0.1434632421875 1
vt 0.06142921875 0.97803015625
vt 0.0684003125 0.96595189453125
vt 0.06840033203125 0.9659518359375
vt 0.06142921875 0.97803015625
vt 0.0001011328125 0.91035857421875
vt 0.0188583984375 0.910818984375
vt 0.4242650390625 0.5796408203125001
vt 0.501314453125 0.53515625
vt 0.522248046875 0.61328125
vt 0.4332791015625 0.61328125
vt 0.365998046875 0.5460001953125
vt 0.365998046875 0.45703125
vt 0.444123046875 0.47796484375000003
vt 0.3996384765625 0.5550142578125
vt 0.3077310546875 0.5796408203125001
vt 0.230681640625 0.53515625
vt 0.287873046875 0.47796484375000003
vt 0.3323576171875 0.5550142578125
vt 0.477712890625 0.9041341796875
vt 0.55859375 0.9041341796875
vt 0.55859375 0.951171875
vt 0.477712890625 0.951171875
vt 0.39683203125 0.9041341796875
vt 0.477712890625 0.9041341796875
vt 0.477712890625 0.951171875
vt 0.39683203125 0.951171875
vt 0.491037109375 0.8533529296875
vt 0.57191796875 0.8533529296875
vt 0.57191796875 0.900390625
vt 0.491037109375 0.900390625
vt 0.41015625 0.8533529296875
vt 0.491037109375 0.8533529296875
vt 0.491037109375 0.900390625
vt 0.41015625 0.900390625
vt 0.162283203125 0.6209310546875
vt 0.2431640625 0.6209310546875
vt 0.2431640625 0.66796875
vt 0.162283203125 0.66796875
vt 0.37980306640625 0.9910445703125
vt 0.45124408203125 0.953125
vt 0.4609375 0.95365650390625
vt 0.38164943359375 0.998836171875
vt 0.29892220703125 0.9910445703125
vt 0.37980306640625 0.9910445703125
vt 0.38182513671875 0.999577578125
vt 0.29690013671875 0.9995773828125
vt 0.34158814453125 0.6202789843750001
vt 0.42246900390625 0.6202789843750001
vt 0.42449107421875 0.6288119921875
vt 0.33956607421875 0.6288119921875
vt 0.269308046875 0.583984375
vt 0.34158814453125 0.6202789843750001
vt 0.33956607421875 0.6288119921875
vt 0.263671875 0.5907026171875001
vt 0.39124814453125 0.889727734375
vt 0.40530791015625 0.81007828125
vt 0.4140625 0.8095703125
vt 0.39929953125 0.8932023046875
vt 0.21073537109375 0.83592533203125
vt 0.21882326171875 0.83592533203125
vt 0.20872580078125 0.87360990234375
vt 0.20172130859375 0.86956576171875
vt 0.20172130859375 0.86956576171875
vt 0.20872580078125 0.87360990234375
vt 0.18113888671875 0.90119681640625
vt 0.17709474609375 0.89419232421875
vt 0.17709474609375 0.89419232421875
vt 0.18113888671875 0.90119681640625
vt 0.14345431640625 0.91129427734375
vt 0.14345431640625 0.90320638671875
vt 0.14345431640625 0.90320638671875
vt 0.14345431640625 0.91129427734375
vt 0.10576974609375 0.90119681640625
vt 0.10981388671875 0.89419232421875
vt 0.10981388671875 0.89419232421875
vt 0.10576974609375 0.90119681640625
vt 0.08123849609375 0.87125384765625
vt 0.08392150390625 0.86193509765625
vt 0.3996384765625 0.5550142578125
vt 0.444123046875 0.47796484375000003
vt 0.501314453125 0.53515625
vt 0.4242650390625 0.5796408203125001
vt 0.3323576171875 0.5550142578125
vt 0.287873046875 0.47796484375000003
vt 0.365998046875 0.45703125
vt 0.365998046875 0.5460001953125
vt 0.00044517578125 0.68359375
vt 0 0.671875
vt 0.09685087890625 0.671875
vt 0.097146640625 0.6796500976562501
vt 0.001305859375 0.98430546875
vt 0 0.978515625
vt 0.0374390625 0.978515625
vt 0.0361330078125 0.98430546875
vt 0.189391796875 0.85546875
vt 0.10546875 0.8509439453125001
vt 0.10546875 0.8037109375
vt 0.1944376953125 0.8037109375
vt 0.0361330078125 0.9843054296875
vt 0.0374390625 0.978515625
vt 0.07125314453125 0.99458751953125
vt 0.0675880859375 0.99925609375
vt 0.26957537109375 0.647018984375
vt 0.27455994140625 0.637136953125
vt 0.31199919921875 0.637136953125
vt 0.31069333984375 0.6427490625000001
vt 0.262505859375 0.98782857421875
vt 0.2565715234375 0.987722734375
vt 0.26545859375 0.95135375
vt 0.2707729296875 0.9539968359375
vt 0.3106541015625 0.6429176562500001
vt 0.31199919921875 0.637136953125
vt 0.345703125 0.653438125
vt 0.34200669921875 0.65808158203125
vt 0.305051875 0.8965504882812501
vt 0.30896671875 0.84488974609375
vt 0.343749609375 0.8466451171875
vt 0.3424435546875 0.8984375
vt 0.3424435546875 0.8984375
vt 0.343749609375 0.8466451171875
vt 0.3785767578125 0.8466451171875
vt 0.3798828125 0.8984375
vt 0 0.8828125
vt 0 0.8310036523437501
vt 0.03481626953125 0.8301258203125
vt 0.03742736328125 0.881868828125
vt 0 0.5645192382812501
vt 0.0039146484375 0.51285849609375
vt 0.0386975390625 0.5146138476562501
vt 0.0373916796875 0.56640625
vt 0.0373916796875 0.56640625
vt 0.0386975390625 0.5146138671875
vt 0.0735246875 0.5146138671875
vt 0.0748307421875 0.56640625
vt 0.10576923828125 0.90119626953125
vt 0.06839474609375 0.965930390625
vt 0.01886234375 0.91078908203125
vt 0.08123798828125 0.871253203125
vt 0.14345384765625 0.91129408203125
vt 0.14345353515625 0.9860426171875
vt 0.06839474609375 0.965930390625
vt 0.10576919921875 0.9011963671875
vt 0.18113859375 0.9011966796875
vt 0.21851248046875 0.96593103515625
vt 0.14345353515625 0.9860426171875
vt 0.14345384765625 0.91129408203125
vt 0.2087255078125 0.873609921875
vt 0.273459609375 0.910984375
vt 0.21851248046875 0.96593103515625
vt 0.18113857421875 0.901196640625
vt 0.21882326171875 0.83592529296875
vt 0.293571796875 0.8359255859375
vt 0.273459609375 0.910984375
vt 0.208725546875 0.87360994140625
vt 0.2403648828125 0.5546875
vt 0.24982296875 0.55687583984375
vt 0.27452349609375 0.63720916015625
vt 0.26957537109375 0.647018984375
vt 0.0188643359375 0.91079193359375
vt 0.00010720703125 0.91032822265625
vt 0.08392150390625 0.86193509765625
vt 0.08123849609375 0.87125384765625
vn 0.9659259187540313 0 0.2588187000183347
vn 0.7071067811865476 0 0.7071067811865476
vn 0.2588187000183347 0 0.9659259187540313
vn -0.2588187000183347 0 0.9659259187540313
vn -0.7410954945925445 0 0.6713996335228608
vn -0.7071073419909553 0 -0.7071062203816951
vn 0.7798483570145059 0 -0.6259684816840028
vn -0.9659254821574128 0 -0.2588203294159288
vn 0.2588203294159288 0 -0.9659254821574128
vn -0.25881928294045264 0 -0.9659257625605553
vn -0.009950679124799458 0.999946936068813 -0.0026662767201782733
vn -0.007284402022765094 0.999946936079281 -0.007284402022765094
vn -0.0026662831736619717 0.9999469358119331 -0.009950703209525935
vn 0.0026662767201782733 0.999946936068813 -0.009950679124799458
vn 0.007566113008807601 0.9999482792306685 -0.0067965283463902425
vn 0 -1 0
vn 0 -1 0
vn 0 -1 0
vn -0.7071067811865476 0 0.7071067811865476
vn -0.25881909698480443 0 0.9659258123872508
vn 0.25881909698480443 0 0.9659258123872508
vn 0.7071067811865476 0 0.7071067811865476
vn 0.9659258123872508 0 0.25881909698480443
vn -0.3498768101634918 -0.8815409352921392 0.31697286494916316
vn -0.12081481356637674 -0.8843664922919807 0.4508876668684782
vn 0.12081439736063404 -0.8843673410887491 0.45088611356528036
vn 0.3300714593180807 -0.8843673803840038 0.3300714593180807
vn 0.45088766686847825 -0.8843664922919808 0.12081481356637676
vn 0 1 0
vn 0 1 0
vn 0 1 0
vn 0 1 0
vn 0 1 0
vn 0 -1 0
vn 0 -1 0
vn -0.4999998665746872 0 -0.8660254808175655
vn -0.13969649886509716 -0.8418283557104098 -0.5213539179163631
vn -0.5000001687972285 -0.000001875330740864467 -0.8660253063272609
vn -0.38165446313214657 -0.8418314579728168 -0.3816538577542151
vn 0.43159274836246914 -0.832894608887888 -0.34643075793933537
vn -0.5213444964861889 -0.8418345088948691 -0.1396945797706445
vn 0.13969687892442265 -0.8418288134307181 -0.521353076999268
vn 0.7039686676322976 0.0941075447773192 -0.7039686676322979
vn 0.2576709462298322 0.0941065788605137 -0.9616390358571104
vn -0.2576709508078782 0.09410639173548349 -0.9616390529425746
vn -0.7039686676322976 0.09410754477731936 -0.7039686676322979
vn -0.9616386311730715 0.09410872480023215 -0.2576716727776955
vn 0.0014898946156478249 0.9999981451484377 -0.0012206202188254096
vn 0.0005061239840151541 0.9999980879756698 -0.0018888841990318457
vn -0.0005061236972712376 0.9999980879778363 -0.0018888831288868414
vn -0.0013827589159291012 0.9999980879759527 -0.0013827589159291012
vn -0.0018888841990318457 0.9999980879756698 -0.0005061239840151541
vn -0.15139595004567952 -0.9307818742802177 -0.3327527142205922
vn 0.0027688699260120654 0.999995848891961 0.0007972190282904212
vn 0.9659259187540313 0 -0.2588187000183347
vn 0.7071067811865476 0 -0.7071067811865476
vn 0.2588187000183347 0 -0.9659259187540313
vn -0.2588187000183347 0 -0.9659259187540313
vn -0.7410954945925445 0 -0.6713996335228608
vn -0.7071073419909553 0 0.7071062203816951
vn 0.7798483570145059 0 0.6259684816840028
vn -0.9659254821574128 0 0.2588203294159288
vn 0.2588203294159288 0 0.9659254821574128
vn -0.25881928294045264 0 0.9659257625605553
vn -0.009950703209634574 0.9999469358228501 0.0026662790789463344
vn -0.007284402022765098 0.9999469360792811 0.007284402022765098
vn -0.002666273174004312 0.999946936057896 0.009950681172059437
vn 0.0026662790789463344 0.9999469358228501 0.009950703209634574
vn 0.00774623456112638 0.9999453720619927 0.007017744789261995
vn 0 -1 0
vn 0 -1 0
vn 0 -1 0
vn -0.7071067811865476 0 -0.7071067811865476
vn -0.25881909698480443 0 -0.9659258123872508
vn 0.25881909698480443 0 -0.9659258123872508
vn 0.7071067811865476 0 -0.7071067811865476
vn 0.9659258123872508 0 -0.25881909698480443
vn -0.5617250395933535 -0.6073960485446797 -0.5617250395933535
vn -0.12081457225611328 -0.8843673623085763 -0.4508860250816651
vn 0.12081500927276526 -0.8843664710720677 -0.45088765604966363
vn 0.3300714593180807 -0.8843673803840038 -0.3300714593180807
vn 0.4508860250816651 -0.8843673623085763 -0.12081457225611328
vn 0 1 0
vn 0 1 0
vn 0 1 0
vn 0 1 0
vn 0 1 0
vn 0 -1 0
vn 0 -1 0
vn -0.49999986657468715 0 0.8660254808175655
vn -0.13969643918125343 -0.8418288661741078 0.5213531096637812
vn -0.5000011666384008 0 0.8660247302243964
vn -0.3816557506949698 -0.8418300160501039 0.38165575069497
vn 0.2236110994959073 -0.9486812701663625 0.22361109949590743
vn -0.5213445159810841 -0.8418344952595092 0.13969458918518302
vn 0.1396958714039924 -0.84183027268825 0.5213509906946624
vn 0.7039681459722328 0.09410699636770606 0.7039692626038909
vn 0.25767170448869997 0.09410713385848603 0.9616387783688994
vn -0.2576706760638904 0.09410658587752714 0.9616391075612792
vn -0.7039692626037227 0.09410699637022117 0.7039681459720646
vn -0.9616386335791626 0.09410871961411446 0.25767166569220057
vn 0.001478071567269284 0.9999980262167827 0.001327730010541083
vn 0.0005061247629957383 0.9999980879772971 0.0018888831288858226
vn -0.0005061249069606965 0.9999980879762093 0.001888883666170303
vn -0.001382758915929101 0.9999980879759526 0.0013827589159291006
vn -0.0018888831288858226 0.9999980879772971 0.0005061247629957383
vn -0.21294687811205226 -0.8611028425396358 0.46168768845669916
vn 0.0072313397089752846 0.9999511394664342 -0.006739911408408761
usemtl m_a63de6e0-e9eb-347f-5916-796eb113855e
f 1/1/1 2/2/1 3/3/1 4/4/1
f 4/5/2 3/6/2 5/7/2 6/8/2
f 6/9/3 5/10/3 7/11/3 8/12/3
f 8/13/4 7/14/4 9/15/4 10/16/4
f 10/17/5 9/18/5 11/19/5 12/20/5
f 13/21/6 14/22/6 15/23/6 16/24/6
f 17/25/7 18/26/7 19/27/7 20/28/7
f 14/29/8 21/30/8 22/31/8 15/32/8
f 18/33/9 23/34/9 24/35/9 19/36/9
f 23/37/10 13/38/10 16/39/10 24/40/10
f 25/41/11 26/42/11 3/43/11 2/44/11
f 26/45/12 27/46/12 5/47/12 3/48/12
f 27/49/13 28/50/13 7/51/13 5/52/13
f 28/53/14 29/54/14 9/55/14 7/56/14
f 29/57/15 30/58/15 11/59/15 9/60/15
f 31/61/16 32/62/16 33/63/16 34/64/16
f 35/65/17 36/66/17 37/67/17 38/68/17
f 39/69/18 40/70/18 41/71/18 42/72/18
f 41/73/19 43/74/19 44/75/19 42/76/19
f 38/77/20 45/78/20 43/79/20 41/80/20
f 37/81/21 46/82/21 45/83/21 38/84/21
f 34/85/22 47/86/22 46/87/22 37/88/22
f 33/89/23 48/90/23 47/91/23 34/92/23
f 43/93/24 10/94/24 12/95/24 44/96/24
f 45/97/25 8/98/25 10/99/25 43/100/25
f 46/101/26 6/102/26 8/103/26 45/104/26
f 47/105/27 4/106/27 6/107/27 46/108/27
f 48/109/28 1/110/28 4/111/28 47/112/28
f 21/113/29 14/114/29 49/115/29 50/116/29
f 14/117/30 13/118/30 51/119/30 49/120/30
f 13/121/31 23/122/31 52/123/31 51/124/31
f 23/125/32 18/126/32 53/127/32 52/128/32
f 18/129/33 17/130/33 54/131/33 53/132/33
f 36/133/34 31/134/34 34/135/34 37/136/34
f 40/137/35 35/138/35 38/139/35 41/140/35
f 11/141/36 17/142/36 20/143/36 12/144/36
f 24/145/37 16/146/37 55/147/37 56/148/37
f 57/149/38 39/150/38 42/151/38 44/152/38
f 16/153/39 15/154/39 58/155/39 55/156/39
f 20/157/40 19/158/40 59/159/40 57/160/40
f 15/161/41 22/162/41 60/163/41 58/164/41
f 19/165/42 24/166/42 56/167/42 59/168/42
f 57/169/43 59/170/43 40/171/43 39/172/43
f 59/173/44 56/174/44 35/175/44 40/176/44
f 56/177/45 55/178/45 36/179/45 35/180/45
f 55/181/46 58/182/46 31/183/46 36/184/46
f 58/185/47 60/186/47 32/187/47 31/188/47
f 53/189/48 54/190/48 30/191/48 29/192/48
f 52/193/49 53/194/49 29/195/49 28/196/49
f 51/197/50 52/198/50 28/199/50 27/200/50
f 49/201/51 51/202/51 27/203/51 26/204/51
f 50/205/52 49/206/52 26/207/52 25/208/52
f 12/209/53 20/210/53 57/211/53 44/212/53
f 30/213/54 54/214/54 17/215/54 11/216/54
f 1/217/55 61/218/55 62/219/55 2/220/55
f 61/221/56 63/222/56 64/223/56 62/224/56
f 63/225/57 65/226/57 66/227/57 64/228/57
f 65/229/58 67/230/58 68/231/58 66/232/58
f 67/233/59 69/234/59 70/235/59 68/236/59
f 71/237/60 72/238/60 73/239/60 74/240/60
f 75/241/61 76/242/61 77/243/61 78/244/61
f 74/245/62 73/246/62 22/247/62 21/248/62
f 78/249/63 77/250/63 79/251/63 80/252/63
f 80/253/64 79/254/64 72/255/64 71/256/64
f 25/257/65 2/258/65 62/259/65 81/260/65
f 81/261/66 62/262/66 64/263/66 82/264/66
f 82/265/67 64/266/67 66/267/67 83/268/67
f 83/269/68 66/270/68 68/271/68 84/272/68
f 84/273/69 68/274/69 70/275/69 85/276/69
f 86/277/70 87/278/70 33/279/70 32/280/70
f 88/281/71 89/282/71 90/283/71 91/284/71
f 92/285/72 93/286/72 94/287/72 95/288/72
f 94/289/73 93/290/73 96/291/73 97/292/73
f 89/293/74 94/294/74 97/295/74 98/296/74
f 90/297/75 89/298/75 98/299/75 99/300/75
f 87/301/76 90/302/76 99/303/76 100/304/76
f 33/305/77 87/306/77 100/307/77 48/308/77
f 97/309/78 96/310/78 69/311/78 67/312/78
f 98/313/79 97/314/79 67/315/79 65/316/79
f 99/317/80 98/318/80 65/319/80 63/320/80
f 100/321/81 99/322/81 63/323/81 61/324/81
f 48/325/82 100/326/82 61/327/82 1/328/82
f 21/329/83 50/330/83 101/331/83 74/332/83
f 74/333/84 101/334/84 102/335/84 71/336/84
f 71/337/85 102/338/85 103/339/85 80/340/85
f 80/341/86 103/342/86 104/343/86 78/344/86
f 78/345/87 104/346/87 105/347/87 75/348/87
f 91/349/88 90/350/88 87/351/88 86/352/88
f 95/353/89 94/354/89 89/355/89 88/356/89
f 70/357/90 69/358/90 76/359/90 75/360/90
f 79/361/91 106/362/91 107/363/91 72/364/91
f 108/365/92 96/366/92 93/367/92 92/368/92
f 72/369/93 107/370/93 109/371/93 73/372/93
f 76/373/94 108/374/94 110/375/94 77/376/94
f 73/377/95 109/378/95 60/379/95 22/380/95
f 77/381/96 110/382/96 106/383/96 79/384/96
f 108/385/97 92/386/97 95/387/97 110/388/97
f 110/389/98 95/390/98 88/391/98 106/392/98
f 106/393/99 88/394/99 91/395/99 107/396/99
f 107/397/100 91/398/100 86/399/100 109/400/100
f 109/401/101 86/402/101 32/403/101 60/404/101
f 104/405/102 84/406/102 85/407/102 105/408/102
f 103/409/103 83/410/103 84/411/103 104/412/103
f 102/413/104 82/414/104 83/415/104 103/416/104
f 101/417/105 81/418/105 82/419/105 102/420/105
f 50/421/106 25/422/106 81/423/106 101/424/106
f 69/425/107 96/426/107 108/427/107 76/428/107
f 85/429/108 70/430/108 75/431/108 105/432/108