# Made in Blockbench 5.2.2
mtllib telly.mtl

o Telephone
v 0 0 0.141794
v 0 0 -0.19161530000000002
v 0.12149080000000001 0 -0.19161530000000002
v 0.12149080000000001 0 0.141794
v 0.126877 0.1131376 0.0767816
v 0.126877 0.1131376 -0.11237760000000002
v 0.08483460000000001 0.22111800000000004 -0.06272100000000001
v 0.08483450000000001 0.22111800000000004 0.0598077
v 0.12149080000000001 0.0761767 0.141794
v 0 0.0761767 0.141794
v 0.1708322 0 -0.121218
v 0.1708322 0.0761767 -0.121218
v 0.1708322 0.0761767 0.07139680000000001
v 0.1708322 0 0.07139680000000001
v 0.12149080000000001 0.0761767 -0.19161530000000002
v 0 0.0761767 -0.19161530000000002
v -0.0002768 0.24134460000000002 -0.0784277
v -0.0002768 0.24134460000000002 0.0793006
v 0.0344657 0.24134460000000002 0.0793006
v 0.035605 0.24134460000000002 -0.0784276
v 0.10455880000000001 0.1131376 0.1201558
v 0.10455880000000001 0.1131376 -0.15575170000000002
v -0.0001669 0.1131376 -0.15575170000000002
v -0.0001669 0.1131376 0.1201557
v 0.06251640000000001 0.22111800000000004 -0.09011970000000001
v -0.0001669 0.22111800000000004 0.0953177
v -0.0001669 0.22111800000000004 -0.09011970000000001
v 0.06251630000000001 0.22111800000000004 0.0953177
v 0.049468700000000004 0.24134460000000002 0.050143099999999996
v 0.049468700000000004 0.24134460000000002 -0.050108
v -0.12149080000000001 0 0.141794
v -0.12149080000000001 0 -0.19161530000000002
v -0.126877 0.1131376 0.0767816
v -0.08483450000000001 0.22111800000000004 0.0598077
v -0.08483450000000001 0.22111800000000004 -0.06272100000000001
v -0.126877 0.1131376 -0.11237760000000002
v -0.12149080000000001 0.0761767 0.141794
v -0.1708322 0 -0.121218
v -0.1708322 0 0.07139670000000001
v -0.1708322 0.0761767 0.07139670000000001
v -0.1708322 0.0761767 -0.121218
v -0.12149080000000001 0.0761767 -0.19161530000000002
v 0.0002768 0.24134460000000002 -0.0784277
v -0.0356049 0.24134460000000002 -0.0784276
v -0.0344657 0.24134460000000002 0.0793006
v 0.0002768 0.24134460000000002 0.0793006
v -0.10455880000000001 0.1131376 0.1201557
v -0.10455880000000001 0.1131376 -0.15575170000000002
v 0.0001669 0.1131376 -0.15575170000000002
v 0.0001669 0.1131376 0.1201557
v -0.06251640000000001 0.22111800000000004 -0.09011970000000001
v 0.0001669 0.22111800000000004 -0.09011970000000001
v 0.0001669 0.22111800000000004 0.0953177
v -0.06251640000000001 0.22111800000000004 0.0953177
v -0.049468700000000004 0.24134460000000002 0.050143099999999996
v -0.049468700000000004 0.24134460000000002 -0.050108
v -0.0001506 0.2299538 -0.0307322
v -0.0001506 0.2539968 -0.0307322
v 0.040554200000000006 0.2539968 -0.0307322
v 0.054851300000000006 0.2299538 -0.0307322
v 0.040554200000000006 0.2539968 0.028837200000000004
v 0.0557117 0.2682493 0.028837200000000004
v 0.0557117 0.2682493 -0.0307322
v 0.054851300000000006 0.2299538 0.028837200000000004
v -0.0001506 0.2299538 0.028837200000000004
v -0.0001506 0.2539968 0.028837200000000004
v 0.059323600000000004 0.2769781 0.028837200000000004
v 0.059323600000000004 0.2769781 -0.0307322
v 0.0716643 0.2505271 -0.0307322
v 0.0716643 0.2505271 0.028837200000000004
v 0.06160750000000001 0.28746510000000003 0.028837200000000004
v 0.06160750000000001 0.28746510000000003 -0.0307322
v 0.0808445 0.2687371 -0.0307322
v 0.0808445 0.2687371 0.028837200000000004
v 0.08287630000000001 0.2870866 -0.0307322
v 0.08287630000000001 0.2870866 0.028837200000000004
v 0.0001506 0.2299538 -0.0307322
v -0.054851300000000006 0.2299538 -0.0307322
v -0.040554200000000006 0.2539968 -0.0307322
v 0.0001506 0.2539968 -0.0307322
v -0.0557117 0.2682493 -0.0307322
v -0.0557117 0.2682493 0.028837200000000004
v -0.040554200000000006 0.2539968 0.028837200000000004
v 0.0001506 0.2299538 0.028837200000000004
v -0.054851300000000006 0.2299538 0.028837200000000004
v 0.0001506 0.2539968 0.028837200000000004
v -0.059323600000000004 0.2769781 -0.0307322
v -0.059323600000000004 0.2769781 0.028837200000000004
v -0.0716643 0.2505271 -0.0307322
v -0.0716643 0.2505271 0.028837200000000004
v -0.06160750000000001 0.28746510000000003 -0.0307322
v -0.06160750000000001 0.28746510000000003 0.028837200000000004
v -0.0808445 0.2687371 -0.0307322
v -0.0808445 0.2687371 0.028837200000000004
v -0.08287630000000001 0.2870866 -0.0307322
v -0.08287630000000001 0.2870866 0.028837200000000004
v 0 0.2801109 -0.0322217
v 0 0.33607410000000004 -0.0322217
v 0.08622740000000001 0.33164220000000005 -0.0322217
v 0.08622740000000001 0.2804655 -0.0322217
v 0.1360987 0.3205679 -0.051691900000000006
v 0.1231391 0.27193700000000004 -0.051691900000000006
v 0.08622740000000001 0.2804655 0.0020036000000000003
v 0.1231391 0.27193700000000004 0.0020036000000000003
v 0.1277277 0.2572901 -0.051691900000000006
v 0.23053970000000001 0.23037269999999999 -0.051691900000000006
v 0.21606809999999999 0.1824751 -0.051691900000000006
v 0.1132561 0.2093924 -0.051691900000000006
v 0.2211699 0.2816627 -0.051691900000000006
v 0.1277277 0.2572901 0.0020036000000000003
v 0.1132561 0.2093924 0.0020036000000000003
v 0.21606809999999999 0.1824751 0.0020036000000000003
v 0.23053970000000001 0.23037269999999999 0.0020036000000000003
v 0.1360987 0.3205679 0.0020036000000000003
v 0.2211699 0.2816627 0.0020036000000000003
v 0 0.33607410000000004 0.0020036000000000003
v 0.08622740000000001 0.33164220000000005 0.0020036000000000003
v 0 0.2801109 0.0020036000000000003
v -0.08622740000000001 0.2804655 -0.0322217
v -0.08622740000000001 0.33164220000000005 -0.0322217
v -0.1231391 0.27193700000000004 -0.051691900000000006
v -0.1360987 0.3205679 -0.051691900000000006
v -0.08622740000000001 0.2804655 0.0020036000000000003
v -0.1231391 0.27193700000000004 0.0020036000000000003
v -0.1277277 0.2572901 -0.051691900000000006
v -0.1132561 0.2093924 -0.051691900000000006
v -0.21606809999999999 0.1824751 -0.051691900000000006
v -0.23053970000000001 0.23037269999999999 -0.051691900000000006
v -0.2211699 0.2816627 -0.051691900000000006
v -0.1277277 0.2572901 0.0020036000000000003
v -0.1132561 0.2093924 0.0020036000000000003
v -0.21606809999999999 0.1824751 0.0020036000000000003
v -0.23053970000000001 0.23037269999999999 0.0020036000000000003
v -0.2211699 0.2816627 0.0020036000000000003
v -0.1360987 0.3205679 0.0020036000000000003
v -0.08622740000000001 0.33164220000000005 0.0020036000000000003
v 0 0.2801109 0.0322217
v 0.08622740000000001 0.2804655 0.0322217
v 0.08622740000000001 0.33164220000000005 0.0322217
v 0 0.33607410000000004 0.0322217
v 0.1231391 0.27193700000000004 0.051691900000000006
v 0.1360987 0.3205679 0.051691900000000006
v 0.08622740000000001 0.2804655 -0.0020036000000000003
v 0.1231391 0.27193700000000004 -0.0020036000000000003
v 0.1277277 0.2572901 0.051691900000000006
v 0.1132561 0.2093924 0.051691900000000006
v 0.21606809999999999 0.1824751 0.051691900000000006
v 0.23053970000000001 0.23037269999999999 0.051691900000000006
v 0.2211699 0.2816627 0.051691900000000006
v 0.1277277 0.2572901 -0.0020036000000000003
v 0.1132561 0.2093924 -0.0020036000000000003
v 0.21606809999999999 0.1824751 -0.0020036000000000003
v 0.23053970000000001 0.23037269999999999 -0.0020036000000000003
v 0.2211699 0.2816627 -0.0020036000000000003
v 0.1360987 0.3205679 -0.0020036000000000003
v 0.08622740000000001 0.33164220000000005 -0.0020036000000000003
v 0 0.33607410000000004 -0.0020036000000000003
v 0 0.2801109 -0.0020036000000000003
v -0.08622740000000001 0.33164220000000005 0.0322217
v -0.08622740000000001 0.2804655 0.0322217
v -0.1360987 0.3205679 0.051691900000000006
v -0.1231391 0.27193700000000004 0.051691900000000006
v -0.08622740000000001 0.2804655 -0.0020036000000000003
v -0.1231391 0.27193700000000004 -0.0020036000000000003
v -0.1277277 0.2572901 0.051691900000000006
v -0.23053970000000001 0.23037269999999999 0.051691900000000006
v -0.21606809999999999 0.1824751 0.051691900000000006
v -0.1132561 0.2093924 0.051691900000000006
v -0.2211699 0.2816627 0.051691900000000006
v -0.1277277 0.2572901 -0.0020036000000000003
v -0.1132561 0.2093924 -0.0020036000000000003
v -0.21606809999999999 0.1824751 -0.0020036000000000003
v -0.23053970000000001 0.23037269999999999 -0.0020036000000000003
v -0.1360987 0.3205679 -0.0020036000000000003
v -0.2211699 0.2816627 -0.0020036000000000003
v -0.08622740000000001 0.33164220000000005 -0.0020036000000000003
v -0.0003484 0.1129945 -0.1551081
v -0.0003484 0.1223506 -0.1705453
v 0.05563780000000001 0.1421827 -0.15852560000000002
v 0.05563780000000001 0.1328266 -0.1430884
v 0.07882800000000001 0.19006160000000002 -0.1295073
v 0.07882800000000001 0.18070550000000002 -0.11407010000000001
v 0.05563780000000001 0.23794050000000003 -0.10048900000000001
v 0.05563780000000001 0.22858440000000002 -0.08505180000000001
v -0.0003484 0.2577726 -0.0884693
v -0.0003484 0.2484165 -0.0730321
v -0.056334600000000006 0.23794050000000003 -0.10048900000000001
v -0.056334600000000006 0.22858440000000002 -0.08505180000000001
v -0.0795248 0.19006160000000002 -0.1295073
v -0.0795248 0.18070550000000002 -0.11407010000000001
v 0.045139700000000005 0.1580261 -0.160886
v -0.0003482 0.19692710000000002 -0.137309
v 0.06398150000000001 0.19692710000000002 -0.137309
v -0.056334600000000006 0.1421827 -0.15852560000000002
v -0.056334600000000006 0.1328266 -0.1430884
v -0.0003484 0.18070630000000001 -0.1140696
v -0.0003484 0.1419127 -0.1706519
v 0.045139700000000005 0.23582820000000002 -0.11373200000000001
v -0.0003484 0.2519415 -0.1039661
v -0.0458365 0.23582820000000002 -0.11373200000000001
v -0.06467830000000001 0.19692710000000002 -0.137309
v -0.0458365 0.1580261 -0.160886
vt 0.0859375 0.998734375
vt 0.0859375 0.83203125
vt 0.146684375 0.83203125
vt 0.146684375 0.998734375
vt 0.2167756499631986 0.7293203823057707
vt 0.3082382436443906 0.7533955912482658
vt 0.26947978732220557 0.8031044612896066
vt 0.2102353569066731 0.7875098670021895
vt 0.404496875 0.497196875
vt 0.404496875 0.535284375
vt 0.34375 0.535284375
vt 0.34375 0.497196875
vt 0.32745 0.664744036252937
vt 0.32745 0.7028315362529369
vt 0.23114374999999998 0.7028315362529369
vt 0.23114374999999998 0.664744036252937
vt 0.23114374999999998 0.664744036252937
vt 0.23114374999999998 0.7028315362529369
vt 0.188159375 0.7028315362529369
vt 0.188159375 0.664744036252937
vt 0.32745 0.7028315362529369
vt 0.32745 0.664744036252937
vt 0.370434375 0.664744036252937
vt 0.370434375 0.7028315362529369
vt 0.625 0.5244125
vt 0.625 0.5625
vt 0.564253125 0.5625
vt 0.564253125 0.5244125
vt 0.4695671875 0.4303143918166843
vt 0.4695671875 0.35145189181668424
vt 0.4869390625 0.35145189181668424
vt 0.4875078125 0.4303143918166843
vt 0.2167756499631986 0.7293203823057707
vt 0.19245954352007164 0.7274556775847707
vt 0.18843434470349357 0.7047846612529369
vt 0.23114374999999998 0.7047846612529369
vt 0.3065755376669319 0.4375
vt 0.28379345074001555 0.4287891387828152
vt 0.2882151568726253 0.4000746104064543
vt 0.32640967425998446 0.4194192770281092
vt 0.061639062499999994 0.42513749999999995
vt 0.009276562499999998 0.42513749999999995
vt 0.0008078125000000012 0.3993875
vt 0.0615546875 0.3993875
vt 0.28379345074001555 0.4287891387828152
vt 0.18921532574001557 0.4287891387828152
vt 0.19190907574001556 0.4000735137828153
vt 0.28821532574001557 0.4000735137828153
vt 0.396028125 0.5567
vt 0.343665625 0.5567
vt 0.34375 0.535284375
vt 0.404496875 0.535284375
vt 0.3082382436443906 0.7533955912482658
vt 0.33006062029893335 0.7642899230330928
vt 0.2841280350778196 0.8125
vt 0.2695262539187756 0.8030448665010277
vt 0.0013359374999999951 0.7265625
vt 0.1392890625 0.7265625
vt 0.1268703125 0.78125
vt 0.034151562499999996 0.78125
vt 0.343665625 0.5567
vt 0.396028125 0.5567
vt 0.375009375 0.6121
vt 0.343665625 0.6121
vt 0.009276562499999998 0.42513749999999995
vt 0.061639062499999994 0.42513749999999995
vt 0.061639062499999994 0.48831875
vt 0.0302953125 0.48831875
vt 0.19245954352007164 0.7274556775847707
vt 0.2167756499631986 0.7293203823057707
vt 0.21023540916652508 0.7875094020423126
vt 0.189352656638964 0.786606908536025
vt 0.4944390625 0.36603001681668423
vt 0.487824686552953 0.3510298478211821
vt 0.5049658980036783 0.34270292348925446
vt 0.5147871304678069 0.3612036723738752
vt 0.4875078125 0.4303143918166843
vt 0.49443940838 0.41615431024216676
vt 0.5144260709579691 0.4235860884147784
vt 0.5037007346094315 0.4375
vt 0.061692187499999995 0.5
vt 0.04375156250000001 0.5
vt 0.0302953125 0.48831875
vt 0.061639062499999994 0.48831875
vt 0.4944390625 0.4161550168166843
vt 0.4944390625 0.36603001681668423
vt 0.5148078125 0.3611987668166843
vt 0.5148078125 0.4224612668166843
vt 0.360984375 0.625
vt 0.3436125 0.625
vt 0.343665625 0.6121
vt 0.375009375 0.6121
vt 0.4875078125 0.4303143918166843
vt 0.4869390625 0.35145189181668424
vt 0.4944390625 0.36603001681668434
vt 0.4944390625 0.4161550168166843
vt 0.146684375 0.998734375
vt 0.146684375 0.83203125
vt 0.171353125 0.867228125
vt 0.171353125 0.963534375
vt 0.0859375 0.998734375
vt 0.025190625 0.998734375
vt 0.025190625 0.83203125
vt 0.0859375 0.83203125
vt 0.5137333755296772 0.8126397435425012
vt 0.5052458755296773 0.8705772435425012
vt 0.44398337552967726 0.8705772435425012
vt 0.4191552505296773 0.8126397435425012
vt 0.283003125 0.497196875
vt 0.34375 0.497196875
vt 0.34375 0.535284375
vt 0.283003125 0.535284375
vt 0.48114375 0.6181625
vt 0.57745 0.6181625
vt 0.57745 0.65625
vt 0.48114375 0.65625
vt 0.57745 0.6181625
vt 0.620434375 0.6181625
vt 0.620434375 0.65625
vt 0.57745 0.65625
vt 0.48114375 0.65625
vt 0.438159375 0.65625
vt 0.438159375 0.6181625
vt 0.48114375 0.6181625
vt 0.625 0.5244125
vt 0.685746875 0.5244125
vt 0.685746875 0.5625
vt 0.625 0.5625
vt 0.4246815641843145 0.4302726382811174
vt 0.40674093918431453 0.4302726382811174
vt 0.40730968918431454 0.35141013828111745
vt 0.4246815641843145 0.35141013828111745
vt 0.702321875 0.375
vt 0.6875 0.3515625
vt 0.730484375 0.3515625
vt 0.726484375 0.3728
vt 0.3965762413711805 0.8215423522120792
vt 0.37639963770764484 0.80344182194762
vt 0.41474904217146014 0.7840258576035208
vt 0.4191552505296773 0.8126397435425012
vt 0.0946109375 0.42513749999999995
vt 0.0946953125 0.3993875
vt 0.1554421875 0.3993875
vt 0.1469734375 0.42513749999999995
vt 0.4191552505296773 0.8126397435425012
vt 0.41473337552967726 0.7839241185425012
vt 0.5110396255296773 0.7839241185425012
vt 0.5137333755296772 0.8126397435425012
vt 0.291471875 0.5567
vt 0.283003125 0.535284375
vt 0.34375 0.535284375
vt 0.343834375 0.5567
vt 0.2262795298021136 0.8520120919641709
vt 0.2890625 0.8576300789818944
vt 0.28582667392505845 0.875
vt 0.2193810131933137 0.875
vt 0.5455390625000001 0.6953125
vt 0.5127234375 0.75
vt 0.4200046875 0.75
vt 0.4075859375 0.6953125
vt 0.343834375 0.5567
vt 0.343834375 0.6121
vt 0.312490625 0.6121
vt 0.291471875 0.5567
vt 0.1469734375 0.42513749999999995
vt 0.1259546875 0.48831875
vt 0.0946109375 0.48831875
vt 0.0946109375 0.42513749999999995
vt 0.5376628622923552 0.8169540881653641
vt 0.5257441225281465 0.875
vt 0.5052499936429825 0.8705491324155944
vt 0.5137333755296772 0.8126397435425012
vt 0.39980968918431453 0.36598826328111744
vt 0.37976379166048524 0.3599456153494046
vt 0.39071891841920453 0.34206253008102827
vt 0.40730306488289286 0.35142301426700573
vt 0.40674093918431453 0.4302726382811174
vt 0.3904537213359317 0.4375
vt 0.37987267779422984 0.4233498676991658
vt 0.39986973737029824 0.4162359315997344
vt 0.0945578125 0.5
vt 0.0946109375 0.48831875
vt 0.1259546875 0.48831875
vt 0.11249843749999999 0.5
vt 0.39680938431957036 0.4160233889002122
vt 0.3760996858156855 0.42109913057046966
vt 0.37976664196085036 0.3599464745457357
vt 0.39980968918431453 0.36598826328111744
vt 0.326515625 0.625
vt 0.312490625 0.6121
vt 0.343834375 0.6121
vt 0.3438875 0.625
vt 0.40674093918431453 0.4302726382811174
vt 0.39980968918431453 0.4161132632811174
vt 0.39980968918431453 0.36598826328111744
vt 0.40730968918431454 0.35141013828111745
vt 0.025190625 0.998734375
vt 0.000521875000000005 0.963534375
vt 0.000521875000000005 0.867228125
vt 0.025190625 0.83203125
vt 0.042240625000000004 0.6587468750000001
vt 0.042240625000000004 0.670765625
vt 0.0218875 0.670765625
vt 0.014740625 0.6587468750000001
vt 0.5944828125 0.69825625
vt 0.6242671875 0.69825625
vt 0.6242671875 0.708659375
vt 0.5944828125 0.708659375
vt 0.3125 0.90625
vt 0.33984375 0.90625
vt 0.33984375 0.9375
vt 0.3125 0.9375
vt 0.51953125 0.28125
vt 0.5 0.28125
vt 0.5 0.25
vt 0.51953125 0.25
vt 0.12197812499999999 0.6587468750000001
vt 0.11483125 0.670765625
vt 0.094478125 0.670765625
vt 0.094478125 0.6587468750000001
vt 0.5944828125 0.708659375
vt 0.6242671875 0.708659375
vt 0.6242671875 0.71338125
vt 0.5944828125 0.71338125
vt 0.014740625 0.6587468750000001
vt 0.0218875 0.670765625
vt 0.014309375000000003 0.67789375
vt 0.006334375 0.66903125
vt 0.11483125 0.670765625
vt 0.12197812499999999 0.6587468750000001
vt 0.130384375 0.66903125
vt 0.122409375 0.67789375
vt 0.7194828125 0.96484375
vt 0.7492671875 0.96484375
vt 0.7492671875 0.978128125
vt 0.7194828125 0.978128125
vt 0.5944828125 0.71338125
vt 0.6242671875 0.71338125
vt 0.6242671875 0.71875
vt 0.5944828125 0.71875
vt 0.006334375 0.66903125
vt 0.014309375000000003 0.67789375
vt 0.012503125 0.68225625
vt 0.0017437499999999988 0.6781375000000001
vt 0.122409375 0.67789375
vt 0.130384375 0.66903125
vt 0.134975 0.6781375000000001
vt 0.124215625 0.68225625
vt 0.7194828125 0.978128125
vt 0.7492671875 0.978128125
vt 0.7492671875 0.988325
vt 0.7194828125 0.988325
vt 0.15625 0.23828125
vt 0.15625 0.25
vt 0.125 0.25
vt 0.125 0.23828125
vt 0.0017437499999999988 0.6781375000000001
vt 0.012503125 0.68225625
vt 0.011362500000000001 0.6875
vt 0.0007281249999999996 0.6873125
vt 0.124215625 0.68225625
vt 0.134975 0.6781375000000001
vt 0.135990625 0.6873125
vt 0.12535625 0.6875
vt 0.7194828125 0.988325
vt 0.7492671875 0.988325
vt 0.7492671875 0.99755625
vt 0.7194828125 0.99755625
vt 0.188228125 0.47124687499999995
vt 0.215728125 0.47124687499999995
vt 0.20858125 0.48326562500000003
vt 0.188228125 0.48326562500000003
vt 0.7492671875 0.51075625
vt 0.7492671875 0.521159375
vt 0.7194828125 0.521159375
vt 0.7194828125 0.51075625
vt 0.12109375 0.53125
vt 0.12109375 0.5625
vt 0.09375 0.5625
vt 0.09375 0.53125
vt 0.71875 0.3125
vt 0.71875 0.28125
vt 0.73828125 0.28125
vt 0.73828125 0.3125
vt 0.639740625 0.28374687499999995
vt 0.667240625 0.28374687499999995
vt 0.667240625 0.29576562500000003
vt 0.6468875 0.29576562500000003
vt 0.7492671875 0.521159375
vt 0.7492671875 0.52588125
vt 0.7194828125 0.52588125
vt 0.7194828125 0.521159375
vt 0.215728125 0.47124687499999995
vt 0.224134375 0.48153124999999997
vt 0.216159375 0.49039374999999996
vt 0.20858125 0.48326562500000003
vt 0.6468875 0.29576562500000003
vt 0.639309375 0.30289374999999996
vt 0.631334375 0.29403124999999997
vt 0.639740625 0.28374687499999995
vt 0.7492671875 0.87109375
vt 0.7492671875 0.884378125
vt 0.7194828125 0.884378125
vt 0.7194828125 0.87109375
vt 0.7492671875 0.52588125
vt 0.7492671875 0.53125
vt 0.7194828125 0.53125
vt 0.7194828125 0.52588125
vt 0.224134375 0.48153124999999997
vt 0.228725 0.49063750000000006
vt 0.217965625 0.49475625
vt 0.216159375 0.49039374999999996
vt 0.639309375 0.30289374999999996
vt 0.637503125 0.30725625
vt 0.62674375 0.30313750000000006
vt 0.631334375 0.29403124999999997
vt 0.7492671875 0.884378125
vt 0.7492671875 0.894575
vt 0.7194828125 0.894575
vt 0.7194828125 0.884378125
vt 0.1875 0.23828125
vt 0.21875 0.23828125
vt 0.21875 0.25
vt 0.1875 0.25
vt 0.228725 0.49063750000000006
vt 0.229740625 0.4998125
vt 0.21910625 0.5
vt 0.217965625 0.49475625
vt 0.637503125 0.30725625
vt 0.6363625 0.3125
vt 0.625728125 0.3123125
vt 0.62674375 0.30313750000000006
vt 0.7492671875 0.894575
vt 0.7492671875 0.90380625
vt 0.7194828125 0.90380625
vt 0.7194828125 0.894575
vt 0.3377086825286383 0.9720187499999999
vt 0.3377086825286383 1
vt 0.2945961825286383 0.997784375
vt 0.2945961825286383 0.97219375
vt 0.2945961825286383 0.97219375
vt 0.2945961825286383 0.997784375
vt 0.2678274325286383 0.992246875
vt 0.2738649325286383 0.96793125
vt 0.562746875 0.448925
vt 0.579859375 0.448925
vt 0.589596875 0.46786874999999994
vt 0.562746875 0.46786874999999994
vt 0.2714728139381194 0.9605392181799189
vt 0.21984379935439596 0.9479647179417912
vt 0.22666722873273812 0.923894414803704
vt 0.2782962967984657 0.9364720395841464
vt 0.2714728139381194 0.9605392181799189
vt 0.2678274325286383 0.992246875
vt 0.22496636160988417 0.9735245426505361
vt 0.21984379935439596 0.9479647179417912
vt 0.2738915898146958 0.9678238895741131
vt 0.2678274325286383 0.992246875
vt 0.2714728139381194 0.9605392181799189
vt 0.745846875 0.8125
vt 0.718996875 0.8125
vt 0.718996875 0.804825
vt 0.745846875 0.804825
vt 0.15234375 0.34375
vt 0.125 0.34375
vt 0.125 0.2890625
vt 0.15234375 0.2890625
vt 0.745846875 0.804825
vt 0.718996875 0.804825
vt 0.718996875 0.77980625
vt 0.745846875 0.77980625
vt 0.683346875 0.63018125
vt 0.656496875 0.63018125
vt 0.656496875 0.6051625
vt 0.683346875 0.6051625
vt 0.652096875 0.40004062500000004
vt 0.625246875 0.40004062500000004
vt 0.625246875 0.353265625
vt 0.652096875 0.353265625
vt 0.683346875 0.63018125
vt 0.683346875 0.65625
vt 0.656496875 0.65625
vt 0.656496875 0.63018125
vt 0.642359375 0.42558125
vt 0.642359375 0.46875
vt 0.625246875 0.46875
vt 0.625246875 0.42558125
vt 0.579859375 0.405809375
vt 0.579859375 0.448925
vt 0.562746875 0.448925
vt 0.562746875 0.405809375
vt 0.642359375 0.42558125
vt 0.625246875 0.42558125
vt 0.625246875 0.40004062500000004
vt 0.652096875 0.40004062500000004
vt 0.3377086825286383 0.9720187499999999
vt 0.3808211825286383 0.97219375
vt 0.3808211825286383 0.997784375
vt 0.3377086825286383 1
vt 0.3808211825286383 0.97219375
vt 0.4016805575286383 0.967896875
vt 0.40748368252863826 0.992384375
vt 0.3808211825286383 0.997603125
vt 0.562746875 0.36269375000000004
vt 0.562746875 0.34375
vt 0.589596875 0.34375
vt 0.579859375 0.36269375000000004
vt 0.4041770293270745 0.9606384631473898
vt 0.3976110847740726 0.9364997519963537
vt 0.44937159295612017 0.9244744824696731
vt 0.45593745064560404 0.9486163174132326
vt 0.4041770293270745 0.9606384631473898
vt 0.45593745064560404 0.9486163174132326
vt 0.4505420836240768 0.9741199504467073
vt 0.4074834181883738 0.9923832595609519
vt 0.4016805575286383 0.967896875
vt 0.4041770293270745 0.9606384631473898
vt 0.4074834181883738 0.9923832595609519
vt 0.718996875 0.71875
vt 0.718996875 0.711075
vt 0.745846875 0.711075
vt 0.745846875 0.71875
vt 0.65625 0.84375
vt 0.65625 0.7890625
vt 0.68359375 0.7890625
vt 0.68359375 0.84375
vt 0.718996875 0.711075
vt 0.718996875 0.68605625
vt 0.745846875 0.68605625
vt 0.745846875 0.711075
vt 0.437746875 0.28643125
vt 0.437746875 0.26141250000000005
vt 0.464596875 0.26141250000000005
vt 0.464596875 0.28643125
vt 0.00024687500000000577 0.27504062500000004
vt 0.00024687499999999536 0.22826562500000003
vt 0.027096874999999992 0.22826562500000003
vt 0.027096875000000006 0.27504062500000004
vt 0.437746875 0.28643125
vt 0.464596875 0.28643125
vt 0.464596875 0.3125
vt 0.437746875 0.3125
vt 0.009984375000000005 0.30058125
vt 0.027096875000000006 0.30058125
vt 0.027096875000000006 0.34375
vt 0.009984375000000005 0.34375
vt 0.579859375 0.405809375
vt 0.562746875 0.405809375
vt 0.562746875 0.36269375000000004
vt 0.579859375 0.36269375000000004
vt 0.009984375000000005 0.30058125
vt 0.00024687500000000577 0.27504062500000004
vt 0.027096875000000006 0.27504062500000004
vt 0.027096875000000006 0.30058125
vt 0.1189586825286383 0.5970187499999999
vt 0.16207118252863828 0.59719375
vt 0.16207118252863828 0.622784375
vt 0.1189586825286383 0.625
vt 0.16207118252863828 0.59719375
vt 0.1829305575286383 0.592896875
vt 0.18873368252863826 0.617384375
vt 0.16207118252863828 0.622603125
vt 0.620846875 0.855175
vt 0.620846875 0.87411875
vt 0.593996875 0.87411875
vt 0.603734375 0.855175
vt 0.1854270293270745 0.5856384631473898
vt 0.1788610847740726 0.5614997519963537
vt 0.23062159295612017 0.5494744824696731
vt 0.23718745064560404 0.5736163174132325
vt 0.1854270293270745 0.5856384631473898
vt 0.23718745064560404 0.5736163174132325
vt 0.23179208362407677 0.5991199504467073
vt 0.1887334181883738 0.6173832595609519
vt 0.1829305575286383 0.592896875
vt 0.1854270293270745 0.5856384631473898
vt 0.1887334181883738 0.6173832595609519
vt 0.375246875 0.28125
vt 0.375246875 0.273575
vt 0.402096875 0.273575
vt 0.402096875 0.28125
vt 0.1875 0.34375
vt 0.1875 0.2890625
vt 0.21484375 0.2890625
vt 0.21484375 0.34375
vt 0.375246875 0.273575
vt 0.375246875 0.24855625000000003
vt 0.402096875 0.24855625000000003
vt 0.402096875 0.273575
vt 0.687746875 0.44268125
vt 0.687746875 0.41766250000000005
vt 0.714596875 0.41766250000000005
vt 0.714596875 0.44268125
vt 0.656496875 0.931290625
vt 0.656496875 0.884515625
vt 0.683346875 0.884515625
vt 0.683346875 0.931290625
vt 0.687746875 0.44268125
vt 0.714596875 0.44268125
vt 0.714596875 0.46875
vt 0.687746875 0.46875
vt 0.666234375 0.95683125
vt 0.683346875 0.95683125
vt 0.683346875 1
vt 0.666234375 1
vt 0.603734375 0.812059375
vt 0.620846875 0.812059375
vt 0.620846875 0.855175
vt 0.603734375 0.855175
vt 0.666234375 0.95683125
vt 0.656496875 0.931290625
vt 0.683346875 0.931290625
vt 0.683346875 0.95683125
vt 0.1189586825286383 0.5970187499999999
vt 0.1189586825286383 0.625
vt 0.0758461825286383 0.622784375
vt 0.0758461825286383 0.59719375
vt 0.0758461825286383 0.59719375
vt 0.0758461825286383 0.622784375
vt 0.04907743252863829 0.617246875
vt 0.05511493252863829 0.59293125
vt 0.620846875 0.76894375
vt 0.603734375 0.76894375
vt 0.593996875 0.75
vt 0.620846875 0.75
vt 0.05272281393811938 0.5855392181799189
vt 0.0010937993543959773 0.5729647179417912
vt 0.007917228732738119 0.548894414803704
vt 0.059546296798465674 0.5614720395841464
vt 0.05272281393811938 0.5855392181799189
vt 0.04907743252863829 0.617246875
vt 0.0062163616098841745 0.5985245426505361
vt 0.0010937993543959773 0.5729647179417912
vt 0.05514158981469579 0.5928238895741131
vt 0.04907743252863829 0.617246875
vt 0.05272281393811938 0.5855392181799189
vt 0.745846875 0.625
vt 0.718996875 0.625
vt 0.718996875 0.617325
vt 0.745846875 0.617325
vt 0.27734375 0.34375
vt 0.25 0.34375
vt 0.25 0.2890625
vt 0.27734375 0.2890625
vt 0.745846875 0.617325
vt 0.718996875 0.617325
vt 0.718996875 0.59230625
vt 0.745846875 0.59230625
vt 0.589596875 0.28643125
vt 0.562746875 0.28643125
vt 0.562746875 0.26141250000000005
vt 0.589596875 0.26141250000000005
vt 0.089596875 0.27504062500000004
vt 0.06274687500000001 0.27504062500000004
vt 0.062746875 0.22826562500000003
vt 0.08959687499999999 0.22826562500000003
vt 0.589596875 0.28643125
vt 0.589596875 0.3125
vt 0.562746875 0.3125
vt 0.562746875 0.28643125
vt 0.07985937500000001 0.30058125
vt 0.07985937500000001 0.34375
vt 0.06274687500000001 0.34375
vt 0.06274687500000001 0.30058125
vt 0.603734375 0.812059375
vt 0.603734375 0.76894375
vt 0.620846875 0.76894375
vt 0.620846875 0.812059375
vt 0.07985937500000001 0.30058125
vt 0.06274687500000001 0.30058125
vt 0.06274687500000001 0.27504062500000004
vt 0.089596875 0.27504062500000004
vt 0.75 0.21875
vt 0.7578125 0.21875
vt 0.7578125 0.25
vt 0.75 0.25
vt 0.25 0.21875
vt 0.2578125 0.21875
vt 0.2578125 0.25
vt 0.25 0.25
vt 0.625 0.21875
vt 0.6328125 0.21875
vt 0.6328125 0.25
vt 0.625 0.25
vt 0.78125 0.96875
vt 0.7890625 0.96875
vt 0.7890625 1
vt 0.78125 1
vt 0.8125 0.9296875
vt 0.8125 0.9375
vt 0.78125 0.9375
vt 0.78125 0.9296875
vt 0.78125 0.4609375
vt 0.78125 0.46875
vt 0.75 0.46875
vt 0.75 0.4609375
vt 0.5219694036521779 0.9436187687583211
vt 0.5433240927493583 0.9676714937949518
vt 0.5112150989544065 0.9657636287272984
vt 0.34375 0.2421875
vt 0.34375 0.25
vt 0.3125 0.25
vt 0.3125 0.2421875
vt 0.71875 0.2421875
vt 0.71875 0.25
vt 0.6875 0.25
vt 0.6875 0.2421875
vt 0.478515625 0.48046875
vt 0.478515625 0.52005625
vt 0.450521875 0.49206249999999996
vt 0.5452319578170117 0.9355625
vt 0.5219694578170118 0.94361875
vt 0.5165913328170118 0.935696875
vt 0.5452194578170118 0.92578125
vt 0.5219694578170118 0.94361875
vt 0.5084906591277701 0.9642189804759079
vt 0.5 0.9610490031251785
vt 0.5165902719696283 0.9356953123921458
vt 0.32099038643508654 0.29316300415974217
vt 0.3225125311337448 0.317734375
vt 0.31437473512706127 0.3202375910527471
vt 0.3125 0.2899968211050178
vt 0.3225125311337448 0.317734375
vt 0.3380406561337448 0.3368375
vt 0.3334875311337448 0.34375
vt 0.31437503113374476 0.32023749999999995
vt 0.658038679716586 0.7430875
vt 0.673566804716586 0.723984375
vt 0.681704304716586 0.7264906250000001
vt 0.662594929716586 0.75
vt 0.673566804716586 0.723984375
vt 0.6751020719629733 0.6994140691993304
vt 0.68359375 0.6962513518441746
vt 0.6817066719574814 0.7264913540811052
vt 0.8105047464244686 0.875
vt 0.7858848925046897 0.875
vt 0.7822007136461129 0.8671875
vt 0.8125 0.8671875
vt 0.567376817785989 0.9463168046977715
vt 0.5452320093793918 0.935562525040463
vt 0.5463996015110876 0.925851208545408
vt 0.5736551992395869 0.9390875406719961
vt 0.5112150989544065 0.9657636287272984
vt 0.5433240927493583 0.9676714937949518
vt 0.5192713677127275 0.9890261828921322
vt 0.5192713677127275 0.9890261828921322
vt 0.5433240927493583 0.9676714937949518
vt 0.5414164130372929 0.999777368091818
vt 0.5414164130372929 0.999777368091818
vt 0.5433240927493583 0.9676714937949518
vt 0.5646787818465386 0.9917242188315826
vt 0.5646787818465386 0.9917242188315826
vt 0.5433240927493583 0.9676714937949518
vt 0.5754330865443101 0.9695793588626052
vt 0.5754330865443101 0.9695793588626052
vt 0.5433240927493583 0.9676714937949518
vt 0.567376817785989 0.9463168046977715
vt 0.567376817785989 0.9463168046977715
vt 0.5433240927493583 0.9676714937949518
vt 0.5452319578170117 0.9355625
vt 0.5452319578170117 0.9355625
vt 0.5433240927493583 0.9676714937949518
vt 0.5219694036521779 0.9436187687583211
vt 0.450521875 0.49206249999999996
vt 0.478515625 0.52005625
vt 0.438928125 0.52005625
vt 0.438928125 0.52005625
vt 0.478515625 0.52005625
vt 0.450521875 0.54805
vt 0.450521875 0.54805
vt 0.478515625 0.52005625
vt 0.478515625 0.55964375
vt 0.478515625 0.55964375
vt 0.478515625 0.52005625
vt 0.506509375 0.54805
vt 0.506509375 0.54805
vt 0.478515625 0.52005625
vt 0.518103125 0.52005625
vt 0.518103125 0.52005625
vt 0.478515625 0.52005625
vt 0.506509375 0.49206249999999996
vt 0.506509375 0.49206249999999996
vt 0.478515625 0.52005625
vt 0.478515625 0.48046875
vn 0 -1 0
vn 0.9318587718218881 0.3628212085567799 0
vn 0 0 1
vn 1 0 0
vn 0.8188855172291649 0 0.5739568883394667
vn 0.8188859004293666 0 -0.5739563416131801
vn 0 0 -1
vn 0 1 0
vn 0.7369372711611117 0.5595869183372737 0.37919116445324447
vn 0.5786137869538598 0.759318791568056 -0.29772648239372396
vn 0 0.6963732395936922 -0.7176798110423522
vn 0.6435853776657254 0.7653743277997151 0
vn -8.240455605573176e-7 0.5052253026278765 0.8629874817075226
vn 0.7542686735274655 0.5295747793145346 -0.38810993448903075
vn -1 0 0
vn -9.305739887116532e-7 0.2241697040054013 0.9745501238034219
vn 0 0.5193971230536351 -0.8545329885754014
vn 0.8203655125832714 0.3857665442231392 0.4221191764444292
vn 0.4722339575531025 0.8473204019740549 0.2429881185001868
vn 0.42805568752196915 0.8791223958056227 -0.20955224067777536
vn 0.0000024128094532008064 0.5004603414249634 -0.8657594623537114
vn 0.4964640318154113 0.8680572936814634 0
vn 0 0.620807178733469 0.7839632943148491
vn 0 1 0
vn 0 -1 0
vn 0 -1 0
vn -0.931858480046778 0.3628219579420583 0
vn 0 0 1
vn -1 0 0
vn -0.8188859004293665 0 0.5739563416131802
vn -0.8188859004293666 0 -0.5739563416131801
vn 0 0 -1
vn 0 1 0
vn -0.6116363453436547 0.6649220235016746 0.42869532737959265
vn -0.5990332896805882 0.6818175256260967 -0.4198618577622403
vn 0 0.6963732395936921 -0.7176798110423522
vn -0.6435853776657253 0.765374327799715 0
vn 0 0.5052253053992873 0.8629874800854281
vn -0.6670916786868187 0.509621864913582 -0.5433914307649736
vn 1 0 0
vn 0 0.22416919094854582 0.9745502418190017
vn 0 0.5193971230536351 -0.8545329885754014
vn -0.7714966763635259 0.41191917230235686 0.4848870732962208
vn -0.42285859134525366 0.8663476793520892 0.26576739869058014
vn -0.45136538766332407 0.8130742441375062 -0.36766773089266397
vn 0 0.5004547269444533 -0.8657627078356708
vn -0.49646403181541127 0.8680572936814634 0
vn 0 0.620807178733469 0.7839632943148491
vn 0 1 0
vn 0 -1 0
vn 0 0 -1
vn -0.6850235500961783 0.7285209233876737 0
vn 0 -1 0
vn 0 1 0
vn 0 0 1
vn -0.9240174772437889 0.3823502344029935 0
vn 0 0 -1
vn 0 0 1
vn 0.7743205566726118 -0.6327935488879579 0
vn -0.9770966616385302 0.21279594407516347 0
vn 0 0 -1
vn 0 0 1
vn 0.8929473203153551 -0.4501611746270741 0
vn 0.0177932031459517 0.9998416884296268 0
vn 0 0 -1
vn 0 0 1
vn 0.9939254772095026 -0.11005519412486876 0
vn 0 0 -1
vn 0.6850235500961783 0.7285209233876737 0
vn 0 -1 0
vn 0 1 0
vn 0 0 1
vn 0.9240174772437889 0.3823502344029935 0
vn 0 0 -1
vn 0 0 1
vn -0.7743205566726118 -0.6327935488879579 0
vn 0.9770966616385302 0.21279594407516347 0
vn 0 0 -1
vn 0 0 1
vn -0.8929473203153551 -0.4501611746270741 0
vn -0.0177932031459517 0.9998416884296268 0
vn 0 0 -1
vn 0 0 1
vn -0.9939254772095026 -0.11005519412486876 0
vn 0 0 -1
vn -0.3636758781070055 0 -0.931525552887895
vn -0.2251205250423219 -0.9743309238675889 0
vn 0 0 -1
vn 0 0 -1
vn 0 0 -1
vn -0.9542674723031288 -0.2989541625470325 0
vn -0.2532743981888586 -0.9673944796317951 0
vn -0.9572617916269671 0.2892228592126305 0
vn 0.9572616244476518 -0.2892234125375106 0
vn 0.4158968850252867 0.9094117774838106 0
vn 0.9837198729575246 0.17970868523371858 0
vn 0.05133006004261996 0.9986817435680003 0
vn 0.004112347137873417 -0.9999915442647592 0
vn 0.21677728803887225 0.9762210853031765 0
vn 0 0 -1
vn 0.4418851269378871 0.11775752640942772 -0.8893091136185552
vn 0.22512052504232194 -0.974330923867589 0
vn 0 0 -1
vn 0 0 -1
vn 0 0 -1
vn 0.9542674723031288 -0.2989541625470325 0
vn 0.2532743981888586 -0.9673944796317951 0
vn 0.9572617916269671 0.2892228592126305 0
vn -0.9572616244476518 -0.2892234125375106 0
vn -0.4158968850252867 0.9094117774838106 0
vn -0.9837198729575246 0.17970868523371858 0
vn -0.05133006004261996 0.9986817435680003 0
vn -0.004112347137873417 -0.9999915442647592 0
vn -0.21677728803887225 0.9762210853031765 0
vn 0 0 1
vn -0.4418851269378871 0.11775752640942772 0.8893091136185552
vn -0.22512052504232194 -0.974330923867589 0
vn 0 0 1
vn 0 0 1
vn 0 0 1
vn -0.9542674723031288 -0.2989541625470325 0
vn -0.2532743981888586 -0.9673944796317951 0
vn -0.9572617916269671 0.2892228592126305 0
vn 0.9572616244476518 -0.2892234125375106 0
vn 0.4158968850252867 0.9094117774838106 0
vn 0.9837198729575246 0.17970868523371858 0
vn 0.05133006004261996 0.9986817435680003 0
vn 0.004112347137873417 -0.9999915442647592 0
vn 0.21677728803887225 0.9762210853031765 0
vn 0 0 1
vn 0.3636758781070055 0 0.931525552887895
vn 0.2251205250423219 -0.9743309238675889 0
vn 0 0 1
vn 0 0 1
vn 0 0 1
vn 0.9542674723031288 -0.2989541625470325 0
vn 0.2532743981888586 -0.9673944796317951 0
vn 0.9572617916269671 0.2892228592126305 0
vn -0.9572616244476518 -0.2892234125375106 0
vn -0.4158968850252867 0.9094117774838106 0
vn -0.9837198729575246 0.17970868523371858 0
vn -0.05133006004261996 0.9986817435680003 0
vn -0.004112347137873417 -0.9999915442647592 0
vn -0.21677728803887225 0.9762210853031765 0
vn 0.3826828225754198 -0.7900949703435887 -0.47885675848156717
vn 0.9238797035983205 -0.327267609576621 -0.19834869548621661
vn 0.9238797035983205 0.3272676095766211 0.19834869548621706
vn 0.3826828225754199 0.7900949703435884 0.47885675848156745
vn -0.3826828225754199 0.7900949703435884 0.47885675848156745
vn -0.9238797035983204 0.32726760957662115 0.1983486954862169
vn 0 0.518311947601122 -0.8551916305565275
vn -0.9238797035983205 -0.3272676095766208 -0.1983486954862169
vn -0.38268282257541975 -0.7900949703435887 -0.47885675848156717
vn -9.279362835818829e-7 -0.5183113729570287 0.8551919788343078
vn 0.21170744983064527 -0.005323151140851426 -0.9773185866175556
vn 0.5346879865385009 0.23328493738910333 -0.8122111148209965
vn 0.5708905659040687 0.6097420780783881 -0.5498168422141879
vn 0.24793809271034636 0.90671167917349 -0.34117536991046976
vn -0.24793919025325137 0.9067126807982919 -0.34117191035625594
vn -0.5708889648509466 0.6097422168691607 -0.5498183507113016
vn -0.5346863558555217 0.23328616426249751 -0.8122118359305247
vn -0.21170831429980358 -0.0053257134910438715 -0.977318385395541
vn 0 0.5183109731576021 -0.855192221143539
vn -3.3435054930366275e-7 0.5183112590900502 -0.8551920478467836
vn 3.343496881671567e-7 0.518311259091828 -0.855192047845706
vn 0 0.5183109731576022 -0.8551922211435389
vn 0 0.518311947601122 -0.8551916305565272
vn 8.050924777558728e-7 0.5183112590886594 -0.8551920478473126
vn -8.050945513264326e-7 0.5183112590929405 -0.855192047844718
vn -1.635104650971032e-7 -0.5183120266773026 0.8551915826302551
vn -1.6351207892617087e-7 -0.5183119108356105 0.8551916528392401
vn 7.924708154994641e-7 -0.5183110932723568 0.8551921483445615
vn -7.924708154994641e-7 -0.5183110932723568 0.8551921483445615
vn 1.6351207893464205e-7 -0.5183119108356105 0.8551916528392401
vn 1.635104650886358e-7 -0.5183120266773026 0.8551915826302551
vn 9.279362835818827e-7 -0.5183113729570287 0.8551919788343076
usemtl m_a407d0bb-3222-c59f-84cf-6375fd8ccfb8
f 1/1/1 2/2/1 3/3/1 4/4/1
f 5/5/2 6/6/2 7/7/2 8/8/2
f 4/9/3 9/10/3 10/11/3 1/12/3
f 11/13/4 12/14/4 13/15/4 14/16/4
f 14/17/5 13/18/5 9/19/5 4/20/5
f 12/21/6 11/22/6 3/23/6 15/24/6
f 2/25/7 16/26/7 15/27/7 3/28/7
f 17/29/8 18/30/8 19/31/8 20/32/8
f 5/33/9 21/34/9 9/35/9 13/36/9
f 22/37/10 6/38/10 12/39/10 15/40/10
f 23/41/11 22/42/11 15/43/11 16/44/11
f 6/45/12 5/46/12 13/47/12 12/48/12
f 21/49/13 24/50/13 10/51/13 9/52/13
f 6/53/14 22/54/14 25/55/14 7/56/14
f 23/57/15 24/58/15 26/59/15 27/60/15
f 24/61/16 21/62/16 28/63/16 26/64/16
f 22/65/17 23/66/17 27/67/17 25/68/17
f 21/69/18 5/70/18 8/71/18 28/72/18
f 29/73/19 19/74/19 28/75/19 8/76/19
f 20/77/20 30/78/20 7/79/20 25/80/20
f 17/81/21 20/82/21 25/83/21 27/84/21
f 30/85/22 29/86/22 8/87/22 7/88/22
f 19/89/23 18/90/23 26/91/23 28/92/23
f 20/93/24 19/94/24 29/95/24 30/96/24
f 4/97/25 3/98/25 11/99/25 14/100/25
f 1/101/26 31/102/26 32/103/26 2/104/26
f 33/105/27 34/106/27 35/107/27 36/108/27
f 31/109/28 1/110/28 10/111/28 37/112/28
f 38/113/29 39/114/29 40/115/29 41/116/29
f 39/117/30 31/118/30 37/119/30 40/120/30
f 41/121/31 42/122/31 32/123/31 38/124/31
f 2/125/32 32/126/32 42/127/32 16/128/32
f 43/129/33 44/130/33 45/131/33 46/132/33
f 33/133/34 40/134/34 37/135/34 47/136/34
f 48/137/35 42/138/35 41/139/35 36/140/35
f 49/141/36 16/142/36 42/143/36 48/144/36
f 36/145/37 41/146/37 40/147/37 33/148/37
f 47/149/38 37/150/38 10/151/38 50/152/38
f 36/153/39 35/154/39 51/155/39 48/156/39
f 49/157/40 52/158/40 53/159/40 50/160/40
f 50/161/41 53/162/41 54/163/41 47/164/41
f 48/165/42 51/166/42 52/167/42 49/168/42
f 47/169/43 54/170/43 34/171/43 33/172/43
f 55/173/44 34/174/44 54/175/44 45/176/44
f 44/177/45 51/178/45 35/179/45 56/180/45
f 43/181/46 52/182/46 51/183/46 44/184/46
f 56/185/47 35/186/47 34/187/47 55/188/47
f 45/189/48 54/190/48 53/191/48 46/192/48
f 44/193/49 56/194/49 55/195/49 45/196/49
f 31/197/50 39/198/50 38/199/50 32/200/50
f 57/201/51 58/202/51 59/203/51 60/204/51
f 59/205/52 61/206/52 62/207/52 63/208/52
f 57/209/53 60/210/53 64/211/53 65/212/53
f 59/213/54 58/214/54 66/215/54 61/216/54
f 64/217/55 61/218/55 66/219/55 65/220/55
f 63/221/56 62/222/56 67/223/56 68/224/56
f 60/225/57 59/226/57 63/227/57 69/228/57
f 61/229/58 64/230/58 70/231/58 62/232/58
f 64/233/59 60/234/59 69/235/59 70/236/59
f 68/237/60 67/238/60 71/239/60 72/240/60
f 69/241/61 63/242/61 68/243/61 73/244/61
f 62/245/62 70/246/62 74/247/62 67/248/62
f 70/249/63 69/250/63 73/251/63 74/252/63
f 75/253/64 72/254/64 71/255/64 76/256/64
f 73/257/65 68/258/65 72/259/65 75/260/65
f 67/261/66 74/262/66 76/263/66 71/264/66
f 74/265/67 73/266/67 75/267/67 76/268/67
f 77/269/68 78/270/68 79/271/68 80/272/68
f 79/273/69 81/274/69 82/275/69 83/276/69
f 77/277/70 84/278/70 85/279/70 78/280/70
f 79/281/71 83/282/71 86/283/71 80/284/71
f 85/285/72 84/286/72 86/287/72 83/288/72
f 81/289/73 87/290/73 88/291/73 82/292/73
f 78/293/74 89/294/74 81/295/74 79/296/74
f 83/297/75 82/298/75 90/299/75 85/300/75
f 85/301/76 90/302/76 89/303/76 78/304/76
f 87/305/77 91/306/77 92/307/77 88/308/77
f 89/309/78 93/310/78 87/311/78 81/312/78
f 82/313/79 88/314/79 94/315/79 90/316/79
f 90/317/80 94/318/80 93/319/80 89/320/80
f 95/321/81 96/322/81 92/323/81 91/324/81
f 93/325/82 95/326/82 91/327/82 87/328/82
f 88/329/83 92/330/83 96/331/83 94/332/83
f 94/333/84 96/334/84 95/335/84 93/336/84
f 97/337/85 98/338/85 99/339/85 100/340/85
f 100/341/86 99/342/86 101/343/86 102/344/86
f 103/345/87 100/346/87 102/347/87 104/348/87
f 105/349/88 106/350/88 107/351/88 108/352/88
f 105/353/89 101/354/89 109/355/89 106/356/89
f 102/357/90 101/358/90 105/359/90
f 104/360/91 102/361/91 105/362/91 110/363/91
f 111/364/92 108/365/92 107/366/92 112/367/92
f 110/368/93 105/369/93 108/370/93 111/371/93
f 106/372/94 113/373/94 112/374/94 107/375/94
f 101/376/95 114/377/95 115/378/95 109/379/95
f 106/380/96 109/381/96 115/382/96 113/383/96
f 99/384/97 98/385/97 116/386/97 117/387/97
f 97/388/98 100/389/98 103/390/98 118/391/98
f 99/392/99 117/393/99 114/394/99 101/395/99
f 97/396/100 119/397/100 120/398/100 98/399/100
f 119/400/101 121/401/101 122/402/101 120/403/101
f 123/404/102 124/405/102 121/406/102 119/407/102
f 125/408/103 126/409/103 127/410/103 128/411/103
f 125/412/104 128/413/104 129/414/104 122/415/104
f 121/416/105 125/417/105 122/418/105
f 124/419/106 130/420/106 125/421/106 121/422/106
f 131/423/107 132/424/107 127/425/107 126/426/107
f 130/427/108 131/428/108 126/429/108 125/430/108
f 128/431/109 127/432/109 132/433/109 133/434/109
f 122/435/110 129/436/110 134/437/110 135/438/110
f 128/439/111 133/440/111 134/441/111 129/442/111
f 120/443/112 136/444/112 116/445/112 98/446/112
f 97/447/113 118/448/113 123/449/113 119/450/113
f 120/451/114 122/452/114 135/453/114 136/454/114
f 137/455/115 138/456/115 139/457/115 140/458/115
f 138/459/116 141/460/116 142/461/116 139/462/116
f 143/463/117 144/464/117 141/465/117 138/466/117
f 145/467/118 146/468/118 147/469/118 148/470/118
f 145/471/119 148/472/119 149/473/119 142/474/119
f 141/475/120 145/476/120 142/477/120
f 144/478/121 150/479/121 145/480/121 141/481/121
f 151/482/122 152/483/122 147/484/122 146/485/122
f 150/486/123 151/487/123 146/488/123 145/489/123
f 148/490/124 147/491/124 152/492/124 153/493/124
f 142/494/125 149/495/125 154/496/125 155/497/125
f 148/498/126 153/499/126 154/500/126 149/501/126
f 139/502/127 156/503/127 157/504/127 140/505/127
f 137/506/128 158/507/128 143/508/128 138/509/128
f 139/510/129 142/511/129 155/512/129 156/513/129
f 137/514/130 140/515/130 159/516/130 160/517/130
f 160/518/131 159/519/131 161/520/131 162/521/131
f 163/522/132 160/523/132 162/524/132 164/525/132
f 165/526/133 166/527/133 167/528/133 168/529/133
f 165/530/134 161/531/134 169/532/134 166/533/134
f 162/534/135 161/535/135 165/536/135
f 164/537/136 162/538/136 165/539/136 170/540/136
f 171/541/137 168/542/137 167/543/137 172/544/137
f 170/545/138 165/546/138 168/547/138 171/548/138
f 166/549/139 173/550/139 172/551/139 167/552/139
f 161/553/140 174/554/140 175/555/140 169/556/140
f 166/557/141 169/558/141 175/559/141 173/560/141
f 159/561/142 140/562/142 157/563/142 176/564/142
f 137/565/143 160/566/143 163/567/143 158/568/143
f 159/569/144 176/570/144 174/571/144 161/572/144
f 177/573/145 178/574/145 179/575/145 180/576/145
f 180/577/146 179/578/146 181/579/146 182/580/146
f 182/581/147 181/582/147 183/583/147 184/584/147
f 184/585/148 183/586/148 185/587/148 186/588/148
f 186/589/149 185/590/149 187/591/149 188/592/149
f 188/593/150 187/594/150 189/595/150 190/596/150
f 191/597/151 192/598/151 193/599/151
f 190/600/152 189/601/152 194/602/152 195/603/152
f 195/604/153 194/605/153 178/606/153 177/607/153
f 177/608/154 196/609/154 195/610/154
f 197/611/155 191/612/155 179/613/155 178/614/155
f 191/615/156 193/616/156 181/617/156 179/618/156
f 193/619/157 198/620/157 183/621/157 181/622/157
f 198/623/158 199/624/158 185/625/158 183/626/158
f 199/627/159 200/628/159 187/629/159 185/630/159
f 200/631/160 201/632/160 189/633/160 187/634/160
f 201/635/161 202/636/161 194/637/161 189/638/161
f 202/639/162 197/640/162 178/641/162 194/642/162
f 193/643/163 192/644/163 198/645/163
f 198/646/164 192/647/164 199/648/164
f 199/649/165 192/650/165 200/651/165
f 200/652/166 192/653/166 201/654/166
f 201/655/167 192/656/167 202/657/167
f 202/658/168 192/659/168 197/660/168
f 197/661/169 192/662/169 191/663/169
f 195/664/170 196/665/170 190/666/170
f 190/667/171 196/668/171 188/669/171
f 188/670/172 196/671/172 186/672/172
f 186/673/173 196/674/173 184/675/173
f 184/676/174 196/677/174 182/678/174
f 182/679/175 196/680/175 180/681/175
f 180/682/176 196/683/176 177/684/176