# Made in Blockbench 5.2.2
mtllib vendingmachine.mtl

o VendingMachine
v 0.121260625 0.755396875 0.14090125
v -0.1 0.755396875 0.14090125
v -0.1 0.755396875 0.166333125
v 0.1 0.755396875 0.166333125
v 0.1 0.276436875 0.166333125
v -0.1 0.276436875 0.166333125
v -0.1 0.276436875 -0.107734375
v -0.1 0.755396875 -0.107734375
v -0.1 0.755396875 -0.133166875
v -0.1 0.276436875 -0.133166875
v -0.1 0.0502425 0.14090125
v 0.121260625 0.0502425 0.14090125
v 0.1 0.0502425 0.166333125
v -0.1 0.0502425 0.166333125
v 0.121260625 0.276436875 0.14090125
v -0.1 0.755396875 -0.200775625
v -0.1 0.276436875 -0.200775625
v 0.1 0.755396875 -0.200775625
v 0.1 0.276436875 -0.200775625
v 0.1 0.0502425 -0.133166875
v -0.1 0.0502425 -0.133166875
v -0.1 0.0502425 -0.200775625
v 0.1 0.0502425 -0.200775625
v 0.1 0.755396875 -0.133166875
v 0.1 0.174560625 -0.133166875
v 0.1 0.174560625 -0.200775625
v 0.1 0.276436875 -0.133166875
v 0.121260625 0.755396875 -0.107734375
v 0.121260625 0.276436875 -0.107734375
v 0.121260625 0.0502425 -0.107734375
v -0.1 0.0502425 -0.107734375
v -0.1 0.276436875 0.14090125
v -0.1 0.174560625 0.14090125
v -0.1 0.174560625 -0.107734375
v -0.1 0.174560625 0.166333125
v 0.121260625 0.202673125 0.081831875
v 0.121260625 0.202673125 -0.048665
v 0.020780625 0.202673125 -0.048665
v 0.020780625 0.202673125 0.081831875
v 0.121260625 0.174560625 -0.107734375
v -0.1 0.174560625 -0.200775625
v -0.1 0.174560625 -0.133166875
v 0.121260625 0.174560625 0.14090125
v 0.1 0.174560625 0.166333125
v 0.121260625 0.24832375 0.081831875
v 0.121260625 0.24832375 -0.048665
v 0.020780625 0.24832375 -0.048665
v 0.020780625 0.24832375 0.081831875
vt 0.26820625 0.4229125
vt 0.157575 0.4229125
vt 0.157575 0.410196875
vt 0.257575 0.410196875
vt 0.47578125 0.76051875
vt 0.47578125 1
vt 0.37578125 1
vt 0.37578125 0.76051875
vt 0.0465390625 0.76051875
vt 0.0465390625 1
vt 0.0338234375 1
vt 0.0338234375 0.76051875
vt 0.313825 0.58099375
vt 0.42445625 0.58099375
vt 0.413825 0.593709375
vt 0.313825 0.593709375
vt 0.58203125 0.35426875
vt 0.58203125 0.59375
vt 0.565459375 0.59375
vt 0.565459375 0.35426875
vt 0.0338234375 0.76051875
vt 0.0338234375 1
vt 0.0000203125 1
vt 0.0000203125 0.76051875
vt 0.10078125 0.35426875
vt 0.10078125 0.59375
vt 0.00078125 0.59375
vt 0.00078125 0.35426875
vt 0.413825 0.44395937500000004
vt 0.313825 0.44395937500000004
vt 0.313825 0.41015625
vt 0.413825 0.41015625
vt 0.157575 0.5599468750000001
vt 0.257575 0.5599468750000001
vt 0.257575 0.59375
vt 0.157575 0.59375
vt 0.4694265625 0.30333125000000005
vt 0.4694265625 0.24117187500000004
vt 0.5032296875 0.24117187500000004
vt 0.5032296875 0.30333125000000005
vt 0.547825 0.76051875
vt 0.547825 1
vt 0.53125 1
vt 0.53125 0.76051875
vt 0.343409375 0.76051875
vt 0.343409375 1
vt 0.219090625 1
vt 0.219090625 0.76051875
vt 0.313825 0.44395937500000004
vt 0.413825 0.44395937500000004
vt 0.42445625 0.45667500000000005
vt 0.313825 0.45667500000000005
vt 0.313825 0.45667500000000005
vt 0.42445625 0.45667500000000005
vt 0.42445625 0.58099375
vt 0.313825 0.58099375
vt 0.1835734375 0.76051875
vt 0.1835734375 1
vt 0.1708578125 1
vt 0.1708578125 0.76051875
vt 0.1708578125 0.76051875
vt 0.1708578125 1
vt 0.0465390625 1
vt 0.0465390625 0.76051875
vt 0.257575 0.5599468750000001
vt 0.157575 0.5599468750000001
vt 0.157575 0.5472312500000001
vt 0.26820625 0.5472312500000001
vt 0.26820625 0.5472312500000001
vt 0.157575 0.5472312500000001
vt 0.157575 0.4229125
vt 0.26820625 0.4229125
vt 0.1708578125 0.70958125
vt 0.1708578125 0.76051875
vt 0.0465390625 0.76051875
vt 0.0465390625 0.70958125
vt 0.1835734375 0.70958125
vt 0.1835734375 0.76051875
vt 0.1708578125 0.76051875
vt 0.1708578125 0.70958125
vt 0.64453125 0.93359375
vt 0.64453125 1
vt 0.59375 1
vt 0.59375 0.93359375
vt 0.547825 0.70958125
vt 0.547825 0.76051875
vt 0.53125 0.76051875
vt 0.53125 0.70958125
vt 0.4694265625 0.59375
vt 0.4694265625 0.35426875
vt 0.5032296875 0.35426875
vt 0.5032296875 0.59375
vt 0.10078125 0.30333125000000005
vt 0.10078125 0.35426875
vt 0.00078125 0.35426875
vt 0.00078125 0.30333125000000005
vt 0.0338234375 0.70958125
vt 0.0338234375 0.76051875
vt 0.0000203125 0.76051875
vt 0.0000203125 0.70958125
vt 0.58203125 0.30333125000000005
vt 0.58203125 0.35426875
vt 0.565459375 0.35426875
vt 0.565459375 0.30333125000000005
vt 0.0465390625 0.70958125
vt 0.0465390625 0.76051875
vt 0.0338234375 0.76051875
vt 0.0338234375 0.70958125
vt 0.47578125 0.70958125
vt 0.47578125 0.76051875
vt 0.37578125 0.76051875
vt 0.37578125 0.70958125
vt 0.47578125 0.647421875
vt 0.47578125 0.70958125
vt 0.37578125 0.70958125
vt 0.37578125 0.647421875
vt 0.0465390625 0.647421875
vt 0.0465390625 0.70958125
vt 0.0338234375 0.70958125
vt 0.0338234375 0.647421875
vt 0.58203125 0.24117187500000004
vt 0.58203125 0.30333125000000005
vt 0.565459375 0.30333125000000005
vt 0.565459375 0.24117187500000004
vt 0.0338234375 0.647421875
vt 0.0338234375 0.70958125
vt 0.0000203125 0.70958125
vt 0.0000203125 0.647421875
vt 0.10078125 0.24117187500000004
vt 0.10078125 0.30333125000000005
vt 0.00078125 0.30333125000000005
vt 0.00078125 0.24117187500000004
vt 0.547825 0.647421875
vt 0.547825 0.70958125
vt 0.53125 0.70958125
vt 0.53125 0.647421875
vt 0.343409375 0.647421875
vt 0.343409375 0.70958125
vt 0.219090625 0.70958125
vt 0.219090625 0.647421875
vt 0.1835734375 0.647421875
vt 0.1835734375 0.70958125
vt 0.1708578125 0.70958125
vt 0.1708578125 0.647421875
vt 0.1708578125 0.647421875
vt 0.1708578125 0.70958125
vt 0.0465390625 0.70958125
vt 0.0465390625 0.647421875
vt 0.4694265625 0.35426875
vt 0.4694265625 0.30333125000000005
vt 0.5032296875 0.30333125000000005
vt 0.5032296875 0.35426875
vt 0.248625 0.7464625
vt 0.313871875 0.7464625
vt 0.343409375 0.76051875
vt 0.219090625 0.76051875
vt 0.313871875 0.7464625
vt 0.313871875 0.7236374999999999
vt 0.343409375 0.70958125
vt 0.343409375 0.76051875
vt 0.248625 0.7236374999999999
vt 0.248625 0.7464625
vt 0.219090625 0.76051875
vt 0.219090625 0.70958125
vt 0.313871875 0.7236374999999999
vt 0.248625 0.7236374999999999
vt 0.219090625 0.70958125
vt 0.343409375 0.70958125
vt 0.66015625 0.7265625
vt 0.66015625 0.75
vt 0.59375 0.75
vt 0.59375 0.7265625
vt 0.64453125 0.6640625
vt 0.64453125 0.6875
vt 0.59375 0.6875
vt 0.59375 0.6640625
vt 0.15625 0.375
vt 0.15625 0.3515625
vt 0.20703125 0.3515625
vt 0.20703125 0.375
vt 0.64453125 0.80859375
vt 0.64453125 0.875
vt 0.59375 0.875
vt 0.59375 0.80859375
vn 0 1 0
vn 0 0 1
vn -1 0 0
vn 0 -1 0
vn 0.7672204202437158 0 0.6413835254830422
vn -1 0 0
vn 0 0 -1
vn 0 -1 0
vn 0 1 0
vn 1 0 0
vn 0.7672281764252974 0 -0.6413742474555031
vn 1 0 0
vn 0 -1 0
vn 0 -1 0
vn -1 0 0
vn -1 0 0
vn 0 1 0
vn 0 1 0
vn -1 0 0
vn -1 0 0
vn 0 1 0
vn 0.7672281764252973 0 -0.6413742474555031
vn 1 0 0
vn 0 0 -1
vn -1 0 0
vn 0.7672204202437156 0 0.6413835254830423
vn -1 0 0
vn 0 0 1
vn 0 0 1
vn -1 0 0
vn 0.7672204202437156 0 0.6413835254830422
vn -1 0 0
vn 0 0 -1
vn 0.7672281764252974 0 -0.6413742474555031
vn 1 0 0
vn -1 0 0
vn -1 0 0
vn 1 0 0
vn 1 0 0
vn 1 0 0
vn 1 0 0
vn 1 0 0
vn 1 0 0
vn 0 0 1
vn 0 0 -1
vn 0 -1 0
usemtl m_4103e5e4-226b-bf2f-e7e5-8af7ea467a51
f 1/1/1 2/2/1 3/3/1 4/4/1
f 5/5/2 4/6/2 3/7/2 6/8/2
f 7/9/3 8/10/3 9/11/3 10/12/3
f 11/13/4 12/14/4 13/15/4 14/16/4
f 15/17/5 1/18/5 4/19/5 5/20/5
f 10/21/6 9/22/6 16/23/6 17/24/6
f 17/25/7 16/26/7 18/27/7 19/28/7
f 20/29/8 21/30/8 22/31/8 23/32/8
f 9/33/9 24/34/9 18/35/9 16/36/9
f 25/37/10 20/38/10 23/39/10 26/40/10
f 27/41/11 24/42/11 28/43/11 29/44/11
f 29/45/12 28/46/12 1/47/12 15/48/12
f 21/49/13 20/50/13 30/51/13 31/52/13
f 31/53/14 30/54/14 12/55/14 11/56/14
f 6/57/15 3/58/15 2/59/15 32/60/15
f 32/61/16 2/62/16 8/63/16 7/64/16
f 24/65/17 9/66/17 8/67/17 28/68/17
f 28/69/18 8/70/18 2/71/18 1/72/18
f 33/73/19 32/74/19 7/75/19 34/76/19
f 35/77/20 6/78/20 32/79/20 33/80/20
f 36/81/21 37/82/21 38/83/21 39/84/21
f 25/85/22 27/86/22 29/87/22 40/88/22
f 24/89/23 27/90/23 19/91/23 18/92/23
f 41/93/24 17/94/24 19/95/24 26/96/24
f 42/97/25 10/98/25 17/99/25 41/100/25
f 43/101/26 15/102/26 5/103/26 44/104/26
f 34/105/27 7/106/27 10/107/27 42/108/27
f 44/109/28 5/110/28 6/111/28 35/112/28
f 13/113/29 44/114/29 35/115/29 14/116/29
f 31/117/30 34/118/30 42/119/30 21/120/30
f 12/121/31 43/122/31 44/123/31 13/124/31
f 21/125/32 42/126/32 41/127/32 22/128/32
f 22/129/33 41/130/33 26/131/33 23/132/33
f 20/133/34 25/134/34 40/135/34 30/136/34
f 30/137/35 40/138/35 43/139/35 12/140/35
f 14/141/36 35/142/36 33/143/36 11/144/36
f 11/145/37 33/146/37 34/147/37 31/148/37
f 27/149/38 25/150/38 26/151/38 19/152/38
f 45/153/39 46/154/39 29/155/39 15/156/39
f 46/157/40 37/158/40 40/159/40 29/160/40
f 36/161/41 45/162/41 15/163/41 43/164/41
f 37/165/42 36/166/42 43/167/42 40/168/42
f 38/169/43 47/170/43 48/171/43 39/172/43
f 37/173/44 46/174/44 47/175/44 38/176/44
f 45/177/45 36/178/45 39/179/45 48/180/45
f 46/181/46 45/182/46 48/183/46 47/184/46