# Made in Blockbench 5.2.1
mtllib Drawer.mtl

o mesh
v 0.269361875 0.243200625 0.0875
v 0.232421875 0.02378875 -0.18703125
v 0.232421875 0.30433625 -0.18703125
v 0.232421875 0.30433625 0.18703125
v 0.232421875 0.02378875 0.18703125
v -0.21875 0 0.21875
v -0.21875 0.328125 0.21875
v -0.21875 0.328125 -0.21875
v -0.21875 0 -0.21875
v -0.21875 1.3125 0.21875
v 0.21875 1.3125 0.21875
v 0.21875 1.3125 -0.21875
v -0.21875 1.3125 -0.21875
v 0.21875 0 -0.21875
v 0.21875 0 0.21875
v 0.21875 0.328125 0.21875
v 0.21875 0.328125 -0.21875
v 0.232421875 1.28871125 0.18703125
v 0.232421875 1.00816375 0.18703125
v 0.232421875 1.00816375 -0.18703125
v 0.232421875 1.28871125 -0.18703125
v 0.232421875 0.96058625 0.18703125
v 0.232421875 0.68003875 0.18703125
v 0.232421875 0.68003875 -0.18703125
v 0.232421875 0.96058625 -0.18703125
v 0.232421875 0.63246125 0.18703125
v 0.232421875 0.35191375 0.18703125
v 0.232421875 0.35191375 -0.18703125
v 0.232421875 0.63246125 -0.18703125
v 0.21875 0.984375 -0.21875
v -0.21875 0.984375 -0.21875
v 0.21875 0.65625 -0.21875
v -0.21875 0.65625 -0.21875
v -0.21875 0.984375 0.21875
v -0.21875 0.65625 0.21875
v 0.21875 0.984375 0.21875
v 0.21875 0.65625 0.21875
v 0.21875 1.00078125 0.196875
v 0.21875 1.29609375 0.196875
v 0.21875 1.00078125 -0.196875
v 0.21875 1.29609375 -0.196875
v 0.21875 0.67265625 0.196875
v 0.21875 0.96796875 0.196875
v 0.21875 0.67265625 -0.196875
v 0.21875 0.96796875 -0.196875
v 0.21875 0.34453125 0.196875
v 0.21875 0.63984375 0.196875
v 0.21875 0.34453125 -0.196875
v 0.21875 0.63984375 -0.196875
v 0.21875 0.31171875 -0.196875
v 0.21875 0.01640625 -0.196875
v 0.21875 0.31171875 0.196875
v 0.21875 0.01640625 0.196875
v 0.205078125 1.00816375 0.18703125
v 0.205078125 1.28871125 0.18703125
v 0.205078125 1.00816375 -0.18703125
v 0.205078125 1.28871125 -0.18703125
v 0.205078125 0.68003875 0.18703125
v 0.205078125 0.96058625 0.18703125
v 0.205078125 0.68003875 -0.18703125
v 0.205078125 0.96058625 -0.18703125
v 0.205078125 0.35191375 0.18703125
v 0.205078125 0.63246125 0.18703125
v 0.205078125 0.35191375 -0.18703125
v 0.205078125 0.63246125 -0.18703125
v 0.205078125 0.30433625 -0.18703125
v 0.205078125 0.02378875 -0.18703125
v 0.205078125 0.30433625 0.18703125
v 0.205078125 0.02378875 0.18703125
v 0.284674375 1.245075625 -0.0721875
v 0.271549375 1.245075625 -0.0591025
v 0.271549375 1.245075625 0.059078125
v 0.284674375 1.245075625 0.0721875
v 0.263705625 1.227575625 0.07128125
v 0.263698125 1.245075625 0.071285
v 0.2684525 1.245075625 0.066543125
v 0.26845625 1.227575625 0.06653125
v 0.228018125 1.227575625 -0.0875
v 0.228018125 1.245075625 -0.0875
v 0.273736875 1.245075625 -0.0875
v 0.273736875 1.227575625 -0.0875
v 0.284674375 1.227575625 0.0721875
v 0.271549375 1.227575625 0.0590625
v 0.271549375 1.227575625 -0.0590625
v 0.284674375 1.227575625 -0.0721875
v 0.28158125 1.227575625 -0.07965625
v 0.26845625 1.227575625 -0.06653125
v 0.260611875 1.227575625 -0.074375
v 0.228018125 1.227575625 -0.074375
v 0.26059875 1.245075625 -0.074375
v 0.228018125 1.245075625 -0.074375
v 0.269361875 1.245075625 0.0875
v 0.256225625 1.245075625 0.074375
v 0.2280125 1.245075625 0.074375
v 0.228018125 1.245075625 0.0875
v 0.228005 1.245075625 -0.074375
v 0.28158125 1.245075625 -0.07965625
v 0.228018125 1.227575625 0.074375
v 0.256236875 1.227575625 0.074375
v 0.269361875 1.227575625 0.0875
v 0.228018125 1.227575625 0.0875
v 0.26844875 1.245075625 -0.066563125
v 0.276830625 1.245075625 0.08440625
v 0.276830625 1.227575625 0.08440625
v 0.28158125 1.227575625 0.07965625
v 0.28158125 1.245075625 0.07965625
v 0.237723125 1.22101875 -0.088156875
v 0.237723125 1.248888125 -0.088156875
v 0.237723125 1.248888125 0.087741875
v 0.237723125 1.22101875 0.087741875
v 0.239055 1.25695375 -0.091846875
v 0.225319375 1.25695375 -0.091846875
v 0.225319375 1.25695375 0.091431875
v 0.239055 1.25695375 0.091431875
v 0.239055 1.21732875 0.095806875
v 0.239055 1.25257875 0.095806875
v 0.225319375 1.25257875 0.095806875
v 0.225319375 1.21732875 0.095806875
v 0.225319375 1.21732875 -0.096221875
v 0.225319375 1.25257875 -0.096221875
v 0.239055 1.25257875 -0.096221875
v 0.239055 1.21732875 -0.096221875
v 0.239055 1.21295375 -0.091846875
v 0.225319375 1.21295375 -0.091846875
v 0.225319375 1.21295375 0.091431875
v 0.239055 1.21295375 0.091431875
v 0.239055 1.21841625 -0.093596875
v 0.239055 1.21557875 -0.09076
v 0.239055 1.25432875 -0.09076
v 0.239055 1.25149125 -0.093596875
v 0.239055 1.21557875 0.090344375
v 0.239055 1.21841625 0.093181875
v 0.239055 1.25149125 0.093181875
v 0.239055 1.25432875 0.090344375
v 0.237723125 1.218959375 -0.092284375
v 0.237723125 1.21689125 -0.09021625
v 0.237723125 1.25301625 -0.09021625
v 0.237723125 1.2509475 -0.092284375
v 0.237723125 1.21689125 0.089800625
v 0.237723125 1.218959375 0.091869375
v 0.237723125 1.2509475 0.091869375
v 0.237723125 1.25301625 0.089800625
v 0.284674375 0.916950625 -0.0721875
v 0.271549375 0.916950625 -0.0591025
v 0.271549375 0.916950625 0.059078125
v 0.284674375 0.916950625 0.0721875
v 0.263705625 0.899450625 0.07128125
v 0.263698125 0.916950625 0.071285
v 0.2684525 0.916950625 0.066543125
v 0.26845625 0.899450625 0.06653125
v 0.228018125 0.899450625 -0.0875
v 0.228018125 0.916950625 -0.0875
v 0.273736875 0.916950625 -0.0875
v 0.273736875 0.899450625 -0.0875
v 0.284674375 0.899450625 0.0721875
v 0.271549375 0.899450625 0.0590625
v 0.271549375 0.899450625 -0.0590625
v 0.284674375 0.899450625 -0.0721875
v 0.28158125 0.899450625 -0.07965625
v 0.26845625 0.899450625 -0.06653125
v 0.260611875 0.899450625 -0.074375
v 0.228018125 0.899450625 -0.074375
v 0.26059875 0.916950625 -0.074375
v 0.228018125 0.916950625 -0.074375
v 0.269361875 0.916950625 0.0875
v 0.256225625 0.916950625 0.074375
v 0.2280125 0.916950625 0.074375
v 0.228018125 0.916950625 0.0875
v 0.228005 0.916950625 -0.074375
v 0.28158125 0.916950625 -0.07965625
v 0.228018125 0.899450625 0.074375
v 0.256236875 0.899450625 0.074375
v 0.269361875 0.899450625 0.0875
v 0.228018125 0.899450625 0.0875
v 0.26844875 0.916950625 -0.066563125
v 0.276830625 0.916950625 0.08440625
v 0.276830625 0.899450625 0.08440625
v 0.28158125 0.899450625 0.07965625
v 0.28158125 0.916950625 0.07965625
v 0.237723125 0.89289375 -0.088156875
v 0.237723125 0.920763125 -0.088156875
v 0.237723125 0.920763125 0.087741875
v 0.237723125 0.89289375 0.087741875
v 0.239055 0.92882875 -0.091846875
v 0.225319375 0.92882875 -0.091846875
v 0.225319375 0.92882875 0.091431875
v 0.239055 0.92882875 0.091431875
v 0.239055 0.88920375 0.095806875
v 0.239055 0.92445375 0.095806875
v 0.225319375 0.92445375 0.095806875
v 0.225319375 0.88920375 0.095806875
v 0.225319375 0.88920375 -0.096221875
v 0.225319375 0.92445375 -0.096221875
v 0.239055 0.92445375 -0.096221875
v 0.239055 0.88920375 -0.096221875
v 0.239055 0.88482875 -0.091846875
v 0.225319375 0.88482875 -0.091846875
v 0.225319375 0.88482875 0.091431875
v 0.239055 0.88482875 0.091431875
v 0.239055 0.89029125 -0.093596875
v 0.239055 0.88745375 -0.09076
v 0.239055 0.92620375 -0.09076
v 0.239055 0.92336625 -0.093596875
v 0.239055 0.88745375 0.090344375
v 0.239055 0.89029125 0.093181875
v 0.239055 0.92336625 0.093181875
v 0.239055 0.92620375 0.090344375
v 0.237723125 0.890834375 -0.092284375
v 0.237723125 0.88876625 -0.09021625
v 0.237723125 0.92489125 -0.09021625
v 0.237723125 0.9228225 -0.092284375
v 0.237723125 0.88876625 0.089800625
v 0.237723125 0.890834375 0.091869375
v 0.237723125 0.9228225 0.091869375
v 0.237723125 0.92489125 0.089800625
v 0.284674375 0.588825625 -0.0721875
v 0.271549375 0.588825625 -0.0591025
v 0.271549375 0.588825625 0.059078125
v 0.284674375 0.588825625 0.0721875
v 0.263705625 0.571325625 0.07128125
v 0.263698125 0.588825625 0.071285
v 0.2684525 0.588825625 0.066543125
v 0.26845625 0.571325625 0.06653125
v 0.228018125 0.571325625 -0.0875
v 0.228018125 0.588825625 -0.0875
v 0.273736875 0.588825625 -0.0875
v 0.273736875 0.571325625 -0.0875
v 0.284674375 0.571325625 0.0721875
v 0.271549375 0.571325625 0.0590625
v 0.271549375 0.571325625 -0.0590625
v 0.284674375 0.571325625 -0.0721875
v 0.28158125 0.571325625 -0.07965625
v 0.26845625 0.571325625 -0.06653125
v 0.260611875 0.571325625 -0.074375
v 0.228018125 0.571325625 -0.074375
v 0.26059875 0.588825625 -0.074375
v 0.228018125 0.588825625 -0.074375
v 0.269361875 0.588825625 0.0875
v 0.256225625 0.588825625 0.074375
v 0.2280125 0.588825625 0.074375
v 0.228018125 0.588825625 0.0875
v 0.228005 0.588825625 -0.074375
v 0.28158125 0.588825625 -0.07965625
v 0.228018125 0.571325625 0.074375
v 0.256236875 0.571325625 0.074375
v 0.269361875 0.571325625 0.0875
v 0.228018125 0.571325625 0.0875
v 0.26844875 0.588825625 -0.066563125
v 0.276830625 0.588825625 0.08440625
v 0.276830625 0.571325625 0.08440625
v 0.28158125 0.571325625 0.07965625
v 0.28158125 0.588825625 0.07965625
v 0.237723125 0.56476875 -0.088156875
v 0.237723125 0.59263875 -0.088156875
v 0.237723125 0.59263875 0.087741875
v 0.237723125 0.56476875 0.087741875
v 0.239055 0.60070375 -0.091846875
v 0.225319375 0.60070375 -0.091846875
v 0.225319375 0.60070375 0.091431875
v 0.239055 0.60070375 0.091431875
v 0.239055 0.56107875 0.095806875
v 0.239055 0.59632875 0.095806875
v 0.225319375 0.59632875 0.095806875
v 0.225319375 0.56107875 0.095806875
v 0.225319375 0.56107875 -0.096221875
v 0.225319375 0.59632875 -0.096221875
v 0.239055 0.59632875 -0.096221875
v 0.239055 0.56107875 -0.096221875
v 0.239055 0.55670375 -0.091846875
v 0.225319375 0.55670375 -0.091846875
v 0.225319375 0.55670375 0.091431875
v 0.239055 0.55670375 0.091431875
v 0.239055 0.56216625 -0.093596875
v 0.239055 0.55932875 -0.09076
v 0.239055 0.59807875 -0.09076
v 0.239055 0.59524125 -0.093596875
v 0.239055 0.55932875 0.090344375
v 0.239055 0.56216625 0.093181875
v 0.239055 0.59524125 0.093181875
v 0.239055 0.59807875 0.090344375
v 0.237723125 0.562709375 -0.092284375
v 0.237723125 0.56064125 -0.09021625
v 0.237723125 0.59676625 -0.09021625
v 0.237723125 0.5946975 -0.092284375
v 0.237723125 0.56064125 0.089800625
v 0.237723125 0.562709375 0.091869375
v 0.237723125 0.5946975 0.091869375
v 0.237723125 0.59676625 0.089800625
v 0.284674375 0.260700625 -0.0721875
v 0.271549375 0.260700625 -0.0591025
v 0.271549375 0.260700625 0.059078125
v 0.284674375 0.260700625 0.0721875
v 0.263705625 0.243200625 0.07128125
v 0.263698125 0.260700625 0.071285
v 0.2684525 0.260700625 0.066543125
v 0.26845625 0.243200625 0.06653125
v 0.228018125 0.243200625 -0.0875
v 0.228018125 0.260700625 -0.0875
v 0.273736875 0.260700625 -0.0875
v 0.273736875 0.243200625 -0.0875
v 0.284674375 0.243200625 0.0721875
v 0.271549375 0.243200625 0.0590625
v 0.271549375 0.243200625 -0.0590625
v 0.284674375 0.243200625 -0.0721875
v 0.28158125 0.243200625 -0.07965625
v 0.26845625 0.243200625 -0.06653125
v 0.260611875 0.243200625 -0.074375
v 0.228018125 0.243200625 -0.074375
v 0.26059875 0.260700625 -0.074375
v 0.228018125 0.260700625 -0.074375
v 0.269361875 0.260700625 0.0875
v 0.256225625 0.260700625 0.074375
v 0.2280125 0.260700625 0.074375
v 0.228018125 0.260700625 0.0875
v 0.228005 0.260700625 -0.074375
v 0.28158125 0.260700625 -0.07965625
v 0.228018125 0.243200625 0.074375
v 0.256236875 0.243200625 0.074375
v 0.228018125 0.243200625 0.0875
v 0.26844875 0.260700625 -0.066563125
v 0.276830625 0.260700625 0.08440625
v 0.276830625 0.243200625 0.08440625
v 0.28158125 0.243200625 0.07965625
v 0.28158125 0.260700625 0.07965625
v 0.237723125 0.23664375 -0.088156875
v 0.237723125 0.26451375 -0.088156875
v 0.237723125 0.26451375 0.087741875
v 0.237723125 0.23664375 0.087741875
v 0.239055 0.27257875 -0.091846875
v 0.225319375 0.27257875 -0.091846875
v 0.225319375 0.27257875 0.091431875
v 0.239055 0.27257875 0.091431875
v 0.239055 0.23295375 0.095806875
v 0.239055 0.26820375 0.095806875
v 0.225319375 0.26820375 0.095806875
v 0.225319375 0.23295375 0.095806875
v 0.225319375 0.23295375 -0.096221875
v 0.225319375 0.26820375 -0.096221875
v 0.239055 0.26820375 -0.096221875
v 0.239055 0.23295375 -0.096221875
v 0.239055 0.22857875 -0.091846875
v 0.225319375 0.22857875 -0.091846875
v 0.225319375 0.22857875 0.091431875
v 0.239055 0.22857875 0.091431875
v 0.239055 0.23404125 -0.093596875
v 0.239055 0.23120375 -0.09076
v 0.239055 0.26995375 -0.09076
v 0.239055 0.26711625 -0.093596875
v 0.239055 0.23120375 0.090344375
v 0.239055 0.23404125 0.093181875
v 0.239055 0.26711625 0.093181875
v 0.239055 0.26995375 0.090344375
v 0.237723125 0.234584375 -0.092284375
v 0.237723125 0.23251625 -0.09021625
v 0.237723125 0.26864125 -0.09021625
v 0.237723125 0.2665725 -0.092284375
v 0.237723125 0.23251625 0.089800625
v 0.237723125 0.234584375 0.091869375
v 0.237723125 0.2665725 0.091869375
v 0.237723125 0.26864125 0.089800625
vt 0.6083984375 0.8994140625
vt 0.6083984375 1
vt 0.474609375 1
vt 0.474609375 0.8994140625
vt 0.15625 0.53125
vt 0.15625 0.6484375
vt 0 0.6484375
vt 0 0.53125
vt 0.158203125 0.373046875
vt 0.314453125 0.373046875
vt 0.314453125 0.529296875
vt 0.158203125 0.529296875
vt 0.47265625 0.373046875
vt 0.47265625 0.529296875
vt 0.31640625 0.529296875
vt 0.31640625 0.373046875
vt 0.314453125 0.53125
vt 0.314453125 0.6484375
vt 0.158203125 0.6484375
vt 0.158203125 0.53125
vt 0.47265625 0.53125
vt 0.47265625 0.6484375
vt 0.31640625 0.6484375
vt 0.31640625 0.53125
vt 0.474609375 0.896484375
vt 0.474609375 0.7958984375
vt 0.6083984375 0.7958984375
vt 0.6083984375 0.896484375
vt 0.474609375 0.79296875
vt 0.474609375 0.6923828125
vt 0.6083984375 0.6923828125
vt 0.6083984375 0.79296875
vt 0.474609375 0.689453125
vt 0.474609375 0.5888671875
vt 0.6083984375 0.5888671875
vt 0.6083984375 0.689453125
vt 0.31640625 1
vt 0.31640625 0.8828125
vt 0.47265625 0.8828125
vt 0.47265625 1
vt 0.31640625 0.8828125
vt 0.31640625 0.765625
vt 0.47265625 0.765625
vt 0.47265625 0.8828125
vt 0.31640625 0.765625
vt 0.31640625 0.6484375
vt 0.47265625 0.6484375
vt 0.47265625 0.765625
vt 0 1
vt 0 0.8828125
vt 0.15625 0.8828125
vt 0.15625 1
vt 0 0.8828125
vt 0 0.765625
vt 0.15625 0.765625
vt 0.15625 0.8828125
vt 0 0.765625
vt 0 0.6484375
vt 0.15625 0.6484375
vt 0.15625 0.765625
vt 0.158203125 1
vt 0.158203125 0.8828125
vt 0.314453125 0.8828125
vt 0.314453125 1
vt 0.158203125 0.8828125
vt 0.158203125 0.765625
vt 0.314453125 0.765625
vt 0.314453125 0.8828125
vt 0.158203125 0.765625
vt 0.158203125 0.6484375
vt 0.314453125 0.6484375
vt 0.314453125 0.765625
vt 0.0078125 0.41796875
vt 0.0078125 0.5234375
vt 0 0.529296875
vt 0 0.412109375
vt 0.1484375 0.41796875
vt 0.0078125 0.41796875
vt 0 0.412109375
vt 0.15625 0.412109375
vt 0.1484375 0.5234375
vt 0.1484375 0.41796875
vt 0.15625 0.412109375
vt 0.15625 0.529296875
vt 0.0078125 0.5234375
vt 0.1484375 0.5234375
vt 0.15625 0.529296875
vt 0 0.529296875
vt 0.0078125 0.30078125
vt 0.0078125 0.40625
vt 0 0.412109375
vt 0 0.294921875
vt 0.1484375 0.30078125
vt 0.0078125 0.30078125
vt 0 0.294921875
vt 0.15625 0.294921875
vt 0.1484375 0.40625
vt 0.1484375 0.30078125
vt 0.15625 0.294921875
vt 0.15625 0.412109375
vt 0.0078125 0.40625
vt 0.1484375 0.40625
vt 0.15625 0.412109375
vt 0 0.412109375
vt 0.0078125 0.18359375
vt 0.0078125 0.2890625
vt 0 0.294921875
vt 0 0.177734375
vt 0.1484375 0.18359375
vt 0.0078125 0.18359375
vt 0 0.177734375
vt 0.15625 0.177734375
vt 0.1484375 0.2890625
vt 0.1484375 0.18359375
vt 0.15625 0.177734375
vt 0.15625 0.294921875
vt 0.0078125 0.2890625
vt 0.1484375 0.2890625
vt 0.15625 0.294921875
vt 0 0.294921875
vt 0.1484375 0.171875
vt 0.1484375 0.06640625
vt 0.15625 0.060546875
vt 0.15625 0.177734375
vt 0.0078125 0.171875
vt 0.1484375 0.171875
vt 0.15625 0.177734375
vt 0 0.177734375
vt 0.0078125 0.06640625
vt 0.0078125 0.171875
vt 0 0.177734375
vt 0 0.060546875
vt 0.1484375 0.06640625
vt 0.0078125 0.06640625
vt 0 0.060546875
vt 0.15625 0.060546875
vt 0.60546875 0.28974609375000004
vt 0.60546875 0.38994140624999996
vt 0.599609375 0.392578125
vt 0.599609375 0.287109375
vt 0.740625 0.52734375
vt 0.60703125 0.52734375
vt 0.603515625 0.521484375
vt 0.744140625 0.521484375
vt 0.591796875 0.38994140624999996
vt 0.591796875 0.28974609375000004
vt 0.59765625 0.287109375
vt 0.59765625 0.392578125
vt 0.60703125 0.513671875
vt 0.740625 0.513671875
vt 0.744140625 0.51953125
vt 0.603515625 0.51953125
vt 0.4921875 0.28193359375000004
vt 0.4921875 0.38212890624999996
vt 0.486328125 0.384765625
vt 0.486328125 0.279296875
vt 0.740625 0.50390625
vt 0.60703125 0.50390625
vt 0.603515625 0.498046875
vt 0.744140625 0.498046875
vt 0.494140625 0.38212890624999996
vt 0.494140625 0.28193359375000004
vt 0.5 0.279296875
vt 0.5 0.384765625
vt 0.60703125 0.505859375
vt 0.740625 0.505859375
vt 0.744140625 0.51171875
vt 0.603515625 0.51171875
vt 0.61328125 0.28974609375000004
vt 0.61328125 0.38994140624999996
vt 0.607421875 0.392578125
vt 0.607421875 0.287109375
vt 0.740625 0.48828125
vt 0.60703125 0.48828125
vt 0.603515625 0.482421875
vt 0.744140625 0.482421875
vt 0.611328125 0.78251953125
vt 0.611328125 0.68232421875
vt 0.6171875 0.6796875
vt 0.6171875 0.78515625
vt 0.60703125 0.490234375
vt 0.740625 0.490234375
vt 0.744140625 0.49609375
vt 0.603515625 0.49609375
vt 0.611328125 0.99736328125
vt 0.611328125 0.89716796875
vt 0.6171875 0.89453125
vt 0.6171875 1
vt 0.60703125 0.466796875
vt 0.740625 0.466796875
vt 0.744140625 0.47265625
vt 0.603515625 0.47265625
vt 0.6171875 0.78974609375
vt 0.6171875 0.88994140625
vt 0.611328125 0.892578125
vt 0.611328125 0.787109375
vt 0.740625 0.48046875
vt 0.60703125 0.48046875
vt 0.603515625 0.474609375
vt 0.744140625 0.474609375
vt 0.58984375 0.3232421875
vt 0.58984375 0.423828125
vt 0.580078125 0.423828125
vt 0.580078125 0.3232421875
vt 0.484375 0.4521484375
vt 0.484375 0.5859375
vt 0.474609375 0.5859375
vt 0.474609375 0.4521484375
vt 0.126953125 0.521484375
vt 0.126953125 0.4208984375
vt 0.13671875 0.4208984375
vt 0.13671875 0.521484375
vt 0.49609375 0.4521484375
vt 0.49609375 0.5859375
vt 0.486328125 0.5859375
vt 0.486328125 0.4521484375
vt 0.56640625 0.4267578125
vt 0.56640625 0.52734375
vt 0.556640625 0.52734375
vt 0.556640625 0.4267578125
vt 0.5078125 0.4521484375
vt 0.5078125 0.5859375
vt 0.498046875 0.5859375
vt 0.498046875 0.4521484375
vt 0.591796875 0.52734375
vt 0.591796875 0.4267578125
vt 0.6015625 0.4267578125
vt 0.6015625 0.52734375
vt 0.51953125 0.4521484375
vt 0.51953125 0.5859375
vt 0.509765625 0.5859375
vt 0.509765625 0.4521484375
vt 0.568359375 0.52734375
vt 0.568359375 0.4267578125
vt 0.578125 0.4267578125
vt 0.578125 0.52734375
vt 0.53125 0.4521484375
vt 0.53125 0.5859375
vt 0.521484375 0.5859375
vt 0.521484375 0.4521484375
vt 0.56640625 0.3232421875
vt 0.56640625 0.423828125
vt 0.556640625 0.423828125
vt 0.556640625 0.3232421875
vt 0.54296875 0.4521484375
vt 0.54296875 0.5859375
vt 0.533203125 0.5859375
vt 0.533203125 0.4521484375
vt 0.578125 0.3232421875
vt 0.578125 0.423828125
vt 0.568359375 0.423828125
vt 0.568359375 0.3232421875
vt 0.5546875 0.4521484375
vt 0.5546875 0.5859375
vt 0.544921875 0.5859375
vt 0.544921875 0.4521484375
vt 0.580078125 0.52734375
vt 0.580078125 0.4267578125
vt 0.58984375 0.4267578125
vt 0.58984375 0.52734375
vt 0.484375 0.3154296875
vt 0.484375 0.44921875
vt 0.474609375 0.44921875
vt 0.474609375 0.3154296875
vt 0.03013916015625 0.516015625
vt 0.02545166015625 0.5113423828125
vt 0.02545166015625 0.46913496093749996
vt 0.03013916015625 0.464453125
vt 0.012294140625 0.3824215234375
vt 0.0122974609375 0.38867171874999995
vt 0.00989921875 0.388671875
vt 0.0098947265625 0.38242167968749996
vt 0.0947265625 0.431640625
vt 0.0947265625 0.4375
vt 0.078125 0.4375
vt 0.078125 0.431640625
vt 0.12388671875 0.516015625
vt 0.11919921875 0.511328125
vt 0.11919921875 0.469140625
vt 0.12388671875 0.464453125
vt 0.1227818359375 0.4617857421875
vt 0.1180943359375 0.46647324218749997
vt 0.11529296875 0.46367187499999996
vt 0.11998046875 0.458984375
vt 0.0098046875 0.505859375
vt 0.0214453125 0.505859375
vt 0.0214404296875 0.51171875
vt 0.0098046875 0.51171875
vt 0.61780126953125 0.55625
vt 0.61780126953125 0.5625
vt 0.56623876953125 0.5625
vt 0.56623876953125 0.55625
vt 0.02467041015625 0.458984375
vt 0.01997880859375 0.46367187499999996
vt 0.00990263671875 0.46367187499999996
vt 0.00990478515625 0.458984375
vt 0.00989990234375 0.516796875
vt 0.02154052734375 0.516796875
vt 0.02623291015625 0.521484375
vt 0.00990478515625 0.521484375
vt 0.080081640625 0.498046875
vt 0.0869140625 0.498046875
vt 0.0869140625 0.50390625
vt 0.080078125 0.50390625
vt 0.033203125 0.48828125
vt 0.033203125 0.482421875
vt 0.037109375 0.482421875
vt 0.037109375 0.48828125
vt 0.10365234375 0.516796875
vt 0.11373046875 0.516796875
vt 0.11841796875 0.521484375
vt 0.10365234375 0.521484375
vt 0.01518125 0.38242154296875
vt 0.025259375 0.38242154296875
vt 0.0252615234375 0.38867154296874995
vt 0.0151853515625 0.38867154296874995
vt 0.09375 0.48788431640624996
vt 0.09375 0.49413431640625005
vt 0.0898501953125 0.494140625
vt 0.08984375 0.487890625
vt 0.56095224609375 0.5625
vt 0.56095224609375 0.55625
vt 0.56335166015625 0.55625
vt 0.56335166015625 0.5625
vt 0.1210853515625 0.5203794921875
vt 0.1163978515625 0.5156919921875001
vt 0.1180943359375 0.5139955078125
vt 0.1227818359375 0.5186830078125
vt 0.11998046875 0.458984375
vt 0.11529296875 0.46367187499999996
vt 0.10365234375 0.46367187499999996
vt 0.10365234375 0.458984375
vt 0.0972478515625 0.441015625
vt 0.0972478515625 0.447265625
vt 0.0824822265625 0.447265625
vt 0.0824822265625 0.441015625
vt 0.60683994140625 0.45859375
vt 0.64902744140625 0.45859375
vt 0.64903310546875 0.46484375
vt 0.60682568359375 0.46484375
vt 0.02903427734375 0.4617857421875
vt 0.02434541015625 0.46646894531250005
vt 0.02264755859375 0.46477539062499995
vt 0.02733779296875 0.4600892578125
vt 0.03013916015625 0.464453125
vt 0.02545166015625 0.46913496093749996
vt 0.02434541015625 0.46646894531250005
vt 0.02903427734375 0.4617857421875
vt 0.01997880859375 0.46367187499999996
vt 0.02467041015625 0.458984375
vt 0.02733779296875 0.4600892578125
vt 0.02264755859375 0.46477539062499995
vt 0.11841796875 0.521484375
vt 0.11373046875 0.516796875
vt 0.1163978515625 0.5156919921875001
vt 0.1210853515625 0.5203794921875
vt 0.11919921875 0.511328125
vt 0.12388671875 0.516015625
vt 0.1227818359375 0.5186830078125
vt 0.1180943359375 0.5139955078125
vt 0.11919921875 0.469140625
vt 0.1180943359375 0.46647324218749997
vt 0.1227818359375 0.4617857421875
vt 0.12388671875 0.464453125
vt 0.02434404296875 0.51400703125
vt 0.02545166015625 0.5113423828125
vt 0.03013916015625 0.516015625
vt 0.02903427734375 0.5186830078125
vt 0.61780126953125 0.5625
vt 0.61780126953125 0.55625
vt 0.62068837890625 0.55625
vt 0.62068837890625 0.5625
vt 0.0972478515625 0.447265625
vt 0.0972478515625 0.441015625
vt 0.1001349609375 0.441015625
vt 0.1001349609375 0.447265625
vt 0.56623876953125 0.55625
vt 0.56623876953125 0.5625
vt 0.56335166015625 0.5625
vt 0.56335166015625 0.55625
vt 0.60683994140625 0.45859375
vt 0.60682568359375 0.46484375
vt 0.60393994140625 0.46484320312500005
vt 0.60395283203125 0.45859320312499996
vt 0.01518125 0.38242154296875
vt 0.0151853515625 0.38867154296874995
vt 0.0122974609375 0.38867171874999995
vt 0.012294140625 0.38242171875
vt 0.64903310546875 0.46484375
vt 0.64902744140625 0.45859375
vt 0.65191455078125 0.45859357421875
vt 0.65191943359375 0.46484357421875
vt 0.02623291015625 0.521484375
vt 0.02154052734375 0.516796875
vt 0.02434404296875 0.51400703125
vt 0.02903427734375 0.5186830078125
vt 0.65641044921875 0.396775390625
vt 0.65641044921875 0.40672890625
vt 0.59358955078125 0.40672890625
vt 0.59358955078125 0.396775390625
vt 0.1435546875 0.521484375
vt 0.138671875 0.521484375
vt 0.138671875 0.4560546875
vt 0.1435546875 0.4560546875
vt 0.1083984375 0.5009765625
vt 0.1083984375 0.513671875
vt 0.103515625 0.513671875
vt 0.103515625 0.5009765625
vt 0.1162109375 0.4951171875
vt 0.1162109375 0.5078125
vt 0.111328125 0.5078125
vt 0.111328125 0.4951171875
vt 0.103515625 0.49609375
vt 0.1083984375 0.49609375
vt 0.1083984375 0.498046875
vt 0.103515625 0.498046875
vt 0.0380859375 0.48046875
vt 0.033203125 0.48046875
vt 0.033203125 0.478515625
vt 0.0380859375 0.478515625
vt 0.009765625 0.478515625
vt 0.0146484375 0.478515625
vt 0.0146484375 0.48046875
vt 0.009765625 0.48046875
vt 0.0615234375 0.48046875
vt 0.056640625 0.48046875
vt 0.056640625 0.478515625
vt 0.0615234375 0.478515625
vt 0.078125 0.3388671875
vt 0.0830078125 0.3388671875
vt 0.0830078125 0.404296875
vt 0.078125 0.404296875
vt 0.62466201171875 0.5526427734375
vt 0.62364873046875 0.5516292968750001
vt 0.62403701171875 0.550691796875
vt 0.62559951171875 0.5522542968749999
vt 0.62364873046875 0.56546875
vt 0.62466201171875 0.5644552734375
vt 0.62559951171875 0.56484375
vt 0.62403701171875 0.56640625
vt 0.55896865234375 0.5516292968750001
vt 0.55795517578125 0.5526427734375
vt 0.55701767578125 0.5522542968749999
vt 0.55858017578125 0.550691796875
vt 0.55795517578125 0.5644552734375
vt 0.55896865234375 0.56546875
vt 0.55858017578125 0.56640625
vt 0.55701767578125 0.56484375
vt 0.62364873046875 0.5516292968750001
vt 0.55896865234375 0.5516292968750001
vt 0.55858017578125 0.550691796875
vt 0.62403701171875 0.550691796875
vt 0.55795517578125 0.5526427734375
vt 0.55795517578125 0.5644552734375
vt 0.55701767578125 0.56484375
vt 0.55701767578125 0.5522542968749999
vt 0.55896865234375 0.56546875
vt 0.62364873046875 0.56546875
vt 0.62403701171875 0.56640625
vt 0.55858017578125 0.56640625
vt 0.62466201171875 0.5644552734375
vt 0.62466201171875 0.5526427734375
vt 0.62559951171875 0.5522542968749999
vt 0.62559951171875 0.56484375
vt 0.67804734375 0.6484375
vt 0.6771654296875 0.6478775
vt 0.67735958984375 0.64720962890625
vt 0.67856927734375 0.64797775390625
vt 0.67716556640625 0.6665758203125001
vt 0.6780472265625 0.666015625
vt 0.67856921875 0.6664753125
vt 0.6773596484375 0.66724359375
vt 0.6128736328125 0.6478775
vt 0.61199171875 0.6484375
vt 0.61146978515625 0.64797775390625
vt 0.61267947265625 0.64720962890625
vt 0.61199173828125 0.666015703125
vt 0.61287376953125 0.6665758203125001
vt 0.6126796484375 0.6672437109375
vt 0.61146984375 0.6664755078125
vt 0.6771654296875 0.6478775
vt 0.6128736328125 0.6478775
vt 0.6126794921875 0.6472097265625
vt 0.6773595703125 0.6472097265625
vt 0.0810546875 0.476662890625
vt 0.0810546875 0.488087109375
vt 0.080078125 0.48828125
vt 0.080078125 0.47646875
vt 0.61287376953125 0.6665758203125001
vt 0.67716556640625 0.6665758203125001
vt 0.67735970703125 0.6672437890625
vt 0.61267962890625 0.6672437890625
vt 0.083984375 0.488087109375
vt 0.083984375 0.476662890625
vt 0.0849609375 0.47646875
vt 0.0849609375 0.48828125
vt 0.65641044921875 0.396775390625
vt 0.65714599609375 0.395301171875
vt 0.65788466796875 0.39604003906249996
vt 0.65641044921875 0.40672890625
vt 0.65788466796875 0.40746425781249995
vt 0.65714599609375 0.408203125
vt 0.59358955078125 0.396775390625
vt 0.59211533203125 0.39604003906249996
vt 0.59285419921875 0.395301171875
vt 0.59358955078125 0.40672890625
vt 0.59285419921875 0.408203125
vt 0.59211533203125 0.40746425781249995
vt 0.65641044921875 0.396775390625
vt 0.59358955078125 0.396775390625
vt 0.59285419921875 0.395301171875
vt 0.65714599609375 0.395301171875
vt 0.59358955078125 0.396775390625
vt 0.59358955078125 0.40672890625
vt 0.59211533203125 0.40746425781249995
vt 0.59211533203125 0.39604003906249996
vt 0.59358955078125 0.40672890625
vt 0.65641044921875 0.40672890625
vt 0.65714599609375 0.408203125
vt 0.59285419921875 0.408203125
vt 0.65641044921875 0.40672890625
vt 0.65641044921875 0.396775390625
vt 0.65788466796875 0.39604003906249996
vt 0.65788466796875 0.40746425781249995
vt 0.05357666015625 0.516015625
vt 0.04888916015625 0.5113423828125
vt 0.04888916015625 0.46913496093749996
vt 0.05357666015625 0.464453125
vt 0.029872265625 0.3824215234375
vt 0.0298755859375 0.38867171874999995
vt 0.02747734375 0.388671875
vt 0.0274728515625 0.38242167968749996
vt 0.1142578125 0.431640625
vt 0.1142578125 0.4375
vt 0.09765625 0.4375
vt 0.09765625 0.431640625
vt 0.50669921875 0.44375
vt 0.50201171875 0.4390625
vt 0.50201171875 0.396875
vt 0.50669921875 0.3921875
vt 0.5055943359375 0.3895201171875
vt 0.5009068359375 0.39420761718749997
vt 0.49810546875 0.39140624999999996
vt 0.50279296875 0.38671875
vt 0.0332421875 0.505859375
vt 0.0448828125 0.505859375
vt 0.0448779296875 0.51171875
vt 0.0332421875 0.51171875
vt 0.61780126953125 0.53671875
vt 0.61780126953125 0.54296875
vt 0.56623876953125 0.54296875
vt 0.56623876953125 0.53671875
vt 0.04810791015625 0.458984375
vt 0.04341630859375 0.46367187499999996
vt 0.03334013671875 0.46367187499999996
vt 0.03334228515625 0.458984375
vt 0.03333740234375 0.516796875
vt 0.04497802734375 0.516796875
vt 0.04967041015625 0.521484375
vt 0.03334228515625 0.521484375
vt 0.080081640625 0.490234375
vt 0.0869140625 0.490234375
vt 0.0869140625 0.49609375
vt 0.080078125 0.49609375
vt 0.0390625 0.48828125
vt 0.0390625 0.482421875
vt 0.04296875 0.482421875
vt 0.04296875 0.48828125
vt 0.48646484375 0.44453125000000004
vt 0.49654296875 0.44453125000000004
vt 0.50123046875 0.44921875
vt 0.48646484375 0.44921875
vt 0.032759375 0.38242154296875
vt 0.0428375 0.38242154296875
vt 0.0428396484375 0.38867154296874995
vt 0.0327634765625 0.38867154296874995
vt 0.09375 0.49764994140624996
vt 0.09375 0.5038999414062499
vt 0.0898501953125 0.50390625
vt 0.08984375 0.49765625
vt 0.56095224609375 0.54296875
vt 0.56095224609375 0.53671875
vt 0.56335166015625 0.53671875
vt 0.56335166015625 0.54296875
vt 0.5038978515625 0.4481138671875
vt 0.4992103515625 0.44342636718749995
vt 0.5009068359375 0.44172988281250003
vt 0.5055943359375 0.4464173828125
vt 0.50279296875 0.38671875
vt 0.49810546875 0.39140624999999996
vt 0.48646484375 0.39140624999999996
vt 0.48646484375 0.38671875
vt 0.1187322265625 0.441015625
vt 0.1187322265625 0.447265625
vt 0.1039666015625 0.447265625
vt 0.1039666015625 0.441015625
vt 0.60683994140625 0.448828125
vt 0.64902744140625 0.448828125
vt 0.64903310546875 0.455078125
vt 0.60682568359375 0.455078125
vt 0.05247177734375 0.4617857421875
vt 0.04778291015625 0.46646894531250005
vt 0.04608505859375 0.46477539062499995
vt 0.05077529296875 0.4600892578125
vt 0.05357666015625 0.464453125
vt 0.04888916015625 0.46913496093749996
vt 0.04778291015625 0.46646894531250005
vt 0.05247177734375 0.4617857421875
vt 0.04341630859375 0.46367187499999996
vt 0.04810791015625 0.458984375
vt 0.05077529296875 0.4600892578125
vt 0.04608505859375 0.46477539062499995
vt 0.50123046875 0.44921875
vt 0.49654296875 0.44453125000000004
vt 0.4992103515625 0.44342636718749995
vt 0.5038978515625 0.4481138671875
vt 0.50201171875 0.4390625
vt 0.50669921875 0.44375
vt 0.5055943359375 0.4464173828125
vt 0.5009068359375 0.44172988281250003
vt 0.50201171875 0.396875
vt 0.5009068359375 0.39420761718749997
vt 0.5055943359375 0.3895201171875
vt 0.50669921875 0.3921875
vt 0.04778154296875 0.51400703125
vt 0.04888916015625 0.5113423828125
vt 0.05357666015625 0.516015625
vt 0.05247177734375 0.5186830078125
vt 0.61780126953125 0.54296875
vt 0.61780126953125 0.53671875
vt 0.62068837890625 0.53671875
vt 0.62068837890625 0.54296875
vt 0.1187322265625 0.447265625
vt 0.1187322265625 0.441015625
vt 0.1216193359375 0.441015625
vt 0.1216193359375 0.447265625
vt 0.56623876953125 0.53671875
vt 0.56623876953125 0.54296875
vt 0.56335166015625 0.54296875
vt 0.56335166015625 0.53671875
vt 0.60683994140625 0.448828125
vt 0.60682568359375 0.455078125
vt 0.60393994140625 0.45507757812500005
vt 0.60395283203125 0.44882757812499996
vt 0.032759375 0.38242154296875
vt 0.0327634765625 0.38867154296874995
vt 0.0298755859375 0.38867171874999995
vt 0.029872265625 0.38242171875
vt 0.64903310546875 0.455078125
vt 0.64902744140625 0.448828125
vt 0.65191455078125 0.44882794921875
vt 0.65191943359375 0.45507794921875
vt 0.04967041015625 0.521484375
vt 0.04497802734375 0.516796875
vt 0.04778154296875 0.51400703125
vt 0.05247177734375 0.5186830078125
vt 0.07437919921875 0.392869140625
vt 0.07437919921875 0.40282265625
vt 0.01155830078125 0.40282265625
vt 0.01155830078125 0.392869140625
vt 0.0908203125 0.404296875
vt 0.0859375 0.404296875
vt 0.0859375 0.3388671875
vt 0.0908203125 0.3388671875
vt 0.0146484375 0.4912109375
vt 0.0146484375 0.50390625
vt 0.009765625 0.50390625
vt 0.009765625 0.4912109375
vt 0.0224609375 0.4912109375
vt 0.0224609375 0.50390625
vt 0.017578125 0.50390625
vt 0.017578125 0.4912109375
vt 0.017578125 0.4765625
vt 0.0224609375 0.4765625
vt 0.0224609375 0.478515625
vt 0.017578125 0.478515625
vt 0.0380859375 0.4765625
vt 0.033203125 0.4765625
vt 0.033203125 0.474609375
vt 0.0380859375 0.474609375
vt 0.009765625 0.474609375
vt 0.0146484375 0.474609375
vt 0.0146484375 0.4765625
vt 0.009765625 0.4765625
vt 0.0615234375 0.4765625
vt 0.056640625 0.4765625
vt 0.056640625 0.474609375
vt 0.0615234375 0.474609375
vt 0.09375 0.3388671875
vt 0.0986328125 0.3388671875
vt 0.0986328125 0.404296875
vt 0.09375 0.404296875
vt 0.62466201171875 0.5331115234375
vt 0.62364873046875 0.5320980468750001
vt 0.62403701171875 0.531160546875
vt 0.62559951171875 0.5327230468749999
vt 0.62364873046875 0.5459375
vt 0.62466201171875 0.5449240234375
vt 0.62559951171875 0.5453125
vt 0.62403701171875 0.546875
vt 0.55896865234375 0.5320980468750001
vt 0.55795517578125 0.5331115234375
vt 0.55701767578125 0.5327230468749999
vt 0.55858017578125 0.531160546875
vt 0.55795517578125 0.5449240234375
vt 0.55896865234375 0.5459375
vt 0.55858017578125 0.546875
vt 0.55701767578125 0.5453125
vt 0.62364873046875 0.5320980468750001
vt 0.55896865234375 0.5320980468750001
vt 0.55858017578125 0.531160546875
vt 0.62403701171875 0.531160546875
vt 0.55795517578125 0.5331115234375
vt 0.55795517578125 0.5449240234375
vt 0.55701767578125 0.5453125
vt 0.55701767578125 0.5327230468749999
vt 0.55896865234375 0.5459375
vt 0.62364873046875 0.5459375
vt 0.62403701171875 0.546875
vt 0.55858017578125 0.546875
vt 0.62466201171875 0.5449240234375
vt 0.62466201171875 0.5331115234375
vt 0.62559951171875 0.5327230468749999
vt 0.62559951171875 0.5453125
vt 0.6780473828125 0.65624984375
vt 0.6771654296875 0.65568990234375
vt 0.67735953125 0.65502203125
vt 0.6785692578125 0.65579005859375
vt 0.07560302734375 0.420482265625
vt 0.076484765625 0.419921875
vt 0.0770067578125 0.42038156250000003
vt 0.075797109375 0.42115001953125
vt 0.6128736328125 0.65568990234375
vt 0.6119917578125 0.65625
vt 0.6114698046875 0.65579029296875
vt 0.61267947265625 0.655021875
vt 0.01042919921875 0.4199221484375
vt 0.01131123046875 0.420482265625
vt 0.011117109375 0.42115013671875
vt 0.0099073046875 0.42038193359375
vt 0.6771654296875 0.65568990234375
vt 0.6128736328125 0.65568990234375
vt 0.6126794921875 0.6550219335937499
vt 0.6773595703125 0.6550219335937499
vt 0.0888671875 0.472756640625
vt 0.0888671875 0.484180859375
vt 0.087890625 0.484375
vt 0.087890625 0.4725625
vt 0.01131123046875 0.420482265625
vt 0.07560302734375 0.420482265625
vt 0.07579716796875 0.421150234375
vt 0.01111708984375 0.421150234375
vt 0.103515625 0.484180859375
vt 0.103515625 0.472756640625
vt 0.1044921875 0.4725625
vt 0.1044921875 0.484375
vt 0.07437919921875 0.392869140625
vt 0.07511474609375 0.391394921875
vt 0.07585341796875 0.39213378906249996
vt 0.07437919921875 0.40282265625
vt 0.07585341796875 0.40355800781249995
vt 0.07511474609375 0.404296875
vt 0.01155830078125 0.392869140625
vt 0.01008408203125 0.39213378906249996
vt 0.01082294921875 0.391394921875
vt 0.01155830078125 0.40282265625
vt 0.01082294921875 0.404296875
vt 0.01008408203125 0.40355800781249995
vt 0.07437919921875 0.392869140625
vt 0.01155830078125 0.392869140625
vt 0.01082294921875 0.391394921875
vt 0.07511474609375 0.391394921875
vt 0.01155830078125 0.392869140625
vt 0.01155830078125 0.40282265625
vt 0.01008408203125 0.40355800781249995
vt 0.01008408203125 0.39213378906249996
vt 0.01155830078125 0.40282265625
vt 0.07437919921875 0.40282265625
vt 0.07511474609375 0.404296875
vt 0.01082294921875 0.404296875
vt 0.07437919921875 0.40282265625
vt 0.07437919921875 0.392869140625
vt 0.07585341796875 0.39213378906249996
vt 0.07585341796875 0.40355800781249995
vt 0.07701416015625 0.516015625
vt 0.07232666015625 0.5113423828125
vt 0.07232666015625 0.46913496093749996
vt 0.07701416015625 0.464453125
vt 0.613856640625 0.6714844140625
vt 0.6138599609375 0.67773421875
vt 0.61146171875 0.677734375
vt 0.6114572265625 0.6714845703125
vt 0.0947265625 0.423828125
vt 0.0947265625 0.4296875
vt 0.078125 0.4296875
vt 0.078125 0.423828125
vt 0.53013671875 0.44375
vt 0.52544921875 0.4390625
vt 0.52544921875 0.396875
vt 0.53013671875 0.3921875
vt 0.5290318359375 0.3895201171875
vt 0.5243443359375 0.39420761718749997
vt 0.52154296875 0.39140624999999996
vt 0.52623046875 0.38671875
vt 0.0566796875 0.505859375
vt 0.0683203125 0.505859375
vt 0.0683154296875 0.51171875
vt 0.0566796875 0.51171875
vt 0.07092626953125 0.446875
vt 0.07092626953125 0.453125
vt 0.01936376953125 0.453125
vt 0.01936376953125 0.446875
vt 0.07154541015625 0.458984375
vt 0.06685380859375 0.46367187499999996
vt 0.05677763671875 0.46367187499999996
vt 0.05677978515625 0.458984375
vt 0.05677490234375 0.516796875
vt 0.06841552734375 0.516796875
vt 0.07310791015625 0.521484375
vt 0.05677978515625 0.521484375
vt 0.103519140625 0.486328125
vt 0.1103515625 0.486328125
vt 0.1103515625 0.4921875
vt 0.103515625 0.4921875
vt 0.056640625 0.48828125
vt 0.056640625 0.482421875
vt 0.060546875 0.482421875
vt 0.060546875 0.48828125
vt 0.50990234375 0.44453125000000004
vt 0.51998046875 0.44453125000000004
vt 0.52466796875 0.44921875
vt 0.50990234375 0.44921875
vt 0.61674375 0.67148404296875
vt 0.626821875 0.67148404296875
vt 0.6268240234375 0.67773404296875
vt 0.6167478515625 0.67773404296875
vt 0.1171875 0.48593119140624996
vt 0.1171875 0.49218119140625005
vt 0.1132876953125 0.4921875
vt 0.11328125 0.4859376953125
vt 0.01407724609375 0.453125
vt 0.01407724609375 0.446875
vt 0.01647666015625 0.446875
vt 0.01647666015625 0.453125
vt 0.5273353515625 0.4481138671875
vt 0.5226478515625 0.44342636718749995
vt 0.5243443359375 0.44172988281250003
vt 0.5290318359375 0.4464173828125
vt 0.52623046875 0.38671875
vt 0.52154296875 0.39140624999999996
vt 0.50990234375 0.39140624999999996
vt 0.50990234375 0.38671875
vt 0.0972478515625 0.45078125
vt 0.0972478515625 0.45703125
vt 0.0824822265625 0.45703125
vt 0.0824822265625 0.45078125
vt 0.60683994140625 0.4390625
vt 0.64902744140625 0.4390625
vt 0.64903310546875 0.4453125
vt 0.60682568359375 0.4453125
vt 0.07590927734375 0.4617857421875
vt 0.07122041015625 0.46646894531250005
vt 0.06952255859375 0.46477539062499995
vt 0.07421279296875 0.4600892578125
vt 0.07701416015625 0.464453125
vt 0.07232666015625 0.46913496093749996
vt 0.07122041015625 0.46646894531250005
vt 0.07590927734375 0.4617857421875
vt 0.06685380859375 0.46367187499999996
vt 0.07154541015625 0.458984375
vt 0.07421279296875 0.4600892578125
vt 0.06952255859375 0.46477539062499995
vt 0.52466796875 0.44921875
vt 0.51998046875 0.44453125000000004
vt 0.5226478515625 0.44342636718749995
vt 0.5273353515625 0.4481138671875
vt 0.52544921875 0.4390625
vt 0.53013671875 0.44375
vt 0.5290318359375 0.4464173828125
vt 0.5243443359375 0.44172988281250003
vt 0.52544921875 0.396875
vt 0.5243443359375 0.39420761718749997
vt 0.5290318359375 0.3895201171875
vt 0.53013671875 0.3921875
vt 0.07121904296875 0.51400703125
vt 0.07232666015625 0.5113423828125
vt 0.07701416015625 0.516015625
vt 0.07590927734375 0.5186830078125
vt 0.07092626953125 0.453125
vt 0.07092626953125 0.446875
vt 0.07381337890625 0.446875
vt 0.07381337890625 0.453125
vt 0.0972478515625 0.45703125
vt 0.0972478515625 0.45078125
vt 0.1001349609375 0.45078125
vt 0.1001349609375 0.45703125
vt 0.01936376953125 0.446875
vt 0.01936376953125 0.453125
vt 0.01647666015625 0.453125
vt 0.01647666015625 0.446875
vt 0.60683994140625 0.4390625
vt 0.60682568359375 0.4453125
vt 0.60393994140625 0.44531195312500005
vt 0.60395283203125 0.43906195312499996
vt 0.61674375 0.67148404296875
vt 0.6167478515625 0.67773404296875
vt 0.6138599609375 0.67773421875
vt 0.613856640625 0.67148421875
vt 0.64903310546875 0.4453125
vt 0.64902744140625 0.4390625
vt 0.65191455078125 0.43906232421875
vt 0.65191943359375 0.44531232421875
vt 0.07310791015625 0.521484375
vt 0.06841552734375 0.516796875
vt 0.07121904296875 0.51400703125
vt 0.07590927734375 0.5186830078125
vt 0.07437919921875 0.426072265625
vt 0.07437919921875 0.43602578125
vt 0.01155830078125 0.43602578125
vt 0.01155830078125 0.426072265625
vt 0.1064453125 0.404296875
vt 0.1015625 0.404296875
vt 0.1015625 0.3388671875
vt 0.1064453125 0.3388671875
vt 0.0380859375 0.4912109375
vt 0.0380859375 0.50390625
vt 0.033203125 0.50390625
vt 0.033203125 0.4912109375
vt 0.0458984375 0.4912109375
vt 0.0458984375 0.50390625
vt 0.041015625 0.50390625
vt 0.041015625 0.4912109375
vt 0.017578125 0.47265625
vt 0.0224609375 0.47265625
vt 0.0224609375 0.474609375
vt 0.017578125 0.474609375
vt 0.0146484375 0.47265625
vt 0.009765625 0.47265625
vt 0.009765625 0.470703125
vt 0.0146484375 0.470703125
vt 0.033203125 0.470703125
vt 0.0380859375 0.470703125
vt 0.0380859375 0.47265625
vt 0.033203125 0.47265625
vt 0.0615234375 0.47265625
vt 0.056640625 0.47265625
vt 0.056640625 0.470703125
vt 0.0615234375 0.470703125
vt 0.109375 0.3388671875
vt 0.1142578125 0.3388671875
vt 0.1142578125 0.404296875
vt 0.109375 0.404296875
vt 0.62466201171875 0.5721740234375
vt 0.62364873046875 0.5711605468750001
vt 0.62403701171875 0.570223046875
vt 0.62559951171875 0.5717855468749999
vt 0.62364873046875 0.585
vt 0.62466201171875 0.5839865234375
vt 0.62559951171875 0.584375
vt 0.62403701171875 0.5859375
vt 0.55896865234375 0.5711605468750001
vt 0.55795517578125 0.5721740234375
vt 0.55701767578125 0.5717855468749999
vt 0.55858017578125 0.570223046875
vt 0.55795517578125 0.5839865234375
vt 0.55896865234375 0.585
vt 0.55858017578125 0.5859375
vt 0.55701767578125 0.584375
vt 0.62364873046875 0.5711605468750001
vt 0.55896865234375 0.5711605468750001
vt 0.55858017578125 0.570223046875
vt 0.62403701171875 0.570223046875
vt 0.55795517578125 0.5721740234375
vt 0.55795517578125 0.5839865234375
vt 0.55701767578125 0.584375
vt 0.55701767578125 0.5717855468749999
vt 0.55896865234375 0.585
vt 0.62364873046875 0.585
vt 0.62403701171875 0.5859375
vt 0.55858017578125 0.5859375
vt 0.62466201171875 0.5839865234375
vt 0.62466201171875 0.5721740234375
vt 0.62559951171875 0.5717855468749999
vt 0.62559951171875 0.584375
vt 0.06964453125 0.476662890625
vt 0.069084296875 0.47578111328124995
vt 0.0695439453125 0.47525912109375
vt 0.07031236328125 0.4764687890625
vt 0.67716556640625 0.6626695703125001
vt 0.6780472265625 0.662109375
vt 0.67856921875 0.6625690625
vt 0.6773596484375 0.66333734375
vt 0.046150078125 0.47578111328124995
vt 0.04558984375 0.476662890625
vt 0.04492201171875 0.4764687890625
vt 0.0456904296875 0.47525912109375
vt 0.61199173828125 0.662109453125
vt 0.61287376953125 0.6626695703125001
vt 0.6126796484375 0.6633374609375
vt 0.61146984375 0.6625692578125
vt 0.6761888671875 0.64453125
vt 0.6118970703125 0.64453125
vt 0.6117029296875 0.6435546875
vt 0.6763830078125 0.6435546875
vt 0.04558984375 0.476662890625
vt 0.04558984375 0.488087109375
vt 0.044921875 0.48828125
vt 0.044921875 0.47646875
vt 0.61287376953125 0.6626695703125001
vt 0.67716556640625 0.6626695703125001
vt 0.67735970703125 0.6633375390625
vt 0.61267962890625 0.6633375390625
vt 0.06964453125 0.488087109375
vt 0.06964453125 0.476662890625
vt 0.0703125 0.47646875
vt 0.0703125 0.48828125
vt 0.07437919921875 0.426072265625
vt 0.07511474609375 0.424598046875
vt 0.07585341796875 0.42533691406249996
vt 0.07437919921875 0.43602578125
vt 0.07585341796875 0.43676113281249995
vt 0.07511474609375 0.4375
vt 0.01155830078125 0.426072265625
vt 0.01008408203125 0.42533691406249996
vt 0.01082294921875 0.424598046875
vt 0.01155830078125 0.43602578125
vt 0.01082294921875 0.4375
vt 0.01008408203125 0.43676113281249995
vt 0.07437919921875 0.426072265625
vt 0.01155830078125 0.426072265625
vt 0.01082294921875 0.424598046875
vt 0.07511474609375 0.424598046875
vt 0.01155830078125 0.426072265625
vt 0.01155830078125 0.43602578125
vt 0.01008408203125 0.43676113281249995
vt 0.01008408203125 0.42533691406249996
vt 0.01155830078125 0.43602578125
vt 0.07437919921875 0.43602578125
vt 0.07511474609375 0.4375
vt 0.01082294921875 0.4375
vt 0.07437919921875 0.43602578125
vt 0.07437919921875 0.426072265625
vt 0.07585341796875 0.42533691406249996
vt 0.07585341796875 0.43676113281249995
vt 0.10045166015625 0.516015625
vt 0.09576416015625 0.5113423828125
vt 0.09576416015625 0.46913496093749996
vt 0.10045166015625 0.464453125
vt 0.047450390625 0.38242191406250003
vt 0.0474537109375 0.38867171874999995
vt 0.04505546875 0.388671875
vt 0.0450509765625 0.3824220703125
vt 0.1142578125 0.423828125
vt 0.1142578125 0.4296875
vt 0.09765625 0.4296875
vt 0.09765625 0.423828125
vt 0.55357421875 0.44375
vt 0.54888671875 0.4390625
vt 0.54888671875 0.396875
vt 0.55357421875 0.3921875
vt 0.5524693359375 0.3895201171875
vt 0.5477818359375 0.39420761718749997
vt 0.54498046875 0.39140624999999996
vt 0.54966796875 0.38671875
vt 0.0801171875 0.505859375
vt 0.0917578125 0.505859375
vt 0.0917529296875 0.51171875
vt 0.0801171875 0.51171875
vt 0.61780126953125 0.57578125
vt 0.61780126953125 0.58203125
vt 0.56623876953125 0.58203125
vt 0.56623876953125 0.57578125
vt 0.09498291015625 0.458984375
vt 0.09029130859375 0.46367187499999996
vt 0.08021513671875 0.46367187499999996
vt 0.08021728515625 0.458984375
vt 0.08021240234375 0.516796875
vt 0.09185302734375 0.516796875
vt 0.09654541015625 0.521484375
vt 0.08021728515625 0.521484375
vt 0.009769140625 0.482421875
vt 0.0166015625 0.482421875
vt 0.0166015625 0.48828125
vt 0.009765625 0.48828125
vt 0.0625 0.48828125
vt 0.0625 0.482421875
vt 0.06640625 0.482421875
vt 0.06640625 0.48828125
vt 0.53333984375 0.44453125000000004
vt 0.54341796875 0.44453125000000004
vt 0.54810546875 0.44921875
vt 0.53333984375 0.44921875
vt 0.0503375 0.38242154296875
vt 0.060415625 0.38242154296875
vt 0.0604177734375 0.38867154296874995
vt 0.0503416015625 0.38867154296874995
vt 0.0234375 0.48202494140624996
vt 0.0234375 0.48827494140625005
vt 0.0195376953125 0.48828125
vt 0.01953125 0.48203125
vt 0.56095224609375 0.58203125
vt 0.56095224609375 0.57578125
vt 0.56335166015625 0.57578125
vt 0.56335166015625 0.58203125
vt 0.5507728515625 0.4481138671875
vt 0.5460853515625 0.44342636718749995
vt 0.5477818359375 0.44172988281250003
vt 0.5524693359375 0.4464173828125
vt 0.54966796875 0.38671875
vt 0.54498046875 0.39140624999999996
vt 0.53333984375 0.39140624999999996
vt 0.53333984375 0.38671875
vt 0.1187322265625 0.45078125
vt 0.1187322265625 0.45703125
vt 0.1039666015625 0.45703125
vt 0.1039666015625 0.45078125
vt 0.60683994140625 0.429296875
vt 0.64902744140625 0.429296875
vt 0.64903310546875 0.435546875
vt 0.60682568359375 0.435546875
vt 0.09934677734375 0.4617857421875
vt 0.09465791015625 0.46646894531250005
vt 0.09296005859375 0.46477539062499995
vt 0.09765029296875 0.4600892578125
vt 0.10045166015625 0.464453125
vt 0.09576416015625 0.46913496093749996
vt 0.09465791015625 0.46646894531250005
vt 0.09934677734375 0.4617857421875
vt 0.09029130859375 0.46367187499999996
vt 0.09498291015625 0.458984375
vt 0.09765029296875 0.4600892578125
vt 0.09296005859375 0.46477539062499995
vt 0.54810546875 0.44921875
vt 0.54341796875 0.44453125000000004
vt 0.5460853515625 0.44342636718749995
vt 0.5507728515625 0.4481138671875
vt 0.54888671875 0.4390625
vt 0.55357421875 0.44375
vt 0.5524693359375 0.4464173828125
vt 0.5477818359375 0.44172988281250003
vt 0.54888671875 0.396875
vt 0.5477818359375 0.39420761718749997
vt 0.5524693359375 0.3895201171875
vt 0.55357421875 0.3921875
vt 0.09465654296875 0.51400703125
vt 0.09576416015625 0.5113423828125
vt 0.10045166015625 0.516015625
vt 0.09934677734375 0.5186830078125
vt 0.61780126953125 0.58203125
vt 0.61780126953125 0.57578125
vt 0.62068837890625 0.57578125
vt 0.62068837890625 0.58203125
vt 0.1187322265625 0.45703125
vt 0.1187322265625 0.45078125
vt 0.1216193359375 0.45078125
vt 0.1216193359375 0.45703125
vt 0.56623876953125 0.57578125
vt 0.56623876953125 0.58203125
vt 0.56335166015625 0.58203125
vt 0.56335166015625 0.57578125
vt 0.60683994140625 0.429296875
vt 0.60682568359375 0.43554667968750005
vt 0.60393994140625 0.4355461328125
vt 0.60395283203125 0.42929632812499996
vt 0.0503375 0.38242154296875
vt 0.0503416015625 0.38867154296874995
vt 0.0474537109375 0.38867171874999995
vt 0.047450390625 0.38242171875
vt 0.64903310546875 0.435546875
vt 0.64902744140625 0.429296875
vt 0.65191455078125 0.42929669921875
vt 0.65191943359375 0.43554669921875
vt 0.09654541015625 0.521484375
vt 0.09185302734375 0.516796875
vt 0.09465654296875 0.51400703125
vt 0.09934677734375 0.5186830078125
vt 0.65641044921875 0.412400390625
vt 0.65641044921875 0.42235390625
vt 0.59358955078125 0.42235390625
vt 0.59358955078125 0.412400390625
vt 0.1220703125 0.404296875
vt 0.1171875 0.404296875
vt 0.1171875 0.3388671875
vt 0.1220703125 0.3388671875
vt 0.0615234375 0.4912109375
vt 0.0615234375 0.50390625
vt 0.056640625 0.50390625
vt 0.056640625 0.4912109375
vt 0.0693359375 0.4912109375
vt 0.0693359375 0.50390625
vt 0.064453125 0.50390625
vt 0.064453125 0.4912109375
vt 0.080078125 0.470703125
vt 0.0849609375 0.470703125
vt 0.0849609375 0.47265625
vt 0.080078125 0.47265625
vt 0.0146484375 0.46875
vt 0.009765625 0.46875
vt 0.009765625 0.466796875
vt 0.0146484375 0.466796875
vt 0.033203125 0.466796875
vt 0.0380859375 0.466796875
vt 0.0380859375 0.46875
vt 0.033203125 0.46875
vt 0.0615234375 0.46875
vt 0.056640625 0.46875
vt 0.056640625 0.466796875
vt 0.0615234375 0.466796875
vt 0.125 0.3388671875
vt 0.1298828125 0.3388671875
vt 0.1298828125 0.404296875
vt 0.125 0.404296875
vt 0.07778701171875 0.4432677734375
vt 0.07677373046875 0.44225429687499995
vt 0.07716201171875 0.44131679687500003
vt 0.07872451171875 0.44287929687500005
vt 0.07677373046875 0.45609374999999996
vt 0.07778701171875 0.4550802734375
vt 0.07872451171875 0.45546875
vt 0.07716201171875 0.45703125
vt 0.01209365234375 0.44225429687499995
vt 0.01108017578125 0.4432677734375
vt 0.01014267578125 0.44287929687500005
vt 0.01170517578125 0.44131679687500003
vt 0.01108017578125 0.4550802734375
vt 0.01209365234375 0.45609374999999996
vt 0.01170517578125 0.45703125
vt 0.01014267578125 0.45546875
vt 0.07677373046875 0.44225429687499995
vt 0.01209365234375 0.44225429687499995
vt 0.01170517578125 0.44131679687500003
vt 0.07716201171875 0.44131679687500003
vt 0.01108017578125 0.4432677734375
vt 0.01108017578125 0.4550802734375
vt 0.01014267578125 0.45546875
vt 0.01014267578125 0.44287929687500005
vt 0.01209365234375 0.45609374999999996
vt 0.07677373046875 0.45609374999999996
vt 0.07716201171875 0.45703125
vt 0.01170517578125 0.45703125
vt 0.07778701171875 0.4550802734375
vt 0.07778701171875 0.4432677734375
vt 0.07872451171875 0.44287929687500005
vt 0.07872451171875 0.45546875
vt 0.67804744140625 0.65234375
vt 0.677165390625 0.6517836328125
vt 0.67735951171875 0.6511157421875
vt 0.67856931640625 0.65188396484375
vt 0.67716552734375 0.6587633984375
vt 0.6780471484375 0.658203125
vt 0.67856923828125 0.658662578125
vt 0.67735966796875 0.6594311523437499
vt 0.61287359375 0.6517836328125
vt 0.61199162109375 0.65234357421875
vt 0.61146974609375 0.65188376953125
vt 0.61267947265625 0.6511157421875
vt 0.61199173828125 0.658203203125
vt 0.61287373046875 0.6587633984375
vt 0.6126795703125 0.65943126953125
vt 0.61146982421875 0.6586629687500001
vt 0.677165390625 0.6517836328125
vt 0.61287359375 0.6517836328125
vt 0.612679453125 0.6511156640625
vt 0.67735953125 0.6511156640625
vt 0.1083984375 0.472756640625
vt 0.1083984375 0.484180859375
vt 0.107421875 0.484375
vt 0.107421875 0.4725625
vt 0.61287373046875 0.6587633984375
vt 0.67716552734375 0.6587633984375
vt 0.67735966796875 0.659431171875
vt 0.61267958984375 0.659431171875
vt 0.111328125 0.482227734375
vt 0.111328125 0.470803515625
vt 0.1123046875 0.470609375
vt 0.1123046875 0.482421875
vt 0.65641044921875 0.412400390625
vt 0.65714599609375 0.410926171875
vt 0.65788466796875 0.41166503906249996
vt 0.65641044921875 0.42235390625
vt 0.65788466796875 0.42308925781249995
vt 0.65714599609375 0.423828125
vt 0.59358955078125 0.412400390625
vt 0.59211533203125 0.41166503906249996
vt 0.59285419921875 0.410926171875
vt 0.59358955078125 0.42235390625
vt 0.59285419921875 0.423828125
vt 0.59211533203125 0.42308925781249995
vt 0.65641044921875 0.412400390625
vt 0.59358955078125 0.412400390625
vt 0.59285419921875 0.410926171875
vt 0.65714599609375 0.410926171875
vt 0.59358955078125 0.412400390625
vt 0.59358955078125 0.42235390625
vt 0.59211533203125 0.42308925781249995
vt 0.59211533203125 0.41166503906249996
vt 0.59358955078125 0.42235390625
vt 0.65641044921875 0.42235390625
vt 0.65714599609375 0.423828125
vt 0.59285419921875 0.423828125
vt 0.65641044921875 0.42235390625
vt 0.65641044921875 0.412400390625
vt 0.65788466796875 0.41166503906249996
vt 0.65788466796875 0.42308925781249995
vn 1 0 0
vn -1 0 0
vn 0 1 0
vn 0 -1 0
vn 0 0 1
vn 0 0 -1
vn 1 0 0
vn 1 0 0
vn 1 0 0
vn 0 0 -1
vn 0 0 -1
vn 0 0 -1
vn -1 0 0
vn -1 0 0
vn -1 0 0
vn 0 0 1
vn 0 0 1
vn 0 0 1
vn 1 0 0
vn 1 0 0
vn 1 0 0
vn 1 0 0
vn 1 0 0
vn 1 0 0
vn 1 0 0
vn 1 0 0
vn 1 0 0
vn 1 0 0
vn 1 0 0
vn 1 0 0
vn 1 0 0
vn 1 0 0
vn 1 0 0
vn 1 0 0
vn 0.5843047258450753 0 -0.8115343414514948
vn 0.4751333430318289 0.8799138061988792 0
vn 0.5843047258450753 0 0.8115343414514948
vn 0.4751333430318289 -0.8799138061988792 0
vn 0.5843047258450753 0 -0.8115343414514948
vn 0.4751333430318289 0.8799138061988792 0
vn 0.5843047258450753 0 0.8115343414514948
vn 0.4751333430318289 -0.8799138061988792 0
vn 0.5843047258450753 0 -0.8115343414514948
vn 0.47513334303182614 0.8799138061988806 0
vn 0.5843047258450753 0 0.8115343414514948
vn 0.4751333430318289 -0.8799138061988792 0
vn 0.5843047258450753 0 0.8115343414514948
vn 0.47513334303182614 -0.8799138061988806 0
vn 0.5843047258450753 0 -0.8115343414514948
vn 0.4751333430318254 0.8799138061988809 0
vn 0 0 1
vn 0 -1 0
vn 0 0 -1
vn 0 1 0
vn 0 0 1
vn 0 -1 0
vn 0 0 -1
vn 0 1 0
vn 0 0 -1
vn 0 1 0
vn 0 0 1
vn 0 -1 0
vn 0 0 1
vn 0 -1 0
vn 0 0 -1
vn 0 1 0
vn 0 1 0
vn -0.7061753902907228 -0.00015092439638268753 -0.7080369307949775
vn 0 0 -1
vn 0 -1 0
vn 0 -1 0
vn 0 0 1
vn 1 0 0
vn 0 1 0
vn 0 1 0
vn 0.7071067811865476 0 0.7071067811865476
vn 0.7070786101628482 0 -0.7071349510879624
vn 0 -1 0
vn 0 0 -1
vn -0.7053830681375179 0.0009887681943197236 0.7088256129136135
vn 0.7070602625339442 0 0.7071532967790152
vn 0 -1 0
vn 0 -1 0
vn 0 0 1
vn -1 0 0
vn 0 1 0
vn 0 1 0
vn 0 1 0
vn 0 -1 0
vn 0 -1 0
vn 0 -1 0
vn 0 1 0
vn 0.9239028218386011 0 -0.38262720211541434
vn 0.3826931941781373 0 0.9238754889755083
vn 0.9239028218386011 0 0.38262720211541434
vn -0.9234263576680343 0.0008771992312769125 0.3837746636835949
vn -0.3821333117573338 -0.0002456571289860446 -0.9241071754390544
vn -0.923902767923317 0.0003416314105240603 -0.38262717978681643
vn 0 1 0
vn 1 0 0
vn 0 1 0
vn 0 0 1
vn 0 0 -1
vn 0 -0.7071067811865465 -0.7071067811865487
vn 0 0.7071067811865465 -0.7071067811865487
vn 0 -0.7071067811865465 0.7071067811865487
vn 0 0.7071067811865465 0.7071067811865487
vn 0 -1 0
vn 1 0 0
vn 1 0 0
vn 1 0 0
vn 1 0 0
vn 1 0 0
vn 1 0 0
vn 1 0 0
vn 1 0 0
vn 0.7019252265540542 0.503637258514012 0.5036372585140323
vn 0.7019475013391361 -0.5035456426811077 0.5036978172482126
vn 0.7017829877933864 0.5038124574978334 -0.5036602482961917
vn 0.7019252265540658 -0.5036372585140343 -0.5036372585139937
vn 0.7019070595372976 0.7122685447018594 0
vn 0.7019070595372825 0 -0.7122685447018742
vn 0.7019070595372976 -0.7122685447018594 0
vn 0.7019070595372825 0 0.7122685447018742
vn 1 0 0
vn 1 0 0
vn 1 0 0
vn 1 0 0
vn 1 0 0
vn 1 0 0
vn 1 0 0
vn 1 0 0
vn 0 1 0
vn -0.7061753902907228 -0.00015092439638268563 -0.7080369307949776
vn 0 0 -1
vn 0 -1 0
vn 0 -1 0
vn 0 0 1
vn 1 0 0
vn 0 1 0
vn 0 1 0
vn 0.7071067811865476 0 0.7071067811865476
vn 0.7070786101628482 0 -0.7071349510879624
vn 0 -1 0
vn 0 0 -1
vn -0.7053830681375178 0.0009887681943197108 0.7088256129136135
vn 0.7070602625339443 0 0.7071532967790152
vn 0 -1 0
vn 0 -1 0
vn 0 0 1
vn -1 0 0
vn 0 1 0
vn 0 1 0
vn 0 1 0
vn 0 -1 0
vn 0 -1 0
vn 0 -1 0
vn 0 1 0
vn 0.9239028218386011 0 -0.3826272021154143
vn 0.38269319417813724 0 0.9238754889755083
vn 0.9239028218386011 0 0.3826272021154143
vn -0.9234263576680343 0.0008771992312769012 0.38377466368359486
vn -0.3821333117573338 -0.0002456571289860415 -0.9241071754390544
vn -0.923902767923317 0.00034163141052405595 -0.38262717978681643
vn 0 1 0
vn 1 0 0
vn 0 1 0
vn 0 0 1
vn 0 0 -1
vn 0 -0.7071067811865553 -0.7071067811865397
vn 0 0.7071067811865465 -0.7071067811865487
vn 0 -0.7071067811865553 0.7071067811865397
vn 0 0.7071067811865465 0.7071067811865487
vn 0 -1 0
vn 1 0 0
vn 1 0 0
vn 1 0 0
vn 1 0 0
vn 1 0 0
vn 1 0 0
vn 1 0 0
vn 1 0 0
vn 0.7019252265540369 0.5036372585140375 0.5036372585140308
vn 0.7019475013391866 -0.5035456426810455 0.5036978172482045
vn 0.7017829877933611 0.5038124574978646 -0.5036602482961959
vn 0.7019252265540366 -0.5036372585140275 -0.5036372585140411
vn 0.7019070595372675 0.712268544701889 0
vn 0.7019070595372825 0 -0.7122685447018742
vn 0.7019070595372675 -0.712268544701889 0
vn 0.7019070595372825 0 0.7122685447018742
vn 1 0 0
vn 1 0 0
vn 1 0 0
vn 1 0 0
vn 1 0 0
vn 1 0 0
vn 1 0 0
vn 1 0 0
vn 0 1 0
vn -0.7061753902907228 -0.00015092439638268563 -0.7080369307949776
vn 0 0 -1
vn 0 -1 0
vn 0 -1 0
vn 0 0 1
vn 1 0 0
vn 0 1 0
vn 0 1 0
vn 0.7071067811865476 0 0.7071067811865476
vn 0.7070786101628482 0 -0.7071349510879624
vn 0 -1 0
vn 0 0 -1
vn -0.7053830681375178 0.0009887681943197108 0.7088256129136135
vn 0.7070602625339443 0 0.7071532967790152
vn 0 -1 0
vn 0 -1 0
vn 0 0 1
vn -1 0 0
vn 0 1 0
vn 0 1 0
vn 0 1 0
vn 0 -1 0
vn 0 -1 0
vn 0 -1 0
vn 0 1 0
vn 0.9239028218386011 0 -0.3826272021154143
vn 0.38269319417813724 0 0.9238754889755083
vn 0.9239028218386011 0 0.3826272021154143
vn -0.9234263576680343 0.0008771992312769012 0.38377466368359486
vn -0.3821333117573338 -0.0002456571289860415 -0.9241071754390544
vn -0.923902767923317 0.00034163141052405595 -0.38262717978681643
vn 0 1 0
vn 1 0 0
vn 0 1 0
vn 0 0 1
vn 0 0 -1
vn 0 -0.7071067811865553 -0.7071067811865397
vn 0 0.7071067811865465 -0.7071067811865487
vn 0 -0.7071067811865553 0.7071067811865397
vn 0 0.7071067811865465 0.7071067811865487
vn 0 -1 0
vn 1 0 0
vn 1 0 0
vn 1 0 0
vn 1 0 0
vn 1 0 0
vn 1 0 0
vn 1 0 0
vn 1 0 0
vn 0.7019252265540369 0.5036372585140375 0.5036372585140308
vn 0.7019475013391866 -0.5035456426810455 0.5036978172482045
vn 0.7017829877933611 0.5038124574978646 -0.5036602482961959
vn 0.7019252265540366 -0.5036372585140275 -0.5036372585140411
vn 0.7019070595372675 0.712268544701889 0
vn 0.7019070595372825 0 -0.7122685447018742
vn 0.7019070595372675 -0.712268544701889 0
vn 0.7019070595372825 0 0.7122685447018742
vn 1 0 0
vn 1 0 0
vn 1 0 0
vn 1 0 0
vn 1 0 0
vn 1 0 0
vn 1 0 0
vn 1 0 0
vn 0 1 0
vn -0.7061753902907228 -0.0001509243963826861 -0.7080369307949775
vn 0 0 -1
vn 0 -1 0
vn 0 -1 0
vn 0 0 1
vn 1 0 0
vn 0 1 0
vn 0 1 0
vn 0.7071067811865476 0 0.7071067811865476
vn 0.7070786101628482 0 -0.7071349510879624
vn 0 -1 0
vn 0 0 -1
vn -0.7053830681375178 0.000988768194319714 0.7088256129136136
vn 0.7070602625339443 0 0.7071532967790151
vn 0 -1 0
vn 0 -1 0
vn 0 0 1
vn -1 0 0
vn 0 1 0
vn 0 1 0
vn 0 1 0
vn 0 -1 0
vn 0 -1 0
vn 0 -1 0
vn 0 1 0
vn 0.9239028218386011 0 -0.38262720211541434
vn 0.38269319417813724 0 0.9238754889755083
vn 0.9239028218386011 0 0.38262720211541434
vn -0.9234263576680343 0.000877199231276904 0.38377466368359486
vn -0.38213331175733384 -0.00024565712898604226 -0.9241071754390545
vn -0.923902767923317 0.000341631410524057 -0.38262717978681643
vn 0 1 0
vn 1 0 0
vn 0 1 0
vn 0 0 1
vn 0 0 -1
vn 0 -0.7071067811865487 -0.7071067811865464
vn 0 0.7071067811865509 -0.7071067811865442
vn 0 -0.7071067811865487 0.7071067811865464
vn 0 0.7071067811865509 0.7071067811865442
vn 0 -1 0
vn 1 0 0
vn 1 0 0
vn 1 0 0
vn 1 0 0
vn 1 0 0
vn 1 0 0
vn 1 0 0
vn 1 0 0
vn 0.7019252265540465 0.5036372585140274 0.5036372585140274
vn 0.7019475013391739 -0.5035456426810611 0.5036978172482065
vn 0.7017829877933675 0.5038124574978567 -0.5036602482961947
vn 0.7019252265540492 -0.5036372585140255 -0.5036372585140255
vn 0.7019070595372825 0.7122685447018742 0
vn 0.7019070595372825 0 -0.7122685447018743
vn 0.7019070595372825 -0.7122685447018742 0
vn 0.7019070595372825 0 0.7122685447018743
vn 1 0 0
vn 1 0 0
vn 1 0 0
vn 1 0 0
vn 1 0 0
vn 1 0 0
vn 1 0 0
vn 1 0 0
usemtl m_93b2d67f-15c8-ddba-b541-00bdc5cf6ef9
f 2/1/1 3/2/1 4/3/1 5/4/1
f 6/5/2 7/6/2 8/7/2 9/8/2
f 10/9/3 11/10/3 12/11/3 13/12/3
f 14/13/4 15/14/4 6/15/4 9/16/4
f 15/17/5 16/18/5 7/19/5 6/20/5
f 9/21/6 8/22/6 17/23/6 14/24/6
f 18/25/7 19/26/7 20/27/7 21/28/7
f 22/29/8 23/30/8 24/31/8 25/32/8
f 26/33/9 27/34/9 28/35/9 29/36/9
f 12/37/10 30/38/10 31/39/10 13/40/10
f 30/41/11 32/42/11 33/43/11 31/44/11
f 32/45/12 17/46/12 8/47/12 33/48/12
f 13/49/13 31/50/13 34/51/13 10/52/13
f 31/53/14 33/54/14 35/55/14 34/56/14
f 33/57/15 8/58/15 7/59/15 35/60/15
f 10/61/16 34/62/16 36/63/16 11/64/16
f 34/65/17 35/66/17 37/67/17 36/68/17
f 35/69/18 7/70/18 16/71/18 37/72/18
f 38/73/19 39/74/19 11/75/19 36/76/19
f 40/77/20 38/78/20 36/79/20 30/80/20
f 41/81/21 40/82/21 30/83/21 12/84/21
f 39/85/22 41/86/22 12/87/22 11/88/22
f 42/89/23 43/90/23 36/91/23 37/92/23
f 44/93/24 42/94/24 37/95/24 32/96/24
f 45/97/25 44/98/25 32/99/25 30/100/25
f 43/101/26 45/102/26 30/103/26 36/104/26
f 46/105/27 47/106/27 37/107/27 16/108/27
f 48/109/28 46/110/28 16/111/28 17/112/28
f 49/113/29 48/114/29 17/115/29 32/116/29
f 47/117/30 49/118/30 32/119/30 37/120/30
f 50/121/31 51/122/31 14/123/31 17/124/31
f 52/125/32 50/126/32 17/127/32 16/128/32
f 53/129/33 52/130/33 16/131/33 15/132/33
f 51/133/34 53/134/34 15/135/34 14/136/34
f 54/137/35 55/138/35 39/139/35 38/140/35
f 56/141/36 54/142/36 38/143/36 40/144/36
f 57/145/37 56/146/37 40/147/37 41/148/37
f 55/149/38 57/150/38 41/151/38 39/152/38
f 58/153/39 59/154/39 43/155/39 42/156/39
f 60/157/40 58/158/40 42/159/40 44/160/40
f 61/161/41 60/162/41 44/163/41 45/164/41
f 59/165/42 61/166/42 45/167/42 43/168/42
f 62/169/43 63/170/43 47/171/43 46/172/43
f 64/173/44 62/174/44 46/175/44 48/176/44
f 65/177/45 64/178/45 48/179/45 49/180/45
f 63/181/46 65/182/46 49/183/46 47/184/46
f 66/185/47 67/186/47 51/187/47 50/188/47
f 68/189/48 66/190/48 50/191/48 52/192/48
f 69/193/49 68/194/49 52/195/49 53/196/49
f 67/197/50 69/198/50 53/199/50 51/200/50
f 23/201/51 22/202/51 59/203/51 58/204/51
f 24/205/52 23/206/52 58/207/52 60/208/52
f 25/209/53 24/210/53 60/211/53 61/212/53
f 22/213/54 25/214/54 61/215/54 59/216/54
f 27/217/55 26/218/55 63/219/55 62/220/55
f 28/221/56 27/222/56 62/223/56 64/224/56
f 29/225/57 28/226/57 64/227/57 65/228/57
f 26/229/58 29/230/58 65/231/58 63/232/58
f 3/233/59 2/234/59 67/235/59 66/236/59
f 4/237/60 3/238/60 66/239/60 68/240/60
f 5/241/61 4/242/61 68/243/61 69/244/61
f 2/245/62 5/246/62 69/247/62 67/248/62
f 19/249/63 18/250/63 55/251/63 54/252/63
f 20/253/64 19/254/64 54/255/64 56/256/64
f 21/257/65 20/258/65 56/259/65 57/260/65
f 18/261/66 21/262/66 57/263/66 55/264/66
f 70/265/67 71/266/67 72/267/67 73/268/67
f 74/269/68 75/270/68 76/271/68 77/272/68
f 78/273/69 79/274/69 80/275/69 81/276/69
f 82/277/70 83/278/70 84/279/70 85/280/70
f 86/281/71 87/282/71 88/283/71 81/284/71
f 89/285/72 88/286/72 90/287/72 91/288/72
f 85/289/73 70/290/73 73/291/73 82/292/73
f 92/293/74 93/294/74 94/295/74 95/296/74
f 96/297/75 90/298/75 80/299/75 79/300/75
f 88/301/76 81/302/76 80/303/76 90/304/76
f 97/305/77 86/306/77 81/307/77 80/308/77
f 98/309/78 99/310/78 100/311/78 101/312/78
f 99/313/79 98/314/79 94/315/79 93/316/79
f 87/317/80 102/318/80 90/319/80 88/320/80
f 103/321/81 104/322/81 105/323/81 106/324/81
f 104/325/82 74/326/82 77/327/82 105/328/82
f 81/329/83 88/330/83 89/331/83 78/332/83
f 100/333/84 92/334/84 95/335/84 101/336/84
f 84/337/85 83/338/85 72/339/85 71/340/85
f 106/341/86 76/342/86 75/343/86 103/344/86
f 73/345/87 72/346/87 76/347/87 106/348/87
f 93/349/88 92/350/88 103/351/88 75/352/88
f 100/353/89 99/354/89 74/355/89 104/356/89
f 83/357/90 82/358/90 105/359/90 77/360/90
f 84/361/91 87/362/91 86/363/91 85/364/91
f 102/365/92 71/366/92 70/367/92 97/368/92
f 70/369/93 85/370/93 86/371/93 97/372/93
f 92/373/94 100/374/94 104/375/94 103/376/94
f 82/377/95 73/378/95 106/379/95 105/380/95
f 84/381/96 71/382/96 102/383/96 87/384/96
f 99/385/97 93/386/97 75/387/97 74/388/97
f 72/389/98 83/390/98 77/391/98 76/392/98
f 80/393/99 90/394/99 102/395/99 97/396/99
f 107/397/100 108/398/100 109/399/100 110/400/100
f 111/401/101 112/402/101 113/403/101 114/404/101
f 115/405/102 116/406/102 117/407/102 118/408/102
f 119/409/103 120/410/103 121/411/103 122/412/103
f 123/413/104 124/414/104 119/415/104 122/416/104
f 112/417/105 111/418/105 121/419/105 120/420/105
f 125/421/106 126/422/106 115/423/106 118/424/106
f 114/425/107 113/426/107 117/427/107 116/428/107
f 124/429/108 123/430/108 126/431/108 125/432/108
f 127/433/109 128/434/109 123/435/109 122/436/109
f 129/437/110 130/438/110 121/439/110 111/440/110
f 131/441/111 132/442/111 115/443/111 126/444/111
f 133/445/112 134/446/112 114/447/112 116/448/112
f 128/449/113 131/450/113 126/451/113 123/452/113
f 132/453/114 133/454/114 116/455/114 115/456/114
f 134/457/115 129/458/115 111/459/115 114/460/115
f 130/461/116 127/462/116 122/463/116 121/464/116
f 135/465/117 136/466/117 128/467/117 127/468/117
f 137/469/118 138/470/118 130/471/118 129/472/118
f 139/473/119 140/474/119 132/475/119 131/476/119
f 141/477/120 142/478/120 134/479/120 133/480/120
f 136/481/121 139/482/121 131/483/121 128/484/121
f 140/485/122 141/486/122 133/487/122 132/488/122
f 142/489/123 137/490/123 129/491/123 134/492/123
f 138/493/124 135/494/124 127/495/124 130/496/124
f 107/497/125 136/498/125 135/499/125
f 108/500/126 138/501/126 137/502/126
f 110/503/127 140/504/127 139/505/127
f 109/506/128 142/507/128 141/508/128
f 107/509/129 110/510/129 139/511/129 136/512/129
f 110/513/130 109/514/130 141/515/130 140/516/130
f 109/517/131 108/518/131 137/519/131 142/520/131
f 108/521/132 107/522/132 135/523/132 138/524/132
f 143/525/133 144/526/133 145/527/133 146/528/133
f 147/529/134 148/530/134 149/531/134 150/532/134
f 151/533/135 152/534/135 153/535/135 154/536/135
f 155/537/136 156/538/136 157/539/136 158/540/136
f 159/541/137 160/542/137 161/543/137 154/544/137
f 162/545/138 161/546/138 163/547/138 164/548/138
f 158/549/139 143/550/139 146/551/139 155/552/139
f 165/553/140 166/554/140 167/555/140 168/556/140
f 169/557/141 163/558/141 153/559/141 152/560/141
f 161/561/142 154/562/142 153/563/142 163/564/142
f 170/565/143 159/566/143 154/567/143 153/568/143
f 171/569/144 172/570/144 173/571/144 174/572/144
f 172/573/145 171/574/145 167/575/145 166/576/145
f 160/577/146 175/578/146 163/579/146 161/580/146
f 176/581/147 177/582/147 178/583/147 179/584/147
f 177/585/148 147/586/148 150/587/148 178/588/148
f 154/589/149 161/590/149 162/591/149 151/592/149
f 173/593/150 165/594/150 168/595/150 174/596/150
f 157/597/151 156/598/151 145/599/151 144/600/151
f 179/601/152 149/602/152 148/603/152 176/604/152
f 146/605/153 145/606/153 149/607/153 179/608/153
f 166/609/154 165/610/154 176/611/154 148/612/154
f 173/613/155 172/614/155 147/615/155 177/616/155
f 156/617/156 155/618/156 178/619/156 150/620/156
f 157/621/157 160/622/157 159/623/157 158/624/157
f 175/625/158 144/626/158 143/627/158 170/628/158
f 143/629/159 158/630/159 159/631/159 170/632/159
f 165/633/160 173/634/160 177/635/160 176/636/160
f 155/637/161 146/638/161 179/639/161 178/640/161
f 157/641/162 144/642/162 175/643/162 160/644/162
f 172/645/163 166/646/163 148/647/163 147/648/163
f 145/649/164 156/650/164 150/651/164 149/652/164
f 153/653/165 163/654/165 175/655/165 170/656/165
f 180/657/166 181/658/166 182/659/166 183/660/166
f 184/661/167 185/662/167 186/663/167 187/664/167
f 188/665/168 189/666/168 190/667/168 191/668/168
f 192/669/169 193/670/169 194/671/169 195/672/169
f 196/673/170 197/674/170 192/675/170 195/676/170
f 185/677/171 184/678/171 194/679/171 193/680/171
f 198/681/172 199/682/172 188/683/172 191/684/172
f 187/685/173 186/686/173 190/687/173 189/688/173
f 197/689/174 196/690/174 199/691/174 198/692/174
f 200/693/175 201/694/175 196/695/175 195/696/175
f 202/697/176 203/698/176 194/699/176 184/700/176
f 204/701/177 205/702/177 188/703/177 199/704/177
f 206/705/178 207/706/178 187/707/178 189/708/178
f 201/709/179 204/710/179 199/711/179 196/712/179
f 205/713/180 206/714/180 189/715/180 188/716/180
f 207/717/181 202/718/181 184/719/181 187/720/181
f 203/721/182 200/722/182 195/723/182 194/724/182
f 208/725/183 209/726/183 201/727/183 200/728/183
f 210/729/184 211/730/184 203/731/184 202/732/184
f 212/733/185 213/734/185 205/735/185 204/736/185
f 214/737/186 215/738/186 207/739/186 206/740/186
f 209/741/187 212/742/187 204/743/187 201/744/187
f 213/745/188 214/746/188 206/747/188 205/748/188
f 215/749/189 210/750/189 202/751/189 207/752/189
f 211/753/190 208/754/190 200/755/190 203/756/190
f 180/757/191 209/758/191 208/759/191
f 181/760/192 211/761/192 210/762/192
f 183/763/193 213/764/193 212/765/193
f 182/766/194 215/767/194 214/768/194
f 180/769/195 183/770/195 212/771/195 209/772/195
f 183/773/196 182/774/196 214/775/196 213/776/196
f 182/777/197 181/778/197 210/779/197 215/780/197
f 181/781/198 180/782/198 208/783/198 211/784/198
f 216/785/199 217/786/199 218/787/199 219/788/199
f 220/789/200 221/790/200 222/791/200 223/792/200
f 224/793/201 225/794/201 226/795/201 227/796/201
f 228/797/202 229/798/202 230/799/202 231/800/202
f 232/801/203 233/802/203 234/803/203 227/804/203
f 235/805/204 234/806/204 236/807/204 237/808/204
f 231/809/205 216/810/205 219/811/205 228/812/205
f 238/813/206 239/814/206 240/815/206 241/816/206
f 242/817/207 236/818/207 226/819/207 225/820/207
f 234/821/208 227/822/208 226/823/208 236/824/208
f 243/825/209 232/826/209 227/827/209 226/828/209
f 244/829/210 245/830/210 246/831/210 247/832/210
f 245/833/211 244/834/211 240/835/211 239/836/211
f 233/837/212 248/838/212 236/839/212 234/840/212
f 249/841/213 250/842/213 251/843/213 252/844/213
f 250/845/214 220/846/214 223/847/214 251/848/214
f 227/849/215 234/850/215 235/851/215 224/852/215
f 246/853/216 238/854/216 241/855/216 247/856/216
f 230/857/217 229/858/217 218/859/217 217/860/217
f 252/861/218 222/862/218 221/863/218 249/864/218
f 219/865/219 218/866/219 222/867/219 252/868/219
f 239/869/220 238/870/220 249/871/220 221/872/220
f 246/873/221 245/874/221 220/875/221 250/876/221
f 229/877/222 228/878/222 251/879/222 223/880/222
f 230/881/223 233/882/223 232/883/223 231/884/223
f 248/885/224 217/886/224 216/887/224 243/888/224
f 216/889/225 231/890/225 232/891/225 243/892/225
f 238/893/226 246/894/226 250/895/226 249/896/226
f 228/897/227 219/898/227 252/899/227 251/900/227
f 230/901/228 217/902/228 248/903/228 233/904/228
f 245/905/229 239/906/229 221/907/229 220/908/229
f 218/909/230 229/910/230 223/911/230 222/912/230
f 226/913/231 236/914/231 248/915/231 243/916/231
f 253/917/232 254/918/232 255/919/232 256/920/232
f 257/921/233 258/922/233 259/923/233 260/924/233
f 261/925/234 262/926/234 263/927/234 264/928/234
f 265/929/235 266/930/235 267/931/235 268/932/235
f 269/933/236 270/934/236 265/935/236 268/936/236
f 258/937/237 257/938/237 267/939/237 266/940/237
f 271/941/238 272/942/238 261/943/238 264/944/238
f 260/945/239 259/946/239 263/947/239 262/948/239
f 270/949/240 269/950/240 272/951/240 271/952/240
f 273/953/241 274/954/241 269/955/241 268/956/241
f 275/957/242 276/958/242 267/959/242 257/960/242
f 277/961/243 278/962/243 261/963/243 272/964/243
f 279/965/244 280/966/244 260/967/244 262/968/244
f 274/969/245 277/970/245 272/971/245 269/972/245
f 278/973/246 279/974/246 262/975/246 261/976/246
f 280/977/247 275/978/247 257/979/247 260/980/247
f 276/981/248 273/982/248 268/983/248 267/984/248
f 281/985/249 282/986/249 274/987/249 273/988/249
f 283/989/250 284/990/250 276/991/250 275/992/250
f 285/993/251 286/994/251 278/995/251 277/996/251
f 287/997/252 288/998/252 280/999/252 279/1000/252
f 282/1001/253 285/1002/253 277/1003/253 274/1004/253
f 286/1005/254 287/1006/254 279/1007/254 278/1008/254
f 288/1009/255 283/1010/255 275/1011/255 280/1012/255
f 284/1013/256 281/1014/256 273/1015/256 276/1016/256
f 253/1017/257 282/1018/257 281/1019/257
f 254/1020/258 284/1021/258 283/1022/258
f 256/1023/259 286/1024/259 285/1025/259
f 255/1026/260 288/1027/260 287/1028/260
f 253/1029/261 256/1030/261 285/1031/261 282/1032/261
f 256/1033/262 255/1034/262 287/1035/262 286/1036/262
f 255/1037/263 254/1038/263 283/1039/263 288/1040/263
f 254/1041/264 253/1042/264 281/1043/264 284/1044/264
f 289/1045/265 290/1046/265 291/1047/265 292/1048/265
f 293/1049/266 294/1050/266 295/1051/266 296/1052/266
f 297/1053/267 298/1054/267 299/1055/267 300/1056/267
f 301/1057/268 302/1058/268 303/1059/268 304/1060/268
f 305/1061/269 306/1062/269 307/1063/269 300/1064/269
f 308/1065/270 307/1066/270 309/1067/270 310/1068/270
f 304/1069/271 289/1070/271 292/1071/271 301/1072/271
f 311/1073/272 312/1074/272 313/1075/272 314/1076/272
f 315/1077/273 309/1078/273 299/1079/273 298/1080/273
f 307/1081/274 300/1082/274 299/1083/274 309/1084/274
f 316/1085/275 305/1086/275 300/1087/275 299/1088/275
f 317/1089/276 318/1090/276 1/1091/276 319/1092/276
f 318/1093/277 317/1094/277 313/1095/277 312/1096/277
f 306/1097/278 320/1098/278 309/1099/278 307/1100/278
f 321/1101/279 322/1102/279 323/1103/279 324/1104/279
f 322/1105/280 293/1106/280 296/1107/280 323/1108/280
f 300/1109/281 307/1110/281 308/1111/281 297/1112/281
f 1/1113/282 311/1114/282 314/1115/282 319/1116/282
f 303/1117/283 302/1118/283 291/1119/283 290/1120/283
f 324/1121/284 295/1122/284 294/1123/284 321/1124/284
f 292/1125/285 291/1126/285 295/1127/285 324/1128/285
f 312/1129/286 311/1130/286 321/1131/286 294/1132/286
f 1/1133/287 318/1134/287 293/1135/287 322/1136/287
f 302/1137/288 301/1138/288 323/1139/288 296/1140/288
f 303/1141/289 306/1142/289 305/1143/289 304/1144/289
f 320/1145/290 290/1146/290 289/1147/290 316/1148/290
f 289/1149/291 304/1150/291 305/1151/291 316/1152/291
f 311/1153/292 1/1154/292 322/1155/292 321/1156/292
f 301/1157/293 292/1158/293 324/1159/293 323/1160/293
f 303/1161/294 290/1162/294 320/1163/294 306/1164/294
f 318/1165/295 312/1166/295 294/1167/295 293/1168/295
f 291/1169/296 302/1170/296 296/1171/296 295/1172/296
f 299/1173/297 309/1174/297 320/1175/297 316/1176/297
f 325/1177/298 326/1178/298 327/1179/298 328/1180/298
f 329/1181/299 330/1182/299 331/1183/299 332/1184/299
f 333/1185/300 334/1186/300 335/1187/300 336/1188/300
f 337/1189/301 338/1190/301 339/1191/301 340/1192/301
f 341/1193/302 342/1194/302 337/1195/302 340/1196/302
f 330/1197/303 329/1198/303 339/1199/303 338/1200/303
f 343/1201/304 344/1202/304 333/1203/304 336/1204/304
f 332/1205/305 331/1206/305 335/1207/305 334/1208/305
f 342/1209/306 341/1210/306 344/1211/306 343/1212/306
f 345/1213/307 346/1214/307 341/1215/307 340/1216/307
f 347/1217/308 348/1218/308 339/1219/308 329/1220/308
f 349/1221/309 350/1222/309 333/1223/309 344/1224/309
f 351/1225/310 352/1226/310 332/1227/310 334/1228/310
f 346/1229/311 349/1230/311 344/1231/311 341/1232/311
f 350/1233/312 351/1234/312 334/1235/312 333/1236/312
f 352/1237/313 347/1238/313 329/1239/313 332/1240/313
f 348/1241/314 345/1242/314 340/1243/314 339/1244/314
f 353/1245/315 354/1246/315 346/1247/315 345/1248/315
f 355/1249/316 356/1250/316 348/1251/316 347/1252/316
f 357/1253/317 358/1254/317 350/1255/317 349/1256/317
f 359/1257/318 360/1258/318 352/1259/318 351/1260/318
f 354/1261/319 357/1262/319 349/1263/319 346/1264/319
f 358/1265/320 359/1266/320 351/1267/320 350/1268/320
f 360/1269/321 355/1270/321 347/1271/321 352/1272/321
f 356/1273/322 353/1274/322 345/1275/322 348/1276/322
f 325/1277/323 354/1278/323 353/1279/323
f 326/1280/324 356/1281/324 355/1282/324
f 328/1283/325 358/1284/325 357/1285/325
f 327/1286/326 360/1287/326 359/1288/326
f 325/1289/327 328/1290/327 357/1291/327 354/1292/327
f 328/1293/328 327/1294/328 359/1295/328 358/1296/328
f 327/1297/329 326/1298/329 355/1299/329 360/1300/329
f 326/1301/330 325/1302/330 353/1303/330 356/1304/330